<?xml version="1.0" standalone="no"?>
<!DOCTYPE svg PUBLIC "-//W3C//DTD SVG 20010904//EN"
 "http://www.w3.org/TR/2001/REC-SVG-20010904/DTD/svg10.dtd">
<svg version="1.0" xmlns="http://www.w3.org/2000/svg"
 width="900.000000pt" height="1630.000000pt" viewBox="0 0 900.000000 1630.000000"
 preserveAspectRatio="xMidYMid meet">
<metadata>
Created by potrace 1.16, written by Peter Selinger 2001-2019
</metadata>
<g transform="translate(0.000000,1630.000000) scale(0.100000,-0.100000)"
fill="#000000" stroke="none">
<path d="M4300 15874 c-6 -14 -10 -33 -10 -42 0 -9 -12 -60 -26 -112 -27 -100
-74 -211 -125 -295 l-30 -50 -147 -1 c-81 0 -176 -6 -212 -13 l-65 -11 -28 32
c-64 74 -131 239 -165 408 -26 130 -43 132 -72 8 -47 -199 -181 -1084 -184
-1208 0 -36 5 -112 13 -170 23 -174 -2 -546 -42 -629 -11 -24 -25 -28 -212
-65 l-200 -38 -80 16 c-160 32 -276 16 -430 -62 -96 -48 -174 -102 -253 -176
-37 -34 -113 -92 -168 -129 -178 -117 -278 -250 -322 -425 l-19 -72 -86 -44
c-107 -53 -174 -104 -272 -207 -120 -126 -227 -305 -270 -453 -16 -56 -40 -91
-229 -346 -149 -199 -159 -223 -154 -326 4 -67 10 -94 36 -147 38 -76 101
-150 169 -197 34 -24 83 -81 168 -198 66 -91 121 -170 123 -177 4 -17 -109
-103 -320 -244 -93 -61 -168 -117 -168 -125 0 -37 103 -65 273 -74 l122 -7
-64 -35 c-130 -71 -93 -82 294 -88 l300 -4 -58 -30 c-41 -20 -57 -34 -55 -46
7 -36 172 -72 334 -72 65 0 84 -3 84 -14 0 -46 -152 -445 -214 -561 -24 -44
-82 -153 -130 -243 -239 -446 -382 -833 -446 -1207 -97 -569 -71 -1268 66
-1740 33 -111 136 -381 220 -577 64 -147 64 -147 58 -220 -8 -96 11 -449 36
-674 27 -235 60 -444 126 -804 71 -384 71 -393 44 -570 -18 -113 -23 -190 -24
-350 l-1 -205 -97 -176 c-140 -256 -152 -286 -145 -384 15 -213 120 -411 255
-477 57 -27 171 -36 256 -18 173 36 353 186 477 398 37 62 39 72 39 147 0 54
-13 144 -41 280 -47 231 -47 252 1 500 38 192 38 241 0 345 -90 245 -93 404
-11 721 27 106 93 305 105 317 3 2 40 -28 83 -68 394 -370 568 -525 590 -528
29 -4 53 14 53 39 0 11 -103 225 -228 477 l-229 457 73 150 c40 83 81 171 91
198 9 26 20 47 23 47 4 0 12 -11 18 -26 50 -108 704 -1058 738 -1071 9 -3 26
-1 40 5 18 9 24 19 24 42 0 16 -25 204 -55 417 -30 213 -53 388 -52 390 2 1
64 -73 138 -165 569 -708 580 -722 609 -722 51 0 52 8 35 261 -21 318 -29 695
-14 654 7 -16 59 -151 116 -300 220 -569 275 -796 275 -1140 0 -213 -17 -325
-89 -605 -79 -308 -84 -335 -85 -440 0 -102 23 -233 50 -290 42 -85 149 -116
459 -128 l171 -7 104 -101 c114 -111 202 -168 325 -213 143 -53 235 -65 468
-66 191 0 216 2 283 23 140 44 211 144 170 239 -47 109 -148 222 -343 383
-249 205 -395 389 -591 740 -39 69 -56 113 -64 160 -19 120 -11 547 21 1140
23 422 31 677 33 957 l1 382 22 -37 c99 -162 185 -502 170 -665 -7 -79 -65
-370 -128 -650 -27 -119 -49 -225 -49 -233 0 -14 9 -16 63 -12 200 16 414 251
581 639 25 58 74 187 110 286 110 309 200 500 323 687 203 306 414 408 630
305 172 -82 379 -362 554 -749 147 -326 334 -866 430 -1243 24 -96 32 -107 70
-107 37 0 40 9 68 165 175 997 92 1968 -230 2705 -152 346 -343 627 -603 885
-202 202 -398 348 -660 494 -188 105 -294 192 -460 381 -284 322 -537 726
-705 1126 -53 128 -126 333 -120 338 2 1 59 22 127 45 251 85 642 275 642 312
0 6 -21 19 -46 30 l-45 21 151 73 c296 145 390 227 293 254 -21 6 -96 11 -168
11 l-130 1 81 33 c218 89 278 148 196 190 -37 19 -203 53 -304 62 -43 4 -78 8
-78 10 0 1 27 65 61 140 76 172 129 329 129 383 0 86 -171 359 -354 565 -40
45 -80 101 -90 125 -28 73 -81 144 -169 227 -74 71 -197 163 -240 180 -11 4
-17 18 -17 40 0 161 -120 347 -286 444 -43 25 -73 53 -113 107 -99 134 -200
193 -343 201 -74 4 -98 1 -152 -18 l-65 -23 -138 39 -138 39 2 108 c1 59 11
201 22 315 31 318 44 519 38 607 -9 139 -76 764 -97 909 -20 140 -57 333 -66
348 -10 15 -25 8 -34 -18z m-790 -604 c21 -83 79 -225 88 -216 2 3 -12 65 -31
138 -19 73 -38 149 -41 168 -5 32 -3 31 25 -21 17 -31 47 -72 67 -92 l37 -35
75 14 c45 8 148 14 257 14 l182 1 19 27 c34 48 63 112 96 215 l33 100 7 -47
c8 -49 -17 -194 -53 -312 -12 -41 -15 -67 -9 -78 16 -29 45 -121 53 -167 l7
-44 -37 43 c-99 114 -317 148 -472 72 -166 -82 -276 -276 -244 -431 7 -30 27
-83 46 -119 19 -35 35 -69 35 -75 0 -20 -57 -67 -76 -63 -28 5 -29 -36 -4
-176 14 -84 20 -151 18 -220 l-3 -99 -45 34 c-73 57 -83 82 -91 243 -7 142
-15 182 -41 204 -13 10 -13 3 -2 -51 7 -34 17 -128 22 -208 8 -138 11 -150 45
-220 19 -41 70 -122 112 -179 43 -58 104 -159 137 -225 52 -105 134 -233 143
-223 1 2 -6 44 -16 93 -10 50 -19 105 -19 124 0 28 3 32 18 26 49 -21 155 -46
218 -52 l71 -6 -12 -41 c-18 -60 -28 -163 -17 -170 5 -3 12 13 16 35 4 23 28
98 55 168 27 69 55 146 62 171 7 25 28 62 47 84 l34 39 -7 -64 c-3 -35 -13
-104 -21 -153 -17 -99 -13 -147 16 -194 28 -46 40 -39 22 11 -12 35 -13 53 -3
112 7 39 15 76 19 82 6 9 45 2 147 -23 76 -20 145 -39 152 -43 9 -5 -10 -22
-60 -54 -99 -63 -118 -85 -49 -58 48 19 156 73 247 124 63 34 168 36 239 4 49
-23 162 -114 153 -124 -2 -2 -33 4 -67 13 -46 11 -92 15 -164 12 -95 -4 -110
-8 -243 -61 -176 -70 -192 -74 -331 -87 -129 -12 -172 -26 -222 -74 -42 -40
-71 -56 -101 -56 -12 0 -90 29 -173 64 -184 77 -190 79 -346 110 -140 28 -288
49 -492 70 -130 14 -139 16 -190 51 -74 50 -162 75 -262 75 -44 -1 -97 -7
-116 -14 -29 -10 -41 -10 -65 0 -35 15 -153 17 -210 4 -22 -5 -40 -8 -41 -7
-7 7 139 109 201 140 160 81 244 72 412 -40 53 -35 128 -79 167 -98 69 -33
193 -71 202 -62 2 2 -19 16 -48 31 -29 15 -101 57 -160 94 -83 52 -103 69 -89
74 11 3 110 30 222 59 112 28 208 55 212 59 11 10 42 148 64 285 21 134 24
443 5 523 -10 44 -9 85 3 230 17 191 52 476 87 717 l22 150 17 -120 c10 -66
27 -158 39 -205z m865 -286 c8 -137 15 -271 15 -299 l0 -49 -38 37 c-51 50
-70 48 -107 -14 -37 -63 -99 -121 -120 -113 -11 5 -15 0 -13 -17 3 -22 -1 -24
-44 -27 -38 -2 -48 0 -48 12 0 12 -5 14 -26 6 -36 -14 -51 -3 -139 100 -42 49
-85 92 -95 95 -22 7 -57 -6 -110 -41 -22 -15 -42 -25 -45 -22 -3 2 0 30 5 62
26 163 136 283 304 331 121 35 251 -5 368 -113 l61 -57 -5 93 c-4 72 -11 104
-31 144 l-26 52 32 105 32 105 7 -70 c4 -39 14 -182 23 -320z m-3 -392 c20
-32 21 -43 14 -191 -9 -204 -39 -469 -56 -484 -10 -10 -11 -5 -4 23 9 41 10
347 1 356 -3 4 -32 -14 -64 -39 -39 -32 -60 -42 -64 -34 -8 14 -31 169 -26
173 2 2 20 -2 40 -8 44 -13 78 -2 102 35 16 25 33 127 21 127 -13 0 -145 -70
-151 -80 -10 -17 -35 -11 -35 8 0 10 13 25 29 35 16 9 50 48 77 87 l48 70 23
-22 c14 -13 34 -38 45 -56z m-553 -16 c39 -47 80 -88 92 -91 11 -4 19 -9 16
-11 -2 -2 -50 12 -107 31 -57 19 -105 35 -107 35 -6 0 9 -55 27 -97 21 -47 61
-73 114 -73 37 0 71 31 82 76 5 20 31 40 40 31 2 -2 -20 -58 -49 -126 l-52
-122 -35 7 c-41 7 -166 57 -198 80 l-23 15 24 28 c13 16 29 42 36 60 12 28 11
35 -11 69 -29 45 -48 88 -48 107 0 20 70 65 101 65 21 0 42 -17 98 -84z m74
-136 c4 -3 -1 -14 -12 -24 -26 -24 -74 -13 -101 21 -36 47 -26 54 43 31 34
-11 65 -24 70 -28z m407 31 c0 -28 -27 -51 -60 -51 -44 0 -45 16 -3 44 45 31
63 33 63 7z m-159 -126 c29 -162 30 -151 -19 -181 l-43 -26 5 24 c3 13 8 59
11 103 3 44 8 103 11 132 5 45 4 52 -15 58 -11 3 -30 1 -42 -5 -21 -12 -21
-16 -15 -124 4 -61 9 -125 12 -142 l6 -31 -59 28 c-32 16 -64 29 -70 29 -20 0
-16 18 35 140 l48 115 54 5 c30 3 56 3 57 0 1 -3 12 -59 24 -125z m-481 -85
c25 -13 126 -54 224 -91 l179 -68 71 36 c39 19 95 53 125 76 l54 40 -5 -159
c-9 -262 -42 -350 -153 -419 -44 -27 -56 -30 -134 -30 -108 1 -150 19 -299
130 l-107 80 3 100 c2 64 -2 133 -13 190 -9 50 -19 108 -22 130 -6 39 -5 39
13 24 10 -9 39 -27 64 -39z m74 -573 c39 -27 95 -69 125 -91 50 -37 60 -41
125 -44 51 -3 89 2 136 17 35 11 65 19 67 17 2 -1 -5 -27 -15 -57 l-17 -54
-63 -3 c-68 -3 -158 16 -224 48 -23 11 -45 20 -49 20 -4 0 -10 -25 -14 -56
l-7 -57 -50 94 c-43 80 -98 168 -158 252 -12 17 -8 16 29 -7 24 -15 76 -51
115 -79z m-981 -325 c76 -35 158 -112 204 -190 23 -38 29 -43 31 -26 2 12 -6
47 -16 79 l-20 57 27 -5 c14 -3 105 -17 201 -32 415 -63 470 -74 590 -122 163
-64 227 -83 289 -83 50 0 59 4 125 55 l71 54 130 16 c173 20 209 29 354 88
103 41 138 50 205 54 228 14 469 -129 564 -336 29 -63 51 -196 36 -211 -20
-20 -61 26 -74 82 -16 67 -24 82 -72 140 -41 49 -140 129 -193 154 -24 12 -21
8 15 -22 79 -65 157 -152 179 -197 13 -26 21 -63 21 -93 0 -70 16 -94 75 -114
149 -51 295 -138 381 -227 41 -42 64 -81 109 -181 55 -123 86 -176 70 -122 -7
23 -5 23 30 -10 75 -71 235 -284 324 -432 l22 -37 -81 -173 c-44 -95 -104
-217 -133 -270 l-53 -97 1 97 c1 93 2 99 33 141 52 71 74 143 80 259 4 81 1
111 -12 147 -10 25 -21 47 -24 49 -4 2 -6 -30 -4 -71 5 -99 -19 -204 -70 -304
l-40 -80 -42 39 c-24 22 -62 50 -84 63 l-42 24 0 62 c0 34 -4 64 -8 67 -5 3
-18 -15 -31 -41 -16 -34 -26 -44 -39 -40 -9 3 -55 20 -102 37 -56 21 -106 32
-146 33 -50 2 -60 5 -51 15 16 20 57 39 155 73 48 17 104 42 125 55 46 30 97
107 97 146 0 33 -3 34 -40 8 -53 -38 -195 -100 -275 -120 -98 -25 -226 -35
-328 -26 l-77 8 0 47 c0 26 -9 83 -20 127 l-20 79 20 47 c77 179 66 388 -30
580 -81 163 -202 297 -315 350 -36 17 -68 28 -70 26 -3 -3 25 -31 61 -63 139
-123 252 -303 289 -462 17 -70 17 -72 -4 -101 -70 -99 -235 -201 -383 -237
l-73 -18 108 -23 c125 -26 161 -37 239 -71 l56 -25 12 -61 c7 -34 14 -111 17
-172 4 -95 2 -119 -16 -174 -26 -74 -84 -193 -142 -288 l-42 -68 -2 -225 c-1
-124 -8 -270 -14 -325 -22 -183 -22 -184 -61 -145 -22 22 -70 26 -102 9 -19
-10 -20 -9 -13 7 35 82 48 139 53 237 4 100 3 110 -17 138 l-22 29 39 53 c59
80 89 137 117 220 33 101 33 166 -1 206 -46 56 -114 59 -165 9 -58 -59 -120
-224 -135 -360 -3 -35 -12 -68 -20 -74 -13 -10 -12 -22 5 -85 11 -41 23 -99
26 -130 6 -50 -7 -217 -21 -261 -7 -25 -55 -23 -77 2 -15 18 -29 20 -126 20
-61 0 -112 4 -115 9 -4 5 1 35 9 67 18 71 19 146 1 197 -17 46 -47 82 -56 67
-4 -6 -5 -82 -2 -170 l5 -159 -177 -3 c-157 -3 -179 -5 -187 -20 -9 -16 -26
-18 -137 -18 -167 1 -172 4 -172 122 0 72 16 210 35 303 5 24 0 38 -24 69 -37
47 -40 75 -8 78 12 0 28 2 36 2 17 1 28 26 12 26 -19 0 -12 15 11 25 15 7 26
25 33 54 9 37 16 46 39 52 38 11 73 45 160 159 98 127 160 224 146 228 -6 2
-59 -28 -118 -67 -59 -38 -141 -86 -182 -105 -41 -19 -86 -46 -99 -60 -14 -14
-29 -26 -34 -26 -5 0 -23 -10 -40 -22 -26 -19 -44 -23 -99 -22 -38 1 -68 0
-68 -1 0 -2 16 -32 36 -67 l35 -63 -70 70 c-41 40 -71 63 -71 54 0 -28 60
-107 130 -172 39 -36 72 -76 76 -91 3 -15 21 -43 39 -62 l33 -35 -28 -77 c-34
-94 -54 -217 -45 -282 6 -47 5 -49 -19 -56 -14 -3 -30 -12 -37 -20 -9 -11 -19
2 -49 64 -21 42 -50 95 -64 117 -21 33 -25 36 -26 18 0 -13 14 -65 30 -116 17
-52 30 -97 30 -101 0 -3 -38 -6 -85 -6 l-85 0 0 48 c-1 73 -31 129 -82 151
-173 75 -241 101 -260 101 -17 0 -30 13 -50 49 -29 52 -74 81 -127 81 -24 0
-31 4 -31 19 0 75 -73 178 -200 281 -162 130 -228 226 -270 389 -12 47 -28 97
-35 112 -13 23 -12 29 0 39 31 26 140 197 185 293 56 116 87 222 97 320 3 37
9 67 14 67 9 0 113 -23 117 -26 2 -1 -26 -41 -61 -90 l-64 -87 43 -60 c24 -32
44 -67 44 -76 0 -9 -11 -34 -24 -56 -15 -25 -21 -44 -15 -51 6 -7 -1 -9 -24
-7 l-32 4 45 -41 45 -41 -49 30 c-27 17 -52 28 -55 26 -14 -15 152 -155 183
-155 22 0 20 10 -10 41 l-26 27 58 -29 c57 -29 77 -31 56 -6 -9 11 2 26 54 72
l65 58 37 -36 c68 -64 141 -87 281 -87 l94 0 -47 32 c-27 17 -71 52 -98 77
l-50 46 159 0 c116 0 181 5 243 19 105 23 282 74 294 86 25 25 -119 57 -314
70 -85 6 -186 15 -225 21 -138 20 -263 77 -365 167 l-50 44 56 61 c31 34 61
72 67 84 5 13 18 25 29 29 32 10 9 22 -27 14 -20 -4 -44 -6 -54 -3 -10 2 -35
0 -55 -6 -32 -8 -36 -8 -25 5 9 12 7 14 -15 14 -17 0 -25 4 -20 11 4 7 0 9
-12 6 -11 -4 -72 -22 -137 -42 -65 -19 -124 -35 -131 -35 -33 0 -46 -28 -71
-150 -33 -165 -56 -233 -123 -365 -51 -100 -66 -120 -172 -226 -129 -129 -298
-269 -325 -269 -13 0 -1 18 42 63 62 65 99 114 91 122 -3 3 -23 -1 -44 -9 -22
-7 -89 -24 -148 -37 l-108 -23 -30 35 c-69 81 -69 76 -9 130 29 27 49 49 45
49 -9 0 -130 -72 -158 -94 -24 -19 -17 -48 28 -115 l35 -51 -57 -1 c-116 -1
-105 -12 75 -75 l171 -59 -18 -45 c-21 -52 -89 -202 -94 -208 -6 -5 -80 34
-152 79 -69 44 -90 48 -99 19 -15 -48 83 -127 181 -146 19 -3 34 -11 34 -16 0
-16 -78 -129 -118 -171 l-36 -37 -89 87 c-105 105 -127 137 -148 223 l-16 65
-37 0 c-41 0 -74 29 -111 100 -18 32 -18 34 8 87 14 29 53 85 85 123 59 70 59
70 71 164 26 207 82 308 295 530 71 73 71 74 28 50 -155 -85 -338 -312 -372
-462 -5 -24 -14 -82 -19 -128 -10 -84 -10 -84 -64 -140 -57 -59 -125 -164
-134 -209 -7 -37 18 -86 77 -150 42 -45 53 -52 78 -48 28 4 30 2 41 -48 10
-45 22 -61 89 -127 42 -41 98 -93 124 -115 l48 -41 -26 -20 c-59 -46 -54 -49
-287 132 -71 54 -130 97 -133 95 -13 -14 134 -179 219 -247 57 -46 63 -61 24
-61 -27 0 -132 105 -205 205 -31 44 -73 86 -108 110 -68 47 -136 135 -154 199
-20 72 -9 128 41 202 l44 64 11 -78 c11 -75 30 -130 41 -118 3 3 5 50 4 104
-3 127 13 169 108 292 84 109 95 128 123 218 78 254 284 500 492 587 l36 15
-10 -26 c-15 -39 -13 -44 16 -34 35 14 35 13 28 -15 -6 -23 -3 -25 25 -25 24
0 31 -4 31 -20 0 -39 39 -20 124 61 47 45 86 85 86 90 0 5 -24 -3 -52 -18 -29
-15 -57 -30 -62 -32 -4 -2 13 23 38 55 45 58 47 79 3 52 -12 -8 -40 -25 -62
-38 l-40 -24 53 58 c29 32 50 61 48 64 -3 3 -24 -7 -46 -22 -22 -14 -42 -26
-45 -26 -3 0 8 19 25 42 37 50 37 57 3 50 -25 -5 -26 -3 -20 29 11 53 72 168
119 226 96 115 214 186 358 216 80 17 180 30 180 24 0 -2 -40 -34 -90 -71 -97
-72 -116 -93 -47 -51 73 45 180 98 237 117 41 13 78 17 150 15 83 -2 104 -7
163 -35z m-113 -737 c-10 -13 -9 -15 11 -15 13 0 31 4 39 10 9 6 17 5 22 -3 5
-9 16 -8 45 2 21 8 45 16 53 19 8 3 -15 -26 -52 -64 l-68 -69 20 -32 c27 -45
170 -156 254 -197 101 -49 150 -56 394 -57 211 -1 294 -8 262 -22 -68 -30
-536 -76 -627 -62 -32 5 -43 3 -43 -7 0 -19 69 -102 115 -139 l40 -32 -45 7
c-59 9 -163 58 -216 101 -23 19 -49 35 -56 35 -8 0 -38 -25 -68 -56 -85 -86
-82 -86 -155 -14 l-63 62 24 36 c13 19 24 45 24 56 0 18 -35 80 -74 131 -12
16 -8 24 59 119 36 51 52 83 46 89 -5 5 -43 17 -83 27 -41 10 -66 20 -58 24
43 17 187 65 199 65 11 1 11 -2 1 -14z m2515 -364 c-17 -70 -55 -148 -71 -143
-5 1 -46 15 -91 31 l-83 28 66 33 c40 20 90 56 127 94 72 71 79 65 52 -43z
m-1286 -713 c-56 -83 -181 -208 -208 -208 -16 0 -23 -10 -34 -47 -12 -41 -19
-50 -48 -59 -22 -8 -33 -17 -31 -28 2 -9 1 -16 -2 -16 -5 0 -136 178 -136 185
0 3 24 5 54 5 38 0 60 6 79 20 14 11 31 20 38 20 7 0 27 14 44 30 18 17 64 44
103 60 39 16 95 45 124 64 29 20 54 36 56 36 1 0 -16 -28 -39 -62z m1852 22
c69 -20 159 -58 159 -66 0 -16 -50 -99 -96 -162 l-55 -72 -25 17 -26 17 6 -35
7 -34 -21 28 c-30 38 -44 35 -37 -9 7 -43 32 -84 51 -84 22 0 192 183 226 244
18 31 35 56 40 56 14 0 99 -81 120 -116 l22 -35 -27 -87 c-74 -240 -247 -486
-557 -794 -98 -97 -178 -181 -178 -187 0 -5 5 -11 12 -13 17 -6 -65 -147 -120
-209 -45 -50 -139 -125 -148 -117 -2 3 -9 79 -14 169 -5 90 -12 199 -14 242
-4 57 -2 77 7 77 19 -1 53 -32 76 -69 16 -28 21 -32 26 -18 16 41 -56 147
-100 147 -12 0 -15 17 -15 88 l1 87 89 -92 c50 -51 90 -86 90 -79 0 29 -65
140 -112 191 l-50 55 31 25 c42 36 123 140 159 205 35 64 61 146 91 281 26
113 60 189 130 284 28 38 51 73 51 77 0 22 103 16 201 -12z m-480 -170 c12
-166 11 -179 -8 -255 -12 -44 -32 -105 -46 -135 l-24 -55 -22 75 c-12 41 -35
114 -52 161 l-29 85 42 66 c24 35 59 106 78 156 19 50 38 87 42 84 4 -4 12
-86 19 -182z m-3116 70 c32 -47 78 -109 102 -139 43 -53 44 -55 37 -110 -14
-115 -13 -114 -82 -23 -34 45 -79 113 -102 150 -40 68 -40 68 -34 146 4 42 10
73 14 69 4 -4 33 -46 65 -93z m-301 -19 c49 -47 266 -320 266 -334 0 -3 -9 -3
-20 0 -11 3 -20 1 -20 -3 0 -5 89 -75 197 -156 154 -116 210 -152 260 -169 35
-11 77 -32 93 -46 23 -19 30 -21 30 -10 0 25 -20 70 -40 92 -18 20 -18 21 17
68 29 39 40 47 68 47 27 0 40 -9 80 -55 40 -47 52 -55 81 -55 23 0 51 -11 81
-32 26 -17 81 -46 122 -63 64 -27 76 -36 79 -57 3 -21 -8 -35 -53 -72 -31 -25
-61 -46 -66 -46 -5 0 -9 -5 -9 -11 0 -8 16 -10 51 -6 36 5 60 2 80 -9 26 -13
29 -20 29 -64 l0 -50 -70 -35 c-38 -19 -70 -39 -70 -44 0 -11 25 -21 55 -21
23 0 35 -17 35 -48 0 -28 -74 -123 -115 -147 -22 -13 -75 -34 -119 -47 l-79
-23 -15 23 c-11 17 -24 22 -56 22 -116 0 -151 14 -316 125 -166 110 -202 127
-550 255 -242 88 -353 144 -584 294 -103 66 -107 71 -83 79 21 7 38 1 94 -31
100 -58 250 -132 408 -200 148 -64 528 -212 544 -212 6 0 28 -18 49 -39 45
-46 104 -66 166 -56 64 11 74 21 30 29 -54 10 -139 50 -167 79 -14 13 -72 40
-133 62 -238 83 -767 328 -853 394 l-24 19 40 26 39 26 95 -44 c100 -47 290
-116 317 -116 9 0 -17 16 -58 36 -98 46 -300 157 -300 164 1 3 23 29 49 58
l49 53 93 -52 c111 -61 530 -269 544 -269 5 0 -64 42 -155 93 -254 142 -450
260 -450 270 0 7 20 40 46 75 1 2 33 -3 71 -11 37 -8 92 -18 121 -22 63 -8 67
2 21 64 -26 37 -34 42 -56 36 -19 -4 -32 0 -48 15 -20 19 -26 20 -46 10 -20
-11 -21 -10 -14 6 30 73 47 122 56 165 10 46 12 48 32 37 12 -6 48 -36 81 -67z
m3039 40 c14 -6 28 -18 31 -28 11 -35 -24 -138 -99 -290 -74 -151 -74 -152
-60 -187 19 -45 19 -174 0 -245 -21 -82 -65 -161 -88 -161 -16 0 -18 4 -12 23
41 128 42 230 4 351 -20 65 -20 69 -3 144 25 114 72 270 100 328 31 66 70 86
127 65z m1500 -456 c82 -14 152 -25 155 -25 14 -1 -98 -55 -278 -135 -235
-105 -240 -107 -240 -115 0 -4 60 -10 133 -14 292 -15 322 -18 295 -32 -33
-17 -434 -152 -592 -200 -154 -45 -153 -47 99 -64 94 -7 171 -13 173 -15 3 -3
-166 -68 -262 -100 -133 -45 -406 -104 -406 -88 0 1 76 80 169 175 190 195
375 396 495 540 44 54 88 98 96 98 8 0 82 -11 163 -25z m-5077 -378 c183 -106
572 -280 826 -370 65 -23 118 -45 118 -48 0 -10 -211 -66 -335 -89 -105 -19
-287 -41 -293 -35 -1 1 64 25 145 53 81 28 168 59 193 69 l44 20 -189 6 c-105
4 -293 7 -420 7 l-230 1 145 48 c143 47 257 97 246 108 -5 5 -633 -13 -736
-21 l-45 -4 29 22 c120 88 194 145 281 220 91 77 102 84 120 72 11 -7 56 -34
101 -59z m2275 -97 c4 -14 7 -134 8 -267 l1 -243 -24 -6 c-13 -3 -34 -1 -45 6
-20 10 -21 17 -21 269 0 142 3 261 7 265 4 4 21 6 37 4 22 -2 32 -9 37 -28z
m917 -268 l2 -272 -276 2 -277 3 -1 273 -1 272 275 -2 275 -3 3 -273z m353 18
c-2 -174 -7 -257 -15 -263 -6 -4 -24 -6 -41 -5 l-30 3 -3 220 c-2 121 0 239 3
263 l6 43 42 -3 42 -3 -4 -255z m-1473 213 l82 -6 -2 -221 -3 -221 -177 -3
-176 -2 30 72 c21 51 31 91 32 130 1 37 6 60 14 63 22 8 42 72 42 135 l0 60
38 0 c20 0 74 -3 120 -7z m1575 -145 c4 -83 7 -186 7 -230 l0 -78 -37 0 -36 0
6 128 c4 70 7 173 7 230 0 100 0 102 23 102 24 0 24 -1 30 -152z m-1063 -83
l0 -225 -115 0 -115 0 0 225 0 225 115 0 115 0 0 -225z m830 0 l0 -225 -85 0
-85 0 0 225 0 225 85 0 85 0 0 -225z m-2443 -367 c-8 -358 -48 -582 -227
-1293 -196 -778 -238 -1047 -227 -1454 6 -240 23 -382 77 -651 124 -614 418
-1393 784 -2078 48 -90 85 -166 82 -170 -12 -12 -225 218 -327 353 -58 77
-213 293 -344 480 -344 490 -435 611 -561 745 -102 108 -145 127 -189 84 -23
-24 -18 -33 23 -36 31 -3 40 -9 57 -40 l19 -37 -23 -72 -23 -73 -20 39 c-38
73 -99 236 -138 371 -165 566 -225 1405 -134 1902 45 250 194 640 427 1122 46
96 96 195 111 220 l27 45 -6 -175 c-7 -208 -4 -207 74 26 82 247 147 530 166
730 l7 70 61 17 c34 9 114 36 177 61 63 24 119 45 124 45 5 1 6 -99 3 -231z
m3403 -273 c184 -452 434 -842 729 -1136 147 -146 229 -210 447 -349 422 -269
709 -540 936 -884 301 -457 468 -1005 528 -1731 15 -186 24 -719 15 -860 -5
-66 -10 -111 -13 -100 -179 882 -413 1566 -699 2045 -106 177 -167 257 -418
550 -451 526 -704 849 -967 1235 -343 504 -600 999 -743 1430 -75 228 -73 209
-23 245 l42 30 56 -172 c32 -95 81 -231 110 -303z m-3169 375 l77 -39 -4 -43
c-2 -24 -8 -162 -15 -308 l-11 -265 -58 -120 c-150 -313 -216 -569 -304 -1185
-45 -316 -95 -599 -142 -805 -36 -159 -87 -345 -95 -345 -15 0 -21 311 -10
485 27 409 90 743 255 1353 120 442 166 765 166 1169 l0 196 33 -27 c17 -14
66 -44 108 -66z m1032 -77 c22 -3 47 0 66 10 19 9 76 18 151 22 108 7 120 6
120 -9 0 -34 46 -37 359 -30 274 6 304 9 308 24 4 14 21 19 83 24 112 9 124 2
69 -45 l-44 -38 35 -1 c71 -2 76 -12 25 -50 -49 -36 -49 -36 9 -54 18 -6 17
-9 -12 -39 -18 -18 -32 -36 -32 -39 0 -3 21 -11 46 -18 l45 -13 -40 -41 c-23
-23 -41 -45 -41 -48 0 -3 18 -9 40 -13 22 -4 40 -8 40 -11 0 -2 -19 -21 -42
-42 l-42 -40 56 -12 56 -13 -43 -70 c-38 -63 -41 -72 -27 -83 13 -10 1 -28
-90 -130 -58 -66 -148 -168 -200 -229 -124 -144 -241 -245 -346 -297 -70 -35
-94 -42 -160 -45 l-77 -5 -59 116 c-99 195 -165 289 -299 421 -85 84 -157 144
-237 197 -100 67 -271 158 -296 158 -14 0 -11 312 3 335 6 11 17 49 24 84 l12
64 121 -5 c67 -3 171 -2 231 1 97 5 113 4 131 -12 12 -10 37 -20 57 -24z
m1421 20 c18 -96 48 -317 50 -369 1 -54 -2 -66 -24 -89 -26 -29 -164 -135
-175 -135 -4 0 9 29 29 65 20 36 36 68 36 70 0 3 -18 5 -39 5 -52 0 -57 11
-21 45 17 16 30 32 30 36 0 4 -20 11 -45 15 -25 3 -45 10 -45 14 0 4 22 25 50
46 52 40 52 54 -2 54 -40 0 -41 13 -3 50 19 19 35 37 35 41 0 4 -21 14 -47 22
l-48 14 54 34 54 34 -37 6 c-20 3 -38 8 -41 11 -9 8 118 56 152 57 27 1 32 -3
37 -26z m-2044 -49 c0 -23 -10 -65 -22 -94 -20 -49 -21 -56 -8 -109 15 -66 24
-156 17 -175 -4 -11 -19 -10 -79 5 -40 10 -86 21 -101 24 -26 5 -27 8 -21 43
4 20 8 107 8 192 l1 155 103 0 102 0 0 -41z m2486 -55 c101 -383 306 -830 582
-1274 272 -435 569 -833 1132 -1510 250 -301 308 -376 383 -500 167 -277 324
-673 391 -990 4 -19 -8 -4 -34 43 -59 107 -189 296 -264 382 -93 106 -188 184
-285 233 -83 41 -86 42 -190 42 -99 0 -110 -2 -172 -32 -139 -68 -258 -184
-364 -354 -104 -168 -171 -318 -355 -794 -137 -354 -195 -472 -304 -614 -36
-47 -153 -147 -162 -138 -2 1 4 29 12 61 10 38 35 86 70 136 172 246 295 635
335 1063 15 162 7 538 -16 702 -58 432 -243 1101 -502 1820 -73 202 -87 233
-78 165 91 -656 115 -955 115 -1466 0 -290 -16 -664 -36 -832 l-6 -53 -61 93
c-51 79 -64 108 -84 193 -13 55 -32 121 -42 147 -18 43 -19 57 -9 143 11 108
-1 335 -28 495 -16 95 -16 97 10 212 90 401 97 804 21 1264 -59 353 -154 652
-300 944 l-65 130 0 95 c0 95 0 96 28 106 76 29 123 59 182 119 36 36 66 65
68 64 1 -1 14 -44 28 -95z m-2331 -495 c134 -65 254 -154 387 -287 l100 -100
-7 -81 c-4 -45 -20 -207 -36 -360 -16 -154 -27 -281 -25 -283 5 -6 46 147 71
273 13 61 28 169 35 240 7 71 13 130 15 132 4 5 91 -125 145 -216 l43 -73 -7
-84 c-16 -210 -85 -484 -169 -668 -48 -106 -189 -369 -194 -363 -2 2 3 54 11
115 21 147 32 363 19 384 -6 13 -22 -52 -58 -235 -83 -437 -112 -529 -208
-678 l-42 -64 -6 42 c-8 62 -15 60 -32 -10 -9 -39 -15 -53 -16 -35 -2 42 -14
32 -39 -30 l-22 -58 4 43 c6 58 -7 53 -28 -13 -9 -30 -19 -55 -22 -55 -3 0 -3
23 1 50 4 28 5 50 3 50 -3 0 -18 -32 -33 -70 -16 -39 -30 -68 -33 -66 -2 3 3
39 12 81 23 111 18 131 -11 47 -14 -40 -26 -72 -28 -70 -2 2 3 37 10 78 8 41
14 84 14 94 1 19 0 19 -21 -2 l-23 -21 0 147 c0 202 -17 226 -34 50 -29 -297
-85 -573 -126 -618 -11 -12 -25 -18 -36 -15 -23 8 -27 -1 -50 -96 -28 -117
-61 -169 -106 -169 -14 0 -23 -6 -23 -15 0 -27 56 -18 93 15 32 27 107 160
107 188 0 7 6 12 14 12 8 0 31 19 51 43 l36 42 -32 -90 c-37 -108 -60 -154
-106 -218 -55 -77 -5 -39 61 46 66 87 133 213 142 266 5 34 12 42 48 57 22 11
69 40 104 66 34 26 62 45 62 43 0 -2 -14 -43 -31 -92 -53 -151 -88 -210 -256
-444 -45 -64 -83 -121 -83 -128 0 -7 9 -9 26 -5 l25 7 -6 -124 c-14 -281 -54
-547 -111 -728 l-25 -83 -30 28 c-41 39 -140 180 -201 287 l-52 91 20 35 c11
20 62 107 113 194 51 87 91 160 88 163 -2 2 -28 -17 -58 -43 -30 -26 -61 -53
-70 -60 -14 -12 -13 -1 6 78 21 87 24 93 76 141 l54 49 -34 -5 c-19 -4 -51
-11 -72 -16 l-36 -10 -46 -173 c-26 -94 -52 -196 -59 -225 l-12 -53 -19 50
c-10 28 -24 51 -30 51 -7 0 -31 -11 -54 -24 l-42 -24 -15 46 c-34 103 -91 362
-174 792 -8 40 -6 49 19 86 16 23 53 90 84 150 l55 109 2 -75 c2 -41 3 -176 3
-300 0 -158 4 -238 13 -269 8 -24 17 -40 22 -35 4 5 11 137 14 294 4 157 12
340 19 408 l12 122 43 -49 42 -50 0 -93 c-1 -62 -6 -101 -15 -118 -14 -25 -20
-134 -9 -164 12 -30 24 -16 24 28 0 25 11 76 25 114 14 38 25 87 25 108 0 113
37 240 100 344 61 101 50 150 -37 160 -44 5 -50 9 -71 48 -19 34 -29 42 -52
42 -49 0 -54 23 -35 178 51 428 111 714 253 1205 l49 168 7 -62 c3 -34 6 -83
7 -108 0 -25 4 -55 8 -66 l8 -20 6 20 c19 63 87 570 87 650 0 91 -5 90 144 39
72 -25 181 -70 241 -100z m2015 -44 c169 -452 238 -711 272 -1030 18 -169 15
-592 -6 -781 -15 -139 -33 -239 -35 -199 -2 35 -96 208 -107 197 -2 -2 18 -71
46 -154 75 -228 103 -377 104 -553 1 -247 -44 -355 -180 -436 -16 -9 -19 -22
-17 -70 2 -62 62 -334 73 -334 4 0 12 17 18 38 6 20 31 91 56 157 l44 120 10
-40 c16 -56 39 -197 47 -280 l7 -70 -44 64 c-24 36 -48 66 -55 68 -6 2 -18
-20 -28 -54 -52 -177 -186 -373 -333 -484 -139 -105 -324 -168 -507 -172
l-100 -2 -13 40 c-44 131 -54 333 -26 528 14 94 116 533 128 544 1 2 16 -15
31 -37 24 -35 107 -113 142 -134 7 -3 -10 40 -37 96 -84 176 -147 389 -195
663 -19 111 -48 210 -139 480 -161 476 -209 674 -221 904 -8 144 -3 157 69
186 128 52 216 127 395 339 70 83 165 192 211 241 104 111 323 335 326 332 1
-1 30 -76 64 -167z m-1139 -1441 c16 -69 62 -217 100 -330 127 -367 137 -403
158 -533 26 -156 63 -305 97 -392 31 -75 34 -45 -46 -399 -88 -385 -94 -429
-95 -660 0 -110 -7 -322 -14 -470 -11 -215 -12 -315 -3 -489 7 -121 11 -221 9
-222 -5 -6 -169 219 -177 244 -15 43 -86 487 -114 707 -61 478 -61 488 -58
1293 1 409 -2 741 -6 738 -4 -2 -30 -48 -57 -101 -49 -95 -50 -96 -55 -64 -5
33 -7 31 -37 -46 -102 -266 -181 -607 -213 -925 -16 -157 -24 -454 -15 -545
l8 -80 18 55 17 55 0 -60 c0 -33 -3 -100 -7 -150 l-6 -90 -72 145 c-40 80 -73
140 -73 133 0 -19 58 -457 86 -641 14 -95 23 -178 21 -185 -10 -31 -115 464
-141 668 -61 477 -50 771 51 1335 l36 205 60 100 c186 309 398 757 454 956
l17 62 13 -94 c8 -52 27 -151 44 -220z m1854 -349 c143 -451 221 -729 264
-945 116 -578 96 -1100 -60 -1560 -35 -104 -170 -405 -182 -405 -2 0 4 37 14
83 57 254 72 497 44 663 -21 119 -82 298 -145 424 l-51 104 15 140 c37 336 41
410 41 826 0 466 -10 619 -70 1050 -7 52 -6 48 130 -380z m-3495 -153 c0 -43
27 -67 74 -67 33 0 46 -5 51 -17 8 -22 -86 -207 -106 -211 -21 -4 -60 61 -75
126 -16 67 -19 186 -4 177 5 -3 18 -1 27 4 27 16 33 13 33 -12z m1449 -354
c-18 -235 -18 -1002 -1 -1218 29 -352 79 -708 141 -990 16 -71 28 -131 27
-133 -4 -3 -250 372 -323 493 -84 138 -88 165 -88 577 0 179 -2 324 -5 321 -3
-2 -10 -19 -17 -36 l-11 -32 -1 46 c-3 183 83 759 139 926 l19 58 -3 -95 c-2
-52 -10 -144 -19 -205 -8 -60 -16 -164 -18 -230 -3 -166 0 -439 5 -434 2 2 9
83 15 179 15 225 35 408 67 590 27 159 75 372 82 366 2 -3 -2 -85 -9 -183z
m-533 -355 c-39 -205 -51 -351 -51 -648 0 -384 25 -592 115 -935 31 -119 146
-492 177 -573 16 -41 -25 12 -125 161 -195 291 -240 372 -254 457 -14 86 -17
527 -5 695 4 60 5 107 2 104 -2 -3 -18 -55 -35 -115 l-30 -109 5 145 c6 165
27 377 50 513 13 74 27 111 69 192 30 55 61 121 71 148 10 26 20 46 22 44 2
-2 -3 -38 -11 -79z m-211 -407 c-8 -51 -19 -154 -25 -229 -11 -156 -14 -571
-3 -599 5 -13 12 2 24 52 l17 70 1 -190 c1 -161 -1 -186 -12 -170 -8 11 -48
81 -90 155 l-76 135 14 95 c18 125 35 362 35 498 l0 110 63 85 c34 46 63 84
64 83 1 -1 -5 -43 -12 -95z m2350 -393 c19 -40 46 -113 62 -163 32 -106 31
-69 8 -1130 -8 -363 -16 -820 -17 -1015 l-3 -355 79 -158 c93 -188 227 -393
322 -496 38 -41 157 -144 264 -229 311 -248 362 -297 346 -338 -9 -24 -104
-61 -201 -80 -128 -24 -388 -24 -469 0 -121 36 -259 118 -408 244 -53 44 -105
83 -117 87 -11 3 -112 10 -223 15 -223 9 -277 21 -327 71 -68 68 -68 286 0
544 91 345 117 544 105 798 -19 409 -106 762 -337 1370 -43 115 -79 210 -79
211 0 0 42 2 93 3 318 8 642 218 796 514 21 41 44 98 51 127 8 28 15 52 17 52
2 0 19 -33 38 -72z m-3065 -248 c65 -166 132 -272 248 -392 l65 -67 -40 -87
c-22 -49 -45 -90 -51 -92 -17 -5 -186 355 -292 622 l-43 109 29 24 c27 21 30
21 36 5 4 -9 25 -64 48 -122z m-701 15 l75 -90 -50 -12 c-27 -6 -77 -12 -112
-12 -56 -1 -63 1 -58 17 2 9 12 61 21 115 20 114 12 115 124 -18z m191 -260
c228 -330 383 -605 416 -735 l17 -65 -37 -98 c-85 -226 -133 -501 -123 -707 4
-98 11 -134 47 -245 57 -179 58 -193 20 -375 -19 -92 -34 -200 -37 -265 -5
-101 -2 -127 36 -312 23 -112 41 -222 41 -244 0 -83 -126 -256 -240 -329 -101
-65 -245 -100 -323 -79 -82 22 -173 152 -212 304 -29 114 -27 119 119 385 127
231 128 235 120 440 -6 152 -4 178 21 330 27 155 28 171 17 270 -7 58 -41 249
-76 425 -97 481 -125 663 -146 940 -11 151 -13 397 -4 431 5 19 16 22 83 28
42 3 97 12 122 20 24 7 47 10 50 7 4 -3 44 -60 89 -126z m1637 -547 c-3 -8 -6
-5 -6 6 -1 11 2 17 5 13 3 -3 4 -12 1 -19z"/>
<path d="M3440 13705 c0 -32 -2 -36 -15 -25 -23 19 -30 4 -18 -41 l10 -40 -23
16 c-28 18 -30 9 -10 -40 17 -39 8 -45 -19 -15 -42 47 -41 3 2 -83 32 -65 119
-155 134 -140 9 9 2 34 -25 98 l-36 86 27 -21 c14 -11 28 -19 30 -17 2 2 -6
25 -17 51 -24 58 -24 56 0 56 25 0 25 -4 -5 77 -31 82 -35 86 -35 38z"/>
<path d="M3795 14018 c-14 -11 -25 -29 -25 -40 0 -20 1 -20 28 -2 21 14 46 18
117 18 50 -1 113 -1 140 -1 109 0 139 -3 149 -13 16 -16 28 -12 24 11 -4 28
-76 53 -132 45 -23 -3 -50 -6 -61 -5 -173 8 -217 6 -240 -13z"/>
<path d="M3985 13921 l-90 -6 35 -19 c61 -34 198 -19 225 24 6 10 -11 11 -170
1z"/>
<path d="M3035 13201 c-9 -30 14 -68 46 -75 39 -8 293 5 278 15 -6 4 -50 10
-98 14 -116 9 -159 19 -185 44 -27 26 -33 26 -41 2z"/>
<path d="M4652 13170 c-30 -11 -80 -25 -113 -31 -95 -19 -74 -34 64 -46 80 -6
97 2 58 29 -19 13 -18 15 15 33 19 10 34 22 34 27 0 4 -1 8 -2 7 -2 0 -27 -9
-56 -19z"/>
<path d="M3295 13097 c-112 -45 -203 -98 -290 -168 -119 -96 -99 -98 74 -9
139 72 324 183 329 198 6 20 -28 14 -113 -21z"/>
<path d="M2886 12978 c-54 -53 -93 -80 -170 -119 -56 -28 -103 -53 -106 -56
-3 -3 15 -2 40 2 158 24 264 99 310 220 5 14 6 24 2 23 -4 -1 -38 -32 -76 -70z"/>
<path d="M4090 12957 c0 -4 7 -24 15 -44 8 -19 15 -37 15 -39 0 -2 -39 -4 -87
-4 -259 -1 -413 -114 -413 -304 0 -89 26 -145 84 -186 50 -33 140 -66 211 -75
114 -14 114 -15 25 -64 l-55 -31 35 0 c39 0 115 31 145 60 17 16 38 19 137 21
104 1 121 -1 152 -20 19 -12 52 -25 73 -28 l38 -6 -40 36 c-38 35 -39 36 -15
37 40 1 104 34 143 75 49 50 79 132 80 216 1 58 -3 73 -28 114 -58 91 -213
155 -377 155 -62 0 -78 3 -78 15 0 15 -59 87 -60 72z m230 -137 c101 -13 197
-54 228 -97 11 -16 26 -51 33 -77 29 -117 -41 -230 -171 -275 -198 -67 -513
-45 -639 46 -62 45 -85 86 -89 163 -8 142 74 213 280 239 93 12 262 12 358 1z"/>
<path d="M4217 12773 c-25 -47 -64 -54 -92 -19 -19 24 -23 25 -29 11 -3 -9 -6
-39 -6 -66 l0 -49 -48 0 c-83 0 -117 50 -75 109 l16 24 -47 -6 c-67 -10 -152
-53 -183 -94 -37 -49 -44 -143 -13 -191 24 -38 108 -82 158 -82 l34 0 -22 35
c-28 45 -24 89 9 93 18 3 37 -10 80 -55 l57 -58 16 37 c23 53 57 52 97 -3 17
-22 32 -46 35 -52 4 -8 8 -9 11 -1 3 6 20 35 38 65 25 42 38 54 57 54 22 0 25
-5 28 -39 l3 -39 39 38 c42 41 55 36 40 -16 -16 -56 -14 -62 19 -45 43 23 97
91 111 141 23 81 -23 149 -134 201 -61 29 -79 30 -72 7 24 -86 13 -111 -52
-120 l-42 -6 -1 49 c-1 27 -4 63 -8 79 l-7 30 -17 -32z m-288 -45 c-5 -52 2
-69 34 -88 24 -16 46 -20 92 -18 l60 3 3 45 3 45 44 -3 c33 -3 45 0 46 9 1 26
18 -26 18 -58 1 -41 11 -46 68 -37 64 9 97 43 90 90 -3 19 -3 34 1 34 18 -1
89 -59 110 -90 28 -41 26 -99 -4 -145 l-18 -28 -9 27 c-11 32 -49 44 -79 24
-20 -14 -25 -13 -48 4 -37 27 -72 11 -110 -49 -17 -26 -30 -42 -30 -36 0 23
-58 73 -86 73 -30 0 -64 -25 -64 -47 0 -7 -22 10 -48 37 -37 38 -55 50 -79 50
-44 0 -67 -30 -60 -80 6 -49 -5 -51 -61 -10 -90 65 -56 182 73 248 51 27 56
27 54 0z"/>
<path d="M1887 12718 c-83 -57 -147 -120 -147 -146 0 -35 27 -26 86 30 54 51
130 146 123 152 -2 2 -30 -14 -62 -36z"/>
<path d="M5567 12504 c74 -56 211 -193 252 -254 21 -30 57 -90 80 -133 45 -82
70 -92 57 -23 -25 131 -190 326 -343 404 -44 23 -84 42 -88 42 -3 0 15 -16 42
-36z"/>
<path d="M2370 11990 c0 -14 112 -104 148 -119 82 -34 20 41 -83 100 -54 31
-65 34 -65 19z"/>
<path d="M2331 11937 c48 -45 166 -113 176 -103 17 17 -162 146 -200 146 -19
-1 -15 -7 24 -43z"/>
<path d="M2875 11890 c-4 -16 -11 -32 -16 -35 -14 -9 -11 -70 7 -113 12 -32
46 -62 69 -62 12 0 3 44 -15 80 l-20 39 35 -14 c18 -8 36 -11 39 -7 3 5 -10
30 -29 57 -19 26 -37 56 -40 66 -9 28 -23 23 -30 -11z"/>
<path d="M4255 11857 c-53 -25 -82 -52 -67 -61 5 -3 37 4 73 15 35 11 65 16
67 11 1 -5 9 -17 16 -27 12 -16 15 -15 50 15 l37 33 -38 15 c-64 24 -86 24
-138 -1z"/>
<path d="M4510 11835 c0 -20 27 -48 89 -94 69 -51 134 -116 143 -142 3 -8 9
-11 13 -7 5 5 3 27 -4 50 -14 46 -78 116 -148 162 -39 25 -93 44 -93 31z"/>
<path d="M5958 11813 c-62 -25 -47 -37 40 -30 93 7 142 17 142 27 0 24 -128
26 -182 3z"/>
<path d="M4332 11643 c-24 -58 -46 -142 -62 -243 -7 -41 -18 -89 -25 -107 -16
-39 -73 -81 -186 -139 -64 -32 -92 -52 -109 -79 -14 -22 -29 -35 -43 -35 -12
0 -29 -5 -37 -10 -23 -15 1 -26 92 -40 136 -21 229 2 269 67 13 20 32 91 49
177 16 78 45 204 64 280 20 76 36 147 36 157 0 36 -28 19 -48 -28z m-107 -481
c-30 -102 -96 -147 -203 -140 l-54 3 24 35 c17 26 48 47 116 81 51 25 101 53
110 62 23 24 24 17 7 -41z"/>
<path d="M2778 11530 c-34 -23 -58 -35 -60 -28 -8 23 -28 -4 -44 -59 -37 -126
40 -377 136 -444 36 -25 71 -34 65 -17 -3 8 8 27 25 43 39 38 39 52 -2 24 -33
-24 -30 -11 5 29 26 28 6 29 -39 1 -19 -11 -34 -17 -34 -12 0 5 20 38 45 73
25 35 43 66 40 68 -2 2 -27 -12 -55 -32 -27 -20 -50 -34 -50 -31 0 3 18 29 40
57 23 28 38 53 36 56 -3 3 -26 -12 -51 -33 -25 -20 -48 -35 -50 -33 -3 2 18
40 45 83 27 44 47 81 45 83 -2 3 -30 -18 -61 -44 -66 -56 -65 -52 28 74 37 50
68 95 68 98 0 3 -23 -14 -51 -38 -112 -95 -117 -97 -60 -25 29 37 51 70 48 73
-3 3 -27 -9 -54 -27 l-48 -33 35 43 c87 107 86 112 -2 51z"/>
<path d="M3240 11366 c0 -45 155 -216 198 -216 27 0 9 29 -56 91 -118 111
-142 133 -142 125z"/>
<path d="M3220 11295 c0 -57 202 -247 231 -218 6 6 -32 49 -105 116 -106 100
-126 115 -126 102z"/>
<path d="M5546 11332 c-36 -70 -87 -325 -58 -297 20 20 91 310 78 322 -2 3
-11 -9 -20 -25z"/>
<path d="M5452 11267 c-17 -46 -35 -110 -41 -142 -13 -69 -14 -145 -3 -145 4
0 26 83 48 185 22 102 37 185 33 185 -4 0 -21 -37 -37 -83z"/>
<path d="M5591 11313 c-12 -41 -15 -172 -5 -197 16 -41 23 -6 23 109 0 69 -2
125 -4 125 -2 0 -9 -17 -14 -37z"/>
<path d="M5395 10420 c-99 -77 -117 -101 -81 -108 13 -3 42 19 92 72 60 62
105 118 92 115 -2 0 -48 -35 -103 -79z"/>
<path d="M5170 10254 c0 -3 11 -15 25 -26 42 -33 34 -67 -40 -155 -36 -43 -65
-81 -65 -86 0 -5 21 7 46 25 124 88 166 196 93 233 -29 15 -59 20 -59 9z"/>
<path d="M2711 10575 c-92 -21 -94 -23 -15 -24 67 -1 128 11 149 30 14 13 -61
9 -134 -6z"/>
<path d="M2626 10411 c-4 -6 -4 -15 -1 -21 7 -11 166 -12 205 -1 l25 7 -25 7
c-49 15 -197 20 -204 8z"/>
<path d="M4008 10513 c-28 -4 -28 -4 -28 -88 0 -82 1 -85 25 -91 14 -3 32 -3
41 0 20 8 56 -12 51 -27 -2 -7 -28 -14 -58 -17 l-54 -5 -8 -88 c-5 -48 -6 -95
-3 -103 4 -12 44 -14 236 -14 l230 0 0 174 c0 95 -3 194 -6 220 l-7 46 -196
-1 c-108 -1 -208 -4 -223 -6z m392 -152 c0 -65 -3 -146 -6 -180 l-7 -61 -184
0 -184 0 3 63 3 62 52 3 c59 3 68 16 61 83 -3 34 -3 34 -60 37 l-58 3 0 54 0
55 190 0 190 0 0 -119z"/>
<path d="M2952 9228 c-16 -20 -50 -133 -69 -227 -21 -105 -25 -383 -5 -403 7
-7 15 -8 21 -2 5 5 19 85 31 177 12 92 32 229 45 305 12 75 20 142 18 149 -6
17 -28 17 -41 1z"/>
<path d="M2063 6393 c6 -86 32 -208 58 -268 l13 -30 4 32 c3 32 -29 242 -48
315 -6 21 -16 38 -22 38 -8 0 -9 -27 -5 -87z"/>
<path d="M4976 7785 c3 -16 23 -104 44 -195 21 -91 41 -174 43 -185 3 -11 5
18 6 65 0 49 -6 112 -14 145 -17 65 -89 221 -79 170z"/>
<path d="M4476 7713 c-21 -70 -40 -280 -40 -443 -1 -326 78 -726 175 -885 34
-56 139 -193 139 -181 0 4 -16 39 -36 78 -25 50 -31 69 -20 65 10 -4 16 -1 16
8 0 9 6 12 15 9 19 -8 19 -8 -9 62 -13 32 -39 123 -57 201 -30 129 -48 168
-50 110 0 -15 -7 -6 -23 28 l-23 50 -8 -29 c-31 -114 -79 375 -73 737 1 114 2
207 1 207 -1 0 -4 -8 -7 -17z"/>
<path d="M5079 7190 c-4 -8 -12 -49 -19 -90 -22 -136 -70 -263 -120 -320 -14
-17 -23 -21 -26 -12 -12 26 -23 9 -30 -45 l-8 -58 -10 40 -10 40 -17 -55 c-15
-48 -17 -51 -18 -23 -1 17 -5 34 -9 37 -8 5 -28 -129 -39 -259 -6 -60 -5 -60
15 -42 15 14 21 15 25 5 4 -8 8 -5 12 10 8 24 21 29 27 10 6 -17 38 67 53 137
l12 60 31 -50 c17 -27 38 -59 46 -70 14 -19 14 -17 9 20 -7 58 -23 106 -44
136 -18 26 -18 26 6 49 38 35 91 148 109 230 16 72 20 285 5 250z"/>
<path d="M4728 6705 c-10 -17 -21 -191 -14 -229 4 -22 13 -36 21 -36 12 0 15
20 14 108 -1 111 -10 174 -21 157z"/>
<path d="M4816 3665 c4 -60 9 -252 13 -425 l6 -315 28 -58 c35 -71 123 -168
135 -150 6 10 12 10 28 -2 10 -8 25 -15 33 -15 26 0 2 152 -35 213 -10 18 -13
17 -48 -7 -20 -14 -44 -22 -51 -19 -29 11 -37 81 -30 267 8 201 0 270 -55 496
l-30 125 6 -110z"/>
</g>
</svg>
