<?xml version="1.0" standalone="no"?>
<!DOCTYPE svg PUBLIC "-//W3C//DTD SVG 20010904//EN"
 "http://www.w3.org/TR/2001/REC-SVG-20010904/DTD/svg10.dtd">
<svg version="1.0" xmlns="http://www.w3.org/2000/svg"
 width="600.000000pt" height="897.000000pt" viewBox="0 0 600.000000 897.000000"
 preserveAspectRatio="xMidYMid meet">
<metadata>
Created by potrace 1.16, written by Peter Selinger 2001-2019
</metadata>
<g transform="translate(0.000000,897.000000) scale(0.100000,-0.100000)"
fill="#000000" stroke="none">
<path d="M2794 8893 c3 -27 8 -141 12 -254 6 -205 6 -205 -19 -255 -32 -64
-57 -148 -57 -194 0 -52 27 -125 77 -206 35 -56 47 -88 57 -150 l14 -79 1 72
c1 57 -4 84 -24 129 -24 54 -25 67 -26 253 -1 108 -1 248 0 311 1 63 -1 184
-5 268 -5 125 -9 152 -21 152 -12 0 -14 -10 -9 -47z m15 -747 c1 -85 -1 -97
-13 -86 -47 38 -58 164 -21 245 l18 40 8 -50 c4 -27 8 -94 8 -149z"/>
<path d="M2694 8823 c18 -324 18 -427 1 -473 -26 -71 -31 -179 -11 -250 18
-64 74 -202 125 -310 29 -60 31 -73 31 -171 0 -67 6 -125 16 -159 13 -44 14
-66 5 -133 -9 -68 -26 -115 -37 -105 -4 4 -30 172 -43 278 -6 47 -13 141 -16
209 -8 188 -17 160 -14 -41 l4 -176 -56 -59 c-75 -79 -134 -159 -159 -216 -12
-26 -25 -47 -30 -47 -5 0 -17 -14 -26 -31 -18 -35 -20 -120 -6 -189 6 -25 8
-81 6 -125 -3 -90 10 -162 62 -324 l32 -103 -46 -87 c-25 -47 -56 -103 -69
-123 -13 -21 -23 -40 -23 -42 0 -3 -24 -47 -53 -98 -30 -51 -99 -176 -155
-278 -56 -102 -106 -191 -110 -198 -5 -8 -46 -17 -101 -22 -51 -6 -124 -20
-162 -33 -38 -13 -69 -22 -69 -19 0 7 49 102 125 242 135 247 185 369 185 449
0 20 10 36 38 58 51 41 125 177 119 219 -12 73 -70 186 -127 248 -89 95 -93
121 -45 286 10 35 16 96 16 165 1 182 -47 295 -173 409 -84 76 -165 116 -236
116 -87 0 -131 -28 -238 -153 -129 -151 -139 -173 -139 -317 0 -107 3 -126 49
-285 105 -366 117 -413 127 -488 16 -113 6 -396 -16 -477 -10 -36 -24 -68 -31
-73 -7 -4 -11 -14 -8 -21 14 -37 -160 -317 -394 -636 -51 -69 -145 -197 -210
-285 -64 -88 -160 -205 -213 -261 -248 -263 -394 -595 -460 -1047 -19 -129
-34 -184 -84 -305 -25 -59 -10 -105 61 -181 40 -44 75 -69 137 -99 104 -51
249 -95 285 -88 15 4 87 15 160 25 121 18 141 24 206 61 98 56 195 130 290
220 83 79 403 459 525 622 40 54 77 101 83 104 18 11 2 -122 -22 -191 -11 -33
-50 -128 -85 -211 -83 -193 -104 -277 -112 -435 -8 -184 16 -299 101 -469 160
-321 349 -491 661 -593 61 -20 142 -43 180 -52 165 -38 258 -102 311 -212 42
-91 42 -106 -5 -167 -77 -103 -132 -220 -165 -351 -97 -390 -114 -687 -48
-844 49 -117 158 -237 264 -292 115 -59 351 -95 459 -69 121 29 248 119 306
217 35 60 90 229 108 331 31 181 37 243 41 437 5 260 -11 347 -100 530 -35 71
-45 105 -50 161 -3 38 -15 97 -25 129 -11 33 -18 61 -17 63 2 1 55 7 118 12
193 16 348 56 432 111 85 57 175 188 222 324 23 68 27 97 27 190 1 147 -22
241 -89 379 -54 111 -80 204 -149 540 -17 81 -19 326 -3 342 4 4 52 -13 105
-39 54 -25 145 -66 203 -90 303 -129 372 -148 565 -152 182 -5 246 5 445 64
91 27 179 52 197 56 69 14 154 145 176 271 l11 64 -319 633 c-311 617 -344
676 -610 1097 -199 316 -211 337 -244 460 -35 129 -28 106 -185 590 l-115 355
0 166 c-1 406 -72 697 -189 774 -83 54 -177 48 -264 -18 -57 -43 -115 -130
-133 -197 -30 -111 -13 -335 40 -542 45 -175 38 -209 -138 -633 -59 -143 -67
-198 -35 -244 33 -49 75 -71 154 -78 38 -3 74 -10 81 -15 7 -5 18 -6 25 -2 16
10 53 7 90 -8 29 -11 24 2 104 -263 24 -81 185 -647 229 -805 13 -47 39 -139
58 -205 20 -66 34 -121 32 -123 -1 -2 -225 108 -498 242 l-495 246 -36 59
c-52 84 -53 101 -15 242 28 108 32 139 31 238 -1 121 -26 247 -65 329 -21 46
-71 79 -154 101 -39 11 -43 15 -53 54 -23 97 -47 155 -88 212 -57 80 -56 79
-46 144 8 52 11 56 39 59 33 4 75 37 75 59 0 8 -10 33 -22 56 -17 34 -21 57
-19 124 2 67 -2 92 -20 130 -12 27 -25 76 -29 110 -14 118 -64 146 -139 78
l-39 -36 -11 68 c-5 37 -10 100 -10 140 1 63 -4 83 -41 165 -130 290 -125 273
-125 388 0 103 1 106 42 189 39 79 40 82 14 57 l-28 -27 -6 218 c-4 120 -9
227 -11 238 -3 11 -5 26 -5 33 -1 6 -6 12 -12 12 -8 0 -9 -32 -5 -107z m1504
-709 l42 -25 1 -64 c0 -36 1 -82 2 -102 l0 -38 -99 -17 c-149 -25 -134 -33
-173 89 l-34 106 34 28 c42 35 114 60 154 52 17 -3 49 -16 73 -29z m-251 -171
c32 -105 32 -146 -1 -277 -26 -102 -54 -169 -71 -170 -17 -2 -27 85 -29 250
-1 159 -1 162 28 222 16 34 33 62 38 62 4 0 20 -39 35 -87z m366 -13 c30 -91
39 -140 28 -140 -5 0 -23 16 -40 35 -29 34 -31 40 -31 117 0 96 9 94 43 -12z
m-65 -262 l2 -178 -64 0 c-35 0 -71 -3 -79 -6 -12 -4 -18 8 -27 53 -6 32 -23
106 -37 166 -14 59 -24 110 -20 113 8 9 158 33 192 31 l30 -2 3 -177z m121
-30 c6 -54 11 -136 11 -181 l-1 -82 -48 52 -49 52 -2 162 -1 161 39 -33 c39
-33 40 -34 51 -131z m-340 4 c32 -138 36 -207 16 -275 -15 -53 -56 -117 -75
-117 -4 0 -22 36 -41 80 -18 44 -36 80 -41 80 -14 0 -9 47 7 60 25 20 56 96
79 192 11 48 24 84 27 80 4 -4 16 -49 28 -100z m-2234 -7 c28 -14 74 -47 103
-73 l53 -47 -20 -41 c-11 -22 -26 -71 -34 -110 l-14 -69 -64 -3 c-77 -4 -200
13 -250 34 -36 16 -37 18 -48 92 -7 43 -14 89 -17 103 -4 21 3 36 27 64 69 79
169 98 264 50z m-305 -204 c12 -77 11 -81 -9 -108 -25 -31 -129 -123 -140
-123 -17 0 9 143 33 187 26 46 85 121 97 122 4 1 12 -35 19 -78z m536 -25 c31
-56 47 -141 48 -243 0 -56 -3 -106 -8 -110 -13 -13 -79 32 -108 73 -45 64 -54
118 -36 210 9 44 24 97 33 118 l17 39 19 -29 c11 -16 27 -42 35 -58z m1004 63
c15 -26 7 -34 -18 -20 -12 6 -30 11 -41 11 -23 0 -28 15 -8 23 28 12 57 6 67
-14z m1234 -105 c3 -52 8 -101 9 -107 2 -12 -90 -66 -115 -67 -18 0 -41 83
-54 194 -9 71 -3 76 87 76 l66 0 7 -96z m-1246 43 c20 -19 29 -56 17 -69 -10
-9 -135 36 -135 49 0 7 9 22 20 33 24 24 62 19 98 -13z m-248 -4 c0 -16 3 -38
6 -50 8 -30 -8 -29 -43 1 l-28 24 24 26 c31 33 41 33 41 -1z m1612 -155 c4
-83 3 -87 -13 -72 -48 44 -68 88 -75 169 l-6 80 45 -45 45 -45 4 -87z m-284
12 c20 -95 16 -138 -19 -219 -23 -54 -42 -62 -47 -20 -2 13 -14 61 -28 107
l-25 83 30 31 c17 17 38 51 48 74 10 24 19 40 20 36 1 -4 11 -45 21 -92z
m-1389 76 c7 -8 27 -22 46 -31 31 -14 35 -20 35 -55 l0 -39 -35 15 c-19 7 -62
14 -95 14 l-61 0 22 33 c29 42 61 77 70 77 3 0 12 -6 18 -14z m272 -17 c48
-21 50 -23 43 -53 -8 -39 -9 -40 -31 -28 -10 6 -39 13 -65 17 -46 7 -48 9 -48
39 0 18 3 36 7 39 12 12 43 7 94 -14z m-1471 -21 c0 -2 9 -64 20 -138 30 -205
32 -195 -42 -230 -35 -17 -68 -30 -74 -30 -11 0 -39 89 -64 205 l-11 50 53 45
c29 25 64 57 78 71 21 23 40 35 40 27z m140 -24 c41 -8 110 -14 154 -14 l79 0
-7 -31 c-3 -17 -6 -98 -6 -180 l0 -149 -35 0 c-57 0 -187 30 -221 51 -29 18
-32 25 -39 87 -3 37 -13 108 -21 157 -17 112 -18 108 4 100 9 -3 51 -13 92
-21z m2281 -81 c-6 -26 -17 -94 -26 -151 -17 -109 -39 -181 -74 -250 -23 -45
-35 -51 -49 -27 -6 11 10 62 49 160 57 144 89 256 89 317 1 26 3 30 10 16 7
-10 7 -34 1 -65z m-855 53 c8 -8 14 -29 14 -47 l0 -32 -24 22 c-16 15 -22 29
-18 46 5 29 8 30 28 11z m-106 -32 c28 -12 39 -21 36 -31 -3 -8 -6 -23 -6 -33
0 -17 -1 -17 -36 0 -22 12 -54 18 -85 17 -27 -1 -49 1 -49 4 0 4 9 18 21 33
24 31 59 34 119 10z m-214 -20 c19 -9 32 -20 29 -24 -2 -4 -28 -10 -58 -13
-44 -4 -107 -26 -161 -55 -17 -9 2 82 20 95 25 18 129 16 170 -3z m1545 -11
c5 -16 44 -99 86 -186 42 -87 74 -159 72 -161 -6 -5 -167 -56 -178 -56 -6 0
-36 80 -67 178 -31 97 -59 182 -61 189 -2 6 8 14 24 17 16 4 42 15 58 26 40
27 54 25 66 -7z m-1232 -42 c27 -37 27 -58 0 -66 -26 -8 -25 -9 -33 48 -8 55
3 61 33 18z m911 -38 c44 -137 39 -172 -54 -377 l-36 -79 -35 33 -35 34 24 40
c40 70 74 179 93 300 10 64 18 116 19 116 1 0 12 -30 24 -67z m-1970 -60 c27
-16 50 -32 50 -36 0 -5 -13 -39 -29 -75 -16 -37 -34 -86 -41 -110 l-11 -44
-40 57 -39 56 0 136 0 137 30 -47 c19 -31 46 -56 80 -74z m2436 -50 c18 -54
31 -99 29 -101 -4 -4 -125 242 -125 255 0 4 14 -7 32 -24 23 -23 41 -60 64
-130z m-1498 136 c35 -12 72 -66 72 -106 0 -24 -1 -25 -22 -11 -39 25 -99 41
-182 47 l-79 6 27 32 c15 17 37 34 49 36 44 8 105 7 135 -4z m-198 -4 c0 -17
-66 -75 -86 -75 -30 0 -97 -60 -114 -101 -17 -39 -27 -27 -36 40 l-7 53 32 -7
c27 -6 31 -4 31 14 0 13 12 27 33 37 56 30 147 54 147 39z m1430 -157 c23 -73
47 -147 53 -165 9 -28 7 -36 -16 -70 -37 -53 -103 -123 -115 -123 -14 0 -32
60 -39 130 -19 196 -19 212 -6 217 17 7 58 78 67 116 4 15 8 27 11 27 2 0 22
-60 45 -132z m-1090 67 c-13 -16 -40 -21 -40 -7 0 8 42 30 49 25 2 -1 -2 -9
-9 -18z m-122 -40 c48 -26 52 -31 52 -65 0 -59 -12 -130 -22 -130 -5 0 -17 8
-28 18 -37 34 -115 55 -188 49 -37 -3 -78 -8 -90 -12 -24 -8 -24 -7 -17 51 4
32 14 74 21 93 l14 34 103 -5 c89 -4 110 -8 155 -33z m-304 8 c-4 -10 -10 -56
-13 -103 l-6 -84 -54 -38 c-41 -28 -57 -35 -63 -26 -15 24 -8 35 17 30 28 -5
31 7 14 56 -15 43 3 93 50 143 40 41 69 53 55 22z m466 -12 c0 -18 -37 -41
-65 -41 -27 0 -15 35 18 50 37 18 47 16 47 -9z m-1567 -108 c4 -27 9 -88 13
-136 l7 -88 -39 -40 c-41 -42 -54 -48 -54 -25 0 8 -17 71 -39 141 l-39 126 67
34 c36 19 69 34 72 35 4 0 9 -21 12 -47z m207 -4 c52 -6 96 -13 98 -15 2 -1 6
-57 9 -125 5 -117 5 -122 -13 -114 -42 17 -117 33 -182 40 l-69 7 -6 73 c-4
40 -10 98 -13 129 l-7 56 44 -19 c25 -11 87 -25 139 -32z m2261 -111 c5 -46
16 -106 24 -135 12 -40 13 -57 4 -76 l-11 -25 -63 47 c-35 25 -64 51 -64 56
-1 13 93 224 98 219 1 -1 7 -40 12 -86z m-1108 44 c67 -36 72 -45 58 -93 l-12
-40 -33 21 c-18 11 -42 20 -52 20 -15 0 -80 -28 -156 -68 -6 -3 -32 71 -43
124 -8 39 8 53 72 63 65 10 109 3 166 -27z m-979 -39 c23 -41 26 -56 24 -130
-1 -45 -5 -83 -8 -83 -4 0 -16 10 -28 23 -18 19 -22 39 -28 136 -7 125 -2 131
40 54z m127 -39 c17 -19 19 -33 17 -115 l-3 -94 -31 60 c-38 74 -57 148 -48
189 10 48 16 51 31 15 8 -19 23 -43 34 -55z m2484 -92 c-2 -3 -7 1 -9 9 -2 8
-14 43 -25 78 -31 97 -24 98 10 2 16 -47 27 -87 24 -89z m-58 69 c27 -95 25
-121 -16 -161 -29 -30 -100 -55 -114 -41 -8 8 -88 234 -84 237 9 8 165 53 176
51 8 -1 24 -36 38 -86z m-1819 -7 c27 -87 27 -86 -60 -123 l-48 -20 -10 42
c-6 23 -15 54 -20 69 -8 26 -5 31 47 68 31 22 59 40 62 40 3 0 16 -34 29 -76z
m438 -64 c40 -85 66 -220 67 -343 0 -65 -4 -112 -10 -118 -16 -16 -26 23 -13
55 22 60 -3 282 -40 345 -13 23 -12 6 5 -66 8 -35 17 -116 20 -180 l6 -118
-26 28 c-14 16 -25 40 -25 56 0 15 -2 64 -5 107 l-4 79 13 -60 14 -60 1 45 c1
57 -20 140 -59 232 -19 44 -28 79 -24 92 6 19 8 19 31 -9 13 -17 35 -55 49
-85z m669 74 c15 -23 16 -37 7 -113 -6 -47 -15 -97 -20 -111 l-9 -24 -32 31
c-23 23 -31 41 -31 67 0 37 47 176 60 176 4 0 15 -12 25 -26z m510 -102 c21
-64 34 -117 29 -121 -24 -20 -115 -81 -122 -81 -4 0 -26 37 -49 83 l-42 82 28
22 c15 12 47 47 71 78 23 30 44 54 45 53 1 -2 19 -54 40 -116z m-1367 62 c29
-20 28 -30 -7 -94 l-29 -53 -71 -1 c-39 -1 -71 1 -71 4 -1 3 -4 23 -9 46 -9
45 -10 44 74 91 47 26 82 29 113 7z m-762 -51 c15 -27 38 -77 50 -113 l21 -64
-25 -38 c-13 -21 -28 -35 -32 -33 -5 3 -20 25 -34 49 -24 40 -26 54 -26 151 0
61 4 104 9 101 5 -3 22 -27 37 -53z m898 -43 c4 -14 -6 -1 -23 29 -17 29 -28
58 -24 64 6 10 33 -41 47 -93z m788 63 c12 -15 58 -161 58 -186 0 -10 -82 -8
-98 1 -9 6 -10 21 -2 62 5 29 10 72 10 96 0 47 8 54 32 27z m-2055 -29 c90
-23 86 -15 81 -202 -3 -97 -10 -168 -16 -174 -6 -6 -44 -13 -85 -16 -56 -3
-81 0 -105 12 -18 9 -32 18 -33 19 -4 13 -23 380 -19 384 7 7 111 -6 177 -23z
m1233 -46 c0 -3 -9 -4 -20 -1 -19 5 -27 33 -13 47 6 6 32 -29 33 -46z m1555 0
c47 -152 54 -179 42 -175 -11 3 -64 172 -66 210 -2 31 8 18 24 -35z m-2991
-85 c4 -71 8 -149 10 -175 4 -47 3 -48 -32 -58 -20 -5 -37 -8 -38 -7 -1 1 -6
70 -12 152 l-11 150 32 33 c17 17 34 32 38 32 4 0 10 -57 13 -127z m2372 75
c57 -45 69 -65 59 -98 -5 -16 -14 -20 -42 -17 -36 2 -37 3 -60 77 -12 41 -23
76 -23 78 0 8 18 -3 66 -40z m-1877 -149 c-1 -27 -6 -46 -11 -43 -15 10 -46
79 -53 119 -18 117 -19 115 25 41 33 -57 40 -77 39 -117z m625 165 c3 -9 6
-28 6 -42 0 -23 -8 -30 -53 -50 -28 -12 -55 -22 -59 -22 -7 0 -32 70 -26 73
18 11 114 56 119 56 4 1 10 -6 13 -15z m1845 -87 c11 -42 21 -83 20 -90 0 -17
-54 -58 -97 -73 -46 -16 -53 -10 -86 78 l-25 67 54 16 c39 11 62 25 82 50 15
19 28 33 29 32 1 -1 11 -37 23 -80z m-2583 12 c23 -34 25 -47 30 -190 6 -182
2 -195 -50 -155 -59 44 -64 60 -55 151 4 44 8 119 8 168 1 85 2 87 21 75 11
-7 32 -29 46 -49z m2164 -41 c37 -76 39 -81 24 -104 -9 -13 -20 -24 -24 -24
-4 0 -23 36 -43 79 -31 70 -34 83 -24 110 6 16 15 27 20 24 4 -3 26 -41 47
-85z m-1131 58 c9 -11 7 -15 -11 -19 -27 -7 -32 -3 -25 18 8 19 21 19 36 1z
m-152 -21 c7 -3 3 -25 -14 -72 -13 -37 -28 -71 -32 -76 -4 -4 -24 -1 -44 8
-34 14 -35 16 -26 47 5 18 9 45 9 61 0 40 39 52 107 32z m-140 -66 c-3 -22 -7
-42 -9 -45 -7 -6 -88 28 -88 37 0 10 69 48 89 49 10 0 12 -10 8 -41z m163 -44
c-23 -75 -48 -105 -35 -42 10 43 46 129 53 122 3 -3 -5 -39 -18 -80z m164 54
c9 -48 8 -54 -16 -55 -13 0 -35 -4 -50 -8 -28 -8 -28 -7 -28 37 0 49 6 55 56
56 27 1 32 -3 38 -30z m1323 -37 c38 -100 38 -107 3 -132 -17 -12 -48 -24 -69
-27 -37 -5 -37 -5 -58 48 -12 30 -24 61 -27 70 -5 11 10 27 55 57 34 23 65 42
68 42 3 0 16 -26 28 -58z m-1079 -7 c28 -13 52 -31 52 -39 0 -10 -15 -15 -52
-18 -29 -2 -60 -6 -68 -9 -12 -3 -16 7 -18 44 -4 57 6 59 86 22z m-1140 -21
c26 -40 23 -60 -13 -94 l-25 -23 0 76 c0 42 3 77 8 77 4 0 17 -16 30 -36z
m511 -5 c17 -6 31 -16 31 -21 0 -22 -55 -118 -67 -118 -9 0 -55 17 -71 26 -5
3 65 124 72 124 2 0 17 -5 35 -11z m-598 -41 c18 -35 20 -51 14 -107 -9 -90
-24 -143 -38 -138 -8 2 -10 19 -7 48 3 24 5 88 5 142 0 53 1 97 2 97 2 0 12
-19 24 -42z m989 2 c0 -22 -5 -30 -18 -30 -10 0 -28 -7 -41 -16 -27 -19 -44
-8 -39 27 3 25 39 49 76 49 18 0 22 -6 22 -30z m1623 -58 c31 -101 33 -122 13
-122 -23 0 -32 21 -44 101 -6 41 -14 83 -18 92 -4 11 -1 17 8 17 10 0 24 -30
41 -88z m-65 1 c7 -43 17 -90 21 -105 5 -16 6 -30 3 -32 -19 -10 -114 -37
-118 -34 -11 11 -71 178 -66 182 4 2 20 6 36 10 16 4 45 18 65 32 19 13 38 24
41 24 3 0 12 -35 18 -77z m-1842 52 c32 -13 36 -18 31 -42 -4 -16 -12 -56 -18
-90 -7 -35 -18 -63 -24 -63 -18 0 -95 59 -95 73 0 11 62 137 68 137 1 0 19 -7
38 -15z m1450 -48 l23 -52 -22 -17 c-22 -17 -22 -17 -45 33 -21 48 -21 51 -5
74 21 28 21 28 49 -38z m-1284 -117 c-1 -14 -4 -90 -7 -170 -6 -124 -4 -159
14 -242 11 -53 27 -113 35 -133 9 -21 16 -39 16 -41 0 -9 -139 -3 -145 6 -24
38 7 478 47 685 l12 60 14 -70 c8 -38 14 -81 14 -95z m392 154 c13 -5 16 -23
16 -90 l0 -83 -45 20 c-24 11 -58 21 -75 22 -26 2 -30 6 -29 32 2 61 13 79 54
92 48 14 59 15 79 7z m-480 -42 c5 -8 -10 -128 -20 -159 -2 -7 -10 -10 -19 -7
-17 7 -17 7 7 122 11 49 20 63 32 44z m243 -24 c19 -21 43 -61 43 -71 0 -2
-23 0 -52 4 -29 5 -61 6 -73 3 -31 -8 -51 38 -27 59 38 33 81 35 109 5z m313
-78 c12 -67 9 -80 -15 -60 -11 9 -15 32 -14 89 0 85 10 75 29 -29z m1052 6
c17 -43 26 -81 22 -86 -5 -4 -37 -17 -72 -28 -58 -20 -63 -20 -69 -4 -3 9 -17
44 -29 76 -13 33 -24 63 -24 67 0 3 19 11 43 17 23 6 51 18 62 26 11 9 24 14
28 13 5 -2 22 -38 39 -81z m-2862 -105 c-19 -145 -27 -168 -62 -175 -17 -3
-33 -4 -38 -1 -4 2 1 35 11 72 10 38 22 108 26 158 8 90 8 90 38 95 28 5 30 3
33 -29 2 -19 -2 -73 -8 -120z m986 144 c20 -8 34 -18 32 -22 -1 -5 -25 -48
-52 -96 -48 -87 -49 -89 -80 -83 -16 4 -34 10 -39 15 -7 7 90 201 101 201 1 0
19 -7 38 -15z m-846 -22 c30 -3 72 -1 92 5 38 10 38 10 31 -16 -3 -15 -32
-103 -63 -197 l-57 -170 -48 1 c-40 0 -52 5 -73 29 -27 32 -27 31 2 200 9 50
16 107 16 129 0 35 2 38 23 32 12 -4 47 -9 77 -13z m2525 -13 c3 -6 17 -40 30
-78 22 -61 23 -68 8 -79 -9 -7 -20 -13 -24 -13 -3 0 -19 34 -34 75 -22 61 -25
78 -15 90 14 17 26 19 35 5z m-2272 -80 c15 0 -1 -66 -39 -160 -36 -88 -93
-190 -106 -190 -5 0 -26 11 -47 25 l-40 24 28 73 c16 40 46 126 67 190 l38
116 44 -39 c25 -21 49 -39 55 -39z m757 5 c18 -6 20 -12 15 -37 -4 -16 -10
-54 -14 -84 -4 -30 -10 -57 -13 -60 -8 -8 -81 13 -145 41 l-54 24 17 33 c9 18
32 60 52 94 l36 61 43 -33 c23 -18 52 -35 63 -39z m394 34 c5 -4 10 -31 10
-59 l1 -51 -51 7 c-28 3 -68 1 -89 -5 -21 -6 -40 -9 -41 -8 -9 8 15 121 27
128 16 11 129 1 143 -12z m160 -7 l46 -21 0 -65 c0 -36 -3 -66 -8 -66 -4 0
-18 7 -30 16 -12 8 -47 18 -77 21 -54 6 -55 6 -55 39 0 18 4 35 10 39 5 3 7
12 3 20 -3 8 -2 22 1 31 7 19 45 14 110 -14z m936 -130 c0 -29 -17 2 -34 60
-9 31 -16 62 -16 70 1 18 50 -110 50 -130z m528 51 c27 -45 37 -71 31 -78 -11
-11 -9 -14 -64 83 -51 88 -20 83 33 -5z m-58 -14 c23 -39 40 -73 37 -75 -4 -5
-137 -44 -148 -44 -10 0 -62 141 -54 148 8 8 95 40 112 41 7 1 31 -31 53 -70z
m-1883 4 c-3 -21 -9 -67 -13 -101 -7 -64 -7 -64 -27 -44 -19 19 -19 25 -7 101
11 70 15 81 32 81 17 0 19 -5 15 -37z m580 29 c13 -8 18 -48 15 -109 -2 -31
-3 -32 -27 -21 -27 12 -30 31 -19 101 7 38 11 42 31 29z m-1367 -37 c0 -18
-150 -318 -156 -312 -3 3 15 42 39 88 24 46 57 121 73 166 26 73 44 97 44 58z
m2486 -22 c9 -27 23 -63 30 -81 13 -31 12 -34 -17 -60 -17 -15 -46 -32 -65
-39 -31 -11 -35 -10 -48 10 -16 24 -53 121 -58 151 -2 15 10 24 57 42 33 13
65 23 72 23 6 1 19 -20 29 -46z m-1382 -19 c11 -10 16 -34 16 -72 l0 -57 -77
0 c-43 0 -85 -2 -93 -5 -12 -4 -16 8 -18 62 -3 64 -2 66 25 76 45 17 129 14
147 -4z m-675 -5 c18 -6 31 -14 29 -18 -2 -4 -19 -42 -38 -85 l-34 -78 -46 7
c-25 4 -47 9 -50 12 -8 7 84 173 96 173 6 0 25 -5 43 -11z m1899 -85 c32 -90
33 -96 18 -120 -9 -13 -20 -24 -24 -24 -4 0 -24 50 -44 110 -31 99 -33 112
-19 120 30 18 36 10 69 -86z m-1060 58 c23 -17 27 -27 25 -62 -1 -23 -4 -44
-7 -47 -2 -3 -35 3 -73 12 l-68 17 -3 55 -3 56 51 -5 c30 -3 63 -14 78 -26z
m981 -94 c35 -114 37 -123 19 -123 -7 0 -24 42 -40 100 -30 109 -32 125 -20
125 5 0 23 -46 41 -102z m-1709 72 c22 -11 65 -27 96 -35 31 -8 58 -16 59 -17
3 -4 -17 -162 -21 -166 -1 -2 -61 15 -133 37 l-131 41 24 53 c56 124 47 117
106 87z m2307 -81 c29 -46 52 -87 53 -91 0 -5 -8 -8 -17 -8 -19 0 -126 173
-115 185 13 12 29 -5 79 -86z m-63 -15 c26 -47 46 -87 44 -88 -25 -20 -160
-86 -167 -82 -12 8 -80 169 -83 197 -3 19 5 24 57 39 99 29 96 30 149 -66z
m-1404 65 c0 -3 -5 -21 -11 -40 -6 -19 -13 -40 -15 -48 -8 -26 -34 10 -34 49
0 20 2 39 4 41 7 6 56 5 56 -2z m-1863 -56 c-3 -10 -17 -58 -32 -108 -15 -49
-30 -94 -34 -98 -4 -4 -19 -3 -34 2 l-26 10 19 54 c10 29 22 76 26 105 l7 52
39 0 c34 0 39 -3 35 -17z m1232 -5 c9 -14 16 -57 18 -107 l3 -84 -32 26 c-33
25 -37 47 -23 122 2 11 4 30 4 43 1 12 4 22 9 22 4 0 14 -10 21 -22z m1801 2
c0 -5 18 -51 41 -101 22 -50 38 -94 34 -97 -4 -4 -37 -19 -73 -33 -50 -20 -69
-24 -74 -15 -8 14 -78 187 -78 192 0 2 10 4 23 4 13 0 43 13 67 29 49 32 60
36 60 21z m-1306 -21 c34 -9 38 -13 32 -37 -3 -15 -8 -42 -12 -60 -8 -42 -15
-45 -63 -30 -44 14 -51 27 -51 102 0 54 -9 52 94 25z m-1604 -44 c22 -4 40
-12 40 -18 0 -11 -70 -198 -77 -207 -2 -2 -33 10 -68 29 l-64 33 14 36 c8 21
24 70 35 110 l22 72 29 -24 c15 -13 46 -27 69 -31z m1475 45 c4 -6 9 -34 12
-64 l5 -53 -66 -5 c-36 -3 -73 -11 -81 -18 -17 -14 -27 5 -39 72 -12 65 3 78
89 78 40 0 77 -5 80 -10z m-795 -41 c41 -9 51 -15 47 -28 -3 -9 -17 -60 -33
-113 l-28 -98 -68 2 -68 2 0 34 c0 22 18 67 48 123 26 49 48 89 49 89 1 0 25
-5 53 -11z m1018 -12 c2 -8 -2 -34 -8 -56 -8 -30 -16 -41 -30 -41 -23 0 -25
13 -9 61 6 19 13 40 15 47 5 18 28 10 32 -11z m-1546 -61 c-2 -3 -24 -50 -50
-104 l-47 -99 -33 15 c-22 11 -32 21 -28 32 2 8 21 59 42 113 l37 97 41 -24
c23 -13 40 -27 38 -30z m748 15 l125 -38 -1 -34 c-3 -67 -7 -124 -12 -136 -6
-17 -222 -16 -277 1 -34 10 -40 15 -37 36 6 49 61 210 71 210 3 0 62 -18 131
-39z m1877 -58 c19 -47 30 -89 26 -93 -4 -3 -21 -12 -36 -18 -32 -14 -31 -14
-62 96 l-18 62 24 23 c13 13 26 22 28 20 3 -2 20 -42 38 -90z m-3039 29 c-7
-18 -16 -32 -21 -32 -5 0 -7 3 -5 8 34 69 47 82 26 24z m3608 -61 c23 -37 24
-45 12 -58 -13 -12 -19 -7 -50 39 -57 86 -62 99 -47 109 16 10 44 -19 85 -90z
m-86 4 c27 -47 50 -90 50 -96 0 -5 -33 -25 -72 -44 -121 -56 -111 -58 -158 36
-23 44 -39 87 -36 94 4 12 142 94 158 95 4 0 30 -38 58 -85z m-575 -21 c24
-80 26 -104 5 -104 -9 0 -43 103 -56 168 -6 27 -4 31 9 26 10 -3 27 -40 42
-90z m-2550 -34 c-30 -58 -54 -102 -55 -98 0 11 78 179 92 195 25 31 14 2 -37
-97z m974 48 c14 -10 20 -32 25 -92 6 -73 5 -78 -11 -71 -10 4 -33 13 -51 19
l-34 11 7 80 c8 92 11 100 31 80 8 -8 23 -20 33 -27z m409 -34 c13 -42 22 -78
20 -79 -3 -4 -81 -7 -118 -6 -21 1 -31 12 -53 54 -15 30 -27 62 -27 71 0 23
34 35 100 35 l56 1 22 -76z m59 65 c26 -9 32 -17 38 -54 3 -25 11 -48 18 -52
8 -5 3 -10 -13 -14 -44 -12 -58 -9 -64 14 -3 12 -12 43 -20 70 -17 52 -13 55
41 36z m-1867 -27 c0 -4 -19 -46 -43 -92 -34 -66 -51 -89 -78 -102 -45 -24
-48 -8 -7 46 18 24 50 70 71 100 34 51 57 69 57 48z m1976 -24 c20 -59 20 -62
-2 -66 -23 -3 -44 32 -44 73 0 38 33 32 46 -7z m-1893 -7 c8 -8 -78 -191 -90
-191 -3 0 -17 9 -29 20 l-21 21 41 84 c38 77 43 84 66 79 14 -3 28 -9 33 -13z
m3257 -77 c22 -48 39 -88 38 -90 -14 -13 -154 -72 -159 -66 -9 9 -80 185 -76
188 5 6 132 52 144 53 7 0 31 -38 53 -85z m-3161 25 c48 -24 61 -35 56 -48 -4
-9 -18 -45 -32 -81 -13 -36 -28 -69 -33 -74 -11 -11 -108 9 -133 28 -17 13
-15 20 30 110 26 53 48 96 49 96 0 0 29 -14 63 -31z m3591 -133 c69 -112 72
-120 55 -133 -11 -7 -22 -10 -26 -6 -4 5 -40 63 -79 131 -59 102 -69 126 -59
138 16 20 19 16 109 -130z m-2980 124 c0 -5 -5 -10 -11 -10 -5 0 -7 5 -4 10 3
6 8 10 11 10 2 0 4 -4 4 -10z m865 -60 c20 -33 51 -74 68 -92 69 -69 204 -112
470 -151 198 -30 324 -135 356 -297 l9 -45 1 53 c2 101 -63 202 -161 250 -35
17 -79 33 -99 37 -19 4 -40 10 -45 13 -9 7 -104 146 -104 153 0 2 212 -102
472 -231 l472 -235 36 -115 c86 -271 198 -437 379 -559 112 -76 411 -209 444
-198 6 2 -19 13 -54 26 -103 37 -267 127 -355 196 -174 137 -288 306 -368 549
-20 60 -36 110 -36 112 0 1 30 12 68 25 37 12 101 38 142 57 237 108 324 149
404 188 48 24 91 42 95 40 4 -3 45 -85 91 -183 46 -98 181 -371 301 -608 l216
-430 -11 -50 c-12 -51 -72 -173 -104 -211 -11 -13 -40 -25 -82 -33 -36 -7
-117 -26 -180 -41 -63 -16 -144 -34 -180 -41 -91 -17 -268 -14 -375 5 -207 38
-603 189 -766 291 l-37 24 -1 140 c0 158 -14 292 -42 401 -18 72 -138 332
-200 433 -16 26 -29 54 -29 61 0 8 -19 34 -42 59 -71 75 -142 97 -358 107 -99
5 -187 13 -197 19 -10 5 -36 14 -59 20 -50 13 -128 80 -154 131 -30 58 -47
190 -25 190 2 0 20 -27 40 -60z m1477 18 c9 -24 26 -67 37 -96 l21 -52 -45
-22 c-24 -12 -46 -20 -48 -17 -7 8 -57 177 -57 191 0 13 38 34 65 37 6 1 18
-18 27 -41z m-2187 10 c2 -2 -2 -43 -8 -93 l-11 -90 -68 -2 -68 -1 5 36 c2 20
7 63 10 94 5 41 11 58 23 61 16 5 112 0 117 -5z m648 -59 c10 -117 64 -192
172 -241 l50 -22 29 -200 c15 -110 41 -263 57 -340 16 -77 27 -142 24 -144 -3
-3 -26 15 -52 39 -106 99 -259 190 -378 225 -34 10 -93 18 -137 18 -80 0 -82
2 -47 41 26 30 95 163 113 220 31 98 46 210 46 343 l0 132 59 0 58 0 6 -71z
m435 59 c14 -14 15 -28 3 -47 -8 -12 -13 -11 -30 10 -11 13 -20 30 -21 37 0
15 32 16 48 0z m-1707 -24 c9 -11 3 -34 -26 -104 -21 -50 -41 -90 -45 -90 -3
0 -16 11 -29 24 l-22 23 31 79 c17 43 33 81 36 85 6 10 41 -1 55 -17z m1648
-13 c17 -21 31 -42 31 -45 0 -7 -63 -36 -78 -36 -12 0 -53 100 -46 111 3 5 18
9 34 9 21 0 36 -10 59 -39z m1724 -73 c36 -62 68 -120 72 -129 4 -12 -17 -26
-95 -62 -56 -26 -105 -47 -111 -47 -16 0 -141 260 -127 264 49 14 109 40 143
61 22 13 43 25 46 25 3 0 36 -51 72 -112z m-2983 100 c0 -2 -10 -28 -21 -58
-26 -67 -36 -226 -20 -315 30 -165 61 -371 69 -465 l10 -105 -29 -33 c-31 -35
-113 -197 -125 -247 -4 -16 -30 -55 -58 -85 -29 -30 -95 -111 -148 -180 -535
-694 -627 -789 -883 -916 -81 -40 -108 -48 -221 -65 -142 -21 -152 -20 -284
33 -100 40 -201 108 -234 159 -32 47 -31 72 2 199 11 41 34 152 51 245 45 240
70 326 155 528 83 197 141 293 261 430 99 112 104 115 146 76 112 -105 322
-197 573 -251 l106 -23 -5 -45 c-26 -197 -66 -352 -117 -454 -72 -144 -120
-196 -314 -342 -148 -112 -197 -159 -243 -234 -33 -55 -25 -56 18 -2 44 55
156 145 297 239 104 70 189 145 228 202 52 75 104 237 136 426 17 97 30 191
30 210 0 67 163 671 235 870 21 58 45 108 58 118 55 45 183 85 280 86 26 1 47
0 47 -1z m64 -101 c-6 -92 -8 -97 -42 -129 l-34 -33 6 62 c10 89 34 176 53
190 9 7 18 11 20 9 3 -2 1 -47 -3 -99z m396 76 l126 -6 -7 -64 c-4 -35 -8 -66
-11 -68 -2 -2 -21 0 -43 5 -59 14 -144 12 -208 -5 -32 -8 -61 -15 -64 -15 -7
0 4 157 12 170 3 5 19 4 38 -1 17 -6 88 -13 157 -16z m1866 -59 c36 -120 37
-124 16 -124 -15 0 -24 18 -45 91 -15 51 -24 96 -21 101 13 21 30 -2 50 -68z
m-1168 21 c12 -25 22 -48 22 -50 0 -2 -14 -12 -31 -21 -44 -22 -79 -5 -123 62
l-36 54 73 0 73 0 22 -45z m-481 10 l43 -26 0 -64 c0 -36 -3 -65 -7 -65 -3 0
-31 8 -61 17 l-54 17 6 51 c3 27 6 60 6 73 0 28 13 28 67 -3z m700 -27 c12
-17 20 -36 16 -41 -8 -13 -62 43 -56 59 8 21 16 17 40 -18z m-2128 -22 l23
-24 -58 -111 c-33 -61 -62 -111 -66 -111 -3 0 -20 12 -37 26 l-31 26 29 41
c16 23 38 58 49 77 48 86 57 100 63 100 3 0 16 -11 28 -24z m-75 2 c-25 -43
-107 -168 -109 -168 -2 0 -16 5 -30 12 -31 14 -29 18 27 96 33 46 50 61 73 65
17 2 34 5 38 5 5 1 5 -4 1 -10z m3580 -125 l66 -132 -77 -36 c-125 -58 -111
-65 -171 88 -28 73 -52 137 -52 140 0 4 6 7 13 7 7 0 44 15 82 34 39 18 71 33
71 32 1 0 31 -61 68 -133z m-1410 98 c25 -26 26 -31 14 -50 -27 -44 -99 -38
-124 11 -8 16 -14 31 -12 32 4 3 82 34 89 35 3 1 18 -12 33 -28z m-1956 -46
c30 -8 56 -15 57 -17 5 -4 -74 -200 -84 -211 -4 -4 -46 5 -94 19 l-86 27 21
41 c68 137 90 168 112 161 11 -4 45 -13 74 -20z m1817 14 c10 -15 -1 -22 -24
-14 -12 3 -19 11 -16 16 8 12 32 11 40 -2z m248 -30 c16 -23 25 -44 21 -48 -4
-3 -9 0 -11 7 -3 7 -16 26 -29 41 -25 30 -29 41 -16 41 4 -1 20 -19 35 -41z
m-55 -37 c-39 -4 -45 3 -23 28 17 19 18 19 35 -3 18 -22 18 -22 -12 -25z
m1102 36 c0 -7 23 -69 50 -137 28 -69 47 -127 43 -131 -5 -4 -32 -16 -61 -28
-39 -16 -54 -18 -57 -9 -12 31 -75 253 -75 262 0 11 67 52 88 54 6 1 12 -5 12
-11z m-2919 -29 c-5 -13 -10 -19 -10 -12 -1 15 10 45 15 40 3 -2 0 -15 -5 -28z
m974 13 c17 -6 58 -18 93 -27 58 -17 62 -20 62 -48 0 -34 -24 -132 -48 -197
-26 -72 -77 -151 -148 -229 -64 -71 -64 -73 -44 -89 14 -12 28 -50 46 -132 60
-262 23 -627 -94 -919 l-25 -64 -21 29 c-47 67 -167 180 -247 234 -48 32 -93
60 -100 62 -11 4 -2 30 35 104 97 197 134 298 170 464 12 59 17 153 19 433 3
197 6 359 8 361 2 2 27 11 54 20 53 17 182 16 240 -2z m-1046 -16 l23 -24 -27
-63 c-14 -35 -33 -83 -42 -106 -12 -35 -18 -41 -31 -33 -47 27 -47 22 -1 139
24 61 47 111 50 111 3 0 16 -11 28 -24z m699 15 c11 -6 13 -30 9 -102 -3 -52
-6 -129 -6 -171 l-1 -78 -45 0 c-25 0 -45 4 -45 8 0 4 -6 57 -14 117 -28 212
-28 215 -3 225 28 11 88 12 105 1z m-148 -48 c0 -10 7 -72 15 -138 20 -165 20
-182 -6 -190 -27 -9 -27 -8 -39 56 -42 217 -46 249 -27 249 7 0 18 9 25 20 15
25 32 26 32 3z m2326 -40 c14 -52 45 -158 60 -205 4 -13 0 -18 -15 -18 -12 0
-21 2 -21 3 0 4 -62 217 -75 257 -5 16 -2 20 14 20 16 0 24 -12 37 -57z
m-3353 13 c17 -13 14 -20 -48 -102 -36 -48 -70 -94 -74 -102 -6 -11 -18 -13
-45 -8 -20 4 -36 9 -36 11 0 2 34 51 76 109 77 107 92 118 127 92z m496 -100
c-18 -58 -36 -103 -41 -100 -13 8 -10 40 8 81 26 60 33 76 44 107 6 16 13 26
16 23 3 -3 -9 -52 -27 -111z m-399 -2 c0 -6 -21 -50 -47 -97 -36 -64 -53 -87
-68 -87 -25 0 -85 36 -85 51 0 6 30 52 68 103 l67 92 32 -25 c18 -14 33 -31
33 -37z m2141 46 c21 0 32 -7 44 -30 8 -16 15 -33 15 -37 0 -8 -82 -38 -102
-38 -4 0 -23 26 -43 59 l-35 59 46 -7 c26 -3 60 -6 75 -6z m194 -13 c18 -2 16
-5 -10 -23 -16 -12 -43 -24 -60 -28 -26 -5 -32 -2 -47 23 -9 16 -15 31 -13 33
3 3 85 0 130 -5z m104 -75 c22 -38 41 -72 41 -78 0 -18 -71 -57 -112 -61 l-43
-5 -37 70 -38 70 28 5 c15 3 47 19 72 36 25 17 46 31 46 31 1 0 20 -31 43 -68z
m73 2 c9 -18 9 -27 0 -36 -6 -6 -13 -10 -15 -7 -17 24 -57 90 -57 94 0 15 62
-29 72 -51z m-2297 -20 c0 -5 -18 -56 -40 -112 l-40 -104 -45 6 c-62 9 -136
34 -151 53 -11 13 -7 27 26 91 22 41 48 87 57 103 l17 27 88 -27 c48 -15 88
-31 88 -37z m1844 -19 c-13 -13 -29 11 -29 45 l0 25 20 -30 c13 -20 16 -33 9
-40z m188 -12 c11 -21 29 -53 39 -70 15 -25 17 -37 8 -50 -13 -21 -59 -49 -95
-58 -25 -6 -27 -3 -58 85 -18 51 -30 94 -28 96 7 7 82 33 98 33 8 1 24 -16 36
-36z m-1967 10 c14 -9 26 -17 28 -18 2 -2 -4 -20 -12 -41 -8 -22 -25 -72 -37
-111 -12 -40 -24 -73 -27 -73 -2 0 -20 9 -38 20 l-33 21 26 67 c14 37 33 86
42 110 9 23 18 42 21 42 3 0 17 -8 30 -17z m2344 -136 c25 -44 29 -86 7 -72
-6 3 -33 44 -61 91 -42 69 -50 87 -40 99 13 16 24 2 94 -118z m-516 50 c12
-31 25 -70 28 -86 6 -26 3 -30 -26 -36 -17 -4 -34 -4 -37 -1 -4 3 -12 43 -18
89 -9 60 -10 84 -1 89 20 13 31 2 54 -55z m-1753 25 c-3 -8 -10 -35 -16 -61
-25 -105 -40 -141 -60 -141 -23 0 -24 -8 23 137 23 69 34 90 45 86 8 -3 12
-12 8 -21z m-642 7 c12 -7 24 -13 26 -15 3 -3 -142 -203 -175 -243 -6 -7 -44
31 -44 44 0 13 157 225 166 225 3 0 15 -5 27 -11z m2815 -44 c12 -19 22 -37
22 -41 0 -3 14 -25 31 -50 16 -24 27 -49 24 -54 -13 -22 -86 -50 -127 -50
l-43 0 -43 75 c-23 42 -40 79 -38 84 3 5 23 11 43 15 21 3 52 17 68 31 17 13
32 24 35 25 3 0 15 -16 28 -35z m-2667 -25 c11 0 19 -4 19 -10 0 -8 -145 -277
-156 -289 -4 -4 -66 33 -111 66 l-32 23 97 128 96 129 34 -24 c19 -12 43 -23
53 -23z m1219 -145 l0 -155 -35 0 -35 0 -1 78 c0 42 -3 109 -7 149 l-8 72 36
4 c19 2 38 4 43 5 4 1 7 -68 7 -153z m-97 -40 c6 -85 -1 -112 -27 -102 -11 4
-16 19 -16 44 -1 21 -7 76 -14 123 -11 76 -11 85 3 88 9 2 21 8 26 14 11 10
19 -38 28 -167z m-1026 130 c26 -14 73 -28 103 -33 30 -4 55 -12 55 -17 0 -6
-25 -74 -55 -152 -41 -106 -59 -143 -72 -143 -25 0 -238 77 -238 87 0 4 154
282 157 283 0 0 23 -11 50 -25z m2406 -40 c20 -35 37 -69 37 -75 0 -14 -87
-53 -99 -45 -5 3 -11 1 -13 -5 -1 -5 -21 -11 -42 -13 l-39 -2 -13 60 c-7 33
-13 63 -13 66 -1 3 23 15 53 28 30 12 60 29 67 37 6 8 14 14 18 14 3 0 23 -29
44 -65z m347 -85 c40 -79 47 -100 33 -100 -12 1 -94 160 -88 171 4 5 8 9 10 9
3 0 23 -36 45 -80z m-2518 50 l33 -19 -46 -143 c-26 -79 -50 -143 -55 -143
-25 1 -94 18 -94 23 0 15 116 302 122 302 4 0 22 -9 40 -20z m1972 -12 c19
-94 19 -104 -9 -116 -45 -20 -53 -15 -61 36 -4 26 -11 58 -15 70 -13 33 -4 42
40 42 35 0 39 -3 45 -32z m500 -57 c20 -32 36 -66 36 -74 0 -10 -27 -21 -86
-36 -48 -12 -87 -21 -88 -19 -1 2 -18 31 -38 64 l-36 62 49 4 c30 3 63 15 86
31 21 14 38 26 39 26 1 1 18 -26 38 -58z m-2379 29 c3 -5 -6 -55 -20 -112 -48
-192 -41 -175 -75 -170 -16 2 -30 7 -30 11 0 3 21 68 46 143 43 129 60 158 79
128z m1265 -24 c0 -22 -5 -23 -72 -29 -69 -6 -87 -1 -88 25 0 12 55 26 108 27
48 1 52 -1 52 -23z m111 4 c76 -24 136 -55 123 -63 -13 -8 -162 11 -186 24
-18 10 -26 59 -9 59 5 0 37 -9 72 -20z m808 -93 c24 -42 29 -58 19 -62 -69
-25 -97 -33 -102 -28 -3 4 -6 1 -6 -5 0 -7 -4 -12 -10 -12 -5 0 -34 -12 -65
-26 -31 -15 -58 -24 -61 -22 -2 3 -5 26 -6 52 0 27 -5 46 -12 46 -6 0 -4 5 4
10 10 6 11 10 3 10 -7 0 -13 11 -13 25 0 20 7 26 40 35 22 6 46 8 53 4 6 -4 9
-3 5 1 -5 5 16 18 45 30 60 25 60 25 106 -58z m-916 21 c10 -38 -8 -55 -65
-61 -64 -6 -68 -4 -68 33 0 24 5 29 38 38 64 17 89 14 95 -10z m127 -9 c110
-16 106 -14 108 -59 2 -22 0 -40 -4 -40 -6 0 -71 16 -166 41 -35 9 -38 13 -38
45 0 30 3 35 18 29 9 -4 46 -11 82 -16z m160 1 c13 -8 13 -10 -2 -10 -9 0 -20
5 -23 10 -8 13 5 13 25 0z m354 -37 c28 -141 28 -154 5 -179 -12 -13 -26 -21
-30 -18 -8 5 -41 110 -54 173 -6 26 -4 32 6 29 8 -3 20 1 27 9 21 21 40 15 46
-14z m-304 -59 l0 -65 -31 18 c-33 19 -34 21 -43 70 -5 30 -3 32 27 36 18 2
35 5 40 5 4 1 7 -28 7 -64z m903 -26 c40 -141 49 -266 46 -637 -2 -355 1 -395
46 -556 40 -142 56 -234 57 -315 0 -95 -14 -148 -55 -202 -35 -46 -113 -96
-126 -82 -5 5 -25 67 -45 138 -67 238 -154 423 -254 543 l-39 48 8 75 c5 41
10 129 11 195 2 161 -7 186 -218 554 -43 76 -46 85 -31 96 9 7 17 17 17 23 0
14 81 62 160 95 76 31 343 111 386 116 6 0 23 -41 37 -91z m-1826 74 c29 -19
-75 -244 -115 -250 -12 -2 -22 1 -22 7 0 18 61 123 93 160 21 25 28 41 25 62
-5 30 -1 34 19 21z m107 -49 c-11 -66 -32 -157 -43 -185 -10 -26 -14 -28 -71
-28 -33 0 -60 2 -60 4 0 2 17 37 39 77 21 41 44 92 51 114 17 55 17 55 56 55
35 0 35 0 28 -37z m898 -5 l46 -43 -10 -150 c-10 -163 -6 -488 7 -520 7 -18 5
-17 -18 4 -42 39 -57 84 -67 204 -11 135 -15 501 -6 516 4 6 2 11 -3 11 -6 0
-11 5 -11 10 0 18 15 10 62 -32z m-415 -55 c2 -90 0 -93 -74 -93 -33 0 -33 1
-35 50 -5 121 -6 114 32 120 76 12 75 14 77 -77z m91 55 c2 -4 7 -6 12 -3 7 5
118 -20 126 -28 9 -8 16 -145 8 -149 -5 -3 -46 -2 -91 2 -107 10 -115 18 -120
121 l-5 79 34 -7 c18 -3 35 -10 36 -15z m213 -75 c26 -16 29 -22 29 -70 0 -53
0 -53 -27 -47 -16 4 -29 7 -30 8 -6 4 -14 126 -8 126 4 0 20 -8 36 -17z m259
-68 c0 -14 47 -101 132 -245 31 -52 76 -138 99 -190 l44 -95 0 -182 c0 -100
-3 -184 -6 -187 -3 -4 -29 9 -57 28 -28 19 -67 39 -87 46 -26 9 -35 17 -35 34
0 27 -58 116 -115 177 -41 44 -43 50 -50 125 -8 83 1 492 12 532 l6 23 28 -27
c16 -15 29 -33 29 -39z m-569 -103 c-1 -41 2 -79 8 -86 9 -10 1 -15 -35 -20
-25 -3 -50 -3 -55 0 -5 3 -9 43 -9 89 0 84 0 84 28 88 64 10 66 9 63 -71z
m167 41 c45 -3 84 -8 86 -12 2 -3 6 -40 7 -81 l4 -74 -39 -8 c-53 -11 -144 7
-173 34 -20 18 -23 31 -23 91 l0 69 28 -6 c15 -4 64 -10 110 -13z m-887 -41
c-15 -27 -40 -58 -41 -49 -1 20 31 78 40 72 6 -4 7 -12 1 -23z m1068 -73 c2
-98 2 -100 -18 -87 -26 16 -38 48 -46 126 l-6 62 34 0 33 0 3 -101z m-889 74
c0 -11 -42 -111 -70 -168 l-25 -50 -84 -13 c-46 -7 -86 -11 -88 -8 -7 7 26
121 37 124 5 2 29 30 51 63 l42 59 68 0 c38 0 69 -3 69 -7z m566 -196 c-1 -40
-5 -75 -11 -79 -14 -11 -97 -10 -114 1 -11 7 -12 22 -5 72 l9 64 39 3 c22 1
41 4 42 5 2 2 12 3 22 4 17 1 19 -6 18 -70z m-876 -37 c-19 -91 -26 -137 -37
-239 -4 -48 -16 -83 -44 -135 -57 -106 -70 -168 -76 -356 -5 -148 -3 -174 16
-250 26 -99 79 -212 151 -323 49 -75 51 -80 40 -113 -14 -42 -1 -178 27 -279
4 -16 0 -15 -27 10 -72 66 -209 274 -256 388 -55 134 -68 202 -68 352 0 174
25 277 112 477 87 197 116 295 117 394 0 72 3 85 29 123 16 23 30 40 31 39 2
-2 -5 -41 -15 -88z m1042 75 c96 0 96 0 117 -31 24 -34 26 -61 9 -99 -14 -31
-43 -32 -147 -5 -95 24 -127 47 -125 89 3 49 12 64 32 55 9 -5 60 -9 114 -9z
m-850 -113 c-20 -48 -47 -81 -66 -79 -18 2 -20 -4 -20 -63 0 -36 2 -76 4 -90
5 -24 3 -25 -53 -28 l-59 -3 7 58 c3 32 11 90 17 130 l11 72 46 6 c25 4 51 8
56 10 6 2 22 4 37 4 22 1 26 -2 20 -17z m745 -60 c17 -21 45 -65 61 -99 l31
-61 -52 -14 c-61 -15 -216 -15 -245 1 -31 17 -35 44 -17 126 l17 74 41 -5 c23
-3 60 -1 82 4 22 6 43 10 46 11 3 1 19 -16 36 -37z m273 17 c0 -5 -7 -9 -15
-9 -9 0 -12 6 -9 15 6 15 24 11 24 -6z m-99 -25 c46 -6 49 -8 63 -51 9 -25 29
-67 45 -94 17 -26 26 -51 21 -54 -13 -8 -88 4 -137 21 -36 13 -46 23 -63 62
-12 26 -34 68 -51 93 -16 25 -29 48 -29 51 0 3 23 -1 52 -8 28 -8 73 -17 99
-20z m105 -41 c10 -39 58 -108 94 -133 31 -22 39 -40 18 -40 -24 1 -66 45 -96
100 -36 66 -47 100 -33 100 6 0 14 -12 17 -27z m997 -28 c-6 -69 -4 -277 2
-306 6 -26 4 -30 -12 -27 -17 3 -18 17 -21 186 -2 171 -1 183 15 180 13 -3 17
-12 16 -33z m-1986 -38 c29 -17 65 -41 80 -53 l28 -22 -28 -11 c-41 -16 -119
-13 -144 4 -14 10 -24 31 -28 59 -12 76 0 79 92 23z m481 -134 c6 -24 6 -43 2
-43 -4 0 -22 -3 -39 -6 l-31 -6 15 43 c9 24 18 50 20 58 8 22 23 2 33 -46z
m333 20 c2 -21 3 -51 1 -66 -3 -24 -7 -28 -30 -25 -22 2 -29 10 -36 41 -12 46
-26 48 -26 2 l0 -34 -52 6 c-30 4 -58 13 -65 22 -11 14 -12 14 -13 1 0 -12 -9
-15 -40 -12 -24 3 -40 9 -40 17 0 7 -3 25 -6 41 l-6 29 104 -3 c57 -2 119 1
138 6 61 18 68 15 71 -25z m153 -1 c79 -5 82 -6 130 -49 28 -25 62 -51 78 -59
39 -20 35 -23 -18 -11 -40 9 -48 9 -59 -6 -18 -25 -42 -12 -66 35 -23 44 -35
46 -19 3 6 -15 9 -29 8 -30 -2 -1 -22 0 -46 3 -37 4 -45 9 -62 41 l-19 36 6
-32 c5 -31 4 -33 -26 -33 l-31 0 0 65 c0 64 1 65 21 54 12 -6 58 -14 103 -17z
m-771 -39 c61 -63 97 -107 97 -118 0 -5 -25 -5 -55 -2 -56 6 -125 26 -125 37
0 4 -18 13 -39 20 -24 8 -52 28 -71 51 l-31 39 43 0 c24 1 57 7 73 15 17 7 35
14 41 14 6 1 36 -25 67 -56z m-273 34 c8 -7 34 -35 57 -63 41 -50 42 -52 24
-68 -26 -23 -109 -54 -168 -62 l-50 -6 -6 33 c-4 19 -9 64 -13 101 l-7 67 69
4 c38 1 71 4 74 5 3 1 12 -4 20 -11z m1269 -36 c17 -21 31 -44 31 -50 0 -15
-46 9 -90 46 l-33 28 24 6 c13 4 27 7 31 8 3 1 20 -17 37 -38z m-1442 -103 c9
-73 8 -87 -8 -120 -17 -33 -62 -78 -79 -78 -7 0 2 92 15 145 10 46 46 135 54
135 4 0 12 -37 18 -82z m859 35 c7 -10 14 -21 14 -24 0 -3 -41 -18 -90 -34
-64 -19 -101 -25 -125 -21 -19 4 -35 8 -35 10 0 2 7 20 15 39 17 40 26 44 134
46 60 1 76 -2 87 -16z m179 -62 c35 -33 61 -61 58 -61 -14 0 -192 102 -204
117 -13 15 -10 16 34 11 42 -5 56 -13 112 -67z m78 42 c35 -5 38 -8 35 -36 -2
-17 -8 -32 -14 -34 -6 -2 -31 14 -55 36 -48 43 -44 47 34 34z m-667 -53 c27
-6 64 -10 83 -8 33 3 34 2 58 -62 15 -39 27 -97 30 -147 l6 -83 -55 0 c-30 0
-62 6 -70 13 -9 6 -29 43 -44 80 -15 38 -51 109 -80 158 -30 48 -54 90 -54 93
0 2 18 -4 39 -15 21 -10 61 -23 87 -29z m-93 -66 c57 -95 108 -221 94 -232
-28 -22 -161 -56 -262 -67 -33 -4 -64 -8 -69 -9 -14 -2 -84 310 -72 321 2 2
28 8 59 13 61 10 150 45 168 66 13 16 25 4 82 -92z m938 85 c16 -26 9 -39 -20
-39 -45 0 -78 16 -84 40 -5 21 -3 22 45 18 27 -3 54 -12 59 -19z m-363 -28
c45 -48 52 -60 67 -102 23 -64 20 -77 -22 -89 -109 -30 -105 -32 -196 65 -45
48 -83 91 -85 95 -1 4 17 10 40 13 24 3 64 15 88 26 60 27 77 26 108 -8z m601
-2 c56 -19 73 -29 51 -29 -23 0 -155 41 -165 52 -13 13 42 2 114 -23z m-175
12 c3 -5 0 -11 -8 -14 -15 -6 -26 1 -26 15 0 11 27 10 34 -1z m78 -56 c15 -22
27 -43 28 -47 0 -6 -70 1 -78 8 -2 1 1 12 8 23 13 25 3 27 -29 5 -19 -14 -25
-14 -32 -3 -10 17 37 61 60 57 8 -2 28 -21 43 -43z m841 -111 c14 -71 25 -129
23 -131 -1 -2 -10 3 -19 10 -17 12 -67 193 -67 242 0 22 3 24 18 16 14 -7 25
-42 45 -137z m-1529 28 c38 -39 65 -75 62 -81 -10 -15 -86 -58 -117 -66 l-26
-6 -6 83 c-3 46 -13 103 -21 127 -9 24 -16 46 -16 48 0 10 60 -41 124 -105z
m566 104 c0 -3 -4 -8 -10 -11 -5 -3 -10 -1 -10 4 0 6 5 11 10 11 6 0 10 -2 10
-4z m-263 -28 l38 -23 -28 -3 c-26 -3 -56 18 -57 41 0 11 5 9 47 -15z m535 -8
c64 -15 99 -28 103 -39 3 -9 9 -43 12 -77 l6 -61 -54 7 c-103 15 -106 17 -125
76 -9 30 -20 54 -23 54 -7 0 -41 54 -41 65 0 4 6 5 13 3 6 -3 56 -15 109 -28z
m-1526 -207 l27 -132 -28 -41 c-35 -50 -93 -102 -105 -95 -20 12 -42 116 -47
225 l-6 116 41 27 c23 15 49 39 59 53 l17 27 7 -24 c4 -13 19 -83 35 -156z
m1122 148 c10 -6 9 -12 -5 -30 -16 -20 -22 -21 -62 -12 -40 9 -60 23 -61 44 0
10 112 9 128 -2z m279 -7 c17 -5 43 -47 43 -69 0 -6 -66 -12 -77 -8 -7 3 -13
14 -13 24 0 11 -15 26 -37 38 l-38 20 50 0 c28 1 60 -2 72 -5z m-81 -71 c-9
-9 -91 20 -102 35 -11 14 -9 18 9 23 15 4 34 -4 59 -25 21 -16 36 -31 34 -33z
m419 -17 c48 -68 79 -125 72 -133 -3 -2 -34 17 -69 43 -34 26 -64 48 -64 48
-1 1 -5 30 -9 66 -7 60 -6 64 10 50 9 -8 36 -41 60 -74z m-557 51 c2 -11 -2
-14 -17 -10 -12 3 -17 11 -14 19 7 18 27 13 31 -9z m-78 -37 c10 0 28 -16 41
-35 29 -42 45 -46 24 -5 -20 39 -20 40 14 40 25 0 31 -7 49 -48 21 -49 41
-123 42 -153 0 -18 -65 -49 -101 -49 -43 0 -74 26 -88 76 -16 56 -44 140 -56
168 -8 17 -5 19 25 13 18 -4 40 -7 50 -7z m-96 -42 c13 -24 34 -74 45 -112 25
-82 23 -86 -61 -86 l-56 0 -60 99 -59 100 46 10 c25 5 57 14 71 20 41 16 48
13 74 -31z m309 15 c4 -2 7 -28 7 -56 0 -37 3 -48 10 -37 5 8 10 31 10 52 l0
36 53 4 c28 2 54 3 56 2 2 -2 6 -49 8 -105 6 -114 4 -119 -60 -119 -67 0 -94
22 -107 87 -7 32 -21 80 -31 106 l-19 49 32 -7 c18 -4 36 -9 41 -12z m-466
-121 c63 -107 63 -112 -8 -152 -35 -20 -60 -25 -126 -27 -45 -1 -84 1 -87 5
-3 5 -8 53 -12 108 l-7 100 45 17 c25 10 60 28 78 42 42 31 45 29 117 -93z
m742 91 l54 -6 -7 -81 c-3 -45 -6 -86 -6 -93 0 -28 -28 -40 -79 -33 -28 3 -53
9 -56 11 -2 3 -6 54 -7 113 l-3 107 25 -5 c14 -4 49 -9 79 -13z m174 -97 c75
-56 74 -47 24 -158 -17 -38 -35 -68 -41 -68 -6 0 -33 16 -59 36 -40 29 -48 40
-43 57 4 12 12 61 18 109 8 62 15 85 23 80 6 -4 42 -29 78 -56z m-1349 27 c7
-25 32 -161 51 -277 18 -114 17 -117 -60 -152 -63 -30 -153 -33 -183 -6 -39
32 -162 305 -162 358 0 7 21 15 53 19 85 11 227 44 256 60 34 19 39 18 45 -2z
m112 7 l41 0 7 -122 c4 -68 10 -146 12 -174 6 -57 5 -59 -47 -69 l-36 -7 -17
124 c-10 68 -24 150 -32 183 -18 78 -18 78 9 71 12 -3 40 -6 63 -6z m1730 -29
c12 -59 27 -108 45 -144 23 -44 18 -57 -20 -57 -27 0 -28 1 -40 88 -6 48 -14
102 -17 120 -5 27 -4 31 10 26 9 -3 19 -18 22 -33z m-2190 -171 c10 -30 42
-101 71 -157 l53 -101 -48 -35 c-26 -18 -52 -37 -58 -40 -13 -7 -100 118 -152
216 l-30 59 66 68 c40 41 69 63 73 56 3 -6 14 -36 25 -66z m1823 -16 c17 -47
31 -93 31 -103 0 -21 -47 -128 -60 -136 -18 -11 -80 110 -80 157 0 27 63 177
72 172 3 -2 20 -42 37 -90z m-609 52 c0 -18 3 -53 6 -78 8 -54 -11 -78 -61
-78 -65 0 -81 13 -94 77 -6 32 -14 67 -17 78 -5 18 -1 20 48 17 29 -2 64 1 78
7 38 15 40 14 40 -23z m-187 -43 c9 -38 19 -76 22 -85 6 -14 -3 -22 -40 -38
-26 -11 -50 -20 -54 -20 -4 0 -17 33 -30 73 -13 39 -30 84 -37 99 l-14 27 58
4 c31 2 62 4 68 5 7 1 19 -27 27 -65z m315 52 l53 0 -6 -50 c-13 -106 -10
-102 -71 -109 -31 -3 -59 -4 -64 -1 -5 3 -9 44 -9 91 0 84 0 85 22 77 12 -4
46 -8 75 -8z m-437 -144 l19 -55 -22 -24 c-31 -33 -78 -52 -129 -52 -37 0 -46
5 -78 42 -49 57 -111 140 -111 149 0 4 17 5 38 2 51 -7 156 21 195 52 l32 25
19 -43 c10 -23 27 -66 37 -96z m592 117 c20 -1 37 -7 37 -13 0 -5 -16 -39 -34
-75 -25 -49 -39 -64 -52 -62 -45 7 -46 9 -39 79 9 79 11 85 33 79 10 -3 34 -6
55 -8z m140 -88 c7 0 18 -4 26 -9 11 -7 5 -24 -28 -85 -23 -42 -45 -76 -49
-76 -20 0 -74 44 -83 67 -9 23 -5 38 23 94 l33 67 33 -29 c18 -16 38 -29 45
-29z m662 -36 c15 -32 22 -61 17 -66 -10 -10 -136 -13 -151 -4 -7 5 -7 15 -1
32 6 14 10 38 10 54 0 26 4 29 38 33 20 2 42 4 49 5 7 1 24 -23 38 -54z
m-1611 -155 c-17 -19 -101 -55 -109 -47 -3 2 -7 58 -10 123 l-6 118 71 -88
c66 -83 69 -89 54 -106z m1053 14 c11 -15 23 -33 26 -39 8 -14 -45 -89 -73
-104 -29 -16 -44 -1 -69 66 l-20 53 41 72 41 71 17 -45 c10 -25 26 -58 37 -74z
m-663 -3 c16 -101 14 -108 -31 -111 -13 -1 -28 -2 -35 -3 -7 -1 -19 33 -29 79
-9 44 -19 86 -21 93 -3 14 82 53 94 43 4 -3 14 -49 22 -101z m132 40 c-15
-142 -14 -141 -54 -138 l-36 3 -17 95 c-10 52 -18 98 -18 102 -1 4 29 7 65 6
l66 -2 -6 -66z m154 54 c0 -8 -10 -56 -21 -105 -23 -96 -34 -109 -94 -109 -32
0 -35 7 -25 60 4 25 11 71 15 102 6 57 6 57 43 61 77 8 82 7 82 -9z m88 -8 c1
-2 -8 -25 -20 -52 -11 -27 -26 -69 -33 -94 -8 -33 -17 -46 -32 -48 -20 -3 -20
-2 5 103 26 104 27 106 52 100 14 -4 26 -8 28 -9z m-928 -53 c1 -54 11 -117
20 -126 11 -13 -8 -86 -31 -119 -12 -16 -23 -27 -25 -25 -3 3 -44 266 -44 282
0 4 54 22 73 24 4 1 7 -16 7 -36z m430 -60 c16 -78 7 -128 -26 -150 -15 -9
-29 -12 -33 -7 -21 22 -131 164 -131 169 0 3 12 5 28 5 33 0 102 31 121 54 18
22 24 12 41 -71z m591 22 l28 -15 -53 -88 c-29 -48 -57 -87 -62 -86 -5 1 -18
16 -28 33 -16 28 -17 39 -8 79 6 26 20 69 31 96 l21 48 21 -26 c11 -15 34 -33
50 -41z m346 13 c7 -24 15 -52 19 -63 7 -18 6 -19 -10 -6 -26 22 -48 70 -41
91 10 31 20 24 32 -22z m337 27 c6 2 32 6 57 9 55 6 56 5 65 -115 6 -74 6 -77
-23 -109 -23 -25 -39 -33 -73 -36 -44 -4 -122 13 -195 43 -88 37 -97 68 -31
107 25 14 61 46 81 70 34 42 37 43 72 36 19 -5 41 -7 47 -5z m-1804 -45 c0
-16 1 -33 2 -37 1 -5 9 -57 18 -116 l17 -108 -32 -25 c-18 -13 -37 -24 -43
-24 -15 0 -92 94 -142 175 -24 39 -49 79 -56 90 -13 19 -11 20 44 17 47 -3 66
2 112 26 72 38 80 38 80 2z m1455 -65 c17 -16 39 -35 50 -41 18 -10 17 -13
-15 -53 -32 -39 -96 -88 -105 -79 -2 2 -8 22 -13 45 -12 53 -6 116 15 161 15
32 18 34 27 16 6 -10 25 -32 41 -49z m-1085 -27 c36 -44 69 -87 73 -94 8 -15
-33 -64 -53 -64 -6 0 -35 22 -63 48 -29 27 -73 65 -100 86 l-47 39 49 22 c27
13 52 28 55 34 4 6 10 11 14 10 4 0 36 -37 72 -81z m-584 -40 c36 -57 83 -124
105 -150 l39 -46 -26 -57 -25 -57 -21 18 c-46 39 -159 161 -186 198 -15 22
-39 52 -54 69 -16 16 -28 34 -27 41 0 10 106 85 121 86 4 0 37 -46 74 -102z
m1393 45 c8 -21 20 -46 29 -55 14 -16 12 -20 -14 -40 -16 -13 -47 -39 -69 -60
l-41 -36 -10 34 c-10 31 -8 40 34 114 25 44 48 80 52 80 3 0 12 -17 19 -37z
m-989 -45 c14 -23 20 -51 20 -89 0 -74 -13 -86 -75 -69 -25 7 -48 16 -51 21
-2 5 9 27 26 50 17 23 33 60 36 81 8 47 18 48 44 6z m1153 -30 c3 -29 8 -65
12 -79 6 -24 2 -28 -42 -47 -81 -34 -100 -37 -113 -13 -6 12 -8 36 -4 57 5 28
16 41 61 70 29 19 56 41 59 49 12 29 22 14 27 -37z m-633 -78 c18 -66 31 -122
29 -125 -3 -2 -16 -6 -29 -7 -21 -3 -30 7 -57 57 -18 33 -41 86 -52 118 -22
65 -23 65 65 76 6 0 26 -53 44 -119z m68 53 c28 -90 44 -154 40 -158 -2 -1
-13 -6 -25 -9 -19 -6 -23 -2 -33 36 -6 24 -20 73 -31 109 -24 84 -24 89 5 89
20 0 26 -9 44 -67z m97 28 c-4 -19 2 -54 19 -103 14 -41 26 -78 26 -81 0 -4
-15 -7 -33 -7 l-34 0 -30 105 -29 104 35 4 c20 2 40 4 44 5 5 1 6 -11 2 -27z
m83 -34 c0 -34 5 -74 11 -90 6 -15 8 -27 6 -27 -2 0 0 -11 5 -25 8 -21 7 -25
-8 -25 -14 0 -25 21 -47 89 -32 101 -30 141 9 141 21 0 23 -4 24 -63z m-1371
-5 c47 -86 83 -188 90 -256 l6 -60 -49 35 c-48 35 -49 36 -66 120 -22 111 -33
219 -22 219 5 0 23 -26 41 -58z m2096 -14 c38 -11 89 -21 113 -22 24 0 44 -2
44 -4 0 -6 -77 -70 -123 -101 -28 -19 -83 -49 -123 -67 l-73 -34 -45 19 c-51
22 -76 60 -76 115 0 24 6 38 18 45 10 5 42 34 71 64 l53 55 36 -24 c19 -14 67
-34 105 -46z m-1323 -89 c0 -38 -18 -92 -29 -87 -3 2 -30 18 -59 37 -40 25
-51 37 -46 50 4 9 9 44 12 78 l4 62 59 -51 c53 -45 59 -55 59 -89z m220 82 c0
-7 18 -50 40 -94 22 -44 39 -81 38 -82 -7 -6 -47 -25 -52 -25 -3 0 -28 48 -55
106 l-50 106 27 23 27 23 12 -21 c7 -12 12 -28 13 -36z m436 -20 c-10 -61 -20
-57 -30 12 -7 47 -7 48 14 35 17 -10 20 -20 16 -47z m909 -5 c-8 -51 -14 -56
-33 -26 -11 18 -10 25 9 51 12 17 23 28 26 25 2 -2 1 -25 -2 -50z m-1399 -82
c48 -102 51 -116 30 -133 -11 -9 -19 -2 -41 36 -16 26 -46 69 -68 96 l-39 47
28 28 c16 15 33 26 38 23 5 -2 28 -46 52 -97z m-758 -48 c80 -81 89 -94 108
-160 12 -39 18 -72 13 -74 -8 -3 -96 32 -144 58 -27 15 -31 23 -37 77 -7 65
-32 161 -55 208 l-14 30 21 -25 c12 -14 61 -65 108 -114z m1415 47 c5 -7 -9
-23 -37 -42 -37 -26 -45 -28 -50 -15 -14 35 -4 66 32 105 l37 42 5 -39 c3 -21
9 -44 13 -51z m-142 -27 c-6 -15 -15 -24 -21 -21 -7 4 -7 12 0 25 5 10 10 30
10 44 0 13 3 33 8 43 12 30 15 -59 3 -91z m853 4 c-18 -79 -142 -248 -207
-281 l-41 -21 -23 28 c-27 34 -53 106 -53 145 0 24 9 32 75 65 41 21 105 62
142 91 l67 53 23 -27 c16 -19 21 -36 17 -53z m-1802 46 c77 -24 88 -33 88 -71
0 -36 -27 -115 -39 -115 -10 0 -161 140 -161 148 0 4 15 17 33 29 17 12 32 22
32 22 0 1 21 -6 47 -13z m1327 -111 c19 -19 41 -35 49 -35 31 0 -4 -17 -81
-39 l-79 -23 -36 29 c-21 17 -41 41 -46 55 -12 34 1 79 23 85 10 2 40 15 67
27 l49 23 10 -44 c6 -27 23 -57 44 -78z m-929 -24 c28 -51 29 -54 12 -77 -9
-13 -20 -24 -23 -24 -4 0 -18 17 -33 38 -14 21 -39 51 -54 65 l-28 27 15 50
16 49 32 -37 c18 -20 46 -61 63 -91z m-163 -17 c15 -67 15 -116 -1 -137 -14
-18 -18 -16 -85 28 -39 26 -71 50 -71 55 0 4 9 27 20 51 11 24 20 59 20 77 l0
34 53 -30 c47 -27 53 -34 64 -78z m-283 10 c79 -73 86 -84 80 -108 -3 -15 -17
-32 -30 -38 -20 -9 -33 -3 -109 58 -47 37 -84 73 -82 78 21 53 43 96 48 94 3
-2 45 -39 93 -84z m1150 61 c-10 -25 4 -62 37 -100 18 -20 30 -37 28 -39 -11
-10 -134 -25 -142 -17 -5 5 -9 30 -10 56 -2 46 0 50 41 82 49 37 54 39 46 18z
m-337 -99 c13 -55 22 -100 21 -102 -2 -1 -15 0 -30 3 -24 5 -28 12 -42 72 -31
144 -31 133 0 129 27 -3 29 -8 51 -102z m90 54 c17 -59 51 -210 46 -210 -6 0
-83 40 -83 43 0 10 -41 187 -46 201 -6 15 -1 17 31 14 35 -3 39 -6 52 -48z
m119 -6 c-3 -8 -10 -14 -16 -14 -10 0 -4 43 9 65 8 13 14 -32 7 -51z m-295
-41 c22 -96 23 -103 4 -103 -8 0 -17 12 -21 28 -7 32 -33 122 -40 139 -4 10
25 24 35 17 2 -2 12 -38 22 -81z m255 -33 c44 -162 45 -170 37 -170 -22 1 -33
23 -48 94 -9 43 -25 105 -35 138 -17 54 -17 59 -2 56 12 -2 25 -36 48 -118z
m-339 78 c16 -21 45 -140 36 -148 -4 -5 -18 -10 -31 -12 -20 -3 -27 6 -48 57
-14 33 -27 65 -30 70 -2 6 8 18 23 27 34 21 38 21 50 6z m-261 -92 l33 -49
-22 -43 c-23 -49 -26 -50 -67 -29 -30 16 -37 29 -21 39 14 9 21 88 12 129 -9
38 -9 38 11 20 11 -10 35 -40 54 -67z m188 -16 l26 -65 -22 -17 c-13 -9 -26
-14 -29 -10 -3 4 -11 35 -18 70 -9 50 -9 67 0 78 15 18 12 22 43 -56z m930 28
c4 -24 19 -69 35 -100 l29 -56 -77 -21 c-42 -11 -106 -23 -143 -27 l-67 -7 -8
29 c-4 16 -7 55 -8 88 l0 59 105 37 c58 21 110 38 116 39 7 0 15 -18 18 -41z
m-459 -46 c-9 -9 -23 12 -25 38 -4 44 1 46 16 6 8 -22 12 -42 9 -44z m-1160
38 c5 -9 88 -73 130 -102 6 -5 5 -12 -5 -22 -13 -12 -22 -12 -68 2 -30 10 -53
19 -52 22 1 3 -3 16 -8 30 -17 47 -22 80 -13 80 5 0 13 -5 16 -10z m615 -12
c0 -2 4 -30 10 -62 7 -43 6 -63 -2 -73 -9 -12 -16 -4 -33 39 -19 47 -20 55 -7
76 12 18 32 30 32 20z m-304 -64 c66 -41 96 -75 80 -92 -4 -3 -30 4 -59 16
-28 11 -68 24 -88 27 -57 10 -65 19 -40 44 11 11 21 28 21 36 0 22 4 20 86
-31z m1034 8 c0 -21 6 -61 13 -89 l14 -51 -61 -4 c-34 -3 -66 -3 -72 -1 -16 6
-44 82 -44 121 0 25 5 33 23 36 37 9 112 24 120 25 4 1 7 -16 7 -37z m-183
-29 c-3 -10 -5 -4 -5 12 0 17 2 24 5 18 2 -7 2 -21 0 -30z m-290 5 c10 -14 33
-129 33 -167 0 -16 -6 -21 -24 -21 -30 0 -32 8 -35 95 -2 38 -5 73 -7 77 -6
10 4 28 15 28 5 0 13 -6 18 -12z m-296 -60 c6 -21 5 -36 -2 -45 -16 -19 -25
-16 -44 13 -16 25 -16 29 0 63 15 31 18 33 27 17 5 -9 14 -31 19 -48z m243 1
c11 -105 8 -131 -11 -127 -12 2 -21 21 -30 63 -7 33 -16 72 -19 87 -5 20 -2
27 12 31 38 10 41 6 48 -54z m134 52 c7 -4 17 -38 23 -76 5 -37 12 -79 16 -93
5 -23 4 -24 -23 -18 -16 4 -30 9 -32 11 -2 1 -7 34 -13 71 -5 38 -11 79 -14
92 -4 16 -1 22 12 22 10 0 24 -4 31 -9z m-214 -68 c8 -27 18 -66 22 -89 6 -40
5 -41 -27 -48 -18 -3 -34 -4 -37 -1 -3 2 -11 37 -18 77 -12 71 -12 74 9 90 12
10 25 18 29 18 3 0 13 -21 22 -47z m300 30 c42 -20 43 -22 52 -118 l7 -76 -38
15 c-20 9 -39 16 -40 16 -1 0 -5 24 -8 53 -4 28 -9 69 -13 90 -8 42 -7 43 40
20z m-826 -9 c66 -14 172 -57 172 -70 0 -18 -10 -17 -34 1 -19 15 -76 35 -153
55 -24 6 -43 16 -43 21 0 6 7 8 16 5 9 -3 28 -9 42 -12z m977 -62 c-6 -6 -25
45 -24 66 0 9 7 -1 15 -22 8 -22 12 -41 9 -44z m-734 47 c15 -7 18 -16 13 -32
-9 -30 -9 -30 -33 -17 -13 6 -21 21 -21 35 0 27 11 31 41 14z m208 -151 c1
-16 -3 -28 -9 -28 -5 0 -10 10 -10 23 0 12 -6 45 -14 74 -10 37 -11 54 -3 62
8 8 15 -4 24 -46 6 -32 12 -70 12 -85z m481 108 c12 -15 35 -154 27 -162 -2
-3 -15 0 -29 6 -22 10 -24 17 -26 91 -2 78 4 93 28 65z m-622 -17 c12 -18 11
-24 -2 -37 -22 -22 -41 -2 -32 32 8 32 17 33 34 5z m89 -47 c14 -41 17 -92 6
-92 -11 0 -45 119 -37 131 8 14 15 5 31 -39z m-179 26 c7 -7 12 -19 12 -27 0
-11 -4 -10 -20 4 -21 19 -26 35 -12 35 4 0 13 -5 20 -12z m141 -77 c25 -77 6
-90 -30 -20 -16 33 -18 43 -8 55 15 18 22 10 38 -35z m652 -8 c11 -26 19 -59
17 -74 -3 -25 -5 -26 -22 -14 -13 10 -20 30 -23 74 -2 34 -1 61 2 61 3 0 15
-21 26 -47z m-740 24 c-1 -12 -15 -9 -19 4 -3 6 1 10 8 8 6 -3 11 -8 11 -12z
m422 -11 c12 -30 -4 -56 -34 -56 -30 0 -37 17 -23 54 8 20 50 21 57 2z m-83
-25 c0 -43 -17 -47 -22 -6 -3 24 0 35 9 35 8 0 13 -12 13 -29z m148 23 c15 -4
22 -14 22 -30 0 -20 -5 -24 -30 -24 -27 0 -30 3 -30 30 0 32 2 33 38 24z
m-194 -20 c8 -22 -2 -54 -17 -54 -7 0 -22 -3 -33 -6 -16 -4 -23 0 -27 17 -7
27 6 46 36 52 12 2 25 5 28 6 4 0 10 -6 13 -15z m-249 -24 c17 -32 20 -64 6
-55 -15 9 -41 66 -35 76 8 14 12 11 29 -21z m535 15 c31 -16 35 -23 22 -41 -4
-7 -18 -8 -39 -2 -27 7 -32 13 -31 33 3 29 9 30 48 10z m-390 -46 c0 -17 -4
-28 -10 -24 -5 3 -10 17 -10 31 0 13 5 24 10 24 6 0 10 -14 10 -31z m500 -30
c0 -12 -26 -12 -50 1 -12 6 -16 17 -13 30 5 20 5 20 34 -1 16 -11 29 -25 29
-30z m-540 6 c0 -14 -4 -25 -10 -25 -5 0 -10 11 -10 25 0 14 5 25 10 25 6 0
10 -11 10 -25z m408 -1 c54 -15 62 -27 42 -65 -13 -23 -85 -26 -171 -5 -61 14
-122 51 -116 70 9 27 146 27 245 0z m-278 -40 c-14 -16 -79 -47 -122 -57 -23
-6 -28 -4 -28 12 0 26 20 40 93 66 51 19 63 21 65 9 2 -8 -2 -22 -8 -30z
m-200 -5 c0 -11 -4 -17 -10 -14 -5 3 -10 13 -10 21 0 8 5 14 10 14 6 0 10 -9
10 -21z m659 11 c10 -5 21 -17 25 -25 5 -14 2 -14 -24 2 -41 24 -42 45 -1 23z
m-44 -26 c84 -56 124 -111 95 -129 -12 -7 -82 32 -129 71 -22 18 -31 35 -31
55 0 36 14 37 65 3z m-246 -43 c25 -4 68 -7 94 -6 26 0 47 -1 47 -3 0 -3 -10
-45 -21 -95 l-21 -90 -92 5 c-132 7 -133 8 -135 119 -1 50 -2 94 -3 98 -2 18
5 18 43 -1 23 -11 62 -23 88 -27z m-156 -38 c12 -120 12 -121 -30 -132 -21 -6
-62 -11 -90 -11 l-53 0 0 68 c0 69 10 92 40 92 8 0 38 11 65 24 28 14 53 25
56 25 3 1 9 -29 12 -66z m-193 34 c0 -23 -55 -66 -68 -53 -5 5 56 76 65 76 2
0 3 -10 3 -23z m580 -58 c30 -23 65 -45 78 -50 26 -10 26 -9 4 -84 -15 -49
-22 -61 -42 -63 -33 -5 -101 16 -126 39 -21 19 -21 20 -2 92 9 39 18 80 18 90
0 25 9 22 70 -24z m-584 -25 c-3 -9 -6 -30 -6 -49 0 -23 -5 -34 -17 -38 -10
-2 -27 -8 -37 -13 -18 -7 -19 -4 -13 37 4 28 14 50 27 61 28 23 54 24 46 2z
m764 -82 c-1 -15 -40 41 -40 57 0 9 8 3 20 -17 11 -18 20 -36 20 -40z m-868
-29 c-4 -50 -7 -56 -49 -88 -25 -19 -50 -35 -54 -35 -10 0 2 34 47 128 41 85
61 84 56 -5z m878 -15 c12 -4 -37 -138 -50 -138 -13 0 -50 51 -50 67 0 8 7 39
16 69 l16 54 28 -24 c16 -13 34 -26 40 -28z m-565 -94 c8 -127 6 -134 -47
-134 -23 0 -29 7 -43 49 -10 30 -30 62 -55 85 -29 27 -40 45 -40 66 0 30 1 30
58 31 31 1 68 5 82 9 14 4 28 8 32 9 3 1 9 -51 13 -115z m-215 81 c0 -14 1
-28 3 -32 1 -4 -15 -9 -35 -10 -45 -4 -51 14 -16 47 29 27 48 25 48 -5z m368
8 c69 -5 82 -8 78 -22 -3 -9 -15 -54 -27 -101 -32 -124 -31 -123 -92 -116 -29
4 -58 12 -65 19 -7 8 -15 57 -19 127 l-6 113 24 -7 c13 -4 61 -10 107 -13z
m160 -48 c28 -14 64 -25 82 -25 27 0 30 -3 26 -20 -3 -11 -8 -29 -12 -40 -3
-10 -20 -29 -39 -40 -19 -12 -52 -41 -73 -66 -22 -24 -46 -44 -55 -44 -23 0
-40 27 -34 57 6 35 50 203 53 203 1 0 25 -11 52 -25z m302 -115 c18 -126 12
-137 -33 -61 -33 55 -37 68 -28 90 6 14 15 40 21 56 15 41 24 22 40 -85z
m-807 59 c39 -21 53 -50 112 -225 l59 -173 -47 -41 c-26 -23 -61 -61 -77 -85
-38 -55 -109 -100 -190 -121 -87 -22 -152 -56 -184 -96 l-27 -33 2 90 c2 96
13 200 38 345 14 81 22 110 32 110 5 0 20 25 34 55 28 59 116 162 149 175 30
13 74 12 99 -1z m-219 -59 c-40 -56 -52 -59 -35 -8 7 22 21 38 39 45 15 6 28
11 29 12 2 1 -13 -22 -33 -49z m876 29 c0 -5 -7 -9 -15 -9 -9 0 -12 6 -9 15 6
15 24 11 24 -6z m60 -95 c16 -26 41 -83 55 -128 14 -45 30 -88 35 -97 9 -18 6
-89 -10 -236 -12 -115 -33 -214 -67 -323 l-26 -85 -12 43 c-23 77 -72 145
-123 172 -49 26 -51 29 -121 180 -16 36 -48 89 -70 119 l-40 53 26 42 c66 103
134 203 155 228 37 43 98 78 135 78 29 0 37 -6 63 -46z m-515 -80 c4 -44 3
-70 -4 -77 -15 -15 -24 -2 -45 66 -19 63 -16 77 18 77 22 0 24 -6 31 -66z
m152 42 c2 -2 -7 -31 -20 -65 l-22 -62 -40 3 -40 3 -3 66 -3 65 63 -4 c35 -2
64 -5 65 -6z m73 -49 c0 -21 -61 -96 -74 -91 -15 6 -13 19 14 90 10 29 13 31
35 20 14 -6 25 -15 25 -19z m-220 -129 c0 -25 -3 -29 -10 -18 -13 20 -13 50 0
50 6 0 10 -15 10 -32z m90 18 c0 -20 -16 -36 -36 -36 -17 0 -24 6 -24 20 0 16
7 20 30 20 17 0 30 -2 30 -4z m44 -29 c-3 -9 -12 -17 -20 -17 -17 0 -17 5 -3
32 13 24 33 10 23 -15z m-44 -56 c0 -13 -34 -23 -54 -15 -28 11 -18 24 19 24
19 0 35 -4 35 -9z m-146 -92 c-48 -60 -65 -72 -72 -50 -4 11 109 123 116 116
3 -2 -18 -32 -44 -66z m53 -46 c-10 -82 -11 -82 -36 -76 -65 15 -65 16 -39 49
13 16 36 48 52 72 16 23 30 41 32 40 1 -2 -3 -40 -9 -85z m149 31 l33 -51 -28
-21 -29 -21 -24 69 c-14 38 -23 72 -20 75 14 14 38 -4 68 -51z m-76 -25 c12
-39 20 -72 18 -74 -7 -7 -68 -9 -68 -2 -3 25 14 147 20 147 5 0 18 -32 30 -71z
m-210 -55 c0 -9 -19 -43 -42 -76 l-43 -60 -12 28 c-18 43 -16 52 15 68 15 8
36 23 46 35 23 25 36 27 36 5z m370 -72 l20 -53 -29 -25 c-17 -14 -33 -26 -37
-27 -8 -3 -44 93 -44 120 0 12 12 31 27 43 31 24 33 22 63 -58z m-253 14 c7
-6 -19 -216 -26 -216 -3 0 -33 18 -66 40 -33 22 -64 40 -70 40 -5 0 -16 4 -24
9 -10 7 -3 23 35 75 l49 67 49 -5 c27 -3 51 -7 53 -10z m152 -66 c12 -38 24
-76 27 -84 4 -11 -9 -17 -53 -26 -32 -7 -70 -19 -85 -26 -39 -20 -41 -18 -34
29 3 23 9 62 12 87 11 81 18 90 68 90 l44 0 21 -70z m-396 15 c23 -48 22 -52
-19 -112 l-36 -53 -42 83 -41 82 50 16 c69 23 69 23 88 -16z m-132 -71 c15
-27 32 -68 37 -90 8 -37 6 -47 -17 -83 -14 -22 -29 -41 -32 -41 -4 0 -12 27
-18 59 -6 33 -24 85 -40 116 l-28 56 25 20 c14 11 30 18 35 16 6 -2 23 -25 38
-53z m708 -14 l43 -40 -24 -28 c-13 -16 -35 -54 -49 -85 -13 -31 -26 -57 -29
-57 -7 0 -50 144 -50 168 0 20 45 82 58 82 4 -1 27 -19 51 -40z m-769 -130
c41 -128 40 -143 -5 -92 -13 15 -36 56 -50 91 -23 56 -24 68 -14 99 11 34 12
34 26 16 8 -10 27 -62 43 -114z m342 59 c35 -23 64 -43 65 -43 4 -3 -16 -179
-22 -184 -3 -3 -18 6 -33 20 -20 18 -169 128 -210 154 -2 1 15 27 38 57 38 51
43 55 70 47 15 -4 57 -27 92 -51z m313 -66 c15 -43 29 -83 31 -89 3 -7 -17
-13 -53 -17 -32 -3 -92 -17 -133 -31 -41 -14 -77 -26 -78 -26 -9 0 10 166 20
178 16 19 61 41 105 51 78 19 79 18 108 -66z m219 35 c19 -35 19 -35 -3 -91
-26 -65 -108 -154 -125 -137 -6 6 -10 34 -10 63 2 76 74 215 108 204 6 -2 20
-19 30 -39z m-634 -124 c120 -86 140 -106 140 -142 0 -21 -5 -32 -14 -32 -40
0 -222 90 -284 140 -22 19 -23 20 -6 47 10 15 24 36 32 45 18 21 26 17 132
-58z m682 -11 c16 -32 -17 -79 -110 -156 -41 -33 -52 -34 -52 -4 0 14 22 45
59 83 32 34 65 78 72 99 10 26 15 32 17 19 2 -10 8 -29 14 -41z m-733 -122
c31 -16 84 -39 119 -51 35 -13 62 -29 62 -36 0 -17 -8 -17 -68 -3 -86 20 -146
54 -224 128 -54 50 -47 68 9 25 25 -19 72 -48 102 -63z m521 63 c22 -56 15
-69 -53 -92 -63 -23 -178 -35 -230 -25 -25 5 -27 9 -21 37 3 17 10 35 14 40
20 21 168 65 223 65 53 1 58 -1 67 -25z m30 -124 c0 -42 -130 -75 -254 -66
-84 6 -100 13 -91 37 4 11 30 14 113 15 82 0 120 5 162 21 60 22 70 21 70 -7z"/>
<path d="M3005 5460 c12 -66 26 -97 56 -126 l30 -29 -35 59 c-20 33 -36 69
-36 80 0 12 -5 28 -11 36 -7 11 -9 6 -4 -20z"/>
<path d="M3080 5366 c0 -2 8 -10 18 -17 15 -13 16 -12 3 4 -13 16 -21 21 -21
13z"/>
<path d="M3124 5332 c28 -45 177 -90 368 -111 110 -12 123 -13 116 -6 -2 3
-82 16 -176 30 -181 27 -235 41 -284 77 -18 12 -28 17 -24 10z"/>
<path d="M3689 5180 c41 -17 75 -29 77 -27 8 8 -74 46 -111 52 -33 5 -27 1 34
-25z"/>
<path d="M2498 4313 c7 -3 16 -2 19 1 4 3 -2 6 -13 5 -11 0 -14 -3 -6 -6z"/>
<path d="M3608 4393 c7 -3 16 -2 19 1 4 3 -2 6 -13 5 -11 0 -14 -3 -6 -6z"/>
<path d="M2908 4393 c6 -2 18 -2 25 0 6 3 1 5 -13 5 -14 0 -19 -2 -12 -5z"/>
<path d="M2860 1321 c-81 -42 -133 -156 -152 -333 -13 -113 -7 -128 52 -128
68 0 174 47 282 124 32 23 58 47 58 54 0 20 -69 214 -87 242 -38 61 -90 75
-153 41z m113 -53 c20 -27 92 -218 84 -223 -1 -1 -23 -17 -48 -36 -68 -51
-167 -98 -221 -105 l-48 -7 0 34 c2 141 49 280 115 338 48 42 86 42 118 -1z"/>
<path d="M3505 1184 c-39 -20 -80 -59 -115 -109 -49 -72 -50 -71 51 -204 112
-149 134 -166 213 -166 l60 0 9 40 c4 22 7 101 5 175 -3 120 -6 141 -28 185
-42 85 -122 117 -195 79z m109 -34 c14 -5 35 -28 48 -52 18 -36 22 -63 26
-175 5 -167 2 -183 -41 -183 -17 0 -45 8 -60 18 -24 16 -85 91 -136 166 -8 12
-26 33 -39 48 l-24 27 20 33 c24 37 99 113 122 121 24 9 57 8 84 -3z"/>
</g>
</svg>
