<?xml version="1.0" standalone="no"?>
<!DOCTYPE svg PUBLIC "-//W3C//DTD SVG 20010904//EN"
 "http://www.w3.org/TR/2001/REC-SVG-20010904/DTD/svg10.dtd">
<svg version="1.0" xmlns="http://www.w3.org/2000/svg"
 width="860.000000pt" height="933.000000pt" viewBox="0 0 860.000000 933.000000"
 preserveAspectRatio="xMidYMid meet">
<metadata>
Created by potrace 1.16, written by Peter Selinger 2001-2019
</metadata>
<g transform="translate(0.000000,933.000000) scale(0.100000,-0.100000)"
fill="#000000" stroke="none">
<path d="M6506 8900 c-68 -60 -69 -106 -6 -299 36 -112 66 -258 55 -269 -8 -9
-52 37 -122 126 -36 45 -73 87 -83 92 -30 16 -108 12 -137 -7 -33 -22 -55 -75
-47 -111 8 -33 37 -73 128 -177 94 -107 104 -120 87 -110 -7 4 -42 30 -77 56
-79 60 -129 75 -178 55 -64 -27 -85 -90 -51 -155 8 -17 48 -56 88 -85 79 -59
134 -113 139 -136 2 -9 -5 -33 -14 -55 -9 -22 -19 -56 -23 -76 -8 -55 -37 -84
-107 -109 -110 -40 -301 -136 -365 -184 -77 -57 -141 -137 -185 -232 -30 -65
-37 -74 -76 -89 -62 -25 -153 -96 -182 -144 -20 -34 -33 -43 -76 -56 -72 -21
-188 -100 -262 -179 -46 -49 -78 -99 -121 -185 -58 -114 -60 -118 -103 -130
-115 -35 -253 -130 -417 -288 l-101 -98 -53 12 c-76 16 -338 16 -419 -2 -146
-31 -313 -123 -432 -240 -75 -73 -102 -118 -160 -270 -30 -80 -30 -81 -31
-280 l0 -200 -58 -90 c-144 -222 -217 -454 -233 -740 -8 -126 16 -334 47 -425
10 -30 19 -55 19 -55 0 -1 -35 16 -77 37 -145 70 -372 97 -539 63 -73 -16 -75
-15 -104 5 -42 30 -169 74 -270 95 -171 36 -390 17 -533 -44 -118 -51 -236
-159 -310 -283 -169 -285 -104 -664 137 -789 l63 -33 7 -80 c13 -156 53 -263
154 -413 85 -126 172 -232 236 -286 160 -137 412 -284 618 -361 54 -20 169
-50 255 -67 169 -33 198 -45 214 -87 56 -146 121 -187 329 -204 l130 -11 47
-66 c54 -76 172 -195 235 -239 40 -27 46 -37 76 -130 56 -172 144 -267 337
-363 58 -28 142 -60 200 -75 231 -59 485 -34 524 52 12 26 -1 134 -26 209 -37
115 -137 344 -175 402 -79 122 -118 150 -322 234 -122 50 -260 191 -215 220
28 17 77 8 169 -32 111 -48 312 -99 390 -99 54 0 55 -1 83 -44 60 -95 133
-130 367 -173 231 -43 373 -52 452 -29 87 25 132 66 207 191 82 136 85 137
196 60 105 -73 187 -99 295 -93 94 5 154 36 198 101 61 89 67 177 26 346 -20
81 -25 122 -21 174 5 70 12 89 112 276 34 63 40 83 40 135 0 74 -41 167 -104
234 -50 53 -55 71 -49 170 7 100 42 187 130 318 71 106 93 127 353 338 128
104 222 203 340 358 121 160 189 300 221 459 17 86 15 209 -5 262 -9 22 -4 34
33 91 68 100 81 149 80 296 0 111 -3 131 -24 175 -14 28 -46 71 -72 96 -44 42
-49 52 -68 135 -37 160 -107 266 -235 354 -119 82 -236 115 -382 108 -107 -6
-157 -21 -260 -82 -51 -30 -71 -36 -120 -36 -196 -1 -352 -82 -581 -305 -177
-171 -272 -292 -371 -476 l-38 -70 -17 111 c-9 61 -25 143 -35 182 l-18 71 37
59 c21 32 55 106 76 164 l39 106 100 65 c167 109 330 285 409 440 42 84 83
195 96 259 11 54 15 60 50 77 64 30 172 129 232 212 75 105 145 241 203 395
59 159 115 278 156 334 34 48 79 74 207 121 63 24 84 38 150 105 67 67 84 79
132 91 30 7 89 13 130 13 63 1 82 -4 124 -27 56 -31 84 -34 132 -11 70 33 94
125 55 209 -33 73 -91 104 -196 105 -65 0 -147 12 -214 30 -48 13 -81 56 -81
107 0 17 22 109 49 205 87 306 103 484 49 565 -36 55 -88 79 -139 64 -57 -17
-73 -46 -98 -173 -29 -147 -71 -298 -83 -298 -19 0 -48 91 -67 215 -33 216
-64 285 -143 324 -60 29 -91 27 -132 -9z m99 -34 c36 -15 47 -36 20 -36 -9 0
-34 -9 -55 -20 l-40 -20 0 33 c0 31 14 57 32 57 5 0 24 -7 43 -14z m65 -77 c7
-11 10 -22 8 -23 -2 -1 -29 -12 -62 -25 -48 -20 -60 -21 -67 -10 -16 25 -10
35 34 56 54 28 74 28 87 2z m431 -8 c41 -41 37 -50 -18 -36 -27 7 -47 16 -46
21 12 54 22 56 64 15z m-399 -78 c3 -25 -3 -31 -51 -56 -30 -15 -58 -24 -63
-19 -4 4 -11 22 -14 40 -6 29 -4 33 27 47 19 8 48 14 66 15 27 0 32 -4 35 -27z
m421 5 c10 -5 17 -20 17 -40 0 -27 -2 -30 -22 -23 -13 4 -42 10 -65 12 -36 4
-43 9 -43 27 0 34 19 47 60 40 19 -4 43 -11 53 -16z m-408 -104 c8 -45 1 -52
-56 -60 -42 -6 -47 -4 -52 17 -7 28 -3 36 37 60 47 29 63 25 71 -17z m390 19
c23 -11 34 -22 30 -31 -3 -7 -5 -20 -5 -28 0 -13 -3 -13 -22 0 -12 9 -44 19
-70 22 -48 7 -59 19 -36 42 17 17 61 15 103 -5z m5 -91 c11 -13 15 -31 12 -51
l-4 -31 -33 20 c-19 12 -50 20 -74 20 -43 0 -46 5 -34 49 5 22 10 23 61 19 40
-4 60 -11 72 -26z m-376 -22 c3 -11 9 -29 12 -40 4 -17 1 -20 -25 -20 -16 0
-42 -5 -57 -10 -32 -12 -30 -14 -39 28 -6 30 -4 33 27 47 47 20 76 19 82 -5z
m-474 -15 c0 -8 -7 -15 -15 -15 -16 0 -20 12 -8 23 11 12 23 8 23 -8z m80 -19
c0 -17 -56 -66 -76 -66 -23 0 -16 37 12 59 31 24 64 28 64 7z m730 -24 c40
-20 45 -35 31 -90 l-11 -39 -47 23 c-25 13 -58 24 -73 24 -36 0 -40 6 -27 43
5 18 11 38 13 45 5 18 73 15 114 -6z m-676 -21 c16 -18 15 -20 -21 -50 -40
-33 -50 -34 -67 -8 -8 13 -4 23 19 47 33 35 46 37 69 11z m360 -17 c15 -14 17
-21 20 -56 1 -9 -10 -12 -30 -10 -18 2 -48 -4 -68 -12 -36 -15 -36 -15 -37 10
-1 13 -2 29 -3 35 -1 14 61 49 86 49 9 0 24 -7 32 -16z m-315 -41 c12 -22 -33
-83 -60 -83 -31 0 -28 43 4 78 25 26 43 28 56 5z m592 -44 c48 -21 50 -23 43
-53 -4 -17 -11 -42 -15 -55 l-9 -23 -40 35 c-21 20 -58 41 -82 48 -24 6 -49
13 -56 15 -19 6 -4 24 32 40 44 19 70 17 127 -7z m-526 -30 c36 -32 44 -49 23
-49 -6 0 -26 -11 -44 -25 -18 -14 -35 -25 -38 -25 -11 0 -36 61 -30 73 8 14
46 57 50 57 2 0 19 -14 39 -31z m260 11 c10 -17 -48 -94 -85 -112 -89 -44
-210 -64 -210 -34 0 17 56 66 75 66 7 0 16 -11 19 -25 4 -14 10 -25 15 -25 4
0 22 26 39 58 17 32 42 64 54 70 29 14 85 15 93 2z m107 -75 c-15 -18 -31 -40
-37 -49 -9 -15 -13 -14 -37 9 -31 28 -36 56 -14 78 12 11 24 12 65 4 l50 -11
-27 -31z m123 -16 c44 -41 51 -60 39 -106 -7 -27 -18 -28 -81 -7 -44 15 -93
48 -93 64 0 17 62 90 75 90 9 0 36 -19 60 -41z m-841 -35 c-11 -16 -20 -22
-27 -15 -15 15 0 41 23 41 20 0 20 -1 4 -26z m86 11 c0 -15 -57 -81 -68 -77
-32 10 7 82 44 82 13 0 24 -2 24 -5z m477 -52 c-4 -21 -14 -43 -23 -50 -20
-15 -141 -43 -183 -43 -28 0 -31 3 -31 34 0 32 2 34 43 40 23 4 74 18 112 31
92 30 89 31 82 -12z m96 8 c67 -46 144 -81 177 -81 37 0 38 -12 4 -39 -42 -33
-86 -41 -153 -27 -82 17 -115 40 -106 74 17 72 26 102 31 102 3 0 24 -13 47
-29z m-523 4 c9 -11 6 -21 -15 -50 -30 -38 -35 -41 -52 -24 -9 9 -7 21 8 50
20 41 39 49 59 24z m54 -56 c13 -20 12 -24 -13 -52 -44 -46 -67 -18 -36 43 18
36 29 37 49 9z m56 -58 c0 -27 -60 -77 -71 -59 -5 7 -3 22 5 33 7 11 16 26 20
33 12 20 46 15 46 -7z m289 -8 c-1 -46 -24 -97 -50 -110 -25 -13 -126 -18
-153 -7 -12 4 -16 20 -16 55 0 49 0 49 33 49 17 1 61 9 97 19 88 25 90 25 89
-6z m-243 -55 c-4 -28 -17 -53 -35 -72 -32 -31 -46 -29 -55 8 -5 21 2 33 36
65 24 22 47 41 52 41 5 0 6 -19 2 -42z m404 -6 l51 -7 -56 -62 c-61 -68 -85
-76 -130 -47 -30 19 -32 50 -9 117 l16 47 39 -20 c21 -11 61 -23 89 -28z m137
-49 c-92 -129 -110 -224 -72 -376 6 -24 3 -29 -26 -41 -19 -8 -47 -16 -64 -18
-27 -3 -30 0 -33 27 -3 33 54 207 95 289 42 85 128 206 131 186 2 -10 -12 -40
-31 -67z m-50 20 c-8 -10 -36 -54 -61 -97 -42 -74 -45 -78 -51 -53 -6 23 1 37
41 85 46 53 74 81 83 82 2 0 -3 -8 -12 -17z m117 -38 c3 -8 -5 -31 -19 -50
-31 -46 -45 -117 -38 -186 5 -49 3 -58 -22 -87 -37 -44 -47 -32 -53 62 -5 89
13 156 61 228 32 48 60 61 71 33z m-621 -66 c-4 -37 -10 -49 -30 -58 -36 -16
-39 -14 -35 27 3 29 11 42 35 58 18 12 33 21 34 20 0 0 -1 -22 -4 -47z m207
46 c0 -13 -50 -103 -64 -114 -19 -16 -68 -6 -89 17 -20 23 -30 58 -22 82 6 18
15 20 91 20 46 0 84 -2 84 -5z m469 -39 c9 -11 8 -26 -5 -65 -9 -28 -14 -66
-12 -84 3 -30 0 -36 -26 -46 -42 -15 -49 -3 -44 71 7 105 51 168 87 124z
m-395 -17 l47 -20 -30 -37 c-17 -20 -41 -50 -54 -67 l-25 -29 -21 34 c-11 19
-21 41 -21 48 0 12 47 92 54 92 2 0 24 -9 50 -21z m481 -19 c22 -8 24 -13 15
-30 -6 -12 -12 -48 -12 -80 0 -33 -3 -60 -6 -60 -3 0 -21 5 -39 12 -30 11 -33
15 -33 55 0 47 23 113 39 113 5 0 21 -4 36 -10z m101 -32 c-3 -13 -6 -41 -6
-64 0 -34 -4 -43 -25 -52 -44 -20 -48 -16 -42 42 7 71 21 96 54 96 21 0 24 -3
19 -22z m89 5 c-4 -10 -10 -37 -12 -60 -5 -39 -8 -43 -34 -43 -26 0 -29 4 -29
30 0 49 26 90 56 90 21 0 25 -4 19 -17z m86 6 c14 -7 17 -14 10 -22 -5 -7 -15
-36 -23 -64 -13 -51 -14 -52 -38 -40 -31 15 -37 52 -16 101 16 37 33 44 67 25z
m-660 -32 c9 -19 4 -44 -22 -128 l-33 -103 -28 59 c-15 33 -27 69 -27 80 -1
21 73 115 90 115 5 0 14 -11 20 -23z m-308 -10 l27 -23 -29 -28 c-18 -18 -44
-30 -71 -33 l-42 -6 38 57 c21 31 41 56 44 56 3 -1 17 -11 33 -23z m-102 -15
c-13 -25 -50 -56 -57 -49 -4 3 -4 17 0 31 5 22 13 27 59 35 4 0 3 -7 -2 -17z
m1121 -9 c4 -33 -21 -95 -36 -90 -11 4 -11 24 -1 85 7 39 32 43 37 5z m-911
-34 l21 -41 -38 -39 c-35 -36 -38 -37 -64 -24 -54 28 -54 38 -3 94 27 28 51
51 55 51 4 0 17 -19 29 -41z m-206 -55 c14 -6 12 -10 -12 -25 -15 -11 -42 -19
-59 -19 -36 0 -70 22 -60 38 8 13 103 16 131 6z m285 -24 c0 -10 10 -35 21
-55 24 -40 28 -33 -42 -85 l-26 -19 -20 59 -19 59 35 35 c36 36 51 38 51 6z
m-187 -106 c-25 -31 -39 -41 -53 -37 -22 6 -70 58 -70 75 0 6 16 26 36 44 l36
34 42 -37 43 -38 -34 -41z m-243 81 c7 -8 21 -15 31 -15 44 0 18 -40 -48 -74
-38 -19 -72 -20 -108 -4 -32 14 -31 18 3 50 63 58 99 71 122 43z m112 -85 c9
-17 29 -35 43 -42 14 -6 25 -14 25 -18 0 -4 -17 -27 -38 -51 l-39 -43 -45 17
c-41 16 -68 47 -68 77 0 14 80 90 94 90 6 0 19 -14 28 -30z m233 -19 c18 -56
14 -69 -33 -115 l-30 -28 -15 28 c-30 61 -30 82 4 124 18 22 38 40 45 40 7 0
20 -22 29 -49z m-455 -15 l45 -12 -70 -52 c-85 -63 -103 -69 -149 -47 -43 21
-41 25 44 92 34 26 61 41 70 37 8 -4 35 -12 60 -18z m-226 -60 c-116 -99 -214
-175 -205 -159 16 30 82 89 160 142 87 59 100 65 45 17z m306 10 c0 -18 43
-60 81 -78 l30 -15 -40 -51 c-22 -27 -44 -53 -50 -56 -27 -17 -161 78 -161
114 0 11 117 100 131 100 5 0 9 -6 9 -14z m272 -54 l27 -57 -36 -37 c-21 -21
-41 -38 -45 -38 -13 0 -48 63 -48 86 0 21 54 104 68 103 4 0 19 -26 34 -57z
m-539 -26 l47 -24 -42 -35 c-79 -63 -134 -81 -179 -56 -17 9 -18 13 -7 26 12
15 126 113 131 113 1 0 23 -11 50 -24z m189 -105 c85 -48 81 -42 58 -79 l-20
-33 -45 39 c-24 21 -69 52 -100 69 l-56 30 37 32 36 32 19 -30 c10 -16 42 -44
71 -60z m262 -7 l25 -22 -46 -61 c-25 -34 -51 -60 -57 -58 -23 7 -37 52 -33
105 3 44 9 59 38 88 l34 35 7 -33 c3 -18 18 -42 32 -54z m-362 -42 c44 -29 53
-49 37 -88 l-12 -29 -7 30 -7 30 -12 -29 c-9 -23 -14 -27 -24 -17 -9 9 -17 2
-34 -31 -19 -38 -22 -40 -23 -18 -1 21 -5 18 -25 -22 -27 -50 -45 -68 -45 -44
0 9 -4 16 -10 16 -5 0 -10 -5 -10 -11 0 -5 -11 -27 -25 -47 l-25 -37 -1 35 c0
38 1 39 -45 -35 l-25 -40 7 34 c9 47 -8 33 -50 -42 -36 -63 -44 -70 -26 -22
19 51 -3 47 -34 -6 -35 -62 -35 -85 1 -118 55 -49 179 -8 284 93 80 78 179
249 179 311 l1 30 34 -39 c19 -22 35 -47 35 -56 0 -33 -73 -137 -155 -220 -79
-80 -85 -90 -106 -162 -25 -84 -19 -108 26 -108 35 0 162 89 233 164 35 36 66
66 68 66 2 0 4 -12 4 -28 0 -22 -24 -52 -119 -146 -80 -80 -127 -119 -142
-120 -23 -1 -24 -6 -31 -92 -9 -115 -35 -184 -112 -298 -63 -93 -161 -181
-251 -226 -22 -11 -69 -35 -105 -55 -36 -19 -71 -35 -77 -35 -8 0 -13 14 -13
39 0 34 3 39 29 44 16 3 67 24 115 47 144 68 262 197 313 339 21 60 22 77 17
181 -7 141 -13 160 -29 95 -8 -33 -13 -41 -14 -25 -1 14 -5 31 -10 39 -6 9
-12 -17 -16 -78 -4 -50 -12 -94 -16 -97 -5 -3 -9 32 -9 77 0 45 -2 80 -5 77
-3 -2 -11 -33 -18 -69 l-14 -64 -10 35 -10 35 -8 -30 c-4 -16 -13 -50 -20 -75
-12 -43 -13 -44 -14 -12 -2 48 -17 39 -32 -19 -12 -44 -15 -48 -26 -33 -11 15
-13 14 -24 -12 -27 -68 -38 -89 -38 -71 -1 30 -17 18 -31 -23 -9 -26 -18 -39
-26 -36 -8 3 -21 -8 -31 -24 -9 -16 -20 -27 -24 -24 -4 2 -19 -7 -32 -20 -35
-35 -92 -44 -119 -20 l-21 19 7 -40 c28 -164 26 -293 -4 -432 -10 -42 -105
-271 -120 -286 -4 -5 -16 6 -27 23 l-20 32 33 66 c80 158 87 343 18 505 -30
72 -31 89 -3 222 22 104 127 378 156 405 14 13 15 13 8 -5 -30 -81 -26 -118
16 -133 19 -7 17 -11 -19 -52 -50 -58 -77 -110 -103 -205 -32 -118 -14 -116
58 8 33 56 77 110 141 173 50 50 92 96 92 102 0 16 -28 28 -82 36 -27 4 -48
11 -48 15 0 12 48 82 79 114 14 16 45 40 68 55 50 31 60 50 39 71 -21 20 -43
8 -134 -69 -75 -65 -118 -76 -47 -13 163 145 231 213 267 266 63 94 125 162
213 237 75 64 81 67 110 57 16 -6 47 -21 67 -35z m-234 3 c8 -8 -84 -95 -100
-95 -25 0 -58 18 -58 31 0 5 18 29 41 53 l40 44 37 -15 c20 -8 38 -16 40 -18z
m490 -115 c19 -16 19 -17 -6 -65 l-25 -49 -34 68 -34 67 27 47 27 46 13 -49
c6 -27 21 -56 32 -65z m142 73 c-14 -47 -51 -143 -56 -143 -2 0 -4 21 -4 48 0
38 6 55 31 85 17 20 32 37 34 37 2 0 0 -12 -5 -27z m-796 -58 c11 -8 28 -15
38 -15 26 0 23 -6 -24 -66 -29 -36 -51 -53 -66 -54 -23 0 -96 33 -106 48 -6
11 23 39 79 76 45 30 53 31 79 11z m718 -136 c1 -23 -59 -146 -67 -137 -1 2
-5 28 -9 58 -6 50 -3 60 26 110 l31 55 9 -30 c5 -16 9 -42 10 -56z m-856 6
c26 -14 55 -25 65 -25 22 0 23 -4 9 -30 -16 -29 -119 -110 -141 -110 -11 0
-35 15 -55 33 l-36 33 64 24 c48 19 63 30 63 45 0 13 -8 21 -22 23 -23 3 -29
13 -16 25 10 11 19 9 69 -18z m-96 -180 c21 -7 17 -12 -51 -81 -40 -41 -77
-74 -81 -74 -4 0 -21 23 -37 52 -34 58 -33 60 29 131 l42 47 38 -34 c21 -19
48 -37 60 -41z m-209 -17 c-12 -21 -30 -34 -46 -36 -25 -3 -25 -2 12 32 48 44
61 46 34 4z m-86 -164 c-25 -48 -45 -94 -45 -101 0 -9 -17 -13 -55 -13 -31 0
-55 4 -55 10 0 21 69 146 95 172 25 25 95 43 103 27 2 -4 -18 -46 -43 -95z
m149 -18 c-3 -12 -15 -37 -25 -56 -10 -19 -28 -59 -40 -87 -12 -29 -25 -53
-30 -53 -5 0 -17 17 -26 38 -10 20 -24 45 -32 54 -12 16 -9 28 32 113 l47 96
40 -42 c30 -32 39 -48 34 -63z m-214 -121 c0 -12 -42 -25 -65 -19 -40 10 -29
24 20 24 25 0 45 -2 45 -5z m55 -25 c4 -11 17 -33 31 -49 l24 -28 -31 -121
c-26 -99 -35 -119 -48 -115 -31 11 -78 64 -102 114 -22 49 -23 51 -5 83 21 39
104 136 116 136 5 0 12 -9 15 -20z m-159 -98 c-24 -46 -41 -55 -97 -50 -28 3
-57 12 -65 20 -13 13 -6 17 58 35 40 12 83 22 96 22 22 1 22 0 8 -27z m-162
-57 c27 -14 64 -25 81 -25 l32 0 -43 -87 c-24 -48 -48 -91 -53 -96 -5 -5 -30
-6 -56 -3 -54 9 -115 56 -115 90 0 30 54 117 82 132 12 7 23 13 23 14 0 0 22
-11 49 -25z m247 -155 c22 -16 45 -30 52 -33 7 -2 3 -19 -12 -48 -13 -24 -36
-70 -52 -102 -16 -32 -36 -60 -45 -64 -34 -13 -134 124 -134 183 0 9 21 56 46
105 l47 90 29 -51 c16 -27 47 -63 69 -80z m-423 70 c-20 -34 -61 -60 -74 -47
-5 4 82 87 91 87 3 0 -5 -18 -17 -40z m-64 -157 c-13 -48 -29 -90 -36 -95 -18
-12 -78 -2 -96 16 -13 12 -10 22 22 75 21 33 42 64 48 67 9 6 56 19 80 23 3 1
-5 -38 -18 -86z m87 61 c18 -22 77 -50 122 -58 20 -4 37 -10 37 -15 0 -4 -9
-33 -19 -63 -10 -31 -24 -81 -31 -112 -10 -51 -14 -56 -38 -56 -35 0 -95 49
-127 105 -26 43 -26 44 -10 104 29 114 39 128 66 95z m213 -132 c22 -44 66
-91 110 -117 15 -9 14 -16 -9 -83 -14 -41 -25 -80 -25 -87 0 -8 -4 -25 -10
-40 -9 -25 -11 -25 -38 -11 -37 19 -84 73 -102 115 -12 29 -11 44 3 115 21 97
36 156 42 156 3 0 16 -22 29 -48z m-704 0 c63 -16 66 -19 88 -66 22 -46 22
-49 6 -67 -74 -82 -299 -108 -431 -49 -49 22 -135 98 -127 112 10 15 110 57
173 73 77 18 213 17 291 -3z m926 -54 c-4 -35 -10 -81 -13 -102 l-6 -39 -14
52 c-12 48 -11 56 8 102 12 27 24 49 27 49 2 0 2 -28 -2 -62z m-649 -93 c76
-72 81 -90 21 -69 -79 26 -188 126 -188 171 0 24 97 -36 167 -102z m93 69 c0
-30 -16 -28 -38 4 -14 21 -13 22 12 22 21 0 26 -5 26 -26z m74 -53 c11 -13 47
-36 78 -51 48 -23 55 -30 45 -42 -15 -19 -77 -61 -82 -57 -2 2 -24 33 -50 67
-43 59 -46 67 -40 105 6 35 9 38 18 21 5 -10 19 -30 31 -43z m-824 -102 c0
-50 -85 -202 -156 -278 -58 -63 -81 -79 -172 -123 -124 -60 -135 -58 -140 21
-4 70 12 144 48 220 33 70 168 212 255 269 l49 32 58 -57 c42 -42 58 -65 58
-84z m1265 30 c13 -39 16 -69 11 -118 -7 -75 -15 -111 -25 -111 -4 0 -23 20
-44 44 l-36 44 15 54 c23 83 45 138 54 138 5 0 16 -23 25 -51z m-722 -76 c20
-65 44 -151 54 -190 l17 -73 -29 -30 c-16 -16 -48 -37 -71 -46 -39 -15 -49
-15 -119 -1 -122 25 -143 40 -194 132 -24 44 -70 122 -102 173 -48 77 -55 92
-36 85 12 -4 81 -8 153 -8 l131 0 69 36 c38 20 74 37 80 38 6 1 27 -52 47
-116z m123 38 c103 -46 144 -82 144 -131 0 -20 -2 -19 -50 6 -84 44 -118 13
-59 -53 32 -38 72 -115 83 -165 8 -33 -2 -35 -77 -13 l-52 15 -49 183 c-27
100 -51 188 -53 196 -3 7 -1 12 3 10 5 -2 55 -24 110 -48z m402 -99 c16 -12
35 -22 40 -22 23 0 23 -23 1 -46 -33 -36 -74 -31 -134 14 -27 21 -54 50 -60
66 -8 25 -6 30 30 60 l39 33 27 -42 c15 -23 40 -52 57 -63z m-961 -39 c112
-186 115 -194 99 -240 -27 -77 -65 -139 -109 -180 -54 -50 -71 -59 -138 -77
l-53 -13 -95 62 c-53 34 -120 74 -148 89 -29 14 -53 28 -53 31 0 2 37 22 83
43 124 59 246 197 307 348 12 30 25 54 29 54 4 0 39 -53 78 -117z m2971 76
c80 -16 184 -72 235 -129 89 -99 147 -245 147 -372 0 -37 4 -69 9 -72 5 -4 23
5 39 19 35 30 42 25 69 -55 12 -38 18 -84 18 -150 0 -87 -3 -101 -32 -160 -18
-36 -62 -98 -99 -139 -37 -41 -90 -106 -118 -145 -56 -77 -63 -74 -51 19 5 45
11 56 50 89 58 48 90 105 115 201 30 118 27 150 -24 247 -24 45 -46 96 -50
112 -6 23 -9 27 -17 15 -5 -7 -9 -25 -10 -39 0 -15 -5 -6 -13 25 l-12 50 -11
-30 -11 -30 -7 42 c-8 48 -34 92 -35 61 0 -30 -18 -20 -30 17 -18 53 -30 42
-31 -27 l0 -63 -18 55 c-20 61 -29 54 -33 -25 l-3 -50 -20 60 -20 60 -5 -80
-5 -80 -14 58 c-8 32 -21 65 -28 75 -13 15 -14 9 -9 -48 6 -80 -8 -114 -18
-44 -4 27 -10 57 -13 68 -10 34 -23 -5 -23 -69 0 -33 -5 -67 -10 -75 -8 -12
-10 -9 -10 11 0 32 -19 89 -30 89 -4 0 -6 -18 -3 -39 7 -54 -6 -144 -18 -116
-4 11 -8 38 -8 60 -1 22 -5 47 -10 54 -11 18 -16 -1 -26 -92 -4 -32 -9 -56
-12 -53 -14 14 -33 130 -33 209 0 48 -4 87 -8 87 -13 0 -48 -41 -67 -80 -10
-19 -20 -65 -23 -101 -6 -94 16 -155 85 -229 30 -33 49 -60 42 -60 -7 0 -37
14 -67 31 -30 17 -57 28 -60 24 -7 -7 28 -75 38 -75 4 0 0 -21 -8 -46 -25 -77
9 -168 72 -195 25 -11 30 -10 41 4 10 14 10 30 -1 80 -7 34 -13 82 -13 107 l0
45 30 -64 c52 -114 62 -164 55 -276 -7 -116 -30 -218 -81 -365 -70 -200 -122
-291 -160 -276 -13 5 -11 14 14 63 61 116 73 168 79 315 5 155 -7 246 -43 326
-26 56 -110 172 -126 172 -5 0 -9 -19 -9 -41 0 -39 -2 -41 -25 -37 -29 6 -30
5 -9 -27 19 -29 13 -31 -21 -9 -27 18 -33 7 -15 -27 12 -22 7 -24 -22 -8 -29
16 -32 6 -8 -40 23 -45 21 -49 -16 -25 -30 20 -43 11 -25 -17 11 -19 10 -20
-8 -14 -26 8 -27 -5 -5 -48 l17 -32 -28 25 -27 25 6 -55 7 -55 -21 25 -22 25
7 -30 c3 -16 8 -38 11 -47 6 -21 -16 -24 -34 -6 -10 10 -11 5 -6 -20 6 -28 4
-31 -11 -25 -15 5 -17 3 -12 -11 4 -10 10 -28 13 -41 5 -21 3 -23 -17 -18 -20
6 -22 4 -16 -25 7 -37 -1 -40 -34 -13 -21 17 -24 27 -22 83 3 125 89 335 181
440 26 30 72 74 102 99 108 88 142 129 106 129 -20 0 -26 30 -33 155 -5 91 -2
124 15 190 32 127 33 135 23 135 -5 0 -36 -39 -68 -87 l-58 -88 -6 35 -6 35
-12 -30 c-7 -16 -17 -39 -21 -50 -7 -16 -9 -13 -10 15 -1 51 -19 16 -31 -63
-5 -34 -12 -70 -15 -81 -10 -31 -24 2 -25 59 -1 49 -1 49 -9 15 -5 -19 -12
-57 -15 -85 l-7 -50 -19 35 -18 35 -1 -55 c0 -63 -16 -130 -31 -130 -5 0 -14
10 -18 23 -9 22 -9 22 -20 -6 -6 -16 -11 -42 -11 -60 0 -24 -3 -28 -12 -19
-20 20 -24 15 -48 -49 -30 -83 -235 -384 -271 -397 -15 -6 59 211 150 436 11
28 19 52 16 52 -18 0 -159 -96 -219 -150 -126 -112 -203 -208 -275 -340 l-39
-72 -10 61 c-6 33 -20 82 -32 107 l-20 47 100 194 c157 305 242 425 431 608
128 124 218 194 299 235 63 31 210 84 217 77 2 -3 -32 -43 -76 -89 -60 -63
-93 -90 -128 -103 -149 -56 -250 -128 -301 -214 l-26 -44 32 -27 32 -27 -57
-39 c-69 -47 -197 -174 -259 -258 -51 -67 -99 -156 -85 -156 4 0 34 31 65 68
103 124 249 239 389 308 48 23 93 45 100 47 7 3 -11 25 -43 54 l-55 50 27 41
c47 70 202 158 233 132 20 -17 41 -2 61 43 22 48 137 168 207 216 60 41 157
81 217 90 49 8 96 5 178 -10z m-1857 -198 c46 -88 49 -97 49 -170 0 -42 -4
-82 -9 -90 -37 -59 -171 135 -171 249 0 30 8 48 31 75 18 20 36 34 41 33 6 -2
32 -46 59 -97z m-200 53 c30 -15 30 -16 13 -35 -9 -10 -18 -18 -19 -17 -1 2
-12 18 -24 36 -25 35 -16 40 30 16z m53 -125 c8 -30 13 -55 12 -57 -9 -8 -48
88 -42 103 9 24 14 17 30 -46z m-428 -171 c21 -149 17 -169 -49 -198 -48 -22
-90 -25 -136 -9 -29 10 -40 28 -107 167 -40 85 -74 156 -74 157 0 1 35 -6 78
-16 62 -15 87 -17 125 -9 55 12 97 31 117 55 13 15 14 15 21 -2 4 -10 15 -76
25 -145z m-322 -46 c74 -151 78 -163 72 -206 -9 -58 -44 -100 -100 -121 -36
-14 -51 -15 -78 -6 -30 10 -249 182 -256 202 -2 5 5 9 15 9 61 0 197 134 232
229 12 34 25 59 29 57 4 -2 43 -76 86 -164z m439 152 c21 -4 27 -10 22 -22 -3
-10 -20 -62 -36 -116 -30 -104 -35 -113 -45 -103 -6 6 -43 216 -44 246 0 13
14 12 103 -5z m396 -81 c12 -14 24 -37 27 -50 16 -62 -48 -39 -65 24 -16 58 3
71 38 26z m-1589 -14 c13 -24 13 -89 -1 -129 -17 -46 -28 -21 -36 80 -5 73 -4
80 11 74 9 -3 21 -15 26 -25z m178 -86 c91 -57 142 -102 142 -125 0 -44 -25
-100 -57 -128 -19 -17 -37 -30 -41 -30 -4 0 -23 27 -42 60 -19 33 -39 58 -45
57 -17 -6 -17 -108 0 -205 10 -51 15 -96 12 -99 -8 -7 -38 56 -97 198 -54 132
-57 149 -36 200 8 19 17 60 21 91 l7 57 40 -20 c21 -11 65 -36 96 -56z m1630
-73 c43 -150 56 -244 56 -410 2 -259 -23 -308 -50 -101 -20 150 -54 526 -54
591 1 70 9 55 48 -80z m-387 22 c31 -84 61 -241 54 -286 -8 -53 -26 -83 -80
-138 -54 -53 -100 -77 -117 -60 -19 19 -28 113 -17 182 12 80 66 279 91 339
23 54 37 46 69 -37z m259 -29 c0 -91 6 -133 24 -190 6 -20 4 -23 -18 -23 -22
0 -26 6 -35 58 -6 31 -20 93 -31 136 -11 43 -19 80 -18 81 9 7 64 34 71 35 4
0 7 -44 7 -97z m43 -43 c3 -80 1 -116 -5 -101 -13 37 -22 164 -13 207 10 53
13 39 18 -106z m-614 -151 c1 -87 -2 -109 -15 -120 -22 -18 -90 -17 -108 1
-14 15 -76 151 -91 199 -7 22 -5 23 24 16 37 -8 92 9 141 42 l35 23 6 -27 c4
-16 7 -76 8 -134z m-609 33 c54 -44 96 -87 98 -98 2 -11 -5 -31 -15 -43 -18
-22 -21 -23 -107 -12 -100 12 -192 36 -220 57 -19 13 -18 15 16 48 39 38 78
110 78 145 l0 22 28 -20 c15 -11 70 -56 122 -99z m-571 -124 l-12 -58 -63 0
-63 0 25 66 c67 178 70 182 101 107 22 -53 23 -62 12 -115z m1012 -19 c11 -34
9 -40 -17 -73 -18 -23 -38 -36 -52 -36 -14 0 -57 28 -109 71 l-85 72 35 12
c56 19 94 52 118 102 l23 48 38 -80 c21 -44 43 -96 49 -116z m774 -44 c1 -55
5 -108 9 -117 9 -21 -3 -23 -27 -5 -12 9 -18 38 -24 120 l-9 108 25 -3 c23 -3
24 -5 26 -103z m-992 -1 c49 -42 86 -79 83 -82 -3 -3 -14 2 -23 10 -10 9 -52
31 -93 49 -41 18 -77 34 -78 35 -6 4 9 64 16 64 4 0 47 -34 95 -76z m-723 1
c0 -3 -11 -5 -25 -5 -26 0 -32 19 -19 55 5 13 10 10 25 -15 11 -17 19 -33 19
-35z m1767 -125 c-6 -22 -27 36 -34 92 -3 26 -2 55 2 65 8 20 39 -129 32 -157z
m-642 73 c4 -38 10 -83 15 -100 5 -19 4 -35 -1 -38 -5 -3 -31 2 -58 12 -55 19
-81 10 -81 -31 -1 -17 -11 -10 -55 38 -30 33 -55 64 -55 70 0 11 63 76 73 76
3 0 15 -25 27 -55 34 -84 55 -71 25 15 -8 23 -15 45 -15 49 0 3 18 7 41 7 22
1 46 7 52 13 20 20 25 12 32 -56z m-1213 15 c32 -27 48 -63 48 -113 0 -27 -4
-56 -8 -62 -7 -11 -113 -53 -134 -53 -4 0 -8 28 -8 63 0 34 -6 85 -14 114 -8
28 -11 54 -8 57 11 11 108 6 124 -6z m96 -4 c19 -6 53 -56 90 -136 4 -9 -74
-30 -95 -26 -11 2 -15 17 -17 53 -1 34 -8 60 -24 83 l-23 32 23 0 c13 0 33 -3
46 -6z m-228 -102 c13 -97 -5 -151 -58 -167 -26 -8 -27 -18 9 130 31 129 35
133 49 37z m810 -32 c81 -27 257 -110 290 -137 l24 -21 -32 -31 c-61 -56 -159
-55 -275 2 -76 38 -163 109 -218 179 l-33 41 89 -6 c51 -3 119 -15 155 -27z
m1147 -4 c9 -8 8 -28 -2 -81 -8 -38 -14 -87 -15 -107 0 -41 -2 -43 -29 -29
-15 9 -17 23 -15 123 2 62 3 114 3 116 2 7 46 -10 58 -22z m-601 -40 c17 4 29
2 35 -7 14 -22 10 -39 -8 -39 -10 0 -37 -9 -60 -20 -38 -17 -44 -17 -58 -4
-18 18 -19 33 -5 69 9 25 11 25 40 10 18 -9 40 -13 56 -9z m420 -2 c12 -46 -3
-105 -35 -143 -17 -20 -41 -53 -54 -73 -12 -21 -24 -38 -27 -38 -3 0 -32 27
-64 59 l-58 59 41 45 c34 37 158 116 183 117 4 0 11 -12 14 -26z m2383 -104
c2 -146 -62 -309 -177 -451 -61 -75 -157 -157 -170 -144 -3 3 22 33 55 68 74
77 138 202 160 316 15 76 12 158 -6 147 -5 -3 -22 -34 -38 -68 -35 -73 -133
-236 -133 -221 0 5 11 41 24 79 12 38 26 91 30 118 11 73 24 92 95 146 36 27
84 67 106 90 39 40 40 40 47 18 3 -13 6 -57 7 -98z m-3797 93 c28 -25 22 -37
-27 -61 -55 -27 -55 -27 -55 -4 0 10 -6 27 -14 38 -14 18 -12 20 22 31 50 16
53 15 74 -4z m1668 -80 c12 -54 25 -115 28 -136 l5 -38 -41 27 c-35 23 -42 34
-48 72 -7 46 0 144 11 162 14 23 24 5 45 -87z m-1792 55 c7 -7 12 -26 12 -44
0 -26 -10 -41 -52 -79 -70 -63 -88 -72 -88 -44 0 34 -29 85 -56 99 -33 18 -21
27 72 55 94 28 97 28 112 13z m1274 -25 c47 -6 47 -6 31 -29 -19 -30 -22 -30
-77 4 -48 29 -60 48 -23 38 12 -4 43 -9 69 -13z m-1063 -54 c18 -22 31 -42 30
-43 -89 -66 -89 -66 -89 -32 0 13 -14 37 -32 55 l-31 31 34 14 c48 22 52 20
88 -25z m1005 4 l40 -26 -51 -22 c-28 -13 -68 -39 -90 -59 -22 -20 -43 -36
-47 -36 -3 0 -6 34 -6 75 0 71 1 75 28 90 34 19 75 12 126 -22z m714 -145 c2
-76 1 -146 -3 -155 -5 -12 -18 20 -40 100 l-34 119 27 60 c24 56 26 59 35 37
6 -13 12 -86 15 -161z m-2134 141 c26 -12 56 -72 56 -113 0 -23 -30 -69 -94
-141 -30 -34 -35 -37 -36 -19 0 11 -14 49 -31 84 -30 58 -31 67 -23 118 8 51
12 56 44 68 45 16 54 16 84 3z m1238 -60 c-3 -65 -5 -70 -25 -67 -20 3 -22 8
-19 52 4 55 16 86 35 86 9 0 11 -20 9 -71z m-924 5 c36 -40 30 -61 -45 -153
l-41 -51 -22 44 c-15 32 -33 50 -61 64 l-40 20 43 34 c111 89 121 91 166 42z
m1431 -65 c-6 -39 -16 -87 -23 -106 l-12 -35 -27 39 c-15 22 -27 45 -27 51 0
16 36 88 63 126 30 42 40 14 26 -75z m-194 9 l47 -52 -46 -12 c-50 -13 -165
-66 -232 -108 l-42 -26 -7 56 -7 56 44 45 c57 59 114 88 180 92 9 1 37 -23 63
-51z m-1042 3 l27 -40 -26 -30 -25 -30 -43 42 -44 42 29 28 c16 15 35 27 43
27 7 0 25 -18 39 -39z m1381 8 l35 -20 -21 -37 c-12 -20 -23 -39 -24 -41 -9
-11 -52 31 -49 46 12 57 16 73 20 73 2 0 20 -9 39 -21z m117 -78 c27 -27 39
-47 39 -67 0 -31 -30 -96 -46 -100 -7 -2 -47 43 -98 111 -10 13 37 95 55 95 6
0 29 -17 50 -39z m-779 10 c4 -3 10 -41 14 -84 l7 -77 -54 25 c-30 14 -71 25
-92 25 l-38 0 34 33 c18 17 42 46 52 64 16 27 23 31 44 26 15 -3 29 -8 33 -12z
m-797 -16 c40 -39 33 -71 -26 -128 -47 -46 -52 -48 -69 -32 -9 9 -34 19 -54
22 -20 3 -36 11 -36 18 0 18 52 87 89 118 40 33 65 34 96 2z m-284 0 c16 -9
34 -27 39 -41 14 -36 12 -106 -4 -145 -7 -19 -16 -43 -20 -53 -6 -18 -10 -16
-37 17 -37 44 -96 77 -139 77 -18 0 -30 5 -28 11 2 5 28 41 58 80 59 75 76 82
131 54z m504 -64 l39 -41 -34 0 c-41 0 -140 44 -140 61 0 7 10 23 21 36 22 22
22 22 48 4 14 -11 44 -38 66 -60z m-760 1 c16 -61 1 -161 -21 -139 -3 3 -8 52
-11 109 -4 82 -3 101 7 91 7 -6 18 -34 25 -61z m1768 15 c20 -26 31 -62 24
-81 -3 -7 -38 -26 -79 -41 -40 -16 -106 -50 -147 -77 -60 -39 -82 -48 -118
-48 -54 0 -60 11 -54 112 1 26 32 50 129 101 134 70 206 80 245 34z m202 -30
c14 -29 28 -69 32 -88 l6 -34 -36 32 c-20 17 -43 35 -52 40 -14 8 -15 16 -4
56 6 26 16 47 21 47 5 0 20 -24 33 -53z m-1330 -7 c3 -5 0 -10 -7 -10 -7 0
-24 -3 -38 -7 -22 -6 -24 -5 -11 10 15 19 46 23 56 7z m465 -44 c0 -31 -25
-36 -66 -11 l-39 24 53 1 c38 0 52 -4 52 -14z m190 -14 c48 -19 70 -48 70 -94
0 -36 -7 -36 -127 7 -131 48 -130 47 -109 79 14 23 23 26 69 25 28 0 72 -8 97
-17z m796 -53 c15 -29 6 -42 -44 -69 -32 -16 -37 -8 -17 30 12 23 15 43 10 69
l-7 36 22 -20 c12 -11 28 -32 36 -46z m-153 16 c34 -33 37 -38 31 -75 -8 -52
-24 -62 -24 -15 0 32 -2 35 -24 29 -35 -9 -62 33 -45 70 7 14 15 26 18 26 3 0
23 -16 44 -35z m240 -22 c5 -44 0 -52 -21 -31 -13 13 -16 47 -6 73 10 24 21 6
27 -42z m-1757 33 c14 -11 16 -19 9 -29 -69 -96 -69 -96 -107 -97 l-37 0 16
53 c8 28 19 60 24 70 12 21 67 23 95 3z m-252 -25 c16 -9 31 -21 32 -26 2 -6
-18 -20 -44 -32 -26 -12 -67 -39 -90 -58 -23 -20 -46 -34 -51 -30 -6 3 -13 22
-17 41 -7 39 18 108 45 124 21 13 88 3 125 -19z m784 -10 c31 -21 72 -46 91
-55 32 -17 33 -20 27 -58 -10 -60 -14 -62 -52 -28 -19 16 -39 30 -43 30 -5 0
-14 13 -19 30 -6 16 -25 50 -42 75 -17 25 -28 45 -25 45 3 0 32 -17 63 -39z
m2177 -113 c-12 -52 -15 -52 -66 -2 -47 46 -49 50 -49 104 l0 55 61 -62 c56
-58 60 -65 54 -95z m-2604 52 c-42 -44 -81 -80 -87 -80 -6 0 -18 8 -27 18 -15
17 -14 21 14 55 40 48 87 72 170 86 3 1 -28 -35 -70 -79z m1213 58 c-44 -75
-92 -103 -169 -96 l-40 3 90 52 c87 51 135 67 119 41z m-976 -12 c51 -27 178
-178 166 -197 -3 -5 -27 -9 -53 -9 -62 0 -185 -32 -249 -64 -54 -27 -172 -121
-172 -136 0 -11 36 4 120 52 83 47 164 68 265 68 68 0 89 -4 142 -29 34 -16
85 -53 115 -81 l53 -52 -74 -34 c-40 -19 -102 -55 -138 -80 -35 -25 -66 -44
-67 -42 -2 1 -11 20 -21 41 -9 20 -21 37 -26 37 -13 0 -11 -16 6 -57 23 -55
10 -51 -19 6 -24 46 -31 53 -53 50 -3 0 -10 6 -15 15 -14 24 -31 19 -25 -6 6
-22 6 -22 -8 -4 -8 11 -15 25 -15 30 0 6 -5 4 -10 -4 -9 -13 -12 -12 -25 4
-15 19 -15 19 -15 -4 0 -22 -1 -23 -20 -5 -19 17 -20 17 -20 -1 -1 -19 -1 -19
-15 0 -14 19 -15 17 -15 -20 l-1 -39 -16 30 -17 30 -6 -25 -6 -25 -8 23 c-9
27 -26 20 -26 -11 0 -22 -1 -22 -20 3 -11 14 -25 41 -31 61 -10 31 -14 35 -40
31 -26 -4 -29 -2 -29 26 0 40 32 78 72 86 62 12 214 93 248 133 36 40 27 55
-16 27 -27 -18 -27 -18 -15 4 11 22 -1 33 -14 12 -3 -5 -11 -10 -17 -10 -7 0
-6 6 2 15 16 20 0 19 -28 -1 -27 -18 -28 -12 -4 24 l17 27 -38 -23 -39 -22 21
29 c11 15 18 30 15 33 -6 7 18 26 80 65 59 36 68 38 104 19z m1115 -89 c-7
-51 -17 -64 -38 -47 -17 14 -20 57 -5 96 10 25 11 26 29 10 15 -14 18 -26 14
-59z m-1643 25 c0 -11 -10 -27 -21 -38 -12 -10 -37 -41 -55 -68 -28 -41 -34
-47 -40 -31 -4 10 -3 23 2 30 45 60 100 125 107 125 4 0 7 -8 7 -18z m1877
-120 c13 -84 28 -63 24 33 -3 87 6 107 30 63 27 -50 28 -86 3 -119 -13 -17
-29 -56 -35 -86 -11 -48 -15 -54 -33 -49 -12 3 -52 9 -91 12 -74 7 -105 24
-105 57 0 20 1 20 24 -2 32 -30 43 -21 51 37 11 84 16 102 29 102 9 0 15 -22
19 -63 6 -65 23 -117 39 -117 5 0 7 44 6 98 -3 92 -4 97 -25 100 -31 4 -29 13
10 40 l32 22 7 -37 c4 -21 11 -62 15 -91z m-907 68 l80 -40 0 -51 0 -50 -33
25 c-44 33 -99 56 -137 56 -28 0 -30 2 -24 28 10 40 23 72 29 72 3 0 41 -18
85 -40z m2006 -2 c38 -27 44 -36 44 -67 0 -57 -12 -68 -46 -44 -16 11 -39 24
-51 27 -13 4 -23 15 -23 24 0 23 20 92 26 92 3 0 26 -14 50 -32z m-2883 -5
c-3 -26 9 -30 27 -8 17 21 33 19 58 -8 l21 -22 -40 -75 c-23 -41 -43 -77 -45
-79 -2 -2 -20 11 -40 28 -42 37 -73 51 -115 51 -16 0 -29 3 -29 7 0 20 56 97
83 114 43 26 83 22 80 -8z m2632 -45 c20 -70 31 -193 21 -232 -6 -24 -11 -26
-56 -26 l-51 0 21 28 c28 38 39 112 17 112 -8 0 -28 -11 -44 -24 -46 -38 -181
-96 -225 -96 -8 0 282 296 293 299 3 0 14 -27 24 -61z m-4000 42 c85 -12 190
-61 330 -153 55 -36 102 -64 104 -61 3 2 -20 29 -49 59 -53 54 -54 55 -25 50
17 -3 86 -14 155 -25 147 -24 247 -50 323 -84 l56 -24 -15 -54 c-19 -72 -37
-250 -32 -326 3 -68 5 -67 -64 -56 -40 7 -52 24 -18 24 11 0 20 4 20 9 0 5
-34 15 -75 22 -79 14 -83 17 -32 35 30 10 28 11 -43 19 -74 8 -74 8 -35 17 65
14 66 28 2 28 -31 0 -57 5 -57 10 0 6 8 10 18 11 30 1 -41 17 -111 24 -42 4
-65 10 -61 17 4 6 24 8 50 4 24 -3 44 -2 44 3 0 5 -29 12 -65 16 -36 3 -65 11
-65 16 0 5 7 9 17 9 29 0 5 12 -48 24 -49 11 -56 17 -113 91 -34 44 -69 81
-78 83 -14 3 -14 -6 3 -84 11 -48 35 -128 54 -178 19 -50 32 -92 30 -94 -14
-15 -107 67 -162 143 -27 38 -40 27 -25 -22 23 -76 76 -119 302 -247 47 -27
117 -74 155 -104 100 -79 234 -220 272 -283 53 -89 76 -216 53 -289 -8 -24 -8
-24 -9 -2 -2 36 -69 201 -104 257 -40 63 -115 145 -134 145 -11 0 -11 -4 1
-27 17 -34 68 -194 63 -199 -2 -2 -27 48 -56 111 -29 62 -62 122 -73 132 -18
16 -17 11 6 -51 35 -93 32 -94 -14 -7 -38 72 -66 110 -73 100 -2 -2 20 -67 49
-144 29 -77 50 -142 48 -145 -8 -7 -34 31 -41 60 -9 43 -113 250 -124 250 -7
0 -8 -7 -4 -17 21 -56 54 -167 50 -171 -2 -2 -27 43 -54 102 -27 58 -54 106
-60 106 -5 0 1 -32 15 -72 35 -104 23 -107 -24 -7 -46 99 -67 122 -56 62 l7
-38 -24 22 c-13 12 -38 47 -54 77 -17 31 -33 56 -37 56 -25 0 6 -176 57 -318
20 -56 35 -108 33 -114 -3 -7 -65 47 -140 120 l-136 133 -4 66 c-4 59 -7 69
-36 94 -18 16 -39 29 -47 29 -13 0 -13 6 3 38 27 52 31 76 42 214 8 115 5 149
-19 168 -4 3 -11 19 -16 35 -6 17 -14 28 -19 27 -12 -5 -26 19 -26 46 0 38
-18 24 -26 -20 -7 -39 -8 -41 -15 -18 -4 14 -7 42 -8 63 -1 55 -18 45 -32 -20
l-13 -58 -6 52 c-3 28 -8 55 -12 58 -8 8 -28 -60 -28 -93 0 -13 -4 -20 -10
-17 -5 3 -10 24 -10 46 0 21 -4 39 -9 39 -14 0 -31 -133 -31 -244 0 -57 -4
-115 -9 -129 -7 -17 -30 -32 -90 -55 -97 -39 -129 -40 -165 -7 -20 18 -26 34
-26 65 0 45 -11 72 -43 108 -22 24 -58 33 -39 9 22 -26 30 -97 20 -166 -9 -60
-8 -74 10 -112 32 -71 79 -127 131 -156 34 -19 55 -41 72 -71 40 -77 144 -145
242 -158 41 -6 49 -12 83 -61 46 -66 271 -284 375 -363 94 -70 233 -157 345
-215 l84 -43 -26 -16 c-25 -17 -28 -16 -192 69 -238 124 -351 200 -490 328
-47 44 -55 48 -68 35 -9 -8 -21 -37 -28 -63 l-12 -48 -50 64 c-28 35 -67 92
-87 125 -45 75 -67 96 -67 66 0 -58 26 -128 76 -209 65 -103 92 -133 159 -179
49 -34 50 -34 58 -12 4 12 10 24 12 26 2 3 30 -19 62 -48 82 -75 185 -146 278
-192 l80 -39 -100 4 c-113 5 -203 33 -290 91 -71 47 -235 205 -295 284 -68 90
-153 265 -184 382 -26 95 -24 109 11 110 26 0 -2 31 -66 73 -128 85 -183 172
-203 322 -35 257 125 524 358 600 93 30 339 43 469 25z m4121 -41 c17 -34 18
-82 3 -112 -10 -18 -14 -13 -30 49 -10 38 -18 80 -18 93 -1 20 1 22 15 10 8
-7 22 -25 30 -40z m-2057 2 c21 -29 28 -61 14 -61 -40 1 -53 14 -53 51 0 46
11 49 39 10z m785 -10 c3 -5 16 -7 29 -4 l22 6 -24 -26 c-20 -22 -27 -25 -40
-15 -9 7 -17 13 -19 14 -1 1 0 9 4 18 7 18 20 21 28 7z m-394 -32 c81 -28 90
-34 90 -56 0 -20 -4 -24 -17 -18 -10 5 -41 12 -70 18 -43 8 -56 7 -77 -7 l-26
-16 0 55 c0 30 2 55 5 55 4 0 46 -14 95 -31z m2023 -34 c58 -22 62 -27 43 -62
-31 -58 -31 -58 -64 -34 -42 30 -106 51 -133 44 -20 -6 -22 -4 -16 28 3 19 10
46 16 62 l11 27 47 -23 c27 -13 70 -32 96 -42z m-2227 5 c22 -14 44 -39 55
-64 23 -50 25 -116 5 -116 -8 0 -21 -2 -29 -6 -10 -3 -16 4 -20 24 -8 41 -66
113 -110 137 -39 21 -49 51 -19 57 27 6 78 -8 118 -32z m-1116 -89 c-10 -36
-21 -78 -24 -93 -5 -24 -9 -26 -29 -18 -12 5 -34 11 -49 14 l-28 6 25 57 c14
31 40 76 58 99 32 42 32 43 48 22 15 -20 15 -26 -1 -87z m1720 77 c11 6 21 12
22 12 8 0 -6 -107 -14 -117 -26 -32 -43 -13 -73 84 l-14 41 30 -16 c23 -14 32
-15 49 -4z m1357 2 c58 -35 64 -70 26 -167 -8 -24 -20 -43 -25 -43 -4 0 -29
19 -53 41 -49 46 -49 40 -13 137 11 28 22 52 26 52 4 0 21 -9 39 -20z m-1457
-26 c0 -8 -15 -10 -42 -7 -24 2 -64 -2 -90 -10 l-48 -15 0 27 c0 27 1 27 58
23 31 -2 68 1 82 6 25 10 40 1 40 -24z m475 -92 c-5 -28 -8 -31 -25 -22 -23
12 -25 41 -9 91 22 63 34 67 37 13 2 -27 1 -64 -3 -82z m1615 43 c-57 -57 -81
-75 -102 -75 -34 0 -34 12 0 69 23 37 36 46 82 61 99 32 101 26 20 -55z
m-3554 49 c57 -27 77 -60 72 -121 -3 -29 -7 -55 -10 -58 -3 -3 -21 2 -41 10
-49 20 -85 19 -131 -6 -21 -11 -40 -18 -42 -16 -3 2 4 44 13 93 16 75 22 91
43 101 33 17 55 16 96 -3z m1639 -54 c-13 -21 -25 -8 -25 28 l1 37 15 -28 c8
-15 12 -32 9 -37z m1757 42 l47 -7 -30 -53 -31 -52 -33 20 c-19 12 -50 20 -74
20 -22 0 -41 2 -41 5 0 2 8 20 17 40 15 32 20 35 57 34 23 0 62 -4 88 -7z
m-2198 -16 c39 -16 66 -51 66 -83 0 -22 -3 -23 -100 -23 l-100 0 0 50 c0 47 1
50 33 59 46 13 63 13 101 -3z m280 -27 c33 -26 33 -44 -3 -85 -16 -18 -34 -41
-39 -51 -10 -17 -12 -17 -34 4 -13 13 -39 26 -57 29 -61 12 -81 86 -31 111 41
21 133 16 164 -8z m1661 -33 c19 -15 35 -33 35 -41 0 -13 -50 -105 -71 -132
-7 -8 -23 -2 -58 20 -26 18 -56 37 -65 42 -16 9 -16 14 0 65 9 30 21 61 27 69
17 21 91 8 132 -23z m193 -36 c17 -11 32 -24 32 -28 0 -13 -51 -102 -79 -139
-21 -28 -26 -30 -36 -17 -6 9 -34 24 -63 33 l-51 18 37 64 c52 89 96 108 160
69z m-1582 -44 c81 -81 13 -196 -115 -196 -53 0 -111 48 -111 91 0 55 26 98
72 119 68 31 113 27 154 -14z m90 2 c81 -55 121 -136 108 -217 -23 -147 -202
-231 -340 -160 -45 23 -51 31 -72 89 -13 35 -22 74 -20 87 3 22 3 22 47 -7 31
-22 56 -30 86 -30 50 0 120 34 149 73 27 37 27 112 -2 160 -26 45 -18 46 44 5z
m1030 -14 c19 -19 34 -41 34 -49 0 -7 -11 -36 -24 -64 l-24 -52 -31 43 c-17
23 -31 51 -31 61 0 31 22 97 33 97 5 0 25 -16 43 -36z m518 -37 c-27 -29 -50
-52 -52 -51 -5 3 29 67 46 87 8 9 24 17 35 17 16 0 11 -10 -29 -53z m-3603 14
c28 -28 29 -34 29 -115 l0 -86 -42 0 c-25 0 -57 -8 -75 -19 l-31 -20 -6 24
c-7 28 11 161 26 190 16 32 40 55 55 55 8 0 28 -13 44 -29z m245 4 c20 -13 24
-23 24 -70 l0 -55 -53 0 c-43 0 -63 -6 -98 -30 -24 -16 -47 -30 -51 -30 -5 0
-8 33 -8 74 l0 74 48 32 c51 34 91 36 138 5z m2670 -63 c-21 -63 -44 -84 -86
-80 l-32 3 46 32 c25 18 54 48 63 68 23 49 28 36 9 -23z m-26 40 c0 -21 -117
-112 -144 -112 -9 0 14 54 32 74 29 32 112 60 112 38z m-1514 -21 c-3 -4 -27
-14 -53 -21 -27 -7 -73 -25 -103 -38 -46 -21 -72 -26 -160 -27 -58 -1 -116 -5
-129 -9 -40 -13 -15 12 41 40 83 42 181 63 301 63 60 1 106 -3 103 -8z m1853
-10 c62 -32 68 -45 37 -89 -59 -84 -52 -80 -89 -44 -18 18 -38 32 -44 32 -21
0 -23 17 -7 56 29 71 41 76 103 45z m-539 -48 c0 -10 -4 -23 -8 -29 -10 -16
-80 -50 -161 -79 -72 -26 -106 -31 -115 -16 -8 13 12 26 69 45 28 9 82 34 120
55 79 45 95 48 95 24z m340 -33 c25 -49 25 -55 -2 -98 l-21 -34 -15 28 c-8 16
-21 37 -29 46 -16 18 -11 46 15 85 17 28 27 23 52 -27z m-1426 17 c19 -9 19
-10 1 -23 -27 -20 -39 -18 -98 16 l-52 31 65 -7 c36 -4 74 -11 84 -17z m1805
8 c41 -21 45 -41 15 -80 -31 -42 -34 -42 -117 -36 l-68 6 46 63 c51 67 71 75
124 47z m-1958 -16 c23 -11 39 -22 37 -23 -1 -2 -41 -11 -87 -20 -46 -10 -101
-26 -121 -36 -43 -22 -97 -80 -106 -114 l-5 -23 -92 24 c-50 13 -92 25 -94 27
-13 12 221 139 307 167 73 24 112 23 161 -2z m835 -84 c32 -68 31 -126 -4
-195 -33 -65 -92 -113 -164 -135 -98 -29 -114 -24 -208 64 l-85 78 76 -5 c91
-5 143 13 213 78 57 53 86 112 86 175 l0 49 31 -30 c17 -16 42 -51 55 -79z
m-2025 43 c5 -7 9 -32 9 -55 0 -34 -4 -43 -17 -43 -10 0 -46 -13 -81 -30 l-62
-29 -15 36 c-8 19 -15 41 -15 48 0 19 49 75 74 86 28 12 97 4 107 -13z m2538
-70 c24 -72 27 -128 7 -166 -16 -30 -93 -108 -100 -101 -2 2 7 31 21 64 27 64
35 160 20 243 -7 40 -6 42 12 33 11 -6 28 -38 40 -73z m-2387 -9 c48 -24 94
-24 159 2 45 17 57 18 83 8 17 -7 32 -13 34 -14 1 -1 -18 -33 -43 -71 -53 -80
-98 -208 -97 -278 0 -42 -2 -46 -15 -34 -9 10 -15 42 -17 99 -4 124 -42 186
-147 240 -31 15 -39 25 -39 47 0 15 -3 38 -7 52 l-6 25 29 -29 c16 -15 45 -37
66 -47z m1206 59 c14 -14 16 -48 2 -48 -10 0 -30 32 -30 49 0 14 13 14 28 -1z
m1229 -28 c2 -19 8 -50 13 -69 10 -38 6 -51 -11 -34 -12 12 -38 130 -30 138
12 12 24 -3 28 -35z m302 14 c38 -32 39 -55 3 -95 l-28 -31 -36 24 c-43 27
-45 35 -18 88 24 47 38 49 79 14z m-1599 -14 c47 -24 51 -40 13 -40 -65 0
-160 -67 -213 -148 l-15 -24 -68 34 c-72 35 -78 47 -53 96 22 43 51 63 118 83
87 24 169 24 218 -1z m1424 -69 c5 -33 1 -52 -22 -97 l-28 -56 -27 32 c-15 17
-27 41 -27 53 1 29 23 90 45 124 l18 27 17 -22 c10 -11 20 -39 24 -61z m-2935
35 c22 -20 65 -149 57 -173 -4 -11 -17 -20 -33 -21 -32 -3 -67 -33 -84 -73 -6
-17 -16 -28 -21 -27 -12 4 -65 134 -73 181 -7 38 21 108 52 127 23 13 80 5
102 -14z m3294 -14 c16 -7 14 -12 -18 -50 -36 -41 -38 -42 -101 -42 -35 0 -64
2 -64 5 0 21 50 77 75 84 36 11 84 12 108 3z m-657 -54 c-4 -24 -11 -58 -17
-75 -10 -31 -12 -32 -33 -18 -12 8 -51 21 -86 28 -35 7 -65 17 -67 23 -3 10
163 80 196 83 10 1 12 -9 7 -41z m-2375 -6 c11 -38 11 -40 -34 -86 -43 -44
-56 -69 -72 -141 l-7 -30 -16 30 c-22 41 -23 194 -2 220 18 22 67 44 97 45 17
0 25 -9 34 -38z m1278 -3 c-30 -16 -88 -54 -127 -84 -40 -30 -72 -50 -72 -44
0 18 30 83 48 103 29 32 93 56 152 56 l55 -1 -56 -30z m1521 -35 c0 -15 -48
-104 -56 -104 -3 0 -23 9 -44 20 l-40 20 30 60 30 60 40 -20 c22 -11 40 -27
40 -36z m-2021 17 c22 -12 22 -13 -12 -30 -164 -84 -277 -230 -302 -394 l-6
-38 -54 47 c-30 25 -57 54 -60 64 -13 42 77 172 213 309 l64 64 67 -5 c37 -3
77 -11 90 -17z m1291 -8 c21 -47 25 -157 6 -206 -32 -84 -113 -142 -215 -154
-49 -5 -49 -5 -60 30 -7 19 -22 46 -35 60 l-23 25 56 15 c112 32 192 105 229
209 9 26 19 48 23 48 3 0 12 -12 19 -27z m854 -29 c21 -8 20 -18 -6 -58 -21
-32 -25 -33 -85 -33 -34 0 -61 2 -60 6 2 3 9 19 17 35 22 42 89 67 134 50z
m-1967 -34 c28 -16 54 -34 58 -40 3 -5 -18 -20 -47 -34 -166 -74 -308 -255
-308 -391 0 -59 -18 -59 -102 -2 l-63 44 2 67 c3 89 53 186 139 274 113 113
219 140 321 82z m382 -21 c-30 -22 -71 -49 -91 -60 -40 -21 -93 -25 -103 -9
-8 13 190 110 224 110 21 0 17 -6 -30 -41z m1247 0 c22 -36 22 -36 4 -78 l-19
-41 -44 42 -43 43 29 38 c16 21 34 36 40 34 6 -2 21 -19 33 -38z m-2538 -17
l21 -48 -27 -54 c-21 -42 -27 -70 -27 -117 0 -35 -2 -63 -5 -63 -3 0 -22 17
-42 38 -33 32 -38 45 -44 103 -5 55 -3 72 15 106 19 38 63 83 81 83 4 0 17
-22 28 -48z m1386 22 c9 -25 0 -30 -39 -26 l-37 4 29 19 c34 23 39 23 47 3z
m806 -9 c16 -8 34 -24 40 -35 9 -16 6 -22 -21 -36 -17 -8 -35 -12 -39 -7 -8 9
-21 93 -14 93 3 0 18 -7 34 -15z m478 -58 c10 -11 9 -23 -4 -53 -21 -50 -19
-49 -46 -30 -12 9 -33 16 -45 16 -27 0 -27 -2 -7 46 25 61 32 66 63 49 15 -7
33 -20 39 -28z m-2962 -29 c-4 -29 -9 -70 -12 -91 l-6 -39 -24 23 c-36 34 -31
90 14 142 26 30 34 20 28 -35z m2773 -27 c21 -30 26 -58 15 -98 -9 -33 -34
-15 -83 58 -39 58 -40 63 -25 80 15 17 19 17 44 4 16 -8 38 -28 49 -44z
m-1507 23 l-5 -26 33 17 c24 12 45 15 76 10 24 -3 44 -8 44 -10 0 -13 -44
-103 -58 -119 -9 -10 -41 -34 -70 -53 -62 -41 -112 -97 -155 -172 -17 -30 -33
-49 -35 -43 -2 6 13 58 33 114 21 57 40 116 43 133 5 28 4 29 -12 16 -22 -18
-95 -163 -126 -248 -25 -69 -44 -79 -81 -42 -18 18 -20 28 -14 82 11 91 39
156 95 219 54 61 122 107 191 132 24 8 45 15 45 16 1 0 -1 -12 -4 -26z m568
-30 c76 -54 100 -85 100 -124 0 -24 -7 -25 -56 -3 -27 12 -69 17 -139 17 -97
1 -102 0 -152 -32 -29 -19 -66 -50 -82 -70 l-29 -37 -7 59 c-8 65 4 119 36
160 16 20 29 26 59 26 43 0 166 35 175 50 9 15 11 14 95 -46z m1290 53 c0 -2
-7 -24 -16 -50 l-16 -47 -59 0 c-45 0 -59 4 -59 14 0 23 20 70 33 78 11 7 117
12 117 5z m-539 -61 c30 -58 19 -84 -53 -125 l-53 -31 -6 73 c-7 85 -6 88 29
110 42 26 57 21 83 -27z m-2220 -7 c7 -14 0 -37 -28 -93 -20 -41 -40 -73 -44
-71 -4 3 -10 25 -13 50 -6 37 -3 56 18 101 23 49 28 55 42 44 8 -8 19 -21 25
-31z m2013 -26 c16 -100 -11 -165 -82 -199 -80 -38 -212 -24 -224 24 -5 17 2
21 53 31 69 14 164 79 205 141 15 22 30 40 34 40 4 0 10 -17 14 -37z m-2263
-35 c6 -11 4 -18 -6 -22 -12 -4 -15 3 -14 32 0 20 3 30 6 22 3 -8 10 -22 14
-32z m2797 20 c10 -8 12 -24 9 -51 -3 -21 -7 -41 -10 -43 -9 -10 -99 19 -104
33 -3 8 2 31 11 50 15 32 20 35 48 29 17 -3 38 -12 46 -18z m-2423 -124 c-51
-51 -78 -134 -72 -219 5 -65 5 -68 -10 -50 -24 31 -63 118 -63 140 0 18 42
193 55 232 3 8 25 -2 64 -28 l59 -42 -33 -33z m2581 89 c-2 -10 -8 -37 -11
-61 -5 -30 -11 -42 -20 -38 -8 3 -32 10 -54 16 -44 12 -50 26 -31 74 9 24 15
26 65 26 49 0 56 -2 51 -17z m-425 -20 c8 -9 33 -29 57 -44 46 -29 46 -28 -22
-44 -37 -8 -112 -59 -132 -91 -20 -29 -35 -30 -58 -5 -39 43 2 124 94 185 31
20 44 20 61 -1z m-2433 -127 c-16 -22 -33 -58 -39 -80 l-12 -41 -22 50 c-28
63 -47 139 -39 158 3 8 15 19 27 24 19 9 29 4 67 -31 l45 -41 -27 -39z m1132
-77 c-12 -16 -29 -29 -38 -29 -29 0 -116 -46 -157 -81 l-38 -34 6 33 c18 90
87 185 185 257 l47 34 8 -75 c7 -68 5 -78 -13 -105z m529 151 l24 -12 -37 -13
c-122 -42 -249 -208 -278 -362 -6 -35 -15 -63 -19 -63 -16 0 -59 63 -78 115
-40 106 -20 204 58 283 25 26 62 53 81 60 45 14 217 10 249 -8z m-1234 -66
l73 -67 -49 -59 c-68 -81 -78 -105 -92 -209 l-12 -91 -45 58 c-32 41 -46 70
-48 95 -1 19 -7 51 -12 70 -15 51 -12 126 6 162 18 35 83 107 97 107 5 0 41
-30 82 -66z m1775 8 c0 -13 -6 -35 -14 -51 -21 -40 -92 -101 -119 -101 -22 0
-107 56 -107 71 0 3 23 9 52 12 56 7 111 38 149 85 25 31 39 25 39 -16z m442
7 c59 -13 60 -12 -45 -50 -33 -12 -76 -37 -99 -60 -23 -22 -52 -40 -67 -41
-27 -2 -91 27 -91 40 0 18 35 54 76 78 74 44 135 52 226 33z m-2581 -67 c-6
-26 -15 -87 -20 -135 -5 -48 -11 -90 -13 -92 -3 -3 -17 19 -32 49 -26 51 -27
56 -16 120 10 56 17 70 48 97 42 37 49 29 33 -39z m1736 24 c26 -24 46 -46 43
-48 -3 -2 -30 -20 -60 -39 -84 -55 -165 -134 -189 -185 -12 -25 -29 -78 -37
-117 -23 -106 -20 -102 -52 -77 -15 12 -47 36 -70 53 l-44 32 4 62 c7 119 126
296 230 343 24 11 62 20 85 20 35 0 48 -7 90 -44z m1008 -15 c36 -16 151 -128
142 -137 -2 -3 -20 3 -40 11 -59 24 -191 20 -284 -10 l-78 -25 -27 32 -28 32
32 33 c43 45 113 69 233 82 6 0 28 -8 50 -18z m-601 -65 c-17 -50 -54 -89 -80
-84 -30 6 -26 25 10 48 20 12 45 35 57 51 11 16 22 29 24 29 2 0 -3 -20 -11
-44z m-1601 -27 l68 -41 -35 -41 c-83 -97 -112 -184 -99 -294 8 -69 -7 -70
-88 -7 -45 36 -60 54 -65 81 -12 61 2 160 30 216 28 56 87 127 107 127 7 0 44
-18 82 -41z m1783 -18 c45 -22 85 -45 89 -51 4 -6 4 -23 0 -37 -5 -22 -10 -25
-38 -19 -40 8 -184 75 -198 92 -7 9 -6 21 5 43 18 35 12 36 142 -28z m-440 -7
l64 -56 -36 -24 c-74 -51 -106 -81 -158 -150 -68 -90 -110 -165 -126 -229 -7
-27 -16 -53 -20 -58 -3 -4 -28 23 -54 59 l-49 66 6 74 c6 78 34 155 85 228 29
42 175 146 206 146 10 0 47 -25 82 -56z m-717 -39 c1 -17 7 -54 14 -82 l13
-50 -65 -7 c-124 -11 -238 -94 -262 -191 -10 -40 -14 -44 -26 -33 -11 12 -11
19 2 46 9 17 18 64 21 104 9 123 28 147 123 162 60 9 95 29 133 77 28 35 33
38 39 22 4 -10 8 -32 8 -48z m-1573 15 c16 -6 62 -13 102 -18 l74 -7 26 -44
26 -44 -60 6 c-118 11 -195 46 -209 95 -7 25 -1 27 41 12z m2702 -71 c45 -18
82 -38 82 -44 0 -7 -9 -20 -20 -30 -17 -15 -25 -16 -68 -6 -45 11 -122 51
-166 86 -19 15 -19 15 4 40 23 25 23 25 54 6 17 -10 68 -33 114 -52z m587 31
c44 -22 71 -42 73 -54 6 -32 -8 -123 -23 -142 -12 -17 -16 -16 -64 29 -78 73
-126 91 -230 84 -47 -3 -94 -8 -103 -12 -13 -5 -19 1 -27 31 -12 44 -10 49 32
71 56 28 80 32 177 30 85 -3 102 -7 165 -37z m-2172 11 c15 -15 -13 -140 -46
-206 -16 -33 -33 -71 -37 -84 -5 -20 -17 -28 -56 -38 -66 -17 -78 -3 -70 87 8
96 32 156 87 213 44 45 51 49 81 43 18 -3 36 -10 41 -15z m-589 -121 c-23 -51
-32 -38 -40 61 l-6 74 32 -47 32 -47 -18 -41z m1909 59 l37 -31 -100 -95
c-139 -132 -222 -248 -264 -371 l-12 -34 -27 39 c-15 22 -27 50 -27 64 0 42
30 130 66 196 62 112 221 262 279 263 6 0 27 -14 48 -31z m-2511 -135 c7 -24
9 -47 5 -51 -11 -11 -98 79 -93 97 3 8 10 35 17 60 l12 45 24 -54 c13 -29 29
-73 35 -97z m749 -43 l46 -55 -18 -31 c-10 -17 -22 -55 -26 -84 -6 -42 -13
-55 -29 -62 -20 -7 -25 0 -57 69 -71 156 -79 211 -41 270 l16 24 31 -38 c18
-21 53 -63 78 -93z m2513 85 c33 -18 73 -49 89 -69 l30 -37 -28 -57 -28 -57
-27 31 c-24 27 -27 36 -22 82 3 34 1 51 -7 51 -6 0 -11 -4 -11 -9 0 -4 -9 -20
-20 -34 l-20 -25 -55 19 c-35 12 -81 19 -129 19 l-75 0 16 46 c16 48 31 58
108 74 59 12 113 2 179 -34z m-676 -54 c-3 -61 -12 -94 -36 -145 -56 -121
-148 -235 -231 -289 -56 -35 -85 -36 -108 -2 -16 26 -16 29 6 93 12 36 47 103
77 147 73 109 246 274 288 274 5 0 7 -35 4 -78z m-907 42 c17 -8 29 -21 26
-27 -2 -7 -26 -28 -53 -47 -75 -53 -156 -140 -189 -203 l-31 -57 -32 56 c-47
82 -41 137 21 202 71 75 193 110 258 76z m1050 -186 c-21 -107 -74 -201 -160
-288 -42 -43 -95 -87 -119 -99 l-42 -21 -50 21 c-28 12 -50 24 -49 28 0 3 27
28 61 55 140 114 237 301 238 456 l0 45 67 -67 67 -67 -13 -63z m-2357 173 c3
-4 23 -11 45 -15 39 -6 40 -8 47 -54 13 -90 63 -225 96 -259 49 -51 12 -39
-51 16 -75 65 -129 80 -202 57 l-52 -17 -28 33 c-15 18 -48 72 -73 119 l-46
86 93 5 c58 3 104 11 122 21 35 19 42 20 49 8z m-409 -157 c-23 -23 -37 -48
-41 -74 -4 -22 -9 -40 -12 -40 -4 0 -25 19 -48 41 l-42 42 18 36 c11 20 28 57
39 83 l20 46 50 -50 50 -50 -34 -34z m1194 40 c-22 -27 -32 1 -12 37 l18 34 3
-28 c2 -16 -2 -35 -9 -43z m581 21 c15 -8 38 -27 50 -42 l21 -27 -37 -19 c-59
-30 -127 -108 -173 -197 l-43 -82 -49 48 c-27 27 -49 52 -49 56 0 4 9 32 21
63 27 71 108 161 174 192 60 27 50 26 85 8z m1415 -13 c22 -8 44 -18 48 -22 7
-7 -11 -130 -19 -130 -1 0 -15 5 -31 11 -89 34 -209 28 -274 -15 l-38 -25 19
53 c36 107 56 130 125 147 39 10 119 1 170 -19z m-2286 -59 l32 -28 -56 -37
c-32 -21 -61 -36 -65 -33 -12 7 9 87 27 107 21 23 23 23 62 -9z m-819 2 c36
-19 70 -77 49 -84 -7 -2 -34 -23 -59 -47 -43 -40 -48 -42 -67 -29 -11 8 -23
27 -26 42 -6 34 19 99 46 118 26 18 22 18 57 0z m1309 -89 c33 -47 71 -154 71
-198 0 -28 -2 -29 -37 -26 l-38 3 -8 64 c-10 79 -25 113 -76 168 -38 42 -38
43 -17 57 19 12 24 11 48 -6 16 -11 41 -38 57 -62z m548 -24 c15 -22 14 -24
-44 -76 -70 -64 -138 -149 -168 -213 l-22 -46 -43 57 c-42 56 -42 56 -31 102
7 26 21 65 33 87 26 52 111 135 163 158 l40 19 28 -33 c15 -17 35 -42 44 -55z
m1391 66 c15 -15 15 -43 0 -71 l-12 -22 -7 25 c-10 35 -11 80 -1 80 4 0 13 -5
20 -12z m-3454 -37 l38 -39 -51 -27 c-36 -18 -57 -36 -68 -60 -9 -19 -21 -35
-26 -35 -6 0 -31 12 -55 26 l-45 27 29 21 c16 11 54 44 84 73 30 29 55 53 55
53 1 0 18 -18 39 -39z m1391 -3 c47 -40 81 -109 89 -179 8 -64 1 -74 -56 -81
-37 -4 -38 -3 -44 32 -17 101 -43 150 -101 190 -18 12 -33 26 -33 30 0 8 74
38 97 39 7 1 28 -13 48 -31z m1916 -31 c19 -12 37 -36 42 -52 5 -17 13 -43 18
-59 5 -16 7 -31 5 -34 -2 -2 -28 4 -57 12 -112 34 -229 11 -301 -57 l-27 -25
-7 43 c-11 77 22 140 91 174 60 30 190 29 236 -2z m-2997 -16 l28 -29 -38 -50
-37 -51 -45 37 -44 36 45 43 c25 24 50 43 55 43 4 0 21 -13 36 -29z m936 -3
c65 -40 110 -114 110 -183 0 -38 -3 -44 -27 -50 -15 -3 -45 -15 -67 -26 -22
-10 -41 -19 -41 -19 -1 0 -5 24 -8 54 -7 66 -45 143 -93 190 -40 39 -40 40 -4
55 43 17 74 12 130 -21z m-1139 -44 c33 -34 33 -36 14 -46 -11 -6 -39 -31 -63
-55 l-42 -44 -45 27 c-49 28 -51 40 -18 92 13 22 83 61 109 62 5 0 26 -16 45
-36z m426 15 c8 -8 8 -20 1 -41 l-10 -29 -28 33 c-15 18 -26 36 -23 41 7 11
48 8 60 -4z m555 -16 c72 -60 101 -120 96 -198 -3 -49 -4 -50 -63 -87 -33 -20
-63 -37 -66 -37 -3 -1 -9 25 -12 58 -6 75 -35 138 -82 184 -42 41 -42 40 18
79 53 34 68 34 109 1z m1071 -40 c15 -22 27 -42 27 -45 0 -3 -27 -26 -60 -52
-68 -54 -141 -150 -173 -229 -12 -30 -26 -55 -30 -56 -5 -1 -22 24 -39 55 -34
65 -33 86 8 167 26 54 154 193 189 207 27 10 46 -1 78 -47z m709 -167 c-27
-30 -120 -96 -135 -96 -22 0 -87 29 -87 39 0 4 18 21 40 36 51 36 126 126 159
194 l26 53 7 -103 c5 -89 4 -107 -10 -123z m-2438 158 c26 -19 11 -34 -57 -56
-39 -13 -53 -14 -59 -5 -14 22 -8 45 18 76 25 30 27 31 52 15 15 -8 36 -22 46
-30z m176 31 c14 -17 7 -31 -20 -38 -17 -4 -20 0 -20 24 0 32 19 39 40 14z
m-803 -32 l45 -26 -38 -19 c-20 -10 -45 -25 -55 -34 -22 -20 -47 -13 -112 31
l-48 33 64 12 c35 6 70 16 78 21 19 12 14 13 66 -18z m426 -39 c26 -19 45 -39
42 -44 -3 -4 -37 -21 -75 -36 -68 -27 -72 -27 -105 -11 -40 19 -42 27 -18 64
14 21 82 63 103 63 3 0 27 -16 53 -36z m-637 -11 c51 -34 54 -38 38 -50 -10
-7 -22 -13 -27 -13 -16 0 -197 82 -203 91 -3 5 27 9 66 9 64 0 75 -3 126 -37z
m1366 -10 c41 -45 81 -199 61 -229 -8 -12 -114 -74 -126 -74 -4 0 -4 7 -1 15
3 8 1 46 -6 85 -9 56 -20 80 -49 118 -21 26 -50 54 -65 61 l-27 15 73 27 c79
29 100 26 140 -18z m2377 4 c51 -21 56 -25 82 -87 15 -36 26 -66 25 -67 -1 -1
-26 10 -56 25 -63 31 -161 37 -218 13 -29 -12 -93 -81 -105 -114 -7 -18 -31
11 -50 58 -26 69 10 140 88 176 58 27 164 25 234 -4z m-3388 -34 c27 -14 48
-27 47 -29 -2 -1 -27 -18 -56 -38 l-53 -36 -37 20 c-20 10 -50 28 -65 38 l-28
19 31 27 c42 35 96 35 161 -1z m2313 -39 c44 -50 48 -59 42 -92 -12 -74 -128
-214 -242 -293 l-42 -29 -26 34 c-46 61 -50 78 -32 139 9 30 34 82 56 115 42
63 162 182 183 182 7 0 34 -25 61 -56z m-1523 18 c61 -39 96 -84 114 -147 17
-56 13 -116 -9 -134 -11 -9 -128 -51 -143 -51 -4 0 -8 33 -9 73 -1 84 -22 139
-78 206 -21 25 -33 48 -28 53 5 5 28 12 53 17 24 5 46 9 50 10 3 1 25 -12 50
-27z m-1000 -29 c27 -14 47 -28 45 -31 -9 -8 -136 40 -130 49 9 15 34 10 85
-18z m815 -2 c66 -40 114 -133 114 -220 0 -74 -16 -93 -90 -113 -36 -9 -80
-17 -99 -17 -28 -1 -32 2 -26 17 4 9 9 49 12 89 5 60 2 78 -17 117 -12 26 -37
59 -56 74 -19 15 -34 30 -34 33 0 3 26 12 58 19 31 7 62 14 67 15 23 8 42 4
71 -14z m-480 -16 c42 -17 40 -32 -5 -59 -29 -17 -38 -17 -92 -6 -32 7 -59 17
-59 22 0 8 96 58 113 58 4 0 24 -7 43 -15z m274 -30 c16 -8 42 -32 57 -52 24
-31 28 -47 32 -115 2 -48 -2 -90 -9 -108 -12 -29 -15 -30 -79 -30 -90 0 -98 7
-77 59 22 56 20 87 -9 149 -14 30 -25 58 -25 63 0 7 64 46 78 49 2 0 16 -7 32
-15z m3010 -16 c60 -27 79 -45 106 -104 27 -57 30 -93 11 -119 -13 -17 -15
-16 -35 16 -12 20 -41 48 -64 64 -77 51 -176 30 -209 -45 l-13 -29 -34 27
c-30 23 -33 30 -28 65 5 46 49 104 97 128 45 24 114 22 169 -3z m-456 -85
c-18 -14 -78 -13 -92 1 -3 3 14 26 39 51 l44 45 13 -41 c13 -38 12 -43 -4 -56z
m-1303 50 c60 -17 109 -48 95 -61 -16 -16 -208 -8 -266 11 -30 10 -59 22 -63
26 -4 4 16 16 45 28 58 22 96 21 189 -4z m828 -1 l43 -16 -6 -45 c-3 -25 -17
-64 -31 -87 -31 -54 -126 -149 -181 -181 -38 -22 -50 -24 -103 -18 -34 3 -61
9 -61 11 0 3 36 38 80 79 89 85 156 177 173 241 8 33 15 42 27 37 8 -3 35 -13
59 -21z m-2171 -80 c8 -27 8 -49 1 -80 -15 -57 -33 -72 -60 -47 -60 54 -64
126 -11 187 15 16 16 16 37 -3 12 -11 27 -37 33 -57z m2316 11 c22 -21 20 -77
-3 -122 -19 -36 -124 -137 -168 -160 -26 -14 -83 -16 -83 -2 0 5 12 17 26 26
61 41 127 150 148 247 5 22 12 27 35 27 16 0 37 -7 45 -16z m-832 -31 c23 -21
24 -46 1 -40 -10 3 -36 8 -58 11 -22 4 -65 12 -95 19 l-55 12 90 6 c50 3 92 6
94 7 3 1 13 -5 23 -15z m932 -7 c19 -8 36 -19 40 -24 3 -6 -3 -35 -14 -65 -16
-42 -37 -71 -89 -120 -66 -62 -106 -82 -132 -66 -8 5 6 24 43 61 68 66 98 122
98 183 0 49 4 52 54 31z m673 -17 c63 -30 90 -90 57 -123 -31 -32 -174 -10
-200 30 -22 33 -11 70 29 94 41 25 60 25 114 -1z m-553 -53 c-37 -121 -105
-216 -153 -216 -23 0 -22 1 7 35 45 50 78 113 92 172 11 50 13 51 36 41 18 -9
23 -16 18 -32z m-1696 -8 c4 -22 -33 -41 -64 -34 -32 8 -30 22 4 40 34 18 56
16 60 -6z m55 -60 c14 -24 24 -44 23 -46 -2 -1 -17 3 -35 9 -39 14 -58 44 -40
65 18 21 25 18 52 -28z m-156 -40 c-16 -21 -33 -38 -36 -38 -4 0 -24 14 -45
32 l-39 32 49 22 c45 20 51 21 76 6 l26 -15 -31 -39z m-88 -36 l33 -28 -28
-19 c-16 -10 -35 -27 -44 -36 -14 -17 -17 -16 -54 15 -38 33 -38 33 -22 64 30
58 49 59 115 4z m224 32 c26 -9 47 -17 47 -17 0 -1 -7 -20 -15 -42 -8 -22 -14
-55 -15 -72 0 -18 -5 -33 -11 -33 -30 0 -139 95 -139 121 0 21 45 59 70 59 9
0 37 -7 63 -16z m-363 -23 c0 -14 -18 -23 -30 -16 -6 4 -8 11 -5 16 8 12 35
12 35 0z m-53 -28 c2 -6 -6 -17 -18 -24 -19 -10 -25 -9 -35 6 -8 10 -11 22 -8
27 8 13 57 6 61 -9z m533 -18 c18 -13 55 -32 82 -41 26 -8 48 -17 48 -20 0 -2
-9 -18 -20 -36 -11 -18 -22 -52 -26 -75 -3 -24 -11 -43 -18 -43 -6 0 -39 19
-73 42 l-63 43 0 52 c0 49 15 103 30 103 3 0 21 -11 40 -25z m-616 -1 c5 -12
-1 -15 -26 -12 -42 4 -50 28 -10 28 18 0 32 -6 36 -16z m168 -53 l27 -26 -34
-22 -34 -22 -31 42 c-28 39 -29 43 -13 54 22 17 51 8 85 -26z m198 23 c14 -10
42 -33 62 -52 l37 -35 -24 -29 c-14 -16 -25 -39 -25 -50 0 -27 -8 -23 -94 51
-74 63 -75 64 -58 87 17 22 47 42 67 43 6 1 22 -6 35 -15z m-295 -66 c27 -46
10 -44 -42 6 l-48 45 36 -11 c22 -6 43 -22 54 -40z m749 18 c19 -8 52 -30 74
-50 l40 -36 -43 -65 c-24 -36 -47 -83 -52 -106 l-8 -42 -56 61 c-56 60 -56 60
-52 114 5 46 43 138 59 138 2 0 20 -6 38 -14z m-515 -93 l63 -56 -37 -18 c-20
-10 -44 -24 -52 -31 -13 -11 -22 -6 -56 32 -67 76 -73 87 -52 110 31 35 66 25
134 -37z m250 2 c31 -19 65 -42 74 -53 16 -18 16 -19 -9 -33 -14 -7 -39 -33
-56 -56 -16 -24 -31 -43 -33 -43 -2 0 -23 25 -46 55 -38 51 -41 58 -35 100 6
37 24 63 45 65 2 0 29 -16 60 -35z m-414 -15 c27 -29 15 -32 -20 -4 -20 16
-25 24 -14 24 9 0 24 -9 34 -20z m860 -77 c25 -43 45 -84 45 -91 0 -8 -11 -27
-25 -44 -13 -16 -29 -47 -35 -70 l-11 -41 -44 43 c-25 24 -51 58 -60 76 -13
28 -13 37 0 73 12 36 72 131 81 131 2 0 24 -35 49 -77z m-287 -18 c16 -13 47
-50 68 -81 l39 -56 -52 -49 c-82 -78 -112 -69 -172 50 -26 51 -23 72 19 124
37 43 58 46 98 12z m-261 -32 c22 -27 43 -53 46 -60 4 -7 -20 -31 -63 -62
l-69 -51 -35 75 c-53 114 -53 113 -14 130 63 27 92 20 135 -32z m661 -181 c40
-92 49 -122 37 -122 -17 0 -103 52 -124 74 -19 20 -22 32 -17 56 6 32 42 90
54 90 4 0 26 -44 50 -98z m-519 -24 c23 -39 38 -74 34 -78 -5 -3 -34 -16 -66
-29 l-59 -24 -55 54 c-82 81 -83 83 -21 119 32 18 67 30 89 30 35 0 38 -4 78
-72z m309 28 c48 -33 52 -48 18 -64 -38 -17 -97 -73 -127 -120 l-27 -43 -29
38 c-51 65 -57 81 -39 109 9 13 34 33 56 44 22 11 49 33 61 50 13 16 27 26 33
22 6 -4 30 -20 54 -36z m134 -95 c25 -16 48 -34 52 -39 4 -6 -13 -24 -36 -40
-44 -31 -92 -77 -126 -121 -15 -19 -24 -23 -45 -18 -30 8 -87 54 -87 71 0 26
75 119 118 147 57 36 67 36 124 0z m-344 -85 c18 -24 32 -49 32 -54 0 -5 -16
-12 -35 -15 -28 -5 -47 1 -92 26 -31 18 -58 37 -60 43 -3 10 78 41 113 43 6 1
25 -19 42 -43z m466 2 c8 -13 16 -47 18 -77 3 -50 1 -56 -22 -68 -41 -21 -210
-15 -210 7 0 15 111 120 147 139 48 25 50 25 67 -1z"/>
<path d="M1924 3278 c3 -13 1 -46 -5 -74 -11 -49 -10 -54 14 -85 14 -19 37
-64 52 -101 35 -87 49 -99 69 -59 31 59 10 187 -42 264 -47 68 -101 101 -88
55z"/>
</g>
</svg>
