<?xml version="1.0" standalone="no"?>
<!DOCTYPE svg PUBLIC "-//W3C//DTD SVG 20010904//EN"
 "http://www.w3.org/TR/2001/REC-SVG-20010904/DTD/svg10.dtd">
<svg version="1.0" xmlns="http://www.w3.org/2000/svg"
 width="1000.000000pt" height="774.000000pt" viewBox="0 0 1000.000000 774.000000"
 preserveAspectRatio="xMidYMid meet">
<metadata>
Created by potrace 1.16, written by Peter Selinger 2001-2019
</metadata>
<g transform="translate(0.000000,774.000000) scale(0.100000,-0.100000)"
fill="#000000" stroke="none">
<path d="M6840 7503 c-53 -39 -190 -176 -190 -188 0 -6 -15 -24 -34 -39 -19
-15 -58 -62 -87 -104 -28 -42 -63 -92 -77 -109 -31 -41 -15 -44 17 -3 l23 30
20 -25 c17 -22 68 -56 83 -55 3 0 20 0 37 0 l33 0 -25 -24 c-14 -13 -43 -27
-66 -31 -37 -6 -46 -2 -88 30 -27 20 -49 35 -50 33 -36 -50 -46 -70 -41 -78 3
-5 2 -10 -3 -10 -5 0 -14 -18 -21 -40 -7 -22 -16 -38 -21 -35 -6 3 -7 0 -4 -8
3 -8 -2 -21 -10 -30 -9 -9 -16 -19 -16 -22 0 -4 -7 -23 -16 -41 -14 -30 -20
-34 -43 -29 -106 23 -210 -5 -324 -87 -74 -53 -121 -63 -182 -40 -68 25 -145
35 -217 27 -40 -4 -82 -8 -93 -9 -11 -2 -27 -5 -35 -9 -8 -3 -32 -11 -52 -17
-21 -6 -38 -16 -38 -20 0 -5 -6 -7 -14 -4 -8 3 -25 -6 -37 -19 -13 -14 -49
-43 -80 -64 -59 -41 -129 -115 -154 -163 -15 -29 -68 -55 -89 -43 -6 3 -8 3
-4 -2 7 -8 -29 -41 -37 -34 -2 2 -15 29 -29 59 -35 77 -99 193 -128 232 -48
67 -175 182 -246 223 -40 24 -112 56 -160 71 -48 15 -92 31 -98 35 -11 9 -150
3 -166 -7 -5 -3 -22 -7 -36 -9 -52 -6 -147 -37 -155 -51 -4 -7 -27 -22 -51
-33 -60 -26 -131 -128 -171 -246 -46 -133 -49 -238 -14 -375 11 -41 21 -80 22
-86 2 -7 8 -18 14 -25 5 -8 10 -21 10 -30 0 -14 -19 -17 -116 -22 -116 -5
-211 -25 -262 -56 -15 -9 -49 -29 -76 -44 l-48 -29 -50 25 c-120 60 -228 74
-369 48 -75 -14 -133 -14 -141 -1 -4 6 -33 24 -65 40 -32 16 -61 34 -65 39 -3
6 -27 13 -53 17 -53 9 -52 9 -72 17 -13 5 -130 18 -185 20 -32 1 -166 -13
-211 -23 -22 -5 -68 -10 -102 -12 -34 -1 -62 -6 -62 -11 0 -6 -49 -7 -122 -2
-195 13 -315 12 -330 -2 -6 -7 -24 -13 -38 -13 -14 0 -31 -5 -37 -11 -9 -9
-175 -50 -191 -47 -4 1 -16 -2 -27 -7 -90 -36 -84 -36 -105 -15 -11 11 -20 24
-20 28 0 7 -26 38 -112 131 -21 22 -38 44 -38 49 0 5 -13 21 -30 35 -16 15
-40 44 -53 65 -14 20 -31 43 -40 50 -9 8 -13 20 -10 28 4 10 0 12 -11 8 -9 -3
-16 -1 -16 5 0 6 -17 27 -37 47 -20 20 -37 44 -38 54 -1 22 -24 52 -35 45 -4
-2 -29 23 -56 58 -26 34 -51 64 -54 67 -5 5 -88 108 -269 338 -36 45 -66 80
-69 78 -4 -5 163 -227 330 -436 66 -83 102 -136 94 -138 -8 -2 -12 -11 -9 -23
9 -32 -12 -21 -54 29 -39 46 -40 49 -22 60 10 7 19 17 19 22 0 6 -11 3 -26 -6
-14 -10 -28 -13 -32 -8 -4 5 -23 26 -41 46 -34 37 -34 38 -15 54 18 15 18 15
-10 11 -26 -4 -56 10 -56 28 0 3 -9 15 -20 27 -18 20 -18 22 -2 35 15 13 15
13 -6 8 -13 -4 -30 -1 -40 7 -16 12 -16 11 -3 -7 8 -11 26 -32 40 -47 38 -42
14 -33 -27 10 -25 26 -31 29 -19 11 15 -25 15 -28 -4 -48 -20 -21 -46 -30 -34
-12 3 5 0 13 -6 17 -8 4 -9 3 -5 -4 12 -20 -8 -13 -27 8 -16 20 -16 22 3 42
11 12 18 24 15 26 -2 3 -13 -6 -24 -19 l-19 -24 -20 25 c-11 14 -23 23 -25 20
-3 -3 21 -33 54 -67 59 -62 60 -62 79 -43 11 11 20 25 20 30 0 22 29 7 67 -35
35 -39 40 -50 34 -76 l-6 -31 -19 21 c-10 11 -23 18 -29 14 -6 -4 -7 -1 -3 6
5 7 -3 24 -20 41 -27 28 -52 41 -40 21 4 -5 0 -11 -6 -14 -16 -5 354 -382 679
-692 56 -54 62 -63 57 -90 -3 -17 0 -44 7 -60 6 -17 13 -41 14 -55 1 -14 10
-63 19 -110 8 -47 17 -101 20 -120 7 -67 31 -90 92 -90 15 0 24 -6 24 -15 0
-29 47 -65 84 -65 26 0 44 9 77 40 24 22 85 60 137 85 99 49 158 95 193 152
12 19 39 45 60 59 36 23 53 25 89 11 8 -3 28 -8 45 -12 16 -4 36 -12 44 -18 7
-7 21 -12 30 -12 9 0 16 -7 16 -15 0 -8 9 -19 20 -25 43 -22 73 -47 165 -136
52 -50 115 -100 138 -112 24 -11 46 -26 49 -34 4 -9 9 -10 17 -4 8 7 27 6 57
-3 24 -7 82 -12 129 -11 130 3 133 3 126 20 -8 21 8 19 28 -4 26 -29 181 -116
257 -144 141 -53 361 -106 411 -99 36 4 40 3 35 -11 -8 -21 -8 -21 31 -1 18 8
37 12 44 8 9 -6 5 -10 -12 -15 l-25 -7 28 -1 c38 -1 96 -27 103 -46 3 -8 12
-15 20 -15 8 0 19 -9 26 -21 7 -11 37 -36 66 -55 28 -19 52 -38 53 -42 3 -26
9 -46 22 -65 8 -12 18 -47 22 -77 4 -30 12 -66 17 -80 6 -14 12 -41 14 -60 5
-42 45 -150 56 -150 5 0 8 -6 8 -13 0 -20 50 -108 87 -154 40 -49 66 -95 95
-173 12 -30 57 -108 101 -173 66 -99 80 -127 87 -175 10 -72 30 -119 42 -98
15 27 -22 157 -61 211 -20 28 -47 71 -61 98 -13 26 -28 47 -32 47 -5 0 -8 4
-8 10 0 5 -12 35 -27 67 -29 64 -28 58 -38 163 -4 41 -14 85 -21 97 -8 12 -14
36 -14 53 0 17 -7 44 -15 60 -18 34 -4 41 19 9 8 -12 19 -18 25 -15 6 4 21 1
33 -5 29 -16 122 -40 168 -44 19 -2 61 1 93 6 68 12 125 3 131 -20 3 -9 7 -68
11 -132 l6 -115 -34 4 c-33 4 -37 9 -74 90 -22 48 -46 102 -53 120 -7 17 -16
32 -21 32 -12 0 -11 -5 5 -45 8 -18 12 -35 10 -38 -3 -2 4 -28 16 -56 11 -28
20 -53 20 -55 0 -2 -11 -2 -25 -1 -29 4 -29 4 -11 -40 19 -44 12 -46 -10 -3
-17 32 -17 32 -25 10 -6 -16 -4 -31 7 -48 9 -13 14 -27 11 -31 -4 -3 -11 6
-16 20 -12 31 -46 27 -38 -4 3 -11 1 -22 -4 -25 -6 -3 -7 -15 -4 -27 5 -17 4
-19 -4 -7 -9 13 -11 13 -11 0 0 -20 -12 -5 -50 64 -28 52 -31 65 -26 110 4 42
3 46 -5 26 -23 -53 -13 -122 28 -199 65 -123 117 -171 130 -121 3 11 9 20 13
20 8 0 23 37 22 55 -1 6 14 27 32 48 l32 38 24 -73 c13 -40 34 -99 47 -131 18
-47 19 -58 7 -53 -10 4 -19 -4 -29 -26 -11 -28 -11 -37 2 -63 l15 -30 -32 35
c-18 20 -29 27 -26 17 3 -10 1 -28 -5 -39 -9 -17 -6 -25 17 -49 32 -34 22 -40
-13 -7 -13 12 -23 16 -23 10 0 -6 5 -14 10 -17 20 -13 9 -22 -37 -31 -32 -6
-49 -15 -51 -26 -2 -12 2 -15 17 -11 19 5 21 1 21 -45 0 -38 -4 -51 -17 -57
-12 -4 -22 0 -28 10 -85 140 -286 365 -366 411 -19 10 -99 79 -235 202 -50 45
-95 82 -98 82 -4 0 -17 9 -29 21 -12 11 -58 47 -102 80 -44 32 -85 62 -90 67
-6 5 -18 13 -27 18 -10 5 -69 59 -131 119 -62 61 -133 128 -158 150 -24 23
-59 58 -77 79 -36 41 -124 95 -188 114 -63 18 -244 -7 -244 -34 0 -7 -11 -16
-25 -20 -13 -3 -29 -12 -36 -20 -6 -8 -15 -11 -19 -9 -11 7 -50 -46 -86 -115
-29 -54 -29 -57 -26 -205 2 -139 -9 -245 -28 -270 -4 -5 -15 -45 -24 -88 -9
-43 -20 -86 -26 -96 -5 -10 -7 -21 -4 -24 3 -3 -1 -40 -10 -82 -18 -89 -20
-129 -6 -120 5 3 10 14 10 24 0 10 7 24 15 31 12 10 14 4 14 -45 -1 -48 -3
-55 -18 -49 -117 50 -236 65 -300 38 -20 -9 -47 -18 -60 -20 -29 -6 -98 -45
-128 -74 -36 -33 -110 -198 -133 -298 -16 -72 -21 -120 -19 -205 1 -67 7 -115
13 -119 8 -5 7 -8 -1 -8 -9 0 -11 -20 -7 -77 3 -43 6 -105 7 -138 1 -41 6 -59
14 -58 7 2 15 -12 17 -30 3 -17 13 -75 21 -127 9 -56 27 -119 44 -155 16 -33
38 -81 50 -107 11 -26 33 -55 48 -65 15 -10 48 -36 73 -59 25 -23 86 -75 135
-117 50 -41 104 -90 120 -109 17 -18 41 -42 55 -51 21 -15 23 -19 10 -28 -12
-8 -11 -9 5 -5 16 5 34 -8 76 -52 59 -61 70 -76 120 -169 17 -32 39 -67 48
-78 10 -11 28 -42 40 -70 24 -56 24 -55 69 -120 18 -26 41 -64 52 -85 10 -21
36 -53 56 -71 46 -43 60 -57 104 -104 53 -58 127 -88 199 -82 82 8 205 68 207
102 0 16 41 102 51 108 15 10 15 136 -1 185 -8 26 -20 79 -26 117 -6 39 -20
85 -31 104 -23 39 -90 205 -88 218 4 21 -2 43 -11 43 -5 0 -7 -8 -4 -17 2 -10
-4 1 -16 25 -23 51 -42 300 -29 379 5 26 11 71 13 98 9 110 47 365 55 365 6
-1 16 -15 85 -117 20 -29 41 -53 48 -53 7 0 38 -20 68 -45 30 -25 66 -52 80
-59 14 -7 59 -32 100 -56 41 -23 104 -50 140 -60 36 -10 110 -34 165 -54 55
-20 108 -36 118 -36 10 0 42 -9 72 -19 48 -17 86 -20 292 -21 213 -1 260 -4
477 -35 140 -20 281 -35 337 -35 114 0 292 25 323 45 13 8 26 12 29 9 4 -4 14
-1 22 6 15 12 15 10 4 -16 -19 -44 -47 -78 -173 -207 -90 -94 -119 -117 -134
-113 -23 8 -34 -12 -27 -52 6 -32 -8 -53 -52 -75 l-32 -17 -7 47 c-5 32 -3 48
4 51 7 2 22 12 34 22 20 17 21 19 5 20 -10 0 -15 5 -12 10 8 13 -11 13 -38 -1
-40 -20 -77 -62 -72 -79 3 -9 -1 -32 -9 -51 -8 -19 -14 -61 -15 -94 -1 -139
-77 -328 -146 -365 -29 -15 -68 -69 -95 -130 -6 -14 -32 -44 -56 -67 -37 -33
-52 -58 -80 -133 -32 -87 -34 -101 -35 -219 -1 -69 5 -157 11 -196 16 -87 55
-149 96 -153 15 -1 31 -7 34 -12 3 -5 27 -8 53 -6 44 3 88 27 232 126 69 47
225 217 225 245 0 10 13 41 29 69 16 29 42 107 60 179 64 258 132 388 293 561
37 39 83 90 103 113 21 24 69 67 109 97 39 29 92 74 118 100 26 25 52 46 57
46 5 0 16 11 25 25 10 14 29 31 44 37 15 7 36 19 47 29 20 17 181 128 288 199
70 46 219 201 268 279 75 119 161 303 153 326 -4 10 0 15 12 15 15 0 16 2 5 9
-11 7 -11 9 0 13 8 3 15 14 15 26 1 12 2 29 3 37 0 8 15 27 33 42 32 28 67 64
127 133 42 48 86 158 106 265 10 50 21 97 25 106 11 19 -6 147 -26 209 -20 60
-59 115 -99 140 -17 11 -40 29 -51 41 -50 55 -142 77 -228 55 -30 -8 -127 -17
-217 -21 -225 -9 -439 -38 -524 -71 -22 -9 -42 -15 -45 -15 -9 1 -44 -11 -88
-31 -24 -11 -46 -17 -48 -15 -10 10 104 327 117 327 5 0 9 8 9 18 0 10 9 35
19 56 23 44 28 65 36 161 28 301 30 325 20 325 -5 0 -5 4 2 8 7 4 10 16 8 27
-2 11 -4 32 -4 48 -1 16 -7 27 -15 27 -13 0 -18 -40 -32 -274 -2 -43 -9 -87
-15 -97 -5 -11 -12 -32 -14 -47 -17 -118 -47 -239 -73 -298 -17 -38 -34 -80
-38 -94 -3 -14 -15 -43 -25 -65 -9 -22 -26 -69 -36 -104 -10 -35 -22 -65 -28
-66 -23 -7 -42 -16 -65 -32 -13 -10 -22 -13 -18 -8 18 31 37 85 43 120 10 61
11 115 2 115 -22 0 13 117 39 127 16 6 20 15 55 108 21 56 23 65 10 65 -5 0
-19 -17 -31 -37 -20 -34 -40 -54 -55 -54 -3 1 -21 -8 -40 -19 -19 -11 -35 -15
-35 -10 0 6 -6 10 -13 10 -7 0 -23 9 -35 20 -19 18 -25 19 -44 9 -22 -12 -22
-11 -8 6 14 17 13 18 -8 13 -12 -4 -20 -3 -17 2 5 8 -25 21 -58 25 -9 1 -26
10 -37 20 -22 20 -58 14 -40 -7 6 -7 21 -29 33 -48 13 -19 27 -35 32 -35 20
-1 102 -46 140 -79 38 -33 39 -35 29 -67 -8 -23 -9 -66 -5 -129 4 -52 6 -108
5 -124 -3 -28 -3 -28 18 -10 l22 19 -20 -32 c-10 -17 -61 -62 -111 -98 l-92
-66 -58 29 c-32 16 -74 34 -93 41 -25 8 -36 17 -36 30 0 11 4 17 8 15 4 -3 8
2 8 10 0 9 -4 16 -10 16 -5 0 -8 14 -6 30 4 34 0 37 -26 13 -10 -9 -18 -11
-18 -5 0 6 5 14 10 17 14 9 12 25 -2 22 -8 -1 -12 7 -10 22 2 23 1 24 -16 8
-34 -31 -40 -21 -26 49 6 36 17 71 22 76 6 6 8 17 5 24 -8 22 6 69 18 57 6 -6
11 -17 13 -24 2 -13 60 -99 116 -171 12 -16 28 -28 35 -28 7 0 19 -17 26 -37
18 -57 73 -81 97 -42 14 21 3 26 -17 7 -11 -11 -12 -9 -3 8 6 12 11 34 11 50
-1 16 2 40 6 53 7 19 5 22 -6 16 -8 -5 -7 0 4 12 23 27 22 40 -3 18 -11 -10
-20 -13 -20 -7 0 6 4 13 9 16 11 7 8 51 -4 49 -16 -2 -36 25 -25 32 12 7 14
46 3 44 -22 -4 -43 2 -38 10 3 5 0 13 -6 17 -6 3 -15 0 -20 -7 -4 -7 -11 -10
-15 -6 -4 3 -1 13 6 22 11 13 10 14 -6 8 -17 -6 -17 -5 -5 10 16 20 2 23 -19
5 -8 -7 -6 -3 4 10 11 12 14 22 8 22 -6 0 -14 -4 -17 -10 -3 -5 -11 -10 -17
-10 -7 0 -7 5 1 14 9 11 8 15 -5 20 -9 3 -20 4 -25 1 -5 -4 -6 1 -3 10 5 11 2
14 -10 9 -11 -4 -16 -1 -16 10 0 18 -15 22 -25 6 -9 -15 -27 0 -21 17 12 30
26 195 27 312 1 128 8 151 50 151 10 0 19 6 19 13 0 7 9 18 19 24 11 7 36 38
57 68 20 31 43 59 50 62 7 2 22 24 33 48 11 23 27 49 35 57 8 9 29 42 46 74
18 33 47 86 66 120 18 33 42 87 53 120 11 32 34 95 50 139 34 89 38 110 15 80
-15 -19 -16 -18 -9 15 9 43 9 43 32 36 24 -8 100 -128 153 -241 23 -49 45 -92
49 -95 12 -10 41 -102 35 -112 -14 -22 20 -1 35 22 10 14 11 21 4 16 -8 -4
-13 -2 -13 4 0 6 6 13 13 15 7 3 11 23 10 55 0 28 3 53 8 56 5 3 6 11 2 17 -4
7 -8 57 -9 112 0 55 -4 111 -8 125 -6 20 -5 22 4 10 9 -13 10 -12 6 5 -3 11
-8 46 -12 77 l-6 58 -49 -2 c-26 -1 -51 1 -56 5 -11 12 15 24 43 21 14 -1 41
4 59 12 22 9 36 10 40 4 12 -19 24 -275 20 -425 -3 -150 -18 -227 -61 -322
-20 -44 -29 -93 -16 -93 5 0 12 13 15 30 4 16 16 49 28 72 11 24 22 52 24 63
1 11 11 58 20 105 15 72 17 116 11 281 -3 108 -11 220 -16 250 l-11 54 49 45
c115 107 117 108 163 111 98 6 243 86 353 194 36 36 71 65 78 65 7 0 24 -6 38
-13 14 -8 48 -14 75 -15 27 -1 78 -7 114 -13 74 -11 93 -5 29 10 -40 10 -37
10 27 5 39 -2 95 -9 125 -14 30 -5 91 -14 135 -20 44 -6 130 -20 190 -30 292
-51 404 -70 454 -75 30 -4 63 -8 74 -10 28 -6 371 -44 451 -50 38 -3 74 -9 80
-14 6 -5 81 -14 166 -21 85 -6 167 -13 183 -15 15 -2 25 1 21 6 -3 5 3 9 13
10 10 0 13 3 6 6 -7 2 -13 16 -13 31 0 29 -16 20 -22 -13 -4 -21 -28 -23 -106
-10 -31 6 -33 8 -30 43 l3 37 350 1 c193 1 355 2 360 3 15 3 181 1 265 -4 50
-3 67 -2 50 4 -36 13 -348 32 -527 32 l-153 1 6 27 c15 59 21 63 82 57 31 -3
172 -9 313 -12 141 -3 269 -7 283 -8 14 -2 26 1 26 5 0 5 -12 9 -27 9 -40 0
-257 9 -408 16 -217 10 -286 12 -382 13 -135 1 -114 18 25 20 129 2 170 6 180
16 4 4 -98 4 -227 0 l-234 -7 6 61 c3 34 2 61 -3 61 -13 0 -20 -42 -14 -82 l6
-37 -111 -3 c-61 -2 -111 -1 -111 2 0 3 -64 6 -142 8 -87 2 -145 7 -149 13 -4
8 -9 8 -13 1 -4 -6 -40 -9 -94 -6 -48 2 -142 4 -210 4 l-123 0 3 33 3 32 98 1
c54 1 101 5 104 8 4 3 30 6 59 6 50 0 53 -2 56 -27 2 -14 9 -28 16 -31 11 -3
12 0 4 15 -6 10 -8 24 -4 30 4 6 55 13 115 17 l107 6 0 -42 c0 -47 9 -46 15 2
3 18 6 34 7 35 2 2 47 5 101 8 95 5 97 4 97 -18 0 -37 12 -85 21 -85 4 0 5 22
2 50 -7 59 -9 57 100 64 44 2 82 8 85 11 9 9 -502 -5 -860 -24 -71 -3 -128 -2
-128 3 0 5 -6 4 -13 -2 -7 -6 -22 -11 -32 -10 -43 2 -309 -15 -415 -27 -19 -3
-84 -9 -145 -14 -136 -12 -203 -19 -232 -26 -25 -6 -31 9 -9 22 7 4 35 27 61
51 26 23 52 42 58 42 6 0 33 24 61 53 28 29 76 66 106 82 30 16 70 39 89 52
18 12 37 21 41 18 4 -3 7 3 6 13 -1 14 7 17 42 15 23 -1 40 2 37 6 -7 12 45
33 95 38 25 2 57 10 72 17 22 11 26 11 21 0 -3 -8 3 -12 16 -11 12 1 21 5 21
9 0 4 13 5 30 2 82 -17 180 32 180 89 0 48 -16 51 -242 50 -115 -1 -224 -6
-241 -12 -18 -5 -45 -12 -61 -16 -27 -6 -28 -5 -23 23 6 29 -15 62 -40 62 -5
0 -18 9 -28 20 -14 16 -26 19 -51 14 -30 -6 -33 -3 -69 54 -31 50 -46 65 -93
87 -40 19 -65 25 -87 21 -16 -4 -37 -7 -45 -8 -8 -1 -31 -11 -50 -22 -19 -12
-47 -28 -62 -35 -16 -8 -28 -19 -28 -24 0 -5 6 -4 13 2 11 9 14 4 15 -24 2
-38 27 -95 42 -95 13 0 13 3 -5 36 -17 33 -21 99 -5 89 6 -3 13 1 16 9 12 31
21 15 17 -28 -4 -29 0 -55 11 -76 8 -18 13 -36 10 -41 -11 -18 -74 -6 -74 13
0 6 -13 26 -30 44 -24 27 -29 42 -26 72 2 21 7 47 13 57 5 11 15 45 22 76 9
45 24 70 71 126 32 39 62 81 65 94 8 31 23 50 63 78 17 12 32 29 32 37 0 9 16
35 35 58 71 87 80 157 25 190 -17 9 -30 21 -30 27 0 16 -24 9 -60 -18z m72
-69 c19 -6 23 -30 10 -52 -16 -25 -79 15 -95 60 -4 11 2 23 16 33 20 14 22 13
37 -10 8 -14 23 -28 32 -31z m8 41 c20 -24 6 -28 -15 -5 -10 11 -13 20 -8 20
6 0 16 -7 23 -15z m-49 -114 c37 -17 37 -17 20 -40 -15 -19 -23 -22 -49 -16
-34 7 -82 56 -82 82 0 9 8 25 17 35 16 18 17 17 37 -13 11 -17 36 -39 57 -48z
m-77 -60 c18 -12 41 -21 51 -21 17 0 17 -1 0 -20 -23 -26 -70 -26 -112 -1 -43
27 -51 56 -22 87 l23 25 13 -25 c7 -13 28 -34 47 -45z m-64 -70 c14 -5 34 -12
45 -14 18 -3 17 -5 -8 -17 -24 -12 -33 -11 -74 6 -60 25 -74 46 -48 73 l18 21
21 -30 c12 -16 32 -34 46 -39z m-43 -54 c27 -13 54 -22 61 -19 23 7 12 -8 -18
-23 -36 -19 -71 -19 -114 -1 -42 18 -53 48 -31 82 l17 26 19 -20 c10 -12 40
-32 66 -45z m-42 -83 c19 -3 44 -4 55 -1 22 6 23 5 14 -17 -3 -8 -11 -13 -18
-10 -7 3 -19 -2 -26 -11 -26 -32 -116 -13 -145 32 -14 21 -14 25 1 48 l16 25
34 -29 c18 -17 49 -33 69 -37z m-158 -140 c41 -32 53 -36 90 -31 42 4 43 4 37
-22 -10 -41 -30 -55 -75 -54 -79 4 -133 54 -117 111 5 17 11 32 13 32 3 0 26
-16 52 -36z m-23 -118 c31 -16 61 -23 86 -22 32 3 37 0 32 -16 -2 -10 -10 -17
-16 -15 -6 2 -25 -2 -43 -10 -42 -17 -68 -17 -108 3 -41 19 -49 37 -33 80 9
26 14 30 22 19 6 -8 33 -26 60 -39z m402 -1 c28 -8 55 -24 62 -36 7 -11 12
-22 10 -24 -2 -1 -32 1 -68 6 -73 8 -88 1 -111 -53 -11 -27 -14 -29 -20 -12
-15 37 -9 64 23 99 37 40 37 40 104 20z m-2622 -2 c8 -8 -142 -64 -254 -95
-58 -16 -81 -18 -102 -10 -22 8 -28 7 -28 -4 0 -8 5 -14 10 -14 18 0 10 -27
-26 -92 -38 -68 -158 -260 -191 -307 -12 -17 -11 19 3 90 33 160 102 275 211
349 64 44 214 89 299 89 39 1 74 -2 78 -6z m103 -42 c22 -26 87 -145 103 -186
8 -21 3 -25 -72 -55 -45 -17 -111 -37 -149 -44 l-67 -13 -64 64 c-34 36 -86
80 -115 99 -59 39 -72 54 -45 54 31 0 203 55 272 87 74 35 104 34 137 -6z
m115 -40 c45 -21 95 -51 110 -67 152 -165 153 -166 154 -203 6 -145 5 -203 -1
-252 l-7 -56 -41 8 c-23 5 -45 8 -49 9 -5 0 -8 8 -8 18 0 22 -59 213 -70 227
-5 6 -18 34 -29 62 l-20 52 92 -33 c50 -19 101 -37 111 -42 36 -14 6 16 -32
32 -95 42 -155 63 -163 59 -4 -3 -24 25 -45 62 -20 38 -49 89 -65 116 -15 26
-27 47 -25 47 2 0 42 -17 88 -39z m1945 -3 c38 -22 82 -23 130 -3 36 15 36 15
19 -4 -26 -28 -121 -64 -150 -57 -14 3 -37 17 -53 30 -25 22 -26 26 -14 52 11
24 15 27 24 14 7 -8 26 -23 44 -32z m491 -4 c47 -4 65 -10 72 -25 9 -17 8 -18
-12 -10 -33 13 -98 3 -137 -20 -43 -25 -59 -13 -37 28 16 33 24 35 114 27z
m-247 -108 c13 -15 28 -20 67 -19 53 1 64 -9 54 -49 -4 -16 -7 -16 -45 4 -36
18 -59 21 -177 21 -129 0 -137 1 -197 29 -63 31 -67 37 -49 80 7 15 12 14 48
-13 65 -46 150 -38 202 20 l19 21 31 -37 c17 -20 38 -46 47 -57z m-381 64 c8
-5 10 -10 4 -10 -7 0 -14 -9 -17 -21 -4 -14 -11 -19 -24 -16 -10 3 -42 9 -70
12 -29 4 -53 10 -53 14 0 23 130 40 160 21z m-175 -19 c-3 -6 -18 -11 -33 -11
l-27 1 30 13 c32 14 41 13 30 -3z m-2145 -26 c31 -10 186 -159 247 -238 24
-31 48 -55 53 -52 5 3 12 0 16 -6 4 -8 3 -9 -4 -5 -24 15 -11 -10 26 -49 20
-21 37 -44 38 -50 2 -22 19 -52 57 -97 25 -30 36 -51 31 -60 -13 -21 -77 -88
-84 -88 -3 0 -55 33 -116 73 -60 39 -139 87 -175 106 l-65 33 45 48 c62 63
141 167 141 183 0 6 -10 0 -21 -15 -47 -64 -148 -180 -167 -194 -18 -12 -31
-10 -118 15 -55 16 -116 32 -136 36 -21 3 -38 10 -38 16 0 5 38 69 84 142 46
72 96 157 111 186 23 46 29 52 39 39 6 -8 22 -19 36 -23z m3031 9 c16 -8 29
-24 32 -41 3 -15 4 -29 3 -31 -2 -1 -17 5 -34 13 -18 9 -62 17 -107 18 -85 2
-95 16 -36 48 38 20 94 17 142 -7z m121 -4 c11 0 37 -29 38 -43 0 -4 -9 -3
-20 3 -11 6 -24 8 -29 5 -14 -8 -61 13 -61 28 0 21 43 38 53 21 4 -8 13 -14
19 -14z m-1038 -42 c-10 -18 -20 -46 -24 -63 -5 -25 -12 -31 -40 -35 -44 -7
-130 -1 -130 10 0 12 63 76 89 90 13 6 44 16 70 20 25 4 47 8 49 9 1 0 -5 -14
-14 -31z m165 6 c1 -1 -4 -13 -13 -26 -9 -12 -16 -32 -16 -43 0 -18 -7 -20
-70 -22 -65 -1 -70 0 -70 20 0 12 9 36 19 54 19 31 20 31 83 26 35 -3 65 -7
67 -9z m23 -47 c-19 -52 -41 -64 -34 -18 4 27 39 77 48 69 1 -2 -5 -25 -14
-51z m262 -14 c104 -2 187 -17 228 -40 8 -4 -12 -53 -21 -53 -3 0 -22 5 -41
10 -19 6 -82 11 -140 11 -119 0 -183 11 -222 39 -31 23 -52 26 -46 8 7 -20 83
-56 139 -66 28 -5 80 -8 116 -5 75 6 160 -4 147 -17 -12 -12 -222 -17 -254 -7
l-25 8 25 -20 25 -20 -45 5 c-25 3 -59 9 -76 15 -32 10 -97 69 -75 69 7 0 10
4 7 9 -3 5 0 24 8 42 7 19 16 41 19 50 5 15 12 14 59 -9 47 -24 66 -27 172
-29z m-886 18 c-12 -19 -21 -21 -110 -18 -130 3 -128 25 2 28 30 1 69 4 85 8
38 9 39 8 23 -18z m1498 7 c7 -5 14 -18 17 -29 4 -16 2 -19 -11 -14 -21 9 -72
27 -91 32 -10 2 -11 6 -1 18 12 15 64 11 86 -7z m-1405 1 l53 -11 -35 -19
c-37 -20 -76 -24 -99 -9 -12 7 -12 12 4 29 11 12 20 21 22 21 2 0 27 -5 55
-11z m1236 -9 c38 -12 41 -15 31 -34 -6 -12 -23 -35 -38 -52 l-26 -31 -50 22
c-75 34 -94 39 -94 22 0 -9 28 -27 65 -43 57 -25 63 -30 50 -43 -13 -14 -21
-12 -70 12 -31 15 -58 33 -61 41 -8 21 15 59 32 52 8 -3 14 1 14 8 0 10 15 9
71 -6 74 -20 90 -19 69 6 -12 15 -62 29 -110 30 -14 1 -26 8 -28 17 -2 13 6
15 50 14 29 -1 72 -8 95 -15z m551 -26 c2 -16 9 -35 15 -42 8 -11 6 -11 -15
-2 -27 13 -58 58 -51 77 8 23 48 -2 51 -33z m-71 19 c3 -10 15 -30 25 -45 l19
-28 -25 0 c-18 0 -30 9 -41 31 -17 31 -14 59 5 59 6 0 13 -8 17 -17z m145 -60
c8 -10 6 -13 -5 -13 -19 0 -47 37 -47 61 0 31 25 27 33 -5 5 -17 13 -37 19
-43z m41 44 c2 -12 8 -30 12 -39 5 -13 2 -18 -9 -18 -18 0 -47 56 -39 76 7 19
30 6 36 -19z m57 12 c0 -9 3 -24 6 -33 9 -24 -23 -20 -36 5 -7 11 -9 26 -7 33
8 19 37 15 37 -5z m-361 -66 c12 -42 -1 -43 -40 -4 -35 35 -37 59 -6 70 18 7
23 4 29 -13 3 -11 11 -36 17 -53z m61 62 c0 -9 7 -29 15 -45 17 -33 6 -47 -25
-30 -19 10 -50 59 -50 80 0 5 14 10 30 10 20 0 30 -5 30 -15z m343 9 c8 -8 -3
-34 -14 -34 -5 0 -9 9 -9 20 0 19 11 26 23 14z m-1876 -10 c-3 -3 -12 -4 -19
-1 -8 3 -5 6 6 6 11 1 17 -2 13 -5z m-1360 -36 c10 -18 18 -37 19 -43 0 -5 6
-23 12 -38 7 -16 12 -34 12 -40 0 -7 7 -22 15 -35 15 -20 54 -151 55 -179 0
-15 -80 -51 -130 -59 -32 -5 -37 -3 -47 19 -15 33 -132 196 -189 263 l-42 50
58 12 c32 7 63 19 70 27 7 8 18 15 25 15 7 0 32 9 56 20 59 26 66 25 86 -12z
m1110 8 c2 -2 -3 -16 -12 -32 -8 -16 -15 -34 -15 -40 0 -14 -23 -24 -53 -24
-21 0 -81 -36 -124 -74 -13 -11 -26 -16 -30 -13 -9 9 11 113 31 161 l16 39 92
-7 c51 -4 94 -8 95 -10z m1512 -8 c20 -12 38 -23 40 -24 2 -2 1 -10 -3 -19 -5
-14 -10 -14 -43 3 -21 11 -50 22 -65 26 -19 4 -26 11 -22 21 9 22 51 18 93 -7z
m126 0 c4 -13 19 -35 33 -50 19 -21 22 -28 10 -28 -34 0 -96 68 -83 90 11 18
33 11 40 -12z m-1410 2 c-3 -5 -16 -15 -27 -21 -18 -10 -20 -9 -14 7 6 16 5
17 -11 2 -25 -22 -79 -48 -99 -48 -16 0 -16 2 1 20 10 11 26 20 35 20 10 0 23
7 30 15 14 17 95 22 85 5z m-5481 -29 c20 -21 27 -36 23 -51 -4 -17 -2 -20 10
-16 31 12 72 -51 45 -68 -17 -10 -110 97 -114 132 -6 40 1 40 36 3z m5033 15
c-15 -38 -27 -97 -29 -135 -2 -48 -10 -55 -126 -116 -42 -22 -77 -34 -81 -29
-5 5 -12 41 -16 80 l-7 71 46 43 c62 58 74 66 131 83 65 20 89 21 82 3z m283
4 c8 -5 10 -10 4 -10 -6 0 -16 -11 -22 -25 -13 -27 -52 -35 -52 -10 0 42 37
66 70 45z m364 -37 c-21 -42 -27 -89 -16 -122 9 -26 8 -30 -11 -35 -11 -3 -24
-3 -29 0 -14 9 -9 59 12 99 15 29 17 41 8 46 -7 4 -19 2 -27 -4 -11 -10 -13
-9 -9 3 2 8 22 20 44 27 21 6 40 12 41 12 1 1 -5 -11 -13 -26z m164 12 c25 -8
30 -35 7 -35 -9 0 -15 -9 -15 -22 0 -32 -40 -79 -70 -82 -14 -2 -37 -7 -52
-11 -23 -6 -27 -3 -33 24 -8 37 1 87 21 119 13 20 21 22 67 19 29 -3 62 -8 75
-12z m873 -11 c52 -24 57 -28 42 -39 -20 -14 -33 -11 -86 22 -21 13 -35 28
-32 33 8 14 10 13 76 -16z m-1137 -11 c-4 -16 -11 -30 -16 -32 -27 -10 -104
-141 -123 -208 -8 -28 -38 -38 -64 -21 -18 11 -31 7 -103 -28 -80 -40 -236
-159 -230 -176 1 -4 -2 -8 -7 -8 -5 0 -7 -8 -4 -18 2 -11 -3 -24 -14 -32 -15
-12 -16 -12 -5 0 17 20 15 35 -3 20 -9 -7 -14 -19 -11 -26 3 -7 -5 -36 -17
-64 l-23 -51 -24 19 c-14 11 -45 27 -70 35 l-45 15 2 65 c1 36 11 89 23 118
11 30 20 60 20 67 0 7 13 33 30 57 86 125 277 233 424 239 28 1 61 8 74 15 18
10 25 9 38 -3 8 -9 12 -20 9 -26 -3 -5 -2 -10 4 -10 5 0 17 13 26 28 20 32 48
49 88 51 25 1 27 -1 21 -26z m1278 7 l22 -20 -22 0 c-12 0 -22 -4 -22 -10 0
-5 10 -10 22 -10 20 0 18 -3 -13 -24 -20 -14 -48 -28 -63 -32 -14 -3 -29 -10
-32 -15 -3 -5 -17 -9 -32 -8 -16 0 -21 3 -12 6 30 12 115 75 113 84 -2 5 2 9
8 9 6 0 8 9 4 20 -3 11 -4 20 0 20 3 0 15 -9 27 -20z m-952 -28 c33 -31 105
-62 143 -62 41 0 65 -27 87 -95 7 -22 16 -44 20 -50 24 -33 32 -175 10 -175
-4 0 -18 -9 -31 -21 l-24 -21 -12 68 c-8 41 -24 85 -43 114 -37 58 -172 190
-195 190 -27 0 -13 -33 20 -49 32 -15 131 -110 159 -153 23 -35 45 -156 34
-189 -5 -16 -25 -33 -53 -47 -25 -12 -47 -22 -48 -22 -1 0 -3 21 -4 45 -1 25
-6 51 -11 58 -5 7 -13 28 -17 47 -13 65 -111 210 -142 210 -8 0 -13 3 -11 8 7
16 93 161 96 162 2 0 12 -8 22 -18z m764 -8 c43 -24 45 -27 29 -40 -23 -17
-36 -17 -79 1 -33 13 -34 16 -20 31 9 8 16 20 16 25 0 13 2 12 54 -17z m-6469
-4 c3 -5 1 -10 -4 -10 -6 0 -11 5 -11 10 0 6 2 10 4 10 3 0 8 -4 11 -10z
m4281 -93 c33 -61 63 -131 64 -146 0 -2 -19 22 -41 55 -23 32 -47 62 -53 66
-6 4 -7 10 -4 14 4 3 -4 28 -17 55 -14 27 -25 51 -25 55 0 20 43 -36 76 -99z
m1895 71 c7 -13 23 -34 37 -47 l26 -24 -25 8 c-29 8 -82 62 -74 75 10 16 24
11 36 -12z m80 -5 c46 -24 62 -43 39 -43 -25 0 -79 30 -90 49 -14 27 -8 26 51
-6z m-324 1 c-3 -3 -12 -4 -19 -1 -8 3 -5 6 6 6 11 1 17 -2 13 -5z m458 -15
c4 -5 18 -15 32 -20 25 -9 25 -10 7 -24 -25 -19 -27 -19 -57 6 -22 16 -24 23
-14 34 15 17 24 18 32 4z m-6385 -7 c0 -5 8 -17 18 -28 58 -66 56 -61 32 -74
-18 -9 -25 -8 -41 6 -11 10 -17 24 -14 33 3 8 3 12 -1 8 -13 -12 -42 23 -37
44 5 18 43 28 43 11z m4225 -50 c-8 -2 -16 -15 -18 -30 -2 -15 -5 -2 -5 28
l-2 55 20 -25 c15 -20 16 -26 5 -28z m1825 29 c0 -11 5 -23 11 -27 15 -9 5
-154 -14 -208 -16 -47 -47 -58 -47 -17 0 56 -33 156 -88 264 -2 4 28 7 67 7
64 0 71 -2 71 -19z m103 -14 c25 -21 21 -28 -10 -16 -36 13 -54 29 -47 40 5 9
24 1 57 -24z m-6183 -58 c0 -24 -27 -17 -58 14 -30 30 -33 38 -23 51 12 14 17
12 47 -21 19 -20 34 -40 34 -44z m6394 40 c32 -19 26 -23 -29 -19 -28 2 -63
20 -38 20 7 0 15 10 19 23 4 14 9 17 12 9 2 -8 18 -22 36 -33z m-1846 -178
c-28 -25 -54 -45 -57 -44 -3 1 -9 16 -12 33 -7 34 30 124 78 187 l28 37 7 -84
7 -83 -51 -46z m1987 169 c-4 -6 -10 -8 -15 -5 -4 3 -10 0 -12 -7 -2 -6 -10
-8 -16 -4 -22 13 -13 26 19 26 18 0 28 -4 24 -10z m-274 -7 c6 -59 26 -111 56
-144 12 -15 10 -20 -23 -48 l-38 -30 -18 27 c-28 42 -50 119 -43 150 6 30 63
68 66 45z m83 -23 c15 0 31 -13 48 -39 l26 -39 -29 -12 c-16 -7 -29 -17 -29
-22 0 -6 -7 -5 -15 2 -18 15 -55 91 -55 113 0 22 13 29 22 12 5 -8 19 -15 32
-15z m-763 2 c-5 -9 -18 -25 -29 -35 -20 -18 -21 -18 -32 3 -13 24 -6 35 25
43 40 10 46 8 36 -11z m572 6 c12 -7 23 -14 25 -15 2 -1 -1 -10 -6 -20 -10
-19 11 -103 41 -162 9 -19 9 -25 -1 -28 -6 -3 -10 -9 -6 -14 3 -5 -8 -9 -25
-9 -16 0 -32 6 -34 13 -4 8 -6 7 -6 -3 -1 -11 -10 -15 -28 -14 -16 1 -41 2
-56 3 -18 1 -26 5 -21 12 3 6 14 9 24 6 13 -3 23 5 34 27 18 35 39 177 30 201
-7 18 -1 19 29 3z m317 -3 c7 -8 8 -15 3 -15 -5 0 -16 -12 -23 -26 l-14 -25
-18 23 c-23 30 -22 33 5 46 30 14 33 14 47 -3z m-973 -12 c-4 -3 0 -17 9 -31
15 -24 15 -26 -15 -55 -17 -17 -32 -29 -35 -26 -3 2 -8 28 -12 56 -6 48 -5 52
17 56 40 7 43 7 36 0z m-5453 -30 c18 -24 23 -49 11 -62 -2 -2 -18 11 -36 27
-28 26 -31 33 -20 46 18 21 20 21 45 -11z m119 -37 c48 -56 55 -70 36 -81 -12
-8 -51 24 -43 36 3 5 0 9 -5 9 -16 0 -61 42 -61 57 0 7 -6 13 -12 13 -16 0 12
20 28 20 5 0 31 -24 57 -54z m3180 12 l97 -31 0 -36 c-1 -47 -26 -231 -35
-254 -5 -11 -14 -16 -23 -12 -8 3 -41 8 -73 12 -31 3 -61 8 -66 12 -17 11 -51
106 -57 161 -9 67 -34 160 -50 179 -17 22 90 6 207 -31z m2308 11 c50 -53 87
-130 102 -213 8 -44 13 -85 10 -92 -7 -18 -48 -23 -69 -7 -10 7 -25 13 -33 13
-13 0 -15 9 -13 44 3 32 -3 58 -19 91 -21 43 -75 95 -98 95 -5 0 -13 5 -16 10
-8 13 71 90 92 90 8 0 28 -14 44 -31z m-1799 -41 c12 -17 17 -28 10 -25 -6 4
-21 22 -34 39 -12 17 -17 28 -10 25 6 -4 21 -22 34 -39z m618 29 c0 -7 -5 -18
-11 -24 -8 -8 -6 -27 4 -69 9 -33 14 -60 13 -62 -11 -10 -34 17 -54 61 -27 63
-27 67 -3 67 11 0 23 5 27 12 5 8 1 9 -12 5 -18 -7 -18 -7 0 8 24 18 36 19 36
2z m220 -42 c-15 -31 -33 -81 -40 -111 -15 -63 -30 -55 -30 17 0 85 8 104 53
127 23 11 42 21 43 21 0 1 -11 -24 -26 -54z m-4570 -15 c5 -9 5 -22 0 -30 -7
-12 -12 -11 -29 4 -21 19 -27 46 -14 59 7 8 30 -10 43 -33z m3410 -18 c55 -29
231 -142 261 -168 15 -14 15 -20 3 -62 -17 -55 -37 -102 -44 -103 -62 -8 -118
-6 -135 5 -11 7 -60 24 -108 37 -79 21 -87 26 -81 44 3 11 13 77 22 148 8 70
18 127 21 127 3 0 31 -13 61 -28z m1966 19 c-3 -5 7 -14 23 -21 40 -16 76 -57
96 -108 15 -35 15 -47 5 -72 -7 -17 -15 -30 -19 -30 -3 0 -14 23 -24 50 -20
55 -64 92 -127 106 -30 6 -31 14 -3 16 8 1 37 38 39 51 3 15 4 17 10 17 3 0 3
-4 0 -9z m-2333 -76 l6 -30 -14 30 c-8 17 -14 41 -14 55 l1 25 7 -25 c4 -14
11 -38 14 -55z m1452 -86 c7 -21 8 -129 2 -136 -2 -1 -22 -5 -46 -9 -35 -6
-43 -4 -39 7 3 8 -1 26 -8 40 -7 15 -15 42 -17 62 -3 28 -1 34 11 29 13 -5 13
-2 -1 18 -25 36 -21 50 31 103 l47 48 6 -69 c4 -38 10 -80 14 -93z m-428 137
c1 -1 -35 -175 -40 -191 -4 -9 -13 41 -32 162 l-7 42 39 -6 c21 -3 39 -6 40
-7z m237 -86 c13 -41 27 -108 31 -147 l6 -73 -28 1 c-33 1 -79 17 -51 18 9 1
17 9 16 19 0 9 3 40 7 67 4 28 2 74 -4 105 -23 114 -23 116 -12 100 6 -8 22
-49 35 -90z m-334 63 c0 -16 4 -44 9 -63 27 -101 24 -193 -7 -205 -23 -8 -47
23 -110 145 l-52 98 38 7 c20 3 53 15 72 25 48 24 50 24 50 -7z m-3918 -7 c14
-20 15 -26 4 -35 -17 -14 -51 21 -43 44 9 21 19 18 39 -9z m88 -18 c19 -24 46
-53 59 -65 20 -19 21 -23 7 -23 -11 0 -15 -5 -10 -12 4 -8 3 -10 -2 -5 -5 5
-9 12 -10 15 -3 33 -44 80 -44 51 0 -5 -5 -7 -11 -4 -6 4 -8 13 -5 21 3 8 0
13 -7 11 -7 -1 -11 6 -10 16 0 12 -4 16 -13 13 -14 -6 -19 6 -7 17 11 12 18 8
53 -35z m6852 -45 c-3 -9 -24 -12 -65 -10 -52 3 -62 6 -59 20 2 9 -2 17 -8 17
-5 0 -10 -8 -10 -19 0 -17 -8 -19 -67 -19 -76 1 -105 11 -97 33 7 17 124 22
124 5 0 -5 5 -10 10 -10 6 0 9 6 8 13 -2 8 20 13 77 17 74 5 80 3 86 -15 3
-11 4 -26 1 -32z m-331 27 c5 0 9 -6 9 -14 0 -17 -128 -32 -143 -17 -6 6 -7
14 -3 18 9 9 96 22 114 17 8 -2 18 -4 23 -4z m-6553 -47 c-10 -12 -15 -11 -32
7 -18 18 -19 22 -6 30 22 13 54 -18 38 -37z m3749 -68 c14 -22 34 -52 45 -67
22 -33 22 -42 3 -58 -12 -10 -22 -5 -57 31 -24 24 -66 59 -93 78 l-50 34 45
47 45 47 18 -36 c10 -20 29 -54 44 -76z m358 61 c4 -24 4 -54 0 -65 -9 -29
-48 -53 -79 -49 l-25 3 31 65 c50 106 63 114 73 46z m1166 19 c22 -14 44 -37
49 -51 22 -58 22 -71 -2 -93 l-23 -22 -20 43 c-11 24 -31 53 -45 66 -23 21
-37 27 -83 34 -16 3 -16 5 -2 26 22 30 74 29 126 -3z m1129 15 c0 -6 -41 -9
-107 -8 -95 1 -101 2 -48 8 97 11 155 11 155 0z m-2140 -35 c0 -8 -2 -15 -4
-15 -2 0 -6 7 -10 15 -3 8 -1 15 4 15 6 0 10 -7 10 -15z m-4239 -18 c-13 -13
-26 -3 -16 12 3 6 11 8 17 5 6 -4 6 -10 -1 -17z m6244 -1 c88 -10 165 -22 170
-28 7 -7 -6 -9 -40 -4 -27 3 -70 8 -95 11 -25 3 -61 7 -80 10 -19 2 -74 7
-122 11 -48 4 -86 10 -83 13 5 10 73 6 250 -13z m358 17 c-7 -2 -21 -2 -30 0
-10 3 -4 5 12 5 17 0 24 -2 18 -5z m110 0 c-18 -2 -48 -2 -65 0 -18 2 -4 4 32
4 36 0 50 -2 33 -4z m270 -10 c-7 -2 -19 -2 -25 0 -7 3 -2 5 12 5 14 0 19 -2
13 -5z m-6815 -164 c6 -14 -18 -10 -34 5 -8 8 -14 20 -14 26 0 6 -4 9 -8 6
-14 -9 -104 93 -98 111 5 12 23 -2 79 -62 40 -43 73 -82 75 -86z m1207 152 c3
-6 26 -13 50 -17 52 -7 59 -28 23 -67 -19 -20 -36 -26 -87 -30 -36 -3 -60 -2
-54 1 28 18 47 112 23 112 -5 0 -10 -13 -10 -30 0 -17 -9 -39 -20 -50 -11 -11
-20 -24 -20 -29 0 -13 -16 -17 -60 -13 l-39 4 20 31 c10 18 19 44 19 59 0 23
5 27 33 31 64 8 116 7 122 -2z m4592 3 c-3 -3 -12 -4 -19 -1 -8 3 -5 6 6 6 11
1 17 -2 13 -5z m620 -9 c-4 -12 -79 -9 -123 5 -22 7 -11 9 49 7 48 -1 76 -5
74 -12z m-6487 -2 c-1 -18 -18 -35 -24 -24 -4 6 -2 11 4 11 6 0 8 5 5 10 -3 6
-1 10 4 10 6 0 11 -3 11 -7z m1529 -9 c19 -4 21 -8 11 -14 -7 -4 -23 -4 -34 0
-12 4 -37 13 -56 18 -34 10 -34 10 10 6 25 -3 56 -8 69 -10z m5141 -5 c0 -23
0 -23 -132 -3 -68 10 -40 24 47 24 80 0 85 -1 85 -21z m138 -8 c-1 -28 -3 -29
-42 -24 -81 9 -88 11 -76 33 9 16 21 20 65 20 53 0 54 -1 53 -29z m77 0 c-9
-35 -16 -41 -43 -35 -14 4 -22 14 -22 28 0 30 6 35 42 34 27 -1 29 -4 23 -27z
m151 16 c1 -1 -1 -17 -3 -35 l-6 -34 -56 6 c-31 3 -59 5 -63 6 -9 0 -10 32 -2
53 4 11 19 14 67 10 34 -2 62 -5 63 -6z m74 -32 c0 -44 -1 -45 -31 -43 -37 3
-40 7 -30 44 5 19 14 28 24 26 8 -1 18 2 22 8 11 19 15 10 15 -35z m360 6 c0
-70 -4 -73 -97 -70 -52 2 -87 7 -89 14 -3 6 0 24 6 40 6 15 8 30 5 33 -3 3
-13 -13 -22 -36 l-16 -42 -63 0 c-35 0 -65 4 -68 8 -3 5 -3 25 1 45 5 34 8 37
39 37 24 0 34 -5 34 -15 0 -8 5 -15 10 -15 6 0 10 7 10 15 0 12 16 15 86 15
l86 0 -7 -47 c-5 -37 -4 -45 5 -37 7 7 13 27 13 45 2 25 8 36 22 40 31 9 45
-1 45 -30z m-6370 2 c-21 -73 -36 -84 -92 -74 l-38 6 24 40 c24 38 47 52 93
54 19 1 21 -2 13 -26z m3974 17 c30 -11 66 -65 66 -98 0 -39 -27 -37 -75 7
-35 32 -52 41 -80 41 l-36 0 18 24 c10 13 21 22 25 20 4 -2 9 0 13 6 8 13 36
13 69 0z m2531 -7 c-4 -10 -9 -34 -11 -53 l-4 -35 14 38 c24 61 37 69 112 65
84 -3 89 -7 74 -52 -6 -19 -9 -40 -5 -46 9 -14 -3 -15 -177 -10 -59 2 -113 7
-119 11 -8 4 -9 22 -5 53 l7 46 61 0 c53 0 59 -2 53 -17z m-7039 -35 c-11 -40
-15 -44 -61 -55 -57 -14 -70 -7 -60 35 7 35 39 51 122 61 9 1 9 -9 -1 -41z
m141 34 c21 -7 21 -7 -7 -39 -22 -24 -39 -33 -75 -36 -44 -5 -47 -4 -41 16 3
12 6 32 6 45 0 20 5 22 48 21 26 -1 57 -4 69 -7z m5742 -7 c8 -1 17 -8 19 -15
3 -8 -1 -11 -10 -8 -8 4 -40 9 -71 13 -32 4 -57 12 -57 17 0 9 23 7 119 -7z
m1651 3 c14 0 13 -6 -5 -44 l-20 -44 -55 0 c-31 0 -62 6 -69 13 -10 10 -12 9
-9 -3 4 -18 -37 -25 -99 -15 -37 5 -43 10 -43 30 0 13 5 36 10 51 l10 26 133
-7 c72 -4 139 -8 147 -7z m-7251 -7 c12 -8 10 -14 -10 -35 -21 -22 -33 -26
-84 -26 l-60 1 28 24 c15 13 27 29 27 35 0 12 79 13 99 1z m141 0 c0 -4 -12
-20 -26 -35 -21 -20 -36 -26 -72 -26 l-45 0 24 27 c13 15 29 31 34 35 14 11
85 10 85 -1z m518 -15 c12 -12 12 -18 -4 -44 -14 -25 -21 -29 -35 -21 -10 5
-36 9 -58 9 -29 0 -41 4 -41 14 0 8 5 18 10 21 6 3 10 16 10 27 0 19 4 20 52
15 28 -4 58 -13 66 -21z m113 9 c24 -9 50 -18 58 -20 11 -4 11 -9 3 -17 -8 -8
-26 -5 -66 12 -31 12 -56 26 -56 31 0 12 11 11 61 -6z m1937 -61 c68 -62 87
-92 60 -95 -80 -9 -178 4 -178 24 0 20 33 137 39 137 4 0 39 -30 79 -66z
m3057 50 c31 -4 45 -11 45 -21 0 -11 -7 -13 -26 -9 -15 4 -38 9 -53 11 -14 2
-43 7 -63 10 -56 9 -49 29 7 21 25 -3 65 -9 90 -12z m-3895 -5 c0 -10 -7 -11
-70 -10 -25 1 -74 -7 -109 -18 -36 -11 -67 -19 -69 -16 -6 6 128 43 168 47 64
6 80 6 80 -3z m99 1 c35 -10 51 -25 51 -47 0 -9 -8 -9 -32 2 -18 7 -48 15 -66
18 -39 6 -47 12 -37 26 8 14 40 14 84 1z m-2784 -20 c10 -11 16 -20 13 -20 -3
0 -13 9 -23 20 -10 11 -16 20 -13 20 3 0 13 -9 23 -20z m386 -22 l-6 -43 -79
-23 c-44 -12 -80 -21 -82 -20 -1 2 -5 22 -9 45 l-6 41 83 20 c111 27 105 29
99 -20z m6359 26 c36 -3 72 -7 80 -9 53 -8 112 -15 160 -20 30 -2 100 -9 155
-14 55 -5 194 -13 308 -17 114 -4 210 -11 213 -16 3 -5 14 -6 25 -3 21 7 22 3
13 -44 -6 -31 -7 -31 -58 -25 -28 3 -67 7 -86 10 -53 8 -99 13 -160 19 -252
25 -445 52 -442 63 3 15 -10 16 -25 1 -8 -8 -37 -7 -110 6 -164 28 -168 29
-171 49 -3 13 1 17 15 13 10 -3 47 -9 83 -13z m-5180 -10 c14 -3 33 -12 44
-19 17 -13 17 -18 6 -45 -12 -29 -33 -39 -45 -21 -3 6 -13 9 -23 8 -9 0 -29 7
-44 17 -27 17 -27 19 -12 48 11 21 20 28 32 23 9 -3 28 -9 42 -11z m140 -14
c9 -16 21 -20 61 -20 31 0 48 -4 44 -10 -9 -15 -59 -12 -107 7 -52 20 -52 19
-43 32 10 17 33 13 45 -9z m952 -11 c-1 -8 -12 -39 -23 -70 -20 -55 -23 -58
-85 -84 -62 -26 -67 -27 -124 -14 -44 10 -59 17 -55 27 9 25 18 97 11 90 -4
-3 -13 -28 -20 -55 l-12 -48 -53 -3 c-49 -3 -52 -2 -42 15 16 32 117 113 139
113 12 0 33 5 49 11 100 38 221 48 215 18z m2331 6 c13 -8 33 -29 46 -46 20
-27 21 -32 8 -47 -8 -9 -21 -30 -30 -47 -14 -27 -16 -28 -22 -10 -18 59 -42
91 -85 112 l-44 22 34 15 c45 19 65 20 93 1z m-2884 -11 c13 -13 -29 -24 -93
-24 -58 0 -67 2 -56 14 6 8 21 17 33 20 25 5 108 -1 116 -10z m710 -18 c56
-29 69 -43 67 -75 -1 -23 -1 -23 -121 -22 -66 1 -121 4 -123 5 -1 2 4 19 12
37 7 19 19 47 25 63 11 27 14 28 52 22 22 -4 62 -17 88 -30z m197 4 c15 -6 24
-21 29 -47 3 -21 19 -59 35 -85 16 -25 27 -48 24 -51 -2 -2 11 -30 31 -62 39
-66 45 -91 18 -80 -10 4 -23 8 -30 8 -7 0 -11 3 -10 7 1 4 -24 35 -57 71 -59
65 -111 136 -159 220 l-27 46 62 -10 c34 -5 72 -13 84 -17z m-2823 -22 c3 -24
5 -44 4 -45 -2 -1 -18 -5 -36 -8 -28 -5 -32 -3 -23 8 9 11 8 18 -8 32 -26 23
-25 29 3 43 43 21 54 15 60 -30z m1743 26 c-25 -18 -103 -20 -88 -1 6 6 32 13
59 14 44 1 46 0 29 -13z m-1283 -21 c8 -43 -2 -63 -33 -63 -16 0 -35 -3 -44
-6 -13 -5 -16 2 -16 39 0 49 -4 46 71 54 11 1 19 -8 22 -24z m137 13 c0 -7 -6
-31 -14 -52 -7 -22 -11 -45 -8 -53 5 -14 -16 -11 -70 12 -24 10 -26 16 -25 59
l2 48 58 0 c42 0 57 -4 57 -14z m926 -17 c7 -6 18 -9 26 -8 7 1 23 1 36 0 23
-1 23 -1 5 -32 -28 -49 -51 -55 -109 -28 -27 12 -50 23 -52 25 -2 1 4 18 12
38 14 34 17 35 43 25 15 -5 33 -15 39 -20z m473 14 c13 -11 -20 -22 -47 -17
-26 5 -30 9 -21 20 10 12 53 10 68 -3z m-1280 -5 c0 -7 -6 -38 -12 -68 -10
-45 -16 -55 -32 -54 -53 2 -51 1 -51 69 l1 65 48 0 c31 0 47 -4 46 -12z m77 2
c17 0 19 -53 3 -116 -10 -39 -15 -45 -33 -40 -12 3 -27 6 -33 6 -16 0 -17 55
-2 101 6 19 13 40 15 48 2 7 11 10 20 7 9 -3 22 -6 30 -6z m428 -12 c13 -7 16
-7 12 1 -10 16 -3 14 71 -20 149 -68 169 -76 206 -83 20 -4 37 -12 37 -18 0
-7 30 -8 96 -3 197 15 374 0 374 -31 0 -8 -4 -14 -10 -14 -5 0 -10 -9 -10 -19
0 -11 -5 -23 -11 -27 -12 -7 -59 -103 -59 -120 0 -8 10 -10 33 -5 33 8 77 31
77 42 0 8 -53 4 -68 -5 -7 -4 -12 -3 -12 2 0 11 34 22 70 22 20 0 22 2 10 10
-13 8 -12 10 3 10 9 0 17 5 17 10 0 6 -5 10 -11 10 -6 0 6 16 27 35 20 19 43
35 50 35 20 0 17 18 -3 23 -10 3 8 5 40 6 75 1 237 -49 237 -74 0 -7 17 -24
39 -38 50 -33 161 -136 161 -150 0 -6 6 -18 13 -27 6 -9 -11 9 -40 40 -55 58
-70 61 -28 6 31 -40 32 -56 3 -30 -33 29 -18 -2 42 -86 28 -40 50 -74 47 -76
-6 -6 -40 35 -90 109 -25 37 -48 63 -51 58 -4 -5 0 -12 6 -15 10 -5 10 -7 1
-12 -7 -3 -13 -13 -13 -22 0 -12 -3 -13 -12 -4 -7 7 -16 12 -22 12 -5 0 -3 -6
5 -12 18 -15 92 -106 104 -128 7 -14 -91 73 -107 95 -4 5 -10 6 -15 2 -4 -5 3
-27 15 -50 27 -51 28 -71 3 -38 l-18 24 0 -29 c0 -15 10 -45 23 -66 14 -21 20
-38 15 -38 -5 0 -12 8 -15 18 -3 10 -15 18 -25 18 -23 0 -21 -4 33 -73 23 -29
47 -52 53 -53 7 0 12 -3 11 -7 -5 -16 30 -55 43 -48 8 5 10 4 5 -3 -7 -11 45
-44 74 -47 8 -1 23 -2 32 -3 11 -1 15 -7 11 -18 -8 -22 69 32 83 58 10 19 12
18 24 -14 17 -43 32 -81 57 -143 12 -27 29 -70 38 -95 33 -86 49 -125 55 -130
8 -7 80 -154 80 -163 0 -14 -86 27 -127 60 -23 18 -45 33 -50 33 -11 0 -92 79
-121 119 -13 17 -28 28 -34 25 -7 -4 -8 -2 -4 5 10 15 -13 43 -28 34 -6 -3 -8
-3 -4 2 4 4 -6 25 -23 46 -17 22 -25 39 -19 39 7 0 5 6 -4 16 -9 8 -16 20 -16
25 0 48 -252 281 -276 256 -3 -3 16 -17 43 -31 26 -14 43 -25 37 -26 -39 -1
-226 113 -290 178 -28 28 -57 52 -62 52 -27 0 -21 -25 14 -61 21 -21 34 -39
28 -39 -6 0 -57 9 -115 19 -259 49 -414 111 -480 194 -22 27 -39 53 -39 58 0
5 -8 18 -17 29 -10 11 -27 35 -38 54 -11 18 -33 52 -48 75 -15 23 -25 47 -21
53 4 6 3 8 -3 5 -11 -7 -93 103 -93 124 0 9 -3 10 -10 3 -7 -7 -4 -25 10 -58
11 -26 15 -44 10 -41 -6 4 -13 -1 -17 -11 -5 -14 -8 -13 -19 7 -7 13 -11 31
-9 39 3 8 0 22 -6 30 -9 13 -10 12 -5 -2 3 -12 1 -15 -10 -11 -17 6 -18 -6 -4
-43 6 -15 8 -29 6 -32 -3 -2 -13 14 -22 37 -9 22 -20 38 -25 35 -5 -3 -9 0 -9
7 0 7 -3 10 -6 6 -4 -3 1 -25 10 -47 9 -23 12 -39 6 -35 -5 3 -15 24 -21 45
-7 22 -16 40 -22 40 -5 0 -6 -7 -3 -16 3 -9 8 -28 11 -42 4 -18 -2 -12 -15 16
-12 27 -24 41 -31 36 -6 -3 -15 0 -20 7 -13 22 -19 5 -9 -30 6 -23 6 -31 -2
-29 -6 2 -13 15 -15 28 -3 23 -18 40 -36 40 -5 0 -5 -9 -2 -20 8 -26 -6 -25
-36 1 l-23 20 19 37 20 37 95 5 c100 6 133 3 164 -12z m6843 16 c-3 -3 -12 -4
-19 -1 -8 3 -5 6 6 6 11 1 17 -2 13 -5z m90 0 c-3 -3 -12 -4 -19 -1 -8 3 -5 6
6 6 11 1 17 -2 13 -5z m-7809 -44 c4 -39 -16 -60 -59 -60 -20 0 -29 7 -37 28
-5 15 -13 35 -17 44 -7 19 17 27 75 24 32 -1 35 -4 38 -36z m2635 9 c58 -16
63 -34 7 -25 -45 7 -120 37 -120 47 0 7 28 1 113 -22z m-2095 15 c16 -5 22
-14 22 -35 0 -15 -4 -31 -10 -34 -5 -3 -10 -29 -10 -56 0 -47 -1 -49 -20 -39
-12 6 -20 7 -20 1 0 -5 -9 -7 -21 -4 -18 5 -20 11 -15 42 3 20 9 57 12 84 7
49 13 54 62 41z m1183 -9 c31 -13 32 -14 9 -14 -37 -1 -71 10 -64 20 7 12 16
11 55 -6z m2682 -35 c31 -35 36 -84 10 -112 -24 -27 -41 -22 -48 13 -4 18 -25
51 -47 75 -22 24 -35 44 -29 44 6 0 11 6 11 14 0 24 72 1 103 -34z m-3043 28
c0 -7 -9 -28 -20 -45 -18 -30 -24 -33 -70 -33 l-50 0 32 45 c28 40 36 45 70
45 24 0 38 -5 38 -12z m150 -3 c0 -7 -9 -23 -19 -37 -16 -20 -30 -25 -68 -27
-26 0 -56 -4 -66 -7 -16 -5 -15 -1 5 41 l22 46 63 -2 c41 -1 63 -6 63 -14z
m1708 1 c7 -8 -68 -50 -92 -51 -11 -1 -26 3 -32 9 -9 8 -6 16 14 33 21 17 36
21 66 18 21 -2 41 -6 44 -9z m-3694 -12 c3 -8 2 -12 -4 -9 -6 3 -10 10 -10 16
0 14 7 11 14 -7z m357 -24 c7 -22 10 -42 8 -43 -2 -2 -34 -18 -71 -35 l-67
-30 -25 51 c-14 28 -25 52 -23 53 5 5 134 42 149 43 12 1 21 -12 29 -39z
m1737 31 c12 -7 11 -14 -2 -39 -15 -29 -19 -31 -71 -29 -30 1 -50 3 -45 5 5 2
14 19 20 38 10 31 15 34 48 34 20 0 43 -4 50 -9z m1858 0 c16 -5 42 -12 58
-16 28 -6 28 -7 24 -60 -4 -51 3 -72 15 -42 9 22 7 -56 -3 -143 -15 -125 -43
-208 -86 -254 -35 -36 -109 -77 -165 -90 -23 -5 -27 -2 -32 22 -5 21 0 31 21
47 15 11 36 29 48 40 48 47 160 119 173 111 4 -3 8 23 9 57 1 34 6 78 12 97 5
19 10 48 9 65 l-1 30 -9 -30 c-5 -16 -14 -59 -20 -94 l-12 -65 -17 25 c-10 13
-26 34 -37 46 -10 12 -27 34 -38 49 -11 16 -32 42 -46 59 -23 27 -25 33 -15
62 6 17 14 35 19 39 10 10 9 24 -2 24 -5 0 -16 -19 -25 -41 l-17 -42 -32 31
c-18 18 -42 40 -55 49 -23 18 -22 18 55 15 43 -2 89 1 103 7 32 13 32 13 66 2z
m234 0 c0 -5 -9 -44 -20 -87 -11 -44 -20 -98 -20 -121 0 -46 -5 -50 -32 -30
-13 11 -18 36 -22 120 l-6 106 42 9 c58 13 58 13 58 3z m-2001 -27 c2 -2 -6
-15 -18 -30 -20 -25 -20 -27 -4 -40 24 -18 13 -17 -25 2 -27 13 -31 19 -26 42
4 15 9 30 11 35 4 6 52 0 62 -9z m3111 6 c0 -15 -57 -16 -72 -2 -4 4 11 8 33
10 22 1 39 -2 39 -8z m-5260 -15 c7 -9 8 -15 2 -15 -5 0 -12 7 -16 15 -3 8 -4
15 -2 15 2 0 9 -7 16 -15z m4724 -6 c41 -32 70 -96 57 -125 -6 -14 -19 -24
-31 -24 -12 0 -30 -5 -41 -10 -17 -10 -19 -7 -19 22 0 35 -31 111 -49 122 -25
16 -6 32 40 35 9 0 28 -8 43 -20z m-4721 -56 c37 -36 66 -68 64 -69 -19 -19
-147 75 -147 108 0 12 8 28 15 28 1 0 32 -30 68 -67z m2816 45 c12 -15 11 -18
-3 -18 -10 0 -16 8 -16 22 0 12 1 19 3 17 1 -2 9 -12 16 -21z m891 -24 c28
-26 50 -50 50 -54 0 -8 -97 -70 -111 -70 -10 0 -23 28 -45 97 -13 42 -12 43
14 58 15 8 31 14 35 15 4 0 30 -21 57 -46z m-3564 -15 c19 -38 23 -54 14 -63
-8 -8 -14 -7 -21 4 -9 12 -10 12 -5 -3 3 -10 6 -25 6 -33 0 -12 5 -11 26 3 25
16 28 16 62 -3 42 -21 132 -102 132 -116 0 -6 -15 -1 -33 10 -37 21 -149 62
-172 62 -30 0 -14 -18 22 -25 51 -9 171 -68 211 -103 l33 -28 -25 -12 c-14 -6
-26 -8 -28 -4 -4 9 -110 73 -178 107 -61 30 -72 42 -65 66 3 9 -2 22 -12 30
-15 13 -16 12 -10 -9 5 -23 4 -24 -31 -17 -40 7 -102 41 -102 56 0 5 -7 9 -15
9 -8 0 -15 5 -15 10 0 14 4 13 42 -9 18 -11 50 -21 71 -24 32 -4 37 -2 32 10
-4 13 -3 14 10 3 9 -7 18 -10 22 -7 3 4 -14 24 -38 46 -24 21 -41 42 -37 47 5
4 17 -1 28 -11 11 -10 20 -13 20 -8 0 6 -7 16 -15 23 -20 16 -19 27 3 33 36
10 42 6 68 -44z m4485 15 c6 -7 17 -33 24 -57 18 -61 6 -79 -51 -76 -24 2 -44
4 -44 5 0 2 5 14 11 28 10 21 8 31 -9 60 l-21 36 20 14 c22 15 52 11 70 -10z
m-4053 -27 c34 -47 34 -82 1 -90 -14 -4 -30 10 -64 58 -25 35 -45 66 -45 69 0
3 17 6 38 6 34 0 42 -5 70 -43z m-101 -4 c16 -21 35 -48 41 -59 10 -19 9 -23
-14 -28 -15 -4 -24 -10 -20 -13 6 -7 -12 -33 -24 -33 -7 0 -94 140 -88 144 11
8 55 25 64 25 6 1 24 -16 41 -36z m221 -32 l22 -39 -37 8 c-24 6 -48 21 -65
42 -41 48 -37 60 15 42 33 -11 49 -24 65 -53z m471 24 c0 -5 -4 -3 -9 5 -5 8
-9 22 -9 30 0 16 17 -16 18 -35z m1605 25 c48 -10 60 -10 68 2 6 10 8 8 6 -7
-2 -11 2 -20 9 -20 6 0 15 -4 20 -9 5 -5 3 -6 -4 -2 -23 13 -14 -4 26 -52 37
-44 66 -114 53 -126 -3 -3 -22 -6 -43 -6 -21 0 -49 -4 -63 -10 l-26 -10 0 68
c-1 74 -13 139 -29 155 -18 18 -22 2 -6 -29 8 -17 17 -67 20 -111 5 -89 9 -82
-58 -97 -25 -6 -36 1 -101 71 -41 43 -85 85 -99 92 -22 11 -25 20 -24 55 1 22
5 43 9 47 13 9 181 2 242 -11z m822 -49 c13 -35 24 -68 24 -73 0 -5 -33 -8
-75 -7 -44 2 -75 8 -75 14 0 5 12 33 25 60 14 28 25 56 25 63 0 8 10 12 26 10
22 -3 30 -13 50 -67z m-1089 24 c1 -38 -5 -41 -54 -23 -33 12 -44 28 -19 28 7
0 27 7 42 15 16 8 29 15 30 15 0 0 0 -16 1 -35z m2027 0 c25 -38 20 -53 -18
-61 -43 -8 -56 0 -49 29 6 23 31 57 43 57 4 0 15 -11 24 -25z m-4164 -23 c14
-20 34 -54 45 -74 19 -36 19 -38 0 -57 -26 -29 -37 -26 -73 18 -18 22 -50 50
-72 62 -22 13 -40 26 -40 29 0 6 98 59 110 59 3 1 16 -16 30 -37z m715 28 c3
-5 2 -10 -4 -10 -5 0 -13 5 -16 10 -3 6 -2 10 4 10 5 0 13 -4 16 -10z m-309
-40 c15 -22 25 -42 23 -45 -14 -13 -51 12 -68 46 -20 39 -20 39 -1 39 12 0 30
-16 46 -40z m2577 29 c33 -9 36 -12 26 -30 -10 -20 -87 -61 -99 -54 -4 2 -19
6 -35 9 -33 6 -81 39 -77 52 8 28 119 42 185 23z m-2508 -17 c11 -8 45 -77 45
-91 0 -5 -13 -4 -29 2 -26 9 -61 60 -61 87 0 12 30 13 45 2z m3025 -108 c78
-96 88 -115 65 -129 -62 -37 -136 -88 -170 -119 -22 -19 -43 -32 -47 -28 -3 4
-11 34 -16 67 -6 33 -20 96 -31 140 l-20 80 21 15 c12 8 40 29 62 46 48 38 46
39 136 -72z m-2905 75 c3 -4 7 -36 9 -73 l4 -66 -26 21 c-15 11 -36 44 -48 73
l-21 52 38 0 c20 -1 40 -4 44 -7z m-900 -74 c39 -12 62 -45 31 -45 -29 0 -111
32 -123 48 -25 32 -16 44 20 26 17 -10 50 -23 72 -29z m483 -18 l-19 -38 -28
23 -29 23 22 17 c11 9 33 16 47 15 l27 -2 -20 -38z m3992 39 c0 -2 -7 -7 -16
-10 -8 -3 -12 -2 -9 4 6 10 25 14 25 6z m-1105 -38 c-4 -18 -11 -37 -15 -43
-4 -5 -15 -39 -24 -75 -9 -36 -19 -71 -22 -79 -3 -9 -24 5 -62 40 -59 55 -187
132 -206 126 -6 -2 12 -16 39 -32 134 -75 221 -149 206 -174 -9 -13 -13 -11
-122 50 -34 20 -139 99 -139 105 0 3 23 -11 50 -31 72 -53 71 -39 -1 18 -32
26 -59 52 -59 57 0 5 9 15 21 23 19 14 26 13 75 -9 30 -13 63 -24 74 -24 30 0
110 30 149 55 20 13 37 24 39 24 2 1 0 -14 -3 -31z m146 21 c55 2 50 10 84
-142 14 -62 27 -120 29 -130 4 -15 -1 -17 -32 -11 -21 3 -54 12 -76 20 -21 8
-74 18 -117 21 -72 5 -77 7 -68 24 13 25 45 135 53 181 7 38 24 50 61 40 11
-3 41 -4 66 -3z m903 -51 c-10 -18 -19 -36 -20 -40 -1 -5 -2 -9 -4 -10 -1 -2
-3 -11 -5 -20 -2 -9 -10 -32 -19 -49 -9 -18 -16 -40 -16 -50 0 -10 -4 -20 -9
-23 -4 -3 -11 -24 -15 -47 -8 -50 -45 -139 -57 -139 -5 0 -9 -9 -9 -20 0 -11
-6 -23 -14 -26 -8 -3 -18 -20 -21 -37 -11 -56 -16 -67 -29 -67 -7 0 -18 -18
-25 -40 -6 -22 -20 -48 -30 -57 -11 -10 -20 -27 -22 -38 -2 -11 -14 -24 -27
-30 -12 -5 -25 -18 -28 -28 -25 -78 -38 177 -26 485 8 182 13 230 25 243 19
19 38 20 31 1 -3 -9 4 -13 23 -14 15 0 49 -3 75 -6 56 -6 190 25 215 50 24 24
28 2 7 -38z m-390 -4 c-4 -14 -15 -47 -25 -72 -17 -43 -18 -45 -18 -17 -1 17
2 53 5 82 6 47 9 51 25 42 14 -7 18 -16 13 -35z m-1100 9 c19 -23 19 -23 -2
-23 -17 0 -22 6 -22 27 0 14 1 24 3 22 1 -2 11 -14 21 -26z m-2925 -19 c25 -4
41 -12 41 -20 0 -32 -118 -1 -131 34 -8 22 -8 22 20 7 16 -8 47 -17 70 -21z
m421 17 c20 -16 22 -22 11 -35 -16 -19 -37 -17 -71 7 -24 16 -24 17 -5 32 26
19 35 18 65 -4z m-198 -86 c85 -53 69 -66 -32 -25 -94 39 -130 65 -123 90 5
19 6 19 46 -1 22 -12 71 -40 109 -64z m133 38 c21 -15 34 -28 28 -30 -13 -5
-83 38 -83 50 0 13 14 8 55 -20z m-372 -18 c20 -4 40 -11 43 -16 10 -16 -23
-21 -65 -9 -31 8 -41 16 -41 32 0 15 3 18 13 10 6 -6 29 -13 50 -17z m3012
-10 c17 -17 47 -44 68 -60 21 -15 36 -32 35 -37 -2 -5 -22 -20 -45 -34 l-42
-25 -11 40 c-6 22 -26 63 -45 91 -19 29 -35 53 -35 54 0 1 10 2 23 2 12 0 36
-14 52 -31z m-69 -8 c15 -17 35 -50 44 -72 35 -81 35 -79 -20 -109 -27 -15
-74 -49 -103 -76 -54 -49 -67 -53 -67 -19 0 9 -27 74 -60 144 -33 71 -58 130
-56 132 3 3 19 6 36 6 30 2 34 -2 55 -53 13 -30 31 -90 41 -132 9 -43 21 -78
25 -78 5 0 9 6 9 13 0 24 -47 182 -63 214 -29 54 -27 56 80 60 47 2 54 0 79
-30z m-2837 -1 c6 -8 38 -24 71 -36 33 -12 60 -26 60 -30 0 -21 -39 -18 -96 9
-48 23 -64 35 -64 50 0 24 13 27 29 7z m3925 -266 c-7 -73 -7 -74 -20 -45 -19
43 -17 174 4 253 l17 67 3 -100 c2 -55 0 -134 -4 -175z m-2719 225 c33 -2 79
-3 103 -4 26 -1 49 -8 60 -19 9 -10 42 -46 74 -79 31 -34 58 -60 60 -57 3 2
17 -10 33 -26 42 -44 16 -37 -51 14 -71 54 -109 93 -118 124 -8 23 -26 31 -26
10 0 -6 -3 -9 -6 -5 -3 3 -16 2 -28 -3 -29 -10 -142 13 -195 40 -55 27 -59 41
-8 22 23 -8 69 -16 102 -17z m-1365 10 c0 -8 6 -15 13 -15 6 0 23 -3 36 -7 17
-4 22 -3 17 5 -4 7 -1 12 9 12 13 0 14 -4 5 -20 -12 -22 -47 -26 -71 -7 -19
15 -32 47 -19 47 6 0 10 -7 10 -15z m2697 -22 c7 -10 18 -26 24 -37 17 -28 -6
-11 -31 24 -23 32 -17 42 7 13z m-2481 -54 c-27 -7 -87 6 -97 22 -4 7 -5 18
-2 25 3 9 20 5 62 -14 47 -22 54 -28 37 -33z m3831 39 c-3 -8 -6 -5 -6 6 -1
11 2 17 5 13 3 -3 4 -12 1 -19z m-830 -42 c-3 -6 15 -25 39 -41 24 -17 44 -33
44 -37 0 -4 -13 -30 -30 -58 -16 -28 -30 -55 -30 -60 0 -21 -16 -8 -35 27 -11
20 -37 57 -57 82 l-37 45 27 18 c15 10 35 18 45 18 9 0 16 3 16 8 -3 16 2 23
12 17 6 -4 8 -12 6 -19z m-3036 -21 c34 0 37 -2 22 -12 -9 -7 -25 -13 -35 -13
-26 0 -68 29 -68 48 0 13 3 12 21 -3 12 -12 36 -19 60 -20z m3385 -20 c27 -8
62 -15 77 -15 42 0 67 -17 67 -45 0 -23 -13 -30 -42 -26 -4 0 -35 3 -69 7 -38
4 -94 20 -143 41 -94 41 -90 39 -82 52 9 14 129 5 192 -14z m-380 -128 l36
-59 -51 -107 c-28 -60 -51 -111 -51 -115 0 -4 -13 -35 -29 -69 -16 -34 -32
-75 -36 -92 l-7 -30 -11 25 c-5 14 -25 57 -42 95 -41 89 -68 156 -90 225 -10
30 -22 61 -28 68 -7 9 -7 16 0 23 16 16 47 -34 107 -169 54 -121 85 -182 86
-170 1 20 -68 186 -112 267 -27 51 -46 96 -41 100 5 3 33 22 64 42 30 20 68
48 84 63 l29 27 28 -33 c16 -18 44 -59 64 -91z m1382 69 c-6 -14 -17 -27 -24
-30 -9 -3 -5 7 8 24 26 36 31 38 16 6z m-1958 -21 c14 -19 14 -19 -2 -6 -10 7
-18 18 -18 24 0 6 1 8 3 6 1 -2 9 -13 17 -24z m762 8 c39 -18 39 -19 34 -63
-2 -25 -7 -56 -10 -70 -4 -14 -13 -72 -21 -130 -18 -126 -33 -186 -51 -201
-19 -16 -18 -33 2 -25 13 5 15 -1 9 -41 -3 -27 -10 -52 -14 -56 -4 -4 -41 14
-82 41 -41 27 -89 56 -106 66 -18 9 -33 21 -33 27 0 6 20 59 45 118 71 166 88
201 95 201 4 0 15 -9 25 -20 10 -11 22 -17 28 -13 5 3 7 2 4 -4 -4 -6 5 -21
18 -33 14 -13 25 -19 25 -14 0 5 5 2 10 -6 8 -13 10 -13 10 1 0 17 -75 92
-100 101 -12 4 -12 10 0 39 20 51 50 99 63 99 6 0 28 -8 49 -17z m668 7 c0 -5
-2 -10 -4 -10 -3 0 -8 5 -11 10 -3 6 -1 10 4 10 6 0 11 -4 11 -10z m-2132
-124 c11 -12 -130 43 -155 60 -13 8 -23 16 -23 19 0 5 168 -69 178 -79z m1550
75 c9 -5 41 -32 70 -60 l52 -51 -2 -80 c-3 -67 -6 -79 -18 -74 -8 4 -43 15
-77 25 -35 10 -67 20 -73 24 -13 8 -13 37 -1 67 6 13 13 53 16 91 7 71 7 72
33 58z m582 -65 c0 -3 -4 -8 -10 -11 -5 -3 -10 -1 -10 4 0 6 5 11 10 11 6 0
10 -2 10 -4z m39 -88 c-1 -13 2 -69 6 -125 9 -112 4 -126 -43 -138 -15 -4 -35
-14 -44 -22 -10 -9 -18 -13 -18 -10 0 3 -19 -11 -42 -33 -51 -47 -47 -51 -74
107 l-18 112 73 68 c41 37 85 75 100 83 14 8 28 19 30 24 6 15 31 -40 30 -66z
m416 35 c-3 -16 -26 -61 -51 -100 -24 -40 -40 -73 -36 -73 4 0 1 -4 -6 -9 -8
-4 -21 -20 -30 -34 -93 -143 -145 -207 -201 -246 l-31 -22 2 27 c2 15 10 29
18 31 9 2 24 17 35 34 11 16 23 29 27 29 10 0 118 135 118 147 0 6 10 21 23
35 12 13 35 49 51 78 40 75 75 130 82 130 3 0 3 -12 -1 -27z m-859 -22 c11
-10 37 -24 57 -30 20 -7 37 -16 37 -21 0 -4 18 -6 40 -3 36 5 40 3 40 -16 0
-15 -6 -21 -23 -21 -25 0 -143 -24 -169 -35 -16 -6 -18 0 -18 69 0 42 4 76 8
76 5 0 17 -8 28 -19z m244 -44 c0 -1 -9 -10 -20 -20 -16 -13 -20 -14 -20 -3 0
8 8 17 18 19 9 3 18 5 20 6 1 0 2 0 2 -2z m-398 -71 c26 -8 56 -20 67 -26 27
-14 27 -55 0 -73 -13 -10 -23 -31 -27 -62 l-7 -47 -30 42 c-28 38 -33 41 -70
37 l-40 -4 9 73 c11 84 14 85 98 60z m346 -28 c15 -61 36 -206 37 -253 0 -22
3 -42 6 -45 9 -7 27 -133 33 -235 6 -95 11 -150 21 -226 l7 -47 -79 2 c-49 0
-100 -6 -137 -16 -33 -10 -60 -17 -62 -15 -1 1 -3 58 -5 127 l-4 125 30 3 c16
2 32 7 35 11 6 8 116 31 156 32 28 0 29 0 5 10 -15 6 -42 6 -75 -1 -28 -6 -64
-13 -81 -16 -16 -3 -38 -10 -47 -15 -25 -13 -26 -13 -30 36 -2 25 0 45 4 45
15 0 39 63 36 96 -2 30 2 37 30 54 43 26 56 25 72 -5 8 -15 17 -22 23 -16 5 5
5 17 -2 29 -12 23 -3 36 15 21 10 -9 15 -7 20 4 6 17 -40 63 -98 101 -29 19
-31 19 -61 1 l-32 -18 26 28 c25 26 28 26 56 12 16 -9 35 -23 43 -32 7 -9 26
-25 42 -36 47 -34 35 2 -19 55 -59 59 -86 66 -120 35 l-26 -24 19 33 c10 17
24 32 32 32 17 0 72 -29 91 -48 11 -11 16 -11 19 -2 2 6 -11 27 -29 46 -25 26
-41 34 -69 34 -32 0 -39 -5 -59 -40 -12 -22 -24 -40 -25 -40 -2 0 -3 13 -4 30
0 16 -9 43 -18 59 -17 29 -17 30 7 50 23 19 58 31 144 50 62 14 62 14 73 -31z
m-374 -150 c9 -13 33 -33 54 -46 20 -13 29 -21 19 -18 -10 3 -22 6 -27 6 -5 0
-22 12 -39 26 -28 23 -32 24 -47 10 -8 -9 -24 -21 -35 -26 -17 -10 -18 -8 -12
22 3 18 11 36 17 40 21 15 55 8 70 -14z m642 -64 c2 -42 9 -83 15 -90 14 -18
17 -15 -56 -52 l-60 -31 47 4 c26 2 52 7 58 10 5 3 10 -1 10 -9 0 -9 -5 -16
-10 -16 -6 0 -41 -22 -77 -50 -36 -27 -73 -50 -82 -50 -14 0 -20 22 -33 113
l-17 112 22 23 c28 30 168 124 175 118 2 -3 6 -40 8 -82z m-2419 70 c13 -4 21
-10 18 -14 -3 -4 11 -11 31 -14 36 -7 118 -83 243 -226 30 -34 84 -82 120
-108 36 -26 99 -72 140 -104 40 -32 78 -58 82 -58 5 0 9 -7 9 -15 0 -8 17 -26
38 -40 71 -48 87 -60 109 -82 12 -13 25 -23 29 -23 4 0 16 -11 28 -24 11 -13
48 -41 81 -64 33 -22 74 -53 90 -67 17 -15 62 -53 100 -84 39 -30 88 -76 110
-100 22 -24 72 -78 111 -120 39 -43 75 -88 79 -101 9 -30 72 -137 97 -166 10
-11 15 -24 11 -28 -4 -4 -3 -10 3 -14 6 -4 18 -18 28 -32 17 -24 17 -24 11 -2
-3 12 -2 22 4 22 5 0 17 -25 26 -55 8 -30 18 -55 21 -55 3 0 3 10 -1 23 -5 19
-4 20 5 4 6 -9 9 -21 5 -26 -3 -5 1 -29 9 -53 33 -97 43 -191 40 -362 -3 -134
-14 -223 -31 -249 -8 -13 -10 -19 -12 -42 -2 -22 -27 -18 -48 8 -10 12 -36 35
-58 51 -22 16 -47 36 -55 43 -26 23 -105 73 -116 73 -6 0 -17 7 -24 15 -7 8
-16 12 -21 9 -15 -9 -63 24 -92 63 -85 114 -178 294 -169 327 2 5 0 16 -4 25
-5 14 -7 13 -14 -4 -7 -17 -9 -14 -9 13 -1 17 -5 32 -11 32 -5 0 -13 18 -16
40 -4 24 -12 40 -20 40 -8 0 -14 7 -14 15 0 8 -4 15 -10 15 -5 0 -17 23 -27
50 -11 30 -23 48 -30 46 -7 -3 -13 6 -15 22 -2 15 -7 26 -11 24 -10 -4 -37 24
-37 38 0 7 -7 10 -15 6 -10 -3 -15 1 -15 14 0 10 -4 22 -10 25 -5 3 -10 1 -10
-5 0 -6 -4 -8 -10 -5 -5 3 -10 15 -10 27 0 13 -5 18 -14 15 -10 -4 -17 3 -21
23 -7 32 -35 62 -35 39 -1 -8 -7 -3 -14 11 -8 14 -12 28 -10 32 3 5 0 8 -7 8
-17 0 -5 -77 17 -101 9 -10 19 -17 22 -14 5 5 66 -84 68 -100 0 -5 2 -18 2
-27 1 -10 9 -18 17 -18 8 0 14 -3 13 -7 -1 -5 30 -72 70 -150 43 -86 69 -148
66 -158 -6 -14 -8 -13 -20 4 -8 11 -13 26 -12 32 2 7 -4 13 -12 14 -8 0 -14 8
-12 17 1 10 -4 15 -15 14 -15 -1 -18 6 -17 37 1 20 -3 37 -7 37 -5 0 -9 -10
-9 -22 0 -16 -3 -19 -11 -11 -6 6 -11 27 -11 47 0 40 -14 49 -21 14 -2 -13 -5
1 -6 31 -1 47 -3 52 -17 40 -13 -11 -14 -9 -9 14 5 17 3 27 -4 27 -6 0 -11
-19 -11 -47 0 -25 -2 -44 -6 -41 -3 3 -5 33 -5 67 0 33 -5 61 -10 61 -5 0 -9
-23 -9 -51 0 -31 -4 -48 -10 -44 -5 3 -10 38 -10 77 0 81 -8 84 -21 6 -8 -52
-8 -51 -4 15 3 42 1 65 -5 62 -6 -3 -11 -27 -11 -53 -1 -26 -3 -36 -6 -22 -13
88 -15 93 -24 79 -7 -11 -9 -8 -9 10 0 36 -13 17 -21 -32 l-6 -42 -3 40 c-2
36 -3 38 -11 15 -7 -20 -7 -17 -3 13 3 22 1 37 -6 37 -5 0 -10 -6 -10 -14 0
-8 -6 -16 -14 -19 -12 -5 -14 2 -10 31 l5 37 -16 -30 -15 -30 5 37 c3 20 1 39
-5 43 -6 3 -8 10 -5 15 6 10 -7 72 -41 185 -22 74 -44 123 -44 100 0 -17 30
-139 40 -165 6 -14 14 -48 19 -75 5 -28 11 -57 15 -66 4 -10 2 -19 -7 -22 -9
-3 -30 17 -60 57 -26 35 -91 106 -145 158 -83 80 -112 100 -175 126 -85 36
-217 60 -296 55 -53 -4 -53 -4 -47 21 3 14 9 52 12 83 3 32 8 69 11 83 11 45
13 55 18 110 6 73 15 110 25 110 14 0 17 -24 7 -54 -6 -18 -6 -30 0 -35 14 -9
34 -71 27 -83 -4 -6 2 -5 12 1 27 15 64 48 64 56 0 3 -10 3 -22 0 -16 -4 -12
0 11 15 37 23 36 39 -1 19 l-23 -12 24 27 c15 16 19 26 11 26 -9 0 -8 6 5 20
10 11 15 20 10 20 -4 0 -2 7 5 15 6 8 9 18 6 23 -3 6 3 12 14 15 27 7 25 27
-2 27 -19 0 -15 7 30 53 29 29 52 57 52 63 0 6 -11 17 -25 24 -19 10 -22 16
-14 27 8 9 8 13 1 13 -6 0 -13 -4 -16 -9 -3 -5 -20 -12 -38 -15 -18 -3 -53
-20 -78 -36 -46 -31 -66 -38 -55 -20 3 6 -2 10 -11 10 -17 0 14 27 93 82 18
13 35 29 38 37 7 18 -29 -6 -116 -76 -36 -29 -70 -53 -75 -53 -11 0 50 55 130
115 36 28 66 51 66 53 0 1 -16 -5 -36 -13 -43 -18 -47 -18 -39 -5 9 15 -25 0
-60 -25 -16 -12 -46 -30 -65 -39 l-35 -18 36 36 c20 19 62 53 94 75 65 46 65
52 2 20 -115 -59 -214 -145 -223 -196 -6 -30 -8 -32 -19 -16 -11 15 -10 23 5
53 35 68 80 119 141 160 49 34 72 43 120 47 33 3 62 10 65 14 6 10 30 11 61 3z
m1502 -64 c5 0 16 -6 23 -12 7 -7 33 -24 58 -37 55 -29 76 -47 77 -64 1 -6 2
-40 3 -75 2 -34 7 -65 12 -68 4 -3 8 -23 8 -44 l0 -39 -47 20 c-26 11 -68 21
-95 22 -46 2 -48 3 -65 47 -10 25 -18 55 -20 66 -1 12 -18 53 -37 92 -34 68
-35 72 -21 106 l15 36 40 -25 c22 -14 44 -25 49 -25z m330 -20 c11 0 23 -5 27
-11 4 -8 -3 -9 -25 -5 -17 3 -44 8 -59 11 -20 4 -37 -1 -56 -16 -15 -12 -30
-19 -33 -15 -4 3 -4 7 -2 9 2 2 19 15 37 30 32 25 35 26 62 12 16 -8 38 -15
49 -15z m247 -15 c45 -39 34 -47 -15 -11 -26 20 -38 23 -57 16 -28 -11 -33 4
-6 19 27 16 36 13 78 -24z m384 -10 c0 -5 -5 -3 -10 5 -5 8 -10 20 -10 25 0 6
5 3 10 -5 5 -8 10 -19 10 -25z m-1357 -130 c15 -103 37 -169 75 -227 13 -20
22 -47 20 -60 -2 -18 -12 -7 -49 57 -50 86 -86 176 -119 295 -11 41 -20 76
-20 78 0 2 20 -20 43 -50 29 -35 46 -67 50 -93z m736 109 c2 -2 -14 -4 -37 -4
-22 0 -44 -4 -47 -10 -3 -5 -15 -10 -26 -10 -17 0 -18 3 -9 20 10 18 17 20 63
14 29 -4 54 -8 56 -10z m211 1 c15 -18 14 -19 -26 -33 -23 -7 -35 -7 -43 1
-17 17 -13 27 12 37 32 13 43 12 57 -5z m-210 -34 c0 -17 -14 -19 -50 -5 l-35
12 43 1 c23 1 42 -3 42 -8z m-120 -19 c0 -5 -7 -17 -15 -28 -14 -18 -14 -18
-15 9 0 17 5 27 15 27 8 0 15 -4 15 -8z m115 -59 c6 -35 68 -113 90 -113 8 0
12 -18 12 -52 0 -29 1 -102 2 -163 3 -150 4 -140 -16 -124 -11 10 -43 14 -104
13 l-87 -1 -6 30 c-3 16 -6 71 -6 122 l0 93 33 5 c17 3 36 1 42 -4 5 -5 36 -9
70 -8 l60 1 -35 15 c-21 9 -63 15 -102 15 l-67 -1 -7 47 c-10 71 -12 81 -20
94 -4 6 -1 16 7 22 8 6 22 23 31 38 16 24 20 25 57 16 34 -9 40 -14 46 -45z
m-2070 17 c-16 -16 -34 -30 -39 -30 -10 1 53 59 63 60 3 0 -8 -13 -24 -30z
m645 -104 c0 -5 -3 -6 -7 -3 -3 4 -26 24 -50 44 -24 20 -43 41 -43 46 0 4 22
-11 50 -35 27 -24 50 -47 50 -52z m-615 54 c3 -6 -4 -10 -17 -10 -18 0 -20 2
-8 10 19 12 18 12 25 0z m2635 -5 c0 -8 -3 -15 -7 -15 -5 0 -19 -3 -33 -6
l-25 -6 25 21 c30 25 40 26 40 6z m4 -102 c-3 -97 -20 -235 -40 -327 -18 -81
-19 -88 -28 -137 -4 -22 -13 -39 -24 -42 -9 -2 -24 -8 -33 -11 -17 -8 -17 -9
-34 179 l-6 60 56 30 c51 26 76 45 60 45 -3 0 -28 -11 -55 -25 -27 -14 -51
-25 -53 -25 -2 0 -10 52 -17 115 -12 110 -12 117 6 130 10 7 22 11 26 9 4 -2
19 7 34 21 15 14 35 25 45 25 11 0 19 4 19 9 0 5 10 12 23 14 12 2 23 5 23 6
1 0 0 -34 -2 -76z m-2798 -57 c4 -36 -1 -74 -16 -131 -24 -91 -48 -218 -48
-255 2 -84 -2 -99 -34 -129 -18 -17 -33 -29 -34 -28 -1 1 2 22 6 47 35 180 45
224 68 290 23 67 26 89 25 205 -1 123 0 128 13 91 8 -22 17 -63 20 -90z m1753
67 c2 -2 2 -6 -1 -9 -8 -8 -118 45 -118 57 0 7 89 -29 119 -48z m176 -13 c15
-6 7 -9 -30 -9 -36 -1 -46 2 -35 9 18 12 38 12 65 0z m1596 -112 c-8 -28 -9
-30 -10 -8 -1 34 12 80 17 58 2 -9 -1 -31 -7 -50z m-15 -74 c-4 -14 -9 -24
-12 -21 -3 2 -2 17 2 31 3 15 9 25 11 22 3 -3 2 -17 -1 -32z m-486 -94 c0 -5
-2 -10 -4 -10 -3 0 -8 5 -11 10 -3 6 -1 10 4 10 6 0 11 -4 11 -10z m-495 -10
c-4 -6 11 -7 39 -4 26 4 47 3 47 -2 1 -5 3 -52 5 -105 l4 -96 -78 -6 c-71 -5
-153 -25 -194 -48 -17 -8 -18 -1 -18 105 l0 114 68 20 c110 33 137 38 127 22z
m-461 -28 c6 -10 19 -278 13 -272 -10 10 -39 127 -42 167 -1 22 -9 55 -18 71
-8 17 -12 33 -9 36 8 9 50 7 56 -2z m203 -3 c15 -5 31 -16 35 -22 4 -7 8 -53
8 -103 l0 -91 -43 8 c-24 4 -66 5 -93 1 -46 -7 -50 -6 -63 18 -7 14 -15 62
-18 107 l-6 81 29 5 c57 8 123 7 151 -4z m-438 -143 c-3 -3 -11 5 -18 17 -13
21 -12 21 5 5 10 -10 16 -20 13 -22z m-1752 -8 c-3 -8 -6 -5 -6 6 -1 11 2 17
5 13 3 -3 4 -12 1 -19z m49 -59 c-3 -17 -6 -37 -6 -45 0 -8 -18 -15 -47 -19
-100 -12 -114 -17 -140 -41 l-28 -25 40 20 c22 11 68 22 102 25 l62 5 6 -30
c9 -41 -4 -186 -20 -226 -7 -17 -11 -34 -8 -36 3 -3 1 -13 -4 -22 -8 -13 -15
-8 -46 32 -49 64 -68 83 -78 77 -5 -3 -9 0 -9 6 0 6 -5 8 -11 5 -5 -4 -19 1
-30 11 -29 26 -32 12 -3 -19 l25 -27 -26 -10 c-23 -9 -32 -6 -57 15 -41 34
-127 78 -142 72 -7 -3 -19 -1 -27 4 -12 8 -10 12 7 27 28 24 75 20 153 -12 72
-29 96 -33 64 -11 -18 13 -20 20 -12 47 5 18 10 53 10 79 2 47 12 58 55 63 6
1 19 8 28 15 9 8 30 14 46 15 17 1 30 5 30 9 0 9 37 25 59 26 10 1 12 -7 7
-30z m246 9 c32 -11 61 -25 64 -29 5 -9 14 -89 10 -89 -2 0 -30 12 -62 27 -49
23 -73 28 -142 28 l-83 0 5 29 c3 16 2 34 -4 41 -19 22 146 18 212 -7z m2258
-81 c1 -23 1 -65 1 -92 l-1 -51 -62 4 c-67 4 -175 -18 -215 -44 l-23 -14 0
110 c0 103 1 110 23 124 12 8 36 16 52 19 17 2 37 6 45 10 36 13 68 15 105 7
32 -8 42 -7 50 5 8 12 11 10 17 -11 3 -14 7 -44 8 -67z m78 31 c-5 -32 -13
-58 -18 -58 -4 0 -5 -19 -3 -42 3 -24 3 -41 0 -38 -3 3 -6 10 -7 15 -1 6 -6
15 -11 21 -5 6 -12 38 -15 70 l-6 59 33 16 c19 8 35 15 35 14 1 0 -2 -26 -8
-57z m1752 43 c0 -6 17 -19 38 -30 65 -34 136 -112 155 -173 35 -112 8 -357
-53 -478 -34 -68 -115 -162 -184 -215 -43 -33 -47 -34 -41 -13 20 63 32 79
112 150 43 39 79 103 107 195 25 80 42 173 32 173 -3 0 -12 -15 -20 -32 -11
-25 -15 -28 -15 -13 -2 18 -3 18 -12 3 -7 -13 -21 -16 -57 -14 -37 2 -53 -2
-75 -21 -16 -13 -33 -20 -38 -17 -6 3 -17 0 -25 -7 -8 -7 -27 -14 -40 -15 -14
-2 -52 -16 -83 -33 -36 -18 -66 -28 -80 -24 -25 6 -27 25 -6 43 11 9 12 15 5
20 -6 4 1 19 20 38 33 35 33 36 -4 22 -24 -9 -34 -2 -19 14 10 9 11 46 2 46
-5 0 -5 8 -2 17 6 17 5 16 -22 -1 l-30 -19 25 28 c25 28 25 28 2 22 -14 -3
-20 -1 -15 6 4 6 0 8 -9 5 -17 -7 -21 20 -5 40 5 6 6 12 2 12 -4 0 -2 7 5 15
8 9 9 15 2 15 -6 0 -14 -4 -17 -10 -3 -5 -16 -15 -28 -21 -15 -7 -11 0 11 21
38 35 37 47 -1 29 -52 -23 -111 -153 -107 -233 1 -17 1 -33 0 -36 -11 -25 -5
-90 11 -116 11 -18 18 -40 18 -50 -4 -41 1 -55 19 -52 13 2 17 -4 17 -32 0
-30 -3 -35 -22 -32 -27 4 -34 -8 -49 -88 -10 -50 -10 -66 -1 -69 7 -2 24 -17
39 -33 l27 -29 -21 -37 c-11 -20 -24 -39 -28 -42 -4 -3 -39 -67 -78 -142 -91
-178 -116 -214 -177 -255 -27 -18 -57 -40 -66 -49 -10 -8 -19 -12 -22 -7 -3 4
18 39 46 77 66 87 61 80 93 151 14 33 34 78 44 100 22 48 30 93 35 200 2 44 6
91 9 104 8 36 -11 12 -23 -29 -9 -31 -10 -28 -5 25 3 43 2 56 -5 45 -6 -8 -11
-28 -11 -45 0 -16 -5 -37 -11 -45 -8 -11 -9 -5 -4 23 4 27 3 37 -4 32 -6 -3
-11 -16 -11 -28 0 -12 -5 -29 -11 -37 -8 -12 -9 -9 -5 13 4 15 2 27 -3 27 -15
0 -33 -39 -27 -55 3 -8 0 -17 -6 -21 -8 -5 -9 4 -5 29 3 21 4 37 1 37 -14 0
-43 -39 -48 -64 -7 -39 -16 -46 -16 -12 0 26 -1 26 -19 9 -10 -10 -28 -35 -38
-55 -11 -21 -23 -34 -27 -31 -6 7 -33 -25 -48 -57 -4 -8 -5 8 -3 35 4 39 3 46
-5 30 -6 -11 -20 -36 -31 -55 l-19 -35 6 35 7 35 -28 -25 c-15 -14 -41 -38
-56 -54 l-29 -28 0 53 c-1 30 -3 88 -6 129 -5 72 -4 77 26 117 39 52 134 125
211 161 60 27 66 37 36 56 -27 17 -114 -34 -256 -151 -18 -15 -39 -31 -46 -36
-18 -10 -13 19 7 42 8 10 17 22 19 28 17 42 77 120 147 191 75 77 94 102 76
102 -4 0 -37 -24 -73 -52 -36 -29 -78 -60 -93 -68 -14 -8 -44 -31 -65 -50 -40
-38 -80 -65 -55 -39 14 15 16 29 3 29 -5 0 -18 -16 -30 -36 -12 -19 -25 -32
-31 -29 -5 3 -22 -12 -37 -33 -16 -21 -34 -37 -40 -35 -6 2 -14 -5 -18 -17 -4
-12 -9 -19 -12 -17 -2 3 5 23 17 46 11 23 16 41 10 41 -5 0 -17 -14 -26 -32
-22 -43 -54 -76 -54 -57 -1 21 -37 -29 -51 -69 -6 -18 -14 -31 -17 -27 -3 3
-16 -16 -29 -42 -23 -46 -24 -45 -9 5 4 12 5 22 3 22 -8 0 -47 -70 -47 -83 0
-16 -40 -51 -48 -42 -3 3 -12 -5 -20 -17 -13 -23 -13 -23 -7 5 9 43 -4 32 -31
-28 -14 -30 -28 -55 -31 -55 -3 0 -3 7 0 15 4 8 2 17 -3 20 -6 4 -10 -1 -10
-10 0 -9 -4 -13 -10 -10 -5 3 -23 -16 -40 -42 -16 -26 -30 -41 -30 -33 -1 11
-4 10 -15 -4 -14 -19 -15 -19 -15 7 0 44 -18 31 -34 -25 -8 -29 -21 -73 -28
-98 -11 -41 -12 -42 -16 -17 -2 16 1 42 7 59 15 43 13 58 -4 28 l-14 -25 -2
35 c-4 101 11 395 21 395 1 0 3 14 4 31 2 17 16 53 31 80 16 27 41 74 56 105
28 57 170 215 182 202 4 -3 7 -2 7 4 0 6 21 27 46 48 40 33 48 36 70 26 27
-12 33 3 7 18 -10 5 -16 11 -13 13 3 2 19 12 35 24 45 31 79 48 71 35 -12 -19
2 -12 30 15 16 14 66 44 113 67 47 23 96 51 109 62 39 34 295 115 362 115 24
0 31 3 21 9 -9 6 7 9 44 10 31 0 63 6 71 12 8 7 30 9 52 6 20 -3 60 -2 87 2
89 11 445 13 445 2z m-2167 -21 c15 0 17 -13 17 -126 0 -116 -1 -126 -17 -119
-10 4 -53 12 -95 18 l-78 11 1 103 c0 98 1 103 22 108 12 2 31 6 42 9 11 2 36
2 55 0 19 -2 43 -3 53 -4z m-1816 -32 c-3 -8 -6 -5 -6 6 -1 11 2 17 5 13 3 -3
4 -12 1 -19z m73 -28 c0 -4 9 -10 20 -13 11 -3 23 -13 27 -24 7 -18 102 -112
115 -113 4 0 12 -9 18 -21 10 -18 10 -19 -8 -10 -10 5 -25 17 -32 26 -28 34
-100 75 -150 86 l-52 11 6 42 c3 22 5 42 5 43 2 6 51 -21 51 -27z m-211 -10
c31 -12 67 -30 81 -40 24 -18 25 -23 23 -117 0 -53 -4 -130 -8 -170 l-7 -74
-33 30 c-40 35 -92 45 -201 39 -50 -3 -79 -10 -86 -19 -7 -11 -8 -9 -4 6 16
61 26 115 30 155 2 25 9 74 15 110 7 36 12 69 11 74 -5 31 99 35 179 6z m2591
-11 c0 -6 -4 -7 -10 -4 -5 3 -10 11 -10 16 0 6 5 7 10 4 6 -3 10 -11 10 -16z
m-3247 -56 c-7 -2 -21 -2 -30 0 -10 3 -4 5 12 5 17 0 24 -2 18 -5z m-66 -9
c-3 -3 -12 -4 -19 -1 -8 3 -5 6 6 6 11 1 17 -2 13 -5z m997 -40 c22 -12 52
-42 68 -66 28 -41 29 -47 25 -128 -5 -82 -14 -150 -23 -179 -4 -11 -11 -8 -32
11 -40 38 -88 59 -149 65 -52 6 -54 7 -49 32 3 14 8 49 11 76 3 28 13 89 22
138 l17 87 35 -6 c20 -4 54 -17 75 -30z m-949 6 c-10 -11 -31 -20 -46 -20 -16
0 -52 -9 -81 -20 -63 -24 -59 -23 -51 -5 7 21 65 44 133 54 30 5 57 9 59 10 2
0 -4 -8 -14 -19z m802 -72 c-2 -13 -4 -5 -4 17 -1 22 1 32 4 23 2 -10 2 -28 0
-40z m2167 -25 c3 -38 8 -81 11 -97 5 -26 4 -28 -17 -22 -100 31 -142 30 -242
-3 l-56 -18 1 61 c0 33 4 70 8 81 12 31 120 64 212 64 l76 1 7 -67z m-3171 42
c-5 -14 -52 -45 -69 -45 -4 0 10 14 31 30 43 34 47 36 38 15z m3242 5 c3 -5 1
-10 -4 -10 -6 0 -11 5 -11 10 0 6 2 10 4 10 3 0 8 -4 11 -10z m-2924 -57 c27
-25 75 -77 106 -116 32 -39 73 -86 91 -105 17 -19 32 -40 32 -48 0 -8 3 -14 8
-14 4 0 16 -17 27 -37 11 -21 38 -65 60 -98 60 -91 73 -114 104 -181 31 -66
55 -160 45 -176 -8 -13 -7 -280 2 -365 7 -63 9 -148 4 -183 -3 -19 8 -126 22
-215 14 -90 47 -183 59 -164 5 8 9 9 9 3 0 -11 67 -81 119 -124 13 -11 19 -20
13 -20 -7 0 -12 -5 -12 -11 0 -5 4 -8 10 -4 18 11 76 -24 130 -79 30 -31 58
-56 63 -56 24 0 90 -111 81 -135 -3 -7 2 -35 12 -62 9 -26 18 -68 20 -93 2
-25 6 -56 9 -70 7 -35 -27 -73 -66 -73 -19 0 -25 -3 -17 -9 10 -6 10 -8 1 -8
-7 0 -13 -6 -13 -14 0 -8 -5 -18 -12 -22 -8 -5 -9 -2 -5 9 3 10 2 17 -3 17 -6
0 -10 -8 -11 -17 0 -11 -3 -13 -6 -5 -2 6 -9 12 -14 12 -6 0 -8 -4 -4 -9 9
-15 -66 -33 -82 -20 -13 12 -9 29 8 29 6 0 7 -4 4 -10 -3 -6 4 -10 16 -10 18
0 20 3 11 12 -17 17 -15 55 4 62 9 4 14 9 11 12 -3 3 -18 -1 -34 -10 -16 -9
-22 -16 -13 -16 10 -1 9 -4 -5 -10 -13 -6 -15 -9 -5 -9 9 -1 3 -9 -15 -21 -16
-11 -24 -20 -17 -20 6 0 12 -5 12 -11 0 -6 -8 -9 -17 -7 -11 2 -17 11 -15 22
2 11 -4 20 -17 23 -12 3 -21 9 -21 14 0 5 -11 9 -25 9 -26 0 -67 36 -141 126
-50 60 -67 91 -60 109 3 10 0 12 -11 8 -11 -4 -14 -2 -9 5 4 7 1 12 -8 12 -20
0 -79 99 -79 133 0 15 -6 27 -13 27 -12 0 -66 83 -70 107 -1 7 -16 32 -33 56
-18 24 -30 50 -28 58 2 8 2 10 -1 6 -2 -4 -37 25 -78 65 -41 40 -81 76 -89 81
-8 4 -15 15 -15 22 0 13 -6 17 -26 14 -3 0 -29 21 -58 48 -29 26 -69 63 -90
82 -28 26 -34 36 -24 43 10 7 10 9 -2 7 -31 -3 -41 2 -74 37 -21 23 -32 42
-28 52 4 11 1 14 -11 9 -32 -12 -115 94 -147 189 -17 48 -17 55 -4 69 9 8 24
15 35 15 10 0 19 5 19 10 0 13 -6 13 -39 -5 -32 -16 -41 -12 -41 21 0 12 -7
49 -15 81 -16 66 -20 96 -37 282 -10 108 -10 135 0 139 10 3 10 7 2 17 -9 11
-9 197 -1 308 1 5 5 5 11 2 6 -3 7 1 4 9 -3 9 -2 16 4 16 15 0 21 37 8 50 -8
8 -8 10 0 8 6 -2 30 21 53 50 23 28 47 52 55 52 7 0 36 12 63 28 46 25 62 28
158 29 l107 2 49 -46z m2379 39 c0 -4 17 -9 38 -9 20 -1 54 -4 75 -8 l37 -7 0
-65 c0 -62 -1 -64 -22 -56 -13 4 -56 8 -95 8 l-73 0 0 56 c0 32 3 64 6 73 6
16 34 23 34 8z m665 -47 l80 -20 -3 -48 c-3 -44 -9 -53 -70 -113 -69 -67 -97
-78 -137 -56 -17 8 -19 19 -17 60 3 41 8 51 25 56 35 9 91 7 126 -5 46 -16 51
-2 6 17 -25 10 -59 14 -97 12 l-58 -3 6 65 c7 78 9 83 37 68 12 -7 58 -21 102
-33z m-2056 -12 c40 -60 40 -85 1 -43 -30 33 -38 46 -20 35 15 -9 12 4 -5 21
-14 14 -20 34 -11 34 2 0 18 -21 35 -47z m1331 -24 l0 -46 -63 -6 c-35 -3 -70
-7 -78 -9 -10 -2 -14 10 -15 50 -2 58 -7 54 91 70 59 10 65 4 65 -59z m-2095
-55 c54 -73 77 -95 54 -53 -24 47 11 6 45 -51 35 -60 36 -62 18 -85 -25 -35
-36 -31 -70 23 -17 26 -44 61 -60 77 -16 17 -48 52 -72 79 l-42 50 27 23 c14
13 31 21 36 18 5 -4 34 -40 64 -81z m2965 42 c0 -2 -10 -12 -23 -24 l-24 -22
5 29 c3 22 8 28 23 24 10 -3 19 -6 19 -7z m-2196 -58 c41 -72 51 -129 37 -218
-7 -43 -21 -102 -32 -131 -10 -30 -17 -45 -16 -34 4 26 -29 115 -54 141 -19
20 -18 21 1 115 10 51 22 111 25 132 3 20 8 37 10 37 2 0 15 -19 29 -42z
m1838 -10 l38 -11 -3 -58 -2 -59 -43 0 c-48 0 -140 -29 -215 -66 -27 -14 -52
-23 -55 -20 -6 6 -4 177 2 184 2 2 35 14 72 28 72 25 122 26 206 2z m-1641
-20 c-3 -21 -6 -26 -9 -15 -3 17 3 47 11 47 2 0 1 -15 -2 -32z m1114 24 c6 -4
12 -31 13 -61 l3 -54 -38 7 c-21 3 -55 11 -75 16 -34 10 -38 14 -38 44 0 26 5
34 28 43 32 13 93 16 107 5z m172 -2 c32 0 36 -12 40 -116 l4 -93 -63 30
c-121 56 -113 48 -114 116 -2 70 3 74 71 67 22 -2 50 -4 62 -4z m-1897 -30
c52 -28 61 -49 55 -130 -4 -41 -7 -84 -9 -95 -1 -11 -6 -47 -10 -81 -4 -33
-11 -66 -16 -74 -12 -20 -40 -4 -40 24 0 35 -18 73 -65 136 -23 30 -50 70 -60
88 -11 17 -23 32 -27 32 -4 0 -8 5 -8 10 0 6 -14 24 -31 41 -17 17 -29 32 -27
35 30 30 191 39 238 14z m1560 -1 c0 -11 5 -29 10 -40 10 -18 -3 -29 -13 -11
-12 20 -18 72 -8 72 6 0 11 -9 11 -21z m-1357 -79 c68 -26 89 -48 93 -102 4
-41 0 -64 -33 -223 -8 -38 -15 -78 -16 -87 -1 -14 -8 -11 -37 16 -43 41 -63
52 -117 61 -40 6 -43 9 -43 38 0 30 37 277 45 305 6 18 47 15 108 -8z m-375
-85 c12 -19 22 -40 22 -47 0 -10 2 -10 9 0 11 19 94 -142 86 -167 -4 -15 -43
-41 -60 -41 -3 0 -25 42 -50 94 -26 52 -54 101 -63 108 -15 12 -16 11 -3 -5 8
-9 11 -20 8 -23 -3 -3 -13 9 -22 26 -16 32 -16 33 11 61 15 16 30 29 33 29 3
0 16 -16 29 -35z m519 -74 c6 -10 15 -40 18 -67 4 -27 12 -57 17 -67 6 -12 5
-23 -3 -33 -6 -8 -9 -14 -6 -14 3 0 -1 -17 -10 -37 -9 -21 -21 -60 -27 -87
l-11 -50 -28 26 c-33 31 -33 39 -2 185 14 65 25 128 25 141 0 27 11 28 27 3z
m2947 -2 c-29 -12 -36 -10 -22 5 7 7 19 11 27 8 11 -4 10 -7 -5 -13z m387
-122 c-8 -8 -11 -7 -11 4 0 20 13 34 18 19 3 -7 -1 -17 -7 -23z m-2703 -32
c30 -61 28 -66 -8 -17 -30 41 -37 62 -22 62 4 0 17 -21 30 -45z m-971 -27 c-3
-8 -6 -5 -6 6 -1 11 2 17 5 13 3 -3 4 -12 1 -19z m-35 -45 c10 -34 17 -91 17
-138 -1 -68 -4 -84 -22 -103 -49 -53 -52 -49 -53 71 -1 125 -5 157 -16 157 -4
0 -8 8 -8 18 0 14 39 47 60 51 3 1 13 -25 22 -56z m2768 37 c-6 -11 -13 -20
-16 -20 -2 0 0 9 6 20 6 11 13 20 16 20 2 0 0 -9 -6 -20z m-2604 -20 c29 -11
71 -64 79 -98 5 -26 2 -76 -21 -284 l-7 -56 -36 34 c-19 20 -47 38 -61 40 -57
12 -61 21 -65 166 -4 140 7 210 31 201 8 -3 14 0 14 7 0 11 14 9 66 -10z
m3894 -41 c0 -6 -7 -23 -15 -37 -8 -15 -26 -57 -39 -94 -14 -37 -41 -92 -61
-123 -20 -31 -31 -53 -24 -49 14 8 12 3 -26 -64 -19 -32 -37 -52 -48 -52 -10
0 -20 -7 -23 -15 -4 -8 -11 -15 -18 -15 -6 0 0 11 14 23 27 24 63 75 66 93 2
13 45 107 99 219 19 39 39 82 44 98 10 26 31 38 31 16z m-1001 -252 c6 -16 9
-33 6 -38 -3 -5 -1 -17 4 -28 9 -16 2 -33 -37 -92 l-47 -73 -6 55 c-4 30 -16
75 -28 100 l-21 47 21 68 c11 38 35 98 52 133 l32 64 7 -104 c3 -57 11 -117
17 -132z m311 164 c0 -6 -4 -12 -8 -15 -5 -3 -9 1 -9 9 0 8 4 15 9 15 4 0 8
-4 8 -9z m-3054 -29 c12 -27 13 -123 3 -172 -12 -54 -16 -92 -18 -143 -1 -35
-2 -37 -17 -23 -8 9 -22 16 -31 16 -13 0 -14 8 -9 48 3 26 8 81 12 122 9 117
23 180 39 174 7 -3 17 -13 21 -22z m2961 -44 c-3 -8 -6 -5 -6 6 -1 11 2 17 5
13 3 -3 4 -12 1 -19z m-3255 -121 c-9 -12 -9 -67 2 -146 5 -38 2 -51 -25 -92
-17 -27 -35 -49 -39 -49 -5 0 -9 35 -10 78 0 42 -1 108 -2 145 0 66 1 69 30
87 16 10 34 24 38 32 7 9 10 5 12 -15 2 -16 -1 -34 -6 -40z m2535 41 c-3 -8
-6 -5 -6 6 -1 11 2 17 5 13 3 -3 4 -12 1 -19z m-58 -57 c-7 -23 -14 -39 -16
-37 -3 2 1 23 8 45 7 23 14 39 16 37 3 -2 -1 -23 -8 -45z m459 -137 c9 -64 8
-71 -14 -104 -13 -19 -24 -39 -24 -44 0 -5 -14 -33 -31 -63 l-31 -54 -18 33
c-17 32 -17 34 11 113 15 43 26 82 23 86 -2 4 8 40 23 79 25 70 27 71 39 48 7
-13 17 -55 22 -94z m-2831 87 c73 -34 82 -61 69 -211 -2 -30 -5 -61 -5 -68 -1
-9 -8 -9 -32 4 -17 8 -47 16 -65 17 l-35 2 2 138 c1 93 5 137 13 137 6 0 30
-9 53 -19z m2992 -60 c11 -28 26 -53 31 -56 6 -3 10 -14 10 -24 0 -11 12 -24
29 -31 33 -13 71 -50 53 -50 -7 0 -12 -8 -12 -19 0 -10 -11 -27 -25 -37 -14
-10 -25 -24 -25 -30 0 -21 -32 -10 -43 15 -20 45 -86 129 -107 136 -26 8 -26
12 15 74 19 29 35 57 35 62 0 24 20 4 39 -40z m-2844 -67 c16 -17 16 -23 -1
-191 l-5 -53 -29 22 c-25 18 -28 27 -25 57 2 20 6 64 9 99 7 85 17 99 51 66z
m-239 -124 c-1 -36 1 -76 6 -88 5 -16 3 -35 -8 -59 -17 -35 -59 -71 -71 -60
-3 4 -5 52 -4 108 1 98 2 103 31 136 17 18 30 39 30 46 0 7 4 6 9 -3 5 -8 8
-44 7 -80z m3020 38 c16 -18 40 -54 54 -80 l24 -46 -22 -44 c-13 -23 -45 -65
-72 -92 -28 -27 -50 -53 -50 -58 0 -21 -19 -5 -25 22 -6 28 -77 100 -98 100
-13 0 1 49 24 81 10 15 19 30 19 33 0 4 18 36 41 71 46 72 52 73 105 13z m695
29 c-6 -8 -9 -17 -6 -20 3 -4 2 -5 -1 -2 -4 2 -15 -5 -25 -17 -11 -11 -19 -17
-19 -12 0 10 48 64 57 64 3 0 0 -6 -6 -13z m-415 -82 c30 -14 71 -25 90 -25
20 0 34 -4 32 -9 -1 -6 -27 -37 -57 -70 l-54 -60 -31 23 c-17 13 -52 29 -79
37 -28 8 -46 18 -43 25 8 21 71 103 79 103 5 1 33 -10 63 -24z m-3203 -21 c47
-16 56 -28 58 -79 0 -11 2 -78 4 -150 2 -71 9 -159 14 -195 20 -132 21 -150
11 -150 -5 0 -10 4 -10 9 0 4 -17 20 -37 33 -41 28 -113 97 -113 109 0 4 -18
40 -41 79 -49 87 -58 144 -26 162 25 13 57 47 57 60 0 5 5 6 11 2 8 -5 10 13
7 60 -2 40 0 67 7 70 5 2 10 5 11 5 0 1 22 -6 47 -15z m3517 -19 c-6 -8 -17
-12 -24 -9 -6 2 -30 -10 -51 -28 -96 -80 -111 -88 -149 -80 l-36 7 55 56 c53
55 57 56 99 52 28 -4 53 0 72 10 32 17 51 12 34 -8z m-828 -51 c3 -28 -5 -49
-41 -110 l-46 -74 -9 36 c-6 25 -12 34 -23 30 -9 -4 -1 10 16 29 17 19 38 50
47 68 34 67 50 73 56 21z m-2569 -48 c9 -20 19 -53 22 -74 2 -20 6 -56 9 -79
3 -24 13 -57 22 -75 9 -18 23 -59 31 -92 7 -33 20 -67 27 -76 25 -28 66 -107
66 -125 0 -10 6 -26 14 -34 15 -17 34 -108 42 -196 3 -45 3 -47 -7 -20 -5 17
-12 41 -15 54 -3 13 -14 36 -24 51 -11 15 -17 30 -14 32 3 3 -10 22 -29 42
-19 20 -32 36 -29 36 10 0 -53 51 -88 71 l-35 20 -2 77 c-1 43 -6 89 -11 102
-9 24 -8 77 1 185 2 28 -2 67 -9 89 -17 48 -17 59 -1 54 6 -3 20 -21 30 -42z
m3026 -12 l56 -25 -52 -47 c-28 -26 -70 -64 -93 -84 l-42 -37 -39 19 c-21 11
-47 20 -58 20 -26 0 -51 10 -51 21 0 5 37 46 81 90 92 92 93 92 198 43z m-368
-61 c59 -61 58 -74 -3 -140 -79 -86 -81 -87 -95 -54 -7 16 -29 42 -49 59 l-37
30 57 81 c64 91 64 91 127 24z m516 23 c-2 -5 -28 -23 -58 -39 -48 -26 -84
-52 -141 -102 -10 -8 -25 -15 -34 -15 -11 0 -6 10 17 35 18 18 36 32 40 29 4
-2 31 18 61 44 29 27 60 51 68 54 23 8 51 5 47 -6z m-731 -71 c10 -41 -2 -76
-53 -155 l-48 -74 -6 40 c-3 21 -9 50 -13 64 -5 21 2 33 43 75 28 28 50 56 51
63 0 22 19 13 26 -13z m397 -81 l37 -18 -26 -27 c-14 -15 -33 -25 -40 -22 -14
5 -20 -12 -6 -20 4 -2 1 -2 -5 -1 -7 2 -16 -2 -20 -9 -5 -7 -18 -20 -29 -30
-20 -17 -24 -17 -89 1 l-67 18 46 46 c25 26 46 50 46 54 0 4 7 15 15 24 18 20
77 13 138 -16z m-340 -46 c54 -52 53 -61 -8 -138 -67 -84 -71 -86 -86 -58 -6
13 -22 34 -34 48 l-23 25 51 78 c28 42 54 77 58 77 4 0 23 -15 42 -32z m426 9
c-2 -2 -29 -24 -60 -50 -67 -56 -90 -63 -34 -9 49 46 87 73 94 67 2 -3 2 -6 0
-8z m-621 -38 c16 -26 6 -123 -14 -140 -8 -6 -24 -29 -36 -50 -30 -53 -43 -55
-58 -6 -6 23 -18 52 -26 64 -9 14 -10 24 -4 28 6 3 10 17 10 30 0 31 63 95 93
95 12 0 28 -9 35 -21z m-128 -19 c0 -5 -2 -10 -4 -10 -3 0 -8 5 -11 10 -3 6
-1 10 4 10 6 0 11 -4 11 -10z m477 -55 c27 -4 43 -13 43 -25 0 -5 -35 -43 -77
-84 l-77 -75 -30 16 c-17 9 -41 19 -53 22 -22 6 -19 11 42 76 35 39 64 74 65
79 0 5 15 5 33 1 17 -4 42 -8 54 -10z m-611 -59 c-3 -17 -15 -39 -26 -49 -24
-20 -27 -49 -5 -41 8 4 15 5 15 3 0 -2 4 -30 10 -61 5 -36 5 -80 0 -115 -9
-53 -15 -63 -66 -110 -81 -77 -102 -67 -57 27 31 65 53 144 64 230 10 85 14
101 36 149 13 30 17 32 25 17 6 -10 7 -32 4 -50z m655 -27 c-40 -39 -75 -68
-78 -65 -6 6 77 85 90 86 4 0 7 5 7 11 0 5 -5 7 -12 3 -7 -4 -8 -3 -4 4 4 6
13 9 20 6 7 -3 19 2 26 11 7 8 15 15 19 15 3 0 -27 -32 -68 -71z m-316 -23
l18 -33 -69 -83 -68 -83 -8 30 c-4 17 -15 36 -23 43 -16 14 -20 40 -6 40 5 0
30 34 57 75 53 83 60 83 99 11z m-216 25 c16 -37 9 -133 -12 -163 -20 -30 -82
-98 -89 -98 -3 0 -6 35 -6 78 0 42 -5 89 -10 103 -13 32 -4 46 52 83 48 32 51
32 65 -3z m322 -98 c23 -14 27 -22 23 -42 -5 -24 -4 -25 10 -8 8 10 21 17 30
15 12 -2 7 -13 -22 -46 -20 -24 -46 -54 -57 -69 -12 -14 -28 -24 -38 -22 -15
3 -11 12 23 53 22 26 40 53 40 59 0 10 -14 -5 -72 -74 -29 -35 -30 -36 -66
-23 -21 7 -45 13 -54 14 -24 0 -23 3 13 53 73 101 114 123 170 90z m-268 -70
c35 -69 33 -78 -48 -175 -7 -9 -11 -19 -8 -22 4 -3 1 -6 -6 -6 -7 0 -10 -3 -7
-8 2 -4 -7 -25 -20 -47 l-24 -40 0 30 c0 17 -11 54 -25 84 l-25 53 33 32 c18
17 50 52 71 79 21 26 40 47 42 47 2 0 10 -12 17 -27z m156 -119 c5 -5 -30 -76
-45 -92 -8 -7 -21 -35 -31 -62 l-17 -48 -76 5 c-41 3 -76 7 -78 8 -2 2 19 40
47 85 28 45 51 84 51 87 0 3 10 15 22 28 21 22 23 22 72 8 28 -8 53 -17 55
-19z m37 -40 c-19 -20 -39 -49 -44 -63 -6 -14 -14 -35 -18 -46 -4 -11 -6 -23
-6 -27 1 -5 -3 -8 -9 -8 -5 0 -7 -5 -4 -10 3 -6 -1 -13 -10 -16 -23 -9 -26 -2
-11 26 89 168 97 180 123 180 7 0 -3 -16 -21 -36z m-346 -38 c31 -69 33 -115
7 -156 -13 -19 -36 -62 -52 -94 -21 -41 -31 -53 -33 -40 -6 39 -46 140 -69
176 l-25 37 33 28 c19 15 50 43 69 60 19 18 38 33 42 33 4 0 17 -20 28 -44z
m-201 -62 c-7 -8 -21 -20 -32 -26 -15 -8 -14 -2 9 27 15 21 30 32 32 26 2 -6
-2 -19 -9 -27z m48 -91 c17 -32 38 -89 48 -126 16 -69 16 -69 -7 -105 -13 -21
-35 -58 -48 -84 -24 -46 -40 -61 -40 -37 0 19 -68 157 -105 213 l-36 54 72 71
c39 39 74 71 79 71 4 0 21 -26 37 -57z m326 11 c22 -5 27 -10 22 -22 -4 -10
-11 -34 -16 -55 -5 -20 -19 -60 -31 -88 -22 -49 -23 -50 -58 -45 -19 3 -61 8
-93 11 -68 8 -68 2 -1 117 25 42 53 79 62 81 28 6 85 7 115 1z m-464 -21 c-39
-50 -63 -61 -27 -13 12 17 26 30 31 30 5 0 3 -8 -4 -17z m527 -11 c-10 -17
-44 -156 -40 -164 3 -4 -5 -12 -16 -18 -24 -13 -24 -12 -4 53 25 82 48 137 57
137 5 0 6 -4 3 -8z m-2151 -82 c-3 -5 -12 -10 -18 -10 -7 0 -6 4 3 10 19 12
23 12 15 0z m1621 -89 c20 -36 49 -96 64 -132 l27 -67 -39 -72 c-21 -40 -38
-80 -39 -89 0 -9 -10 12 -23 46 -29 78 -73 146 -130 202 l-45 44 16 31 c9 17
34 55 56 84 38 50 41 52 58 36 10 -9 35 -47 55 -83z m336 -26 c37 -4 70 -11
73 -16 3 -4 -5 -37 -19 -71 -13 -35 -27 -73 -31 -85 -8 -27 -11 -27 -67 -8
-24 8 -71 18 -105 22 l-62 8 36 60 c20 33 42 70 50 83 9 15 20 21 36 18 12 -3
52 -8 89 -11z m133 -32 c-4 -10 -13 -37 -20 -59 -20 -63 -45 -108 -56 -97 -10
10 36 154 54 165 20 13 30 9 22 -9z m-598 -97 c80 -87 133 -217 108 -261 -41
-71 -46 -76 -58 -63 -7 7 -25 32 -41 56 -16 24 -43 55 -60 69 -28 23 -30 30
-28 82 2 31 5 72 7 91 2 19 4 45 4 58 1 33 14 27 68 -32z m411 -73 c29 -8 52
-18 50 -21 -2 -4 -20 -42 -42 -85 -42 -88 -30 -83 -141 -53 -32 9 -72 16 -87
16 -32 0 -33 2 -14 38 8 15 25 48 37 74 29 62 66 67 197 31z m89 -40 c-8 -10
-23 -32 -31 -48 -9 -17 -16 -24 -16 -17 0 27 47 98 58 87 3 -3 -2 -13 -11 -22z
m-480 -212 l23 -40 -24 -28 c-20 -23 -28 -26 -42 -17 -19 11 -39 74 -49 157
l-6 52 38 -42 c21 -23 48 -59 60 -82z m245 68 c29 -6 59 -16 66 -21 6 -6 12
-7 12 -3 0 5 3 5 7 2 3 -4 -6 -18 -20 -31 -15 -14 -27 -21 -27 -17 0 5 7 14
15 21 9 7 14 15 11 17 -5 5 -98 -64 -108 -80 -4 -7 -15 -7 -35 1 -15 6 -45 14
-65 18 -21 3 -38 8 -38 10 0 7 32 56 48 77 17 20 58 22 134 6z m18 -93 c0 -2
-7 -7 -16 -10 -8 -3 -12 -2 -9 4 6 10 25 14 25 6z m-103 -52 c2 -6 -17 -20
-42 -31 -38 -16 -53 -18 -85 -10 l-38 11 25 31 25 32 56 -11 c31 -7 57 -16 59
-22z"/>
<path d="M6550 6690 c0 -5 9 -10 20 -10 11 0 20 5 20 10 0 6 -9 10 -20 10 -11
0 -20 -4 -20 -10z"/>
<path d="M5215 6290 c-3 -6 1 -7 9 -4 18 7 21 14 7 14 -6 0 -13 -4 -16 -10z"/>
<path d="M6915 6380 c3 -5 10 -10 16 -10 5 0 9 5 9 10 0 6 -7 10 -16 10 -8 0
-12 -4 -9 -10z"/>
<path d="M2310 5743 c0 -4 5 -15 10 -23 8 -13 10 -13 10 2 0 9 -4 20 -10 23
-5 3 -10 3 -10 -2z"/>
<path d="M3264 5222 c8 -14 86 -53 86 -44 0 5 -17 17 -37 27 -55 28 -56 29
-49 17z"/>
<path d="M2582 4574 c-41 -31 -71 -58 -68 -61 5 -6 156 104 156 113 0 11 -21
-2 -88 -52z"/>
<path d="M3020 3993 c0 -17 64 -136 68 -125 4 12 -31 91 -52 117 -8 11 -16 15
-16 8z"/>
<path d="M3161 3941 c-11 -7 -12 -13 -3 -23 9 -11 9 -17 0 -26 -8 -8 -1 -22
27 -54 57 -63 123 -120 133 -114 5 3 22 -8 38 -25 16 -17 36 -35 46 -40 28
-15 10 25 -28 62 -19 18 -34 38 -34 44 0 7 -25 36 -55 66 -31 30 -65 69 -76
87 -22 34 -26 37 -48 23z m134 -181 c10 -11 16 -20 13 -20 -3 0 -13 9 -23 20
-10 11 -16 20 -13 20 3 0 13 -9 23 -20z"/>
<path d="M5920 2805 c0 -8 2 -15 4 -15 2 0 6 7 10 15 3 8 1 15 -4 15 -6 0 -10
-7 -10 -15z"/>
<path d="M1940 3500 c0 -5 4 -10 9 -10 6 0 13 5 16 10 3 6 -1 10 -9 10 -9 0
-16 -4 -16 -10z"/>
<path d="M1950 3460 c-8 -5 -12 -12 -9 -15 4 -3 12 1 19 10 14 17 11 19 -10 5z"/>
<path d="M1711 3434 c-19 -8 -32 -17 -29 -19 7 -8 68 16 68 26 0 11 2 11 -39
-7z"/>
<path d="M1807 3433 c-4 -3 -7 -11 -7 -17 0 -6 5 -5 12 2 6 6 9 14 7 17 -3 3
-9 2 -12 -2z"/>
<path d="M1910 3429 c0 -5 5 -7 10 -4 6 3 10 8 10 11 0 2 -4 4 -10 4 -5 0 -10
-5 -10 -11z"/>
<path d="M2080 3420 c0 -5 7 -7 15 -4 8 4 15 8 15 10 0 2 -7 4 -15 4 -8 0 -15
-4 -15 -10z"/>
<path d="M1743 3400 c-13 -5 -23 -14 -23 -20 0 -16 15 -12 35 10 20 22 20 23
-12 10z"/>
<path d="M2130 3400 c0 -5 7 -7 15 -4 8 4 15 8 15 10 0 2 -7 4 -15 4 -8 0 -15
-4 -15 -10z"/>
<path d="M1840 3390 c-8 -5 -10 -10 -5 -10 6 0 17 5 25 10 8 5 11 10 5 10 -5
0 -17 -5 -25 -10z"/>
<path d="M1915 3380 c-3 -5 -2 -10 4 -10 5 0 13 5 16 10 3 6 2 10 -4 10 -5 0
-13 -4 -16 -10z"/>
<path d="M2080 3369 c0 -5 5 -7 10 -4 6 3 10 8 10 11 0 2 -4 4 -10 4 -5 0 -10
-5 -10 -11z"/>
<path d="M1775 3360 c-3 -5 1 -10 10 -10 9 0 13 5 10 10 -3 6 -8 10 -10 10 -2
0 -7 -4 -10 -10z"/>
<path d="M1635 3340 c-3 -5 -2 -10 4 -10 5 0 13 5 16 10 3 6 2 10 -4 10 -5 0
-13 -4 -16 -10z"/>
<path d="M1708 3326 c-21 -11 -38 -24 -38 -28 0 -8 67 27 85 43 16 15 -8 8
-47 -15z"/>
<path d="M1640 3289 c0 -5 5 -7 10 -4 6 3 10 8 10 11 0 2 -4 4 -10 4 -5 0 -10
-5 -10 -11z"/>
<path d="M1730 3290 c-8 -5 -10 -10 -5 -10 6 0 17 5 25 10 8 5 11 10 5 10 -5
0 -17 -5 -25 -10z"/>
<path d="M1653 3259 c-18 -5 -33 -12 -33 -15 0 -8 63 6 75 17 11 11 1 10 -42
-2z"/>
<path d="M1720 3140 c0 -5 4 -10 9 -10 6 0 13 5 16 10 3 6 -1 10 -9 10 -9 0
-16 -4 -16 -10z"/>
<path d="M1650 3030 c-12 -8 -11 -10 8 -10 12 0 22 5 22 10 0 13 -11 13 -30 0z"/>
<path d="M1765 2590 c3 -5 8 -10 11 -10 2 0 4 5 4 10 0 6 -5 10 -11 10 -5 0
-7 -4 -4 -10z"/>
<path d="M1815 2440 c3 -5 8 -10 11 -10 2 0 4 5 4 10 0 6 -5 10 -11 10 -5 0
-7 -4 -4 -10z"/>
<path d="M1950 2379 c0 -5 5 -7 10 -4 6 3 10 8 10 11 0 2 -4 4 -10 4 -5 0 -10
-5 -10 -11z"/>
<path d="M1966 2274 c-5 -14 -4 -15 9 -4 17 14 19 20 6 20 -5 0 -12 -7 -15
-16z"/>
<path d="M1818 2273 c7 -3 16 -2 19 1 4 3 -2 6 -13 5 -11 0 -14 -3 -6 -6z"/>
<path d="M1970 2219 c0 -5 5 -7 10 -4 6 3 10 8 10 11 0 2 -4 4 -10 4 -5 0 -10
-5 -10 -11z"/>
<path d="M1920 2199 c0 -5 5 -7 10 -4 6 3 10 8 10 11 0 2 -4 4 -10 4 -5 0 -10
-5 -10 -11z"/>
<path d="M2157 2196 c-4 -9 -14 -12 -25 -9 -11 2 -22 1 -25 -4 -10 -15 40 -13
53 2 7 9 11 18 8 21 -3 3 -8 -2 -11 -10z"/>
<path d="M1920 2159 c0 -5 5 -7 10 -4 6 3 10 8 10 11 0 2 -4 4 -10 4 -5 0 -10
-5 -10 -11z"/>
<path d="M2165 2060 c-3 -5 -1 -10 4 -10 6 0 11 5 11 10 0 6 -2 10 -4 10 -3 0
-8 -4 -11 -10z"/>
<path d="M2020 2048 c0 -5 12 -5 28 -2 39 10 41 15 4 12 -18 -1 -32 -6 -32
-10z"/>
<path d="M2271 1851 c-8 -5 -9 -11 -3 -15 5 -3 12 1 16 9 6 17 6 18 -13 6z"/>
<path d="M2311 1819 c-13 -11 -22 -21 -20 -23 2 -3 15 4 28 15 13 11 22 21 20
23 -2 3 -15 -4 -28 -15z"/>
<path d="M2370 1785 c-11 -13 -10 -14 4 -9 9 3 16 10 16 15 0 13 -6 11 -20 -6z"/>
<path d="M2380 1720 c-8 -5 -12 -11 -9 -14 2 -3 11 -1 19 4 8 5 12 11 9 14 -2
3 -11 1 -19 -4z"/>
<path d="M2680 1652 c0 -4 10 -9 22 -9 18 -2 20 0 8 7 -18 12 -30 13 -30 2z"/>
<path d="M2433 1626 c-31 -15 -29 -28 2 -14 14 6 25 15 25 20 0 4 -1 7 -2 7
-2 -1 -13 -6 -25 -13z"/>
<path d="M2650 1630 c0 -5 5 -10 10 -10 6 0 10 5 10 10 0 6 -4 10 -10 10 -5 0
-10 -4 -10 -10z"/>
<path d="M2820 1600 c0 -5 5 -10 10 -10 6 0 10 5 10 10 0 6 -4 10 -10 10 -5 0
-10 -4 -10 -10z"/>
<path d="M2440 1584 c0 -14 3 -14 15 -4 8 7 15 14 15 16 0 2 -7 4 -15 4 -8 0
-15 -7 -15 -16z"/>
<path d="M2752 1583 c-48 -23 -31 -28 20 -5 23 11 36 21 28 21 -8 0 -30 -7
-48 -16z"/>
<path d="M2550 1570 c-13 -8 -12 -10 3 -10 9 0 17 5 17 10 0 12 -1 12 -20 0z"/>
<path d="M2755 1544 c-44 -19 -83 -34 -86 -34 -4 0 -29 -10 -56 -22 -26 -11
-54 -22 -61 -24 -22 -4 -27 -14 -13 -23 19 -12 53 -1 58 20 3 9 14 19 25 22
14 4 18 1 14 -8 -4 -11 1 -12 27 -3 18 6 37 16 42 22 6 6 15 11 20 11 25 1 94
29 90 36 -3 4 4 10 15 14 19 6 29 26 13 24 -5 0 -44 -16 -88 -35z"/>
<path d="M2498 1563 c6 -2 18 -2 25 0 6 3 1 5 -13 5 -14 0 -19 -2 -12 -5z"/>
<path d="M2690 1549 c0 -5 5 -7 10 -4 6 3 10 8 10 11 0 2 -4 4 -10 4 -5 0 -10
-5 -10 -11z"/>
<path d="M2485 1540 c-3 -6 1 -7 9 -4 18 7 21 14 7 14 -6 0 -13 -4 -16 -10z"/>
<path d="M2895 1530 c-3 -5 -1 -10 4 -10 6 0 11 5 11 10 0 6 -2 10 -4 10 -3 0
-8 -4 -11 -10z"/>
<path d="M2565 1506 c-32 -13 -61 -29 -63 -35 -5 -16 13 -14 28 4 7 8 22 15
34 15 11 0 30 7 40 15 10 8 23 12 27 9 5 -3 9 0 9 5 0 14 -5 14 -75 -13z"/>
<path d="M2970 1520 c-8 -5 -10 -10 -5 -10 6 0 17 5 25 10 8 5 11 10 5 10 -5
0 -17 -5 -25 -10z"/>
<path d="M2745 1486 c-16 -7 -43 -19 -59 -25 -16 -6 -26 -14 -23 -17 3 -3 27
4 53 15 34 15 50 18 55 10 5 -8 8 -8 13 0 4 6 2 11 -4 11 -6 0 -8 5 -5 10 8
13 6 12 -30 -4z"/>
<path d="M2525 1420 c-3 -5 1 -10 9 -10 9 0 16 -5 16 -12 0 -6 2 -9 5 -6 7 7
-5 38 -15 38 -5 0 -12 -4 -15 -10z"/>
<path d="M2585 1420 c-3 -5 1 -10 9 -10 8 0 18 5 21 10 3 6 -1 10 -9 10 -8 0
-18 -4 -21 -10z"/>
<path d="M2686 1404 c-4 -10 -1 -14 6 -12 15 5 23 28 10 28 -5 0 -13 -7 -16
-16z"/>
<path d="M2675 1340 c-3 -6 1 -7 9 -4 18 7 21 14 7 14 -6 0 -13 -4 -16 -10z"/>
<path d="M2778 1343 c7 -3 16 -2 19 1 4 3 -2 6 -13 5 -11 0 -14 -3 -6 -6z"/>
<path d="M3035 1330 c-3 -5 -1 -10 4 -10 6 0 11 5 11 10 0 6 -2 10 -4 10 -3 0
-8 -4 -11 -10z"/>
<path d="M2730 1319 c0 -5 5 -7 10 -4 6 3 10 8 10 11 0 2 -4 4 -10 4 -5 0 -10
-5 -10 -11z"/>
<path d="M2600 1310 c0 -5 7 -10 15 -10 8 0 15 5 15 10 0 6 -7 10 -15 10 -8 0
-15 -4 -15 -10z"/>
<path d="M2648 1283 c7 -3 16 -2 19 1 4 3 -2 6 -13 5 -11 0 -14 -3 -6 -6z"/>
<path d="M2890 1275 c-19 -23 -8 -25 14 -4 11 11 15 19 9 19 -6 0 -16 -7 -23
-15z"/>
<path d="M2829 1261 c-20 -4 -24 -9 -15 -17 8 -7 17 -5 30 8 11 10 18 17 15
17 -2 -1 -16 -4 -30 -8z"/>
<path d="M3014 1235 c-4 -8 -11 -12 -17 -8 -6 3 -7 1 -3 -6 4 -6 0 -13 -8 -16
-9 -3 -24 -8 -33 -12 -10 -3 -21 -5 -25 -5 -5 1 -8 -2 -8 -8 0 -5 3 -10 8 -10
16 0 103 37 115 49 9 10 8 11 -6 5 -13 -5 -16 -2 -11 10 3 9 3 16 0 16 -4 0
-9 -7 -12 -15z"/>
<path d="M2776 1225 c-9 -26 -7 -32 5 -12 6 10 9 21 6 23 -2 3 -7 -2 -11 -11z"/>
<path d="M2667 1214 c-10 -10 30 -47 45 -41 8 3 5 6 -6 6 -20 1 -20 1 0 16 17
14 18 15 0 9 -10 -4 -21 -2 -25 5 -4 6 -10 9 -14 5z"/>
<path d="M3056 1201 c-14 -5 -16 -10 -8 -15 17 -10 15 -26 -4 -26 -8 0 -13 4
-10 9 3 5 -6 9 -19 9 -14 0 -25 -5 -25 -10 0 -5 4 -7 9 -3 5 3 12 1 16 -5 3
-5 -3 -10 -14 -10 -29 0 -69 -20 -76 -38 -8 -23 10 -36 32 -23 10 6 14 11 8
11 -15 0 81 49 107 54 13 3 25 5 28 6 3 1 -5 5 -18 11 -13 5 -20 13 -17 19 4
6 11 8 16 5 5 -4 9 -1 9 4 0 12 -7 13 -34 2z"/>
<path d="M2730 1190 c0 -5 7 -7 15 -4 8 4 15 8 15 10 0 2 -7 4 -15 4 -8 0 -15
-4 -15 -10z"/>
<path d="M2862 1182 c-25 -12 -31 -20 -26 -35 4 -12 2 -17 -4 -13 -5 3 -15 -1
-21 -8 -10 -12 -7 -13 23 -4 30 9 34 14 24 26 -11 12 -8 14 20 8 30 -7 32 -6
30 18 -3 29 -1 29 -46 8z"/>
<path d="M2758 1173 c-10 -2 -18 -9 -18 -14 0 -14 26 -11 40 6 13 15 9 16 -22
8z"/>
<path d="M2800 1149 c0 -5 5 -7 10 -4 6 3 10 8 10 11 0 2 -4 4 -10 4 -5 0 -10
-5 -10 -11z"/>
<path d="M2830 1106 c0 -2 7 -7 16 -10 8 -3 12 -2 9 4 -6 10 -25 14 -25 6z"/>
<path d="M4604 3474 c-1 -13 2 -21 7 -18 11 6 12 31 2 37 -5 3 -9 -6 -9 -19z"/>
<path d="M3100 3260 c0 -5 5 -10 10 -10 6 0 10 5 10 10 0 6 -4 10 -10 10 -5 0
-10 -4 -10 -10z"/>
<path d="M45 7040 c10 -11 20 -20 22 -20 2 0 -2 9 -9 20 -7 11 -17 20 -22 20
-5 0 -1 -9 9 -20z"/>
<path d="M0 6870 c0 -5 5 -10 10 -10 6 0 10 5 10 10 0 6 -4 10 -10 10 -5 0
-10 -4 -10 -10z"/>
<path d="M95 6870 c-3 -6 1 -7 9 -4 18 7 21 14 7 14 -6 0 -13 -4 -16 -10z"/>
<path d="M50 6850 c-8 -5 -11 -12 -8 -16 4 -3 14 1 23 10 18 17 9 21 -15 6z"/>
<path d="M59 6776 c-7 -14 -20 -28 -31 -31 -21 -7 -24 -25 -4 -25 15 0 61 69
52 78 -3 2 -11 -7 -17 -22z"/>
<path d="M3858 6793 c7 -3 16 -2 19 1 4 3 -2 6 -13 5 -11 0 -14 -3 -6 -6z"/>
<path d="M185 6760 c-3 -5 -22 -10 -42 -10 -30 0 -34 -2 -23 -14 13 -16 43 -9
83 19 17 12 18 15 5 15 -9 0 -20 -4 -23 -10z"/>
<path d="M9106 6207 c-20 -14 -37 -89 -26 -107 4 -6 10 8 14 31 4 24 14 51 23
61 20 23 13 32 -11 15z"/>
<path d="M8830 6197 c-19 -15 -26 -92 -9 -103 9 -5 10 -1 6 16 -9 35 9 60 43
60 16 0 32 5 36 11 5 8 -3 10 -24 7 -20 -3 -32 0 -34 8 -2 10 -6 10 -18 1z"/>
<path d="M8940 6191 c0 -4 11 -6 25 -3 14 2 25 6 25 8 0 2 -11 4 -25 4 -14 0
-25 -4 -25 -9z"/>
<path d="M9000 6190 c0 -5 5 -10 10 -10 6 0 10 5 10 10 0 6 -4 10 -10 10 -5 0
-10 -4 -10 -10z"/>
<path d="M481 6183 c0 -8 106 -98 143 -122 11 -7 -8 15 -44 49 -64 61 -101 88
-99 73z"/>
<path d="M8761 6178 c-14 -5 -45 -6 -69 -2 -33 5 -43 4 -38 -5 4 -6 13 -11 19
-10 39 5 47 -2 48 -38 1 -21 5 -49 10 -63 6 -18 8 -10 6 34 -2 59 -2 59 32 71
19 6 31 14 25 17 -5 3 -20 2 -33 -4z"/>
<path d="M8280 6049 c0 -5 5 -7 10 -4 6 3 10 8 10 11 0 2 -4 4 -10 4 -5 0 -10
-5 -10 -11z"/>
<path d="M685 6000 c10 -11 20 -20 23 -20 3 0 -3 9 -13 20 -10 11 -20 20 -23
20 -3 0 3 -9 13 -20z"/>
<path d="M9738 5963 c7 -3 16 -2 19 1 4 3 -2 6 -13 5 -11 0 -14 -3 -6 -6z"/>
<path d="M9100 5919 c0 -5 5 -7 10 -4 6 3 10 8 10 11 0 2 -4 4 -10 4 -5 0 -10
-5 -10 -11z"/>
<path d="M9112 5790 c0 -14 2 -19 5 -12 2 6 2 18 0 25 -3 6 -5 1 -5 -13z"/>
<path d="M8840 5731 c0 -17 5 -33 10 -36 6 -4 10 8 10 29 0 20 -4 36 -10 36
-5 0 -10 -13 -10 -29z"/>
<path d="M8950 5755 c0 -5 5 -17 10 -25 5 -8 10 -10 10 -5 0 6 -5 17 -10 25
-5 8 -10 11 -10 5z"/>
<path d="M6000 5619 c0 -5 5 -7 10 -4 6 3 10 8 10 11 0 2 -4 4 -10 4 -5 0 -10
-5 -10 -11z"/>
<path d="M2255 5240 c3 -5 8 -10 11 -10 2 0 4 5 4 10 0 6 -5 10 -11 10 -5 0
-7 -4 -4 -10z"/>
<path d="M5951 5194 c0 -11 3 -14 6 -6 3 7 2 16 -1 19 -3 4 -6 -2 -5 -13z"/>
<path d="M5673 5154 c-9 -9 -10 -20 -3 -38 8 -22 4 -31 -26 -63 -28 -30 -37
-34 -44 -23 -18 30 -21 -1 -5 -44 17 -43 17 -50 1 -104 -22 -78 -20 -108 4
-56 10 23 22 44 27 47 5 3 6 32 3 65 l-6 60 32 11 c39 14 55 52 47 110 -6 47
-13 55 -30 35z"/>
<path d="M5744 4986 c10 -41 -44 -140 -57 -104 -2 7 -8 10 -12 6 -5 -5 -3 -19
3 -33 17 -37 15 -60 -8 -97 -21 -35 -27 -74 -10 -63 6 3 10 1 10 -6 0 -15 11
-6 14 13 1 7 10 34 20 59 14 38 16 51 6 69 -6 12 -9 24 -6 28 3 3 6 2 6 -2 0
-13 60 25 71 45 8 17 7 31 -6 65 -18 46 -42 62 -31 20z"/>
<path d="M5809 4854 c-1 -5 -1 -18 0 -29 1 -12 -9 -31 -23 -44 -23 -22 -25
-22 -35 -4 -12 20 -12 19 -16 -52 -2 -27 -6 -70 -10 -93 -4 -30 -3 -42 4 -37
6 3 11 13 11 21 0 8 6 25 14 37 8 12 16 31 18 42 2 10 18 32 36 48 36 32 44
84 17 107 -8 7 -15 9 -16 4z"/>
<path d="M2170 3680 c0 -5 5 -10 10 -10 6 0 10 5 10 10 0 6 -4 10 -10 10 -5 0
-10 -4 -10 -10z"/>
<path d="M4170 3516 c0 -9 5 -16 10 -16 6 0 10 4 10 9 0 6 -4 13 -10 16 -5 3
-10 -1 -10 -9z"/>
</g>
</svg>
