<?xml version="1.0" standalone="no"?>
<!DOCTYPE svg PUBLIC "-//W3C//DTD SVG 20010904//EN"
 "http://www.w3.org/TR/2001/REC-SVG-20010904/DTD/svg10.dtd">
<svg version="1.0" xmlns="http://www.w3.org/2000/svg"
 width="820.000000pt" height="954.000000pt" viewBox="0 0 820.000000 954.000000"
 preserveAspectRatio="xMidYMid meet">
<metadata>
Created by potrace 1.16, written by Peter Selinger 2001-2019
</metadata>
<g transform="translate(0.000000,954.000000) scale(0.100000,-0.100000)"
fill="#000000" stroke="none">
<path d="M2350 9061 c-882 -152 -1548 -327 -2010 -528 -109 -47 -206 -99 -215
-114 -3 -4 -1 -16 4 -26 18 -33 40 -146 56 -288 46 -399 156 -782 329 -1149
147 -311 343 -600 589 -868 75 -82 106 -126 133 -183 19 -42 40 -75 47 -72 6
2 24 47 39 101 60 207 95 243 343 355 293 133 628 250 793 278 l94 16 106 -28
c163 -41 547 -171 639 -215 76 -37 123 -77 123 -105 0 -22 -555 -44 -662 -25
-89 15 -137 0 -162 -49 -32 -61 -217 -188 -681 -466 -398 -239 -475 -281 -550
-298 l-60 -13 -7 -60 c-3 -32 -9 -149 -13 -259 -9 -234 2 -332 65 -584 102
-406 304 -937 676 -1781 111 -254 484 -986 821 -1615 73 -136 106 -180 75
-100 -11 28 -118 286 -237 575 -258 624 -574 1404 -658 1620 -143 373 -288
828 -386 1210 -81 317 -84 340 -78 540 8 254 45 367 150 453 53 43 215 145
517 324 413 245 444 262 505 277 35 8 169 20 320 27 143 6 291 14 329 16 138
9 110 -31 -89 -127 -224 -109 -363 -160 -434 -160 -49 0 -65 -4 -90 -25 -16
-14 -33 -35 -36 -46 -4 -12 -79 -111 -168 -222 l-161 -201 18 -116 c9 -63 23
-234 32 -380 24 -438 88 -1138 145 -1580 55 -434 206 -982 443 -1603 187 -491
480 -1127 507 -1100 6 6 -14 72 -47 159 -256 678 -472 1474 -619 2274 -121
659 -158 1081 -159 1805 -1 428 0 442 22 520 25 90 114 274 148 306 14 13 124
53 290 106 280 88 289 92 394 188 l55 50 3 -28 c4 -37 -30 -137 -75 -217 -85
-154 -83 -147 -83 -242 0 -181 50 -552 106 -792 61 -263 154 -545 251 -761 77
-172 181 -355 203 -355 5 0 14 17 20 38 27 87 57 90 80 7 7 -25 18 -45 24 -45
24 0 137 200 215 380 189 442 302 909 341 1413 13 167 5 221 -49 304 -65 101
-127 272 -103 286 5 4 44 -25 86 -63 87 -78 76 -73 401 -175 154 -49 246 -83
257 -96 33 -39 99 -171 128 -257 48 -142 54 -260 41 -743 -19 -708 -51 -1033
-161 -1628 -151 -817 -340 -1518 -606 -2239 -93 -253 -80 -269 34 -44 355 696
704 1692 826 2352 53 288 147 1251 176 1805 10 180 23 308 45 440 5 27 -10 49
-140 210 -80 99 -162 205 -180 236 -39 64 -61 76 -150 82 -73 4 -187 48 -412
157 -214 104 -235 138 -80 127 39 -3 182 -10 317 -16 260 -12 331 -21 395 -54
57 -29 519 -301 727 -429 208 -128 268 -179 309 -261 54 -105 79 -319 60 -507
-23 -231 -227 -946 -411 -1440 -103 -277 -448 -1128 -844 -2085 -174 -420
-163 -406 149 185 238 450 544 1056 620 1225 498 1118 734 1802 771 2235 6 69
-8 351 -22 463 -6 41 -10 47 -30 47 -13 0 -52 11 -87 24 -106 40 -927 531
-1027 615 -25 21 -64 50 -88 66 -24 16 -52 45 -62 66 -28 53 -68 65 -170 48
-64 -10 -134 -10 -367 0 -158 7 -290 15 -292 17 -7 7 29 53 61 78 45 34 169
82 421 165 319 104 370 115 465 101 107 -17 281 -68 472 -140 202 -77 458
-190 524 -232 80 -52 131 -146 176 -326 6 -24 16 -42 22 -40 7 3 30 41 53 85
29 58 64 106 126 170 499 524 843 1284 919 2028 13 123 48 285 61 285 22 0 5
21 -36 46 -232 136 -790 321 -1365 453 -331 76 -1160 227 -1200 218 -8 -2 39
-16 105 -31 1014 -235 1662 -438 2055 -642 142 -74 172 -99 189 -153 14 -48
14 -190 1 -301 -51 -412 -319 -1038 -611 -1427 -90 -119 -173 -210 -212 -230
-42 -21 -79 -13 -263 60 -174 70 -717 265 -883 318 -94 29 -106 36 -133 73
-16 23 -33 47 -37 54 -6 10 -27 1 -87 -37 -144 -91 -481 -222 -675 -261 -115
-24 -149 -25 -174 -6 -18 13 -18 14 3 48 41 66 418 415 598 554 82 63 123 74
274 74 171 0 567 -45 763 -87 94 -19 161 -59 184 -108 9 -19 21 -34 26 -32 15
5 105 165 255 452 l136 260 7 215 c10 338 20 390 71 390 30 0 20 28 -20 55
-87 58 -697 184 -1182 244 -353 44 -940 76 -954 52 -4 -7 0 -11 11 -11 37 0
444 -51 603 -76 329 -51 697 -137 935 -217 133 -46 327 -125 344 -142 20 -19
25 -124 12 -269 -14 -166 -32 -231 -90 -341 -154 -288 -175 -310 -281 -302
-118 10 -873 96 -977 112 -132 21 -160 11 -199 -67 -19 -38 -68 -94 -173 -196
-162 -159 -587 -555 -601 -560 -11 -4 -18 22 -24 88 -5 50 -9 59 -51 97 -50
46 -151 91 -168 74 -7 -7 3 -23 31 -48 51 -47 72 -96 72 -169 0 -73 -16 -68
-49 17 -32 79 -51 85 -87 27 -48 -77 -62 -88 -116 -88 -65 0 -81 10 -118 75
-46 80 -59 73 -117 -60 l-18 -40 -3 69 c-4 83 6 111 59 162 75 73 39 83 -76
20 -75 -41 -105 -83 -105 -146 0 -25 -6 -54 -14 -65 -12 -17 -30 -3 -232 186
-363 337 -520 495 -551 555 -44 85 -62 90 -241 65 -147 -21 -824 -98 -937
-107 -99 -8 -115 5 -218 186 -99 173 -131 255 -146 380 -13 97 -14 319 -3 337
22 35 378 165 637 233 327 86 778 163 1198 205 43 4 65 10 61 17 -14 22 -621
-11 -949 -52 -362 -46 -880 -144 -1081 -205 -117 -36 -170 -84 -109 -99 14 -4
29 -17 34 -29 9 -23 29 -369 28 -492 l0 -70 130 -250 c186 -359 253 -475 274
-475 5 0 9 7 9 15 0 26 59 82 107 103 53 23 271 62 493 88 197 24 501 25 551
3 76 -35 552 -453 645 -567 77 -95 53 -115 -105 -89 -215 36 -582 180 -763
300 l-26 18 -35 -53 -36 -53 -178 -59 c-231 -76 -601 -209 -827 -298 -239 -93
-240 -93 -377 71 -238 285 -454 688 -589 1100 -109 331 -148 643 -95 756 54
113 624 346 1315 540 206 57 459 121 885 224 88 22 147 39 130 39 -16 0 -181
-26 -365 -57z"/>
</g>
</svg>
